<?xml version="1.0" standalone="no"?><!DOCTYPE svg PUBLIC "-//W3C//DTD SVG 1.1//EN" "http://www.w3.org/Graphics/SVG/1.1/DTD/svg11.dtd" ><svg xmlns="http://www.w3.org/2000/svg"><metadata></metadata><defs><font id="HappyZcool" horiz-adv-x="1000"><font-face font-family="HappyZcool" font-weight="400" font-stretch="normal" units-per-em="1000" panose-1="2 1 6 0 3 1 1 1 1 1" ascent="859" descent="-141" x-height="1" bbox="6 -153 931 772" underline-thickness="46" underline-position="-315" unicode-range="U+0023-ff0c" /><missing-glyph horiz-adv-x="1000" d="M270 91 l-76 19 l120 489 l76 -18 l-120 -490 l0 0 ZM209 -78 l-55 55 l46 47 l55 -55 l-46 -47 l0 0 Z" /><glyph glyph-name="numbersign" unicode="#" d="M582 414 l-536 0 l0 78 l536 0 l0 -78 ZM582 166 l-536 0 l0 78 l536 0 l0 -78 ZM356 -60 l40 706 l78 0 l-40 -706 l-78 0 ZM148 -60 l40 706 l78 0 l-40 -706 l-78 0 Z" /><glyph glyph-name="percent" unicode="%" d="M216 -149 l-64 44 l522 764 l64 -43 l-522 -765 l0 0 ZM130 413 l18 208 l234 0 l0 -204 l-252 -4 l0 0 ZM220 543 l-5 -51 l89 2 l0 49 l-84 0 l0 0 ZM642 -153 l-210 27 l52 192 l242 0 l-84 -219 l0 0 ZM530 -60 l62 -8 l21 56 l-70 0 l-13 -48 l0 0 Z" /><glyph glyph-name="ampersand" unicode="&amp;" d="M375 -133 l-235 283 l149 126 l-71 68 l-38 225 l349 164 l146 -233 l-270 -228 l141 -136 l227 216 l53 -56 l-224 -214 l45 -44 l96 95 l55 -55 l-150 -148 l-103 99 l-170 -162 l0 0 ZM249 140 l133 -159 l107 102 l-144 138 l-96 -81 l0 0 ZM290 383 l59 -57 l224 190 l-73 117 l-233 -110 l23 -140 l0 0 Z" /><glyph glyph-name="asterisk" unicode="*" d="M165 310 l-64 45 l94 124 l-128 53 l29 72 l120 -49 l0 127 l78 0 l0 -127 l121 49 l28 -72 l-127 -53 l104 -124 l-64 -45 l-101 119 l-90 -119 Z" /><glyph glyph-name="zero" unicode="0" d="M554 94 q0 -2 0.5 -5 q0.5 -3 -1.5 -5 q1 1 1 2 q0 -3 -3 -15 l-8 -48 q-1 -9 -8 -15 q-7 -6 -16 -6 l-4 0 l-390 63 q-11 2 -17 10 q-6 8 -5 18 l47 388 q2 11 9.5 17.5 q7.5 6.5 18.5 4.5 l26 -3 q-10 7 -10 19 l-2 32 q0 11 6.5 18.5 q6.5 7.5 17.5 7.5 l267 14 q11 1 18.5 -6 q7.5 -7 8.5 -17 l43 -462 q1 -5 1 -12 ZM233 496 q5 -1 12 -8 q5 -6 5 -19 l-37 -309 q-2 -7 6 -9 l247 -39 q0 0 1 -1 l2 1 q1 1 1 4 l-36 382 q0 8 -8 8 l-193 -10 Z" /><glyph glyph-name="one" unicode="1" d="M239 120 q11 0 18 -7.5 q7 -7.5 7 -17.5 l0 -32 q0 -11 -7 -18 q-7 -7 -18 -7 l-157 0 q-11 0 -18 7 q-7 7 -7 18 l0 32 q0 10 7 17.5 q7 7.5 18 7.5 l22 0 q3 0 6 2.5 q3 2.5 3 5.5 l47 357 l-15 -8 q-5 -3 -12 -3 q-14 0 -22 14 l-10 20 q-5 9 -2 19 q3 10 12 15 l99 52 q4 3 11 3 q15 0 23 -13 l7 -14 q5 -10 7 -12 q0 -1 1 -1 q2 -4 2 -5 q4 -7 -1 -12 q0 -2 -0.5 -5 q-0.5 -3 -1.5 -8 l-53 -401 q0 -4 1 -5 q1 -1 5 -1 l28 0 l0 0 Z" /><glyph glyph-name="two" unicode="2" d="M521 130 q11 0 18 -7 q7 -7 7 -18 l0 -57 q0 -11 -7 -18 q-7 -7 -17 -8 l-402 -26 l-2 0 q-10 0 -17 6.5 q-7 6.5 -7 17.5 l0 88 q0 9 4.5 18.5 q4.5 9.5 11.5 14.5 l299 237 q4 2 6 7.5 q2 5.5 0 9.5 l-20 90 q-2 7 -10 7 l-135 -20 q-9 -2 -11 -11 l-6 -42 q-2 -9 -9 -15 q-7 -6 -16 -6 l-4 0 l-40 6 q-10 1 -17 10 q-6 8 -4 19 l14 96 q2 9 9 16.5 q7 7.5 17 9.5 l257 37 l3 0 q9 0 16.5 -6 q7.5 -6 9.5 -14 l46 -202 q2 -9 -1.5 -19 q-3.5 -10 -11.5 -16 l-307 -243 l252 16 q5 1 8 4 q0 8 7 13 q7 5 18 5 l41 0 l0 0 Z" /><glyph glyph-name="three" unicode="3" d="M506 307 q28 -8 37 -34 q8 -28 -10 -49 l-158 -196 q-19 -22 -47 -22 q-10 0 -19 3 l-251 85 q-10 3 -16 14 q-5 12 -1 21 l11 32 q3 12 14 17 q9 5 23 2 l228 -78 l107 132 l-171 44 q-14 4 -23.5 12.5 q-9.5 8.5 -13.5 22.5 q-8 27 11 49 l121 136 l-175 0 q-10 0 -18 8 q-8 8 -8 18 l0 34 q0 13 9 22 q9 9 22 9 l262 0 q34 0 47 -29 q6 -14 3.5 -28.5 q-2.5 -14.5 -12.5 -25.5 l-139 -156 l167 -43 l0 0 Z" /><glyph glyph-name="four" unicode="4" d="M455 265 q2 -11 -5 -19 q-6 -7 -17 -9 l-90 -10 q-9 -2 -13 -11 l-49 -188 q-2 -8 -9 -13 q-7 -5 -15 -5 q-4 0 -6 1 l-40 10 q-11 3 -16 11.5 q-5 8.5 -2 19.5 l42 159 l0 3 l-3 0 l-144 -16 q-11 -2 -18.5 4.5 q-7.5 6.5 -8.5 17.5 l-1 5 q-1 5 -1 8 q0 3 -1 5 l0 1 q-2 4 -1 8 l0 5 q-2 7 3 12 q1 3 3 3 q1 2 2 4.5 q1 2.5 3 6.5 l84 233 q2 7 8.5 11.5 q6.5 4.5 14.5 4.5 q6 0 9 -1 l30 -11 q10 -4 14.5 -13 q4.5 -9 0.5 -19 l-73 -202 l0 -2 l2 0 l87 10 q5 0 8.5 3.5 q3.5 3.5 4.5 7.5 l73 277 q5 19 24 19 q2 0 3.5 -0.5 q1.5 -0.5 3.5 -0.5 l39 -11 q11 -2 16 -11 q5 -9 2 -19 l-65 -250 q-1 -1 0 -2 q0 0 2 -1 l69 8 q11 2 18.5 -4.5 q7.5 -6.5 8.5 -17.5 l3 -22 Z" /><glyph glyph-name="five" unicode="5" d="M510 189 q4 -9 1 -19 q-3 -9 -13 -14 l-342 -144 q-6 -2 -10 -2 q-17 0 -23 16 l-16 38 q-4 9 0 18.5 q4 9.5 13 14.5 l271 113 q2 1 2.5 2 q0.5 1 1.5 2 q1 3 0 6 l-43 89 q-2 6 -10 6 l-2 0 l-223 -61 q-2 0 -3 -0.5 q-1 -0.5 -3 -0.5 q-8 0 -14 6 q-6 6 -7 15 l-10 193 q-1 5 0 9 q1 4 3 7 q4 8 13 10 q0 1 0.5 2.5 q0.5 1.5 -0.5 3.5 l-3 14 q-2 10 4 19 q7 9 16 10 l238 49 q1 0 2 0.5 q1 0.5 3 0.5 q8 0 15 -6 q7 -6 9 -14 l7 -32 q2 -11 -4 -18 q-6 -10 -16 -11 l-187 -39 q-9 -2 -9 -10 l5 -92 q0 -4 4 -4 l2 0 l193 53 q2 0 3.5 0.5 q1.5 0.5 3.5 0.5 q19 0 26 -16 l102 -215 Z" /><glyph glyph-name="six" unicode="6" d="M516 295 q13 -6 14 -16 q3 -11 -6 -20 l-232 -255 q-9 -9 -20 -9 q-11 0 -19 10 l-202 238 q-7 8 -7.5 20 q-0.5 12 6.5 21 l238 329 q9 12 23 12 q9 0 17 -6 l28 -20 q9 -7 11 -18.5 q2 -11.5 -5 -21.5 l-204 -281 q-7 -11 0 -20 l110 -130 q6 -7 13 0 l105 115 q2 2 2 5 q0 2 -4 3 l-103 44 q-12 3 -15 15 q-5 11 0 22 l13 32 q7 17 26 17 q5 0 11 -2 l200 -84 l0 0 Z" /><glyph glyph-name="seven" unicode="7" d="M431 567 q10 -4 14 -13 q4 -9 1 -19 l-193 -507 q-6 -16 -23 -16 q-3 0 -9 2 l-30 11 q-10 4 -14.5 13 q-4.5 9 -0.5 19 l151 398 q1 0 1 1 l-2 0 l-239 -33 l-3 0 q-10 0 -16.5 6 q-6.5 6 -8.5 15 l-6 41 q-1 9 5 19 q7 9 17 9 l279 39 q11 2 15 12 q6 16 23 16 q6 0 9 -2 l30 -11 l0 0 Z" /><glyph glyph-name="eight" unicode="8" d="M486 225 q1 -1 4.5 -6.5 q3.5 -5.5 5.5 -17.5 q2 -12 -0.5 -18 q-2.5 -6 -3.5 -8 q-5 -7 -12.5 -16 q-7.5 -9 -13.5 -15 l-134 -135 q-2 -2 -7 -6.5 q-5 -4.5 -11 -9 q-6 -4.5 -12 -8 q-6 -3.5 -10 -4.5 q-5 -1 -16 -1 q-6 0 -10 1 q-7 1 -20.5 9.5 q-13.5 8.5 -17.5 11.5 l-129 100 q-7 5 -15.5 13.5 q-8.5 8.5 -14.5 15.5 q-1 1 -3.5 6.5 q-2.5 5.5 -3.5 17.5 q-1 11 1.5 17 q2.5 6 3.5 7 q5 7 13 16 q8 9 14 15 l97 89 q4 2 2 5 q0 2 -3 4 l-86 54 q-8 5 -17 12.5 q-9 7.5 -15 13.5 q-1 1 -5 7.5 q-4 6.5 -5 19.5 q0 14 4 20.5 q4 6.5 5 7.5 q6 7 14.5 14.5 q8.5 7.5 16.5 12.5 l207 143 q7 5 16 5 q15 0 23 -13 l20 -28 q6 -10 4 -21.5 q-2 -11.5 -12 -18.5 l-168 -115 q-3 -3 -3 -4 q0 -2 3 -3 l64 -40 q2 -2 8 -2 q8 0 12 4 l112 103 q10 7 20 7 q12 0 20 -9 l24 -26 q8 -8 7.5 -20 q-0.5 -12 -9.5 -20 l-97 -89 q-3 -2 -3 -5 q1 -2 4 -5 l100 -62 q8 -5 17 -12.5 q9 -7.5 15 -13.5 ZM378 188 q0 2 -3 5 l-87 54 q-4 2 -9 2 q-8 0 -11 -4 l-87 -79 q-3 -3 -3 -6 q0 -5 3 -6 l85 -65 q3 -3 8 -3 q6 0 10 4 l92 92 q3 3 2 6 Z" /><glyph glyph-name="nine" unicode="9" d="M457 490 q4 -8 4.5 -18.5 q0.5 -10.5 -2.5 -18.5 l-168 -436 q-6 -16 -23 -16 q-6 0 -9 1 l-47 18 q-10 4 -14.5 13.5 q-4.5 9.5 -0.5 19.5 l81 208 q0 4 -1 5 q0 0 -3 2 l-179 31 q-8 2 -16.5 7.5 q-8.5 5.5 -13.5 12.5 l-9 13 q-5 8 -6 18.5 q-1 10.5 1 18.5 l41 140 q5 19 24 19 q2 0 3.5 -0.5 q1.5 -0.5 3.5 -0.5 l30 -9 q0 6 1 9 l12 49 q5 19 24 19 q5 0 6 -1 l218 -55 q9 -2 17 -8 q8 -6 12 -14 l14 -27 ZM171 497 q1 -4 -1 -10 l-30 -106 q-1 -3 1 -5 q0 -1 4 -3 l156 -27 l1 0 q7 0 11 7 l35 93 q2 2 0 5 q0 2 -4 2 l-172 44 l-1 0 Z" /><glyph glyph-name="at" unicode="@" d="M538 -129 l-354 20 l-72 586 l404 203 l350 -148 l-51 -443 l-285 -62 l7 66 l-158 -72 l-124 216 l101 259 l299 -25 l-37 -345 l126 27 l38 330 l-264 111 l-322 -162 l57 -467 l271 -15 l375 171 l32 -71 l-393 -179 l0 0 ZM341 244 l70 -123 l135 62 l23 217 l-162 13 l-66 -169 l0 0 Z" /><glyph glyph-name="A" unicode="a" d="M96 -50 q-2 -7 -8 -9.5 q-6 -2.5 -12 -0.5 l-32 12 q-6 2 -9 7.5 q-3 5.5 -1 12.5 l166 466 q2 6 8 9 q6 3 12 1 l32 -12 q7 -2 9.5 -8 q2.5 -6 0.5 -12 l-166 -466 ZM167 113 q-2 6 1 12 q3 6 9 8 l144 48 q6 2 12 -1 q6 -3 8 -9 l11 -33 q2 -6 -1 -11.5 q-3 -5.5 -9 -7.5 l-144 -49 q-6 -2 -12 1 q-6 3 -8 9 l-11 33 ZM480 -50 q-6 -3 -12 -0.5 q-6 2.5 -8 8.5 l-196 487 q-5 14 9 21 l78 31 q14 5 21 -9 l195 -487 q3 -6 0.5 -12 q-2.5 -6 -8.5 -8 l-79 -31 Z" /><glyph glyph-name="B" unicode="b" d="M206 -53 q0 -5 -16 -5 l-125 0 q-6 0 -10.5 4.5 q-4.5 4.5 -4.5 11.5 l0 486 q0 7 4.5 11.5 q4.5 4.5 10.5 4.5 l125 0 q16 0 16 -16 l0 -383 q0 -6 4.5 -11 q4.5 -5 11.5 -5 l222 0 q16 0 14 16 l-9 92 q-2 16 -18 16 l-109 0 q-6 0 -11 4.5 q-5 4.5 -5 10.5 l0 63 q0 7 5 11.5 q5 4.5 11 4.5 l102 0 q6 0 11.5 4.5 q5.5 4.5 6.5 10.5 l12 60 q1 6 -3 11 q-4 5 -10 6 l-190 29 q-7 1 -11 6 q-4 5 -2 12 l9 62 q1 6 6 10 q5 4 12 3 l286 -43 q7 -2 10.5 -7 q3.5 -5 2.5 -11 l-37 -196 q-3 -15 4 -15 q6 0 8 -15 l23 -223 q1 -6 -3 -10.5 q-4 -4.5 -11 -4.5 l-326 0 q-16 0 -16 -5 Z" /><glyph glyph-name="C" unicode="c" d="M245 10 q-1 6 2.5 11.5 q3.5 5.5 10.5 6.5 l294 53 q6 1 11 -2.5 q5 -3.5 7 -10.5 l11 -61 q3 -15 -13 -19 l-294 -52 q-6 -2 -11 2 q-5 4 -7 10 l-11 62 ZM209 -14 q-2 -6 -7.5 -10 q-5.5 -4 -11.5 -2 l-122 31 q-6 2 -9.5 7 q-3.5 5 -1.5 11 l114 462 q3 15 19 12 l11 -3 q15 -3 15 -2 q0 2 16 2 l271 0 q7 0 11.5 -4.5 q4.5 -4.5 4.5 -10.5 l0 -22 q0 -6 -4.5 -11 q-4.5 -5 -11.5 -5 l-166 0 q-16 0 -19 -15 l-109 -440 Z" /><glyph glyph-name="D" unicode="d" d="M568 157 q5 2 10 -1.5 q5 -3.5 7 -9.5 l19 -60 q2 -6 -1 -12 q-3 -6 -10 -8 l-349 -107 q-6 -2 -12 1 q-6 3 -8 9 l-18 60 q-2 6 1 11.5 q3 5.5 9 7.5 l258 80 q6 2 10 7.5 q4 5.5 3 12.5 l-17 248 q-2 16 -17 18 l-256 32 q-6 1 -10.5 -3 q-4.5 -4 -4.5 -10 l0 -461 q0 -16 -16 -16 l-125 0 q-16 0 -16 16 l0 486 q0 6 4.5 10.5 q4.5 4.5 11.5 4.5 l106 0 q16 0 18 16 l2 15 q1 6 6 10 q5 4 11 3 l334 -42 q15 -2 17 -18 l20 -288 q2 -16 13 -12 Z" /><glyph glyph-name="E" unicode="e" d="M527 -14 q0 -7 -4.5 -11.5 q-4.5 -4.5 -10.5 -4.5 l-428 0 q-16 0 -16 16 l0 347 q0 6 4.5 10.5 q4.5 4.5 11.5 4.5 l94 0 q6 0 10.5 -4.5 q4.5 -4.5 4.5 -10.5 l0 -222 q0 -6 4.5 -11 q4.5 -5 11.5 -5 l303 0 q6 0 10.5 -4.5 q4.5 -4.5 4.5 -10.5 l0 -94 ZM64 378 q-7 -1 -12 3 q-5 4 -6 10 l-6 47 q-1 6 3 11 q4 5 10 6 l434 59 q16 2 18 -14 l6 -46 q1 -7 -3 -12 q-4 -5 -10 -6 l-434 -58 ZM201 274 q-1 6 3 11 q4 5 10 6 l292 40 q6 1 11 -3 q5 -4 6 -11 l8 -59 q2 -6 -2 -11 q-4 -5 -11 -6 l-292 -40 q-6 -1 -11 3 q-5 4 -6 11 l-8 59 Z" /><glyph glyph-name="F" unicode="f" d="M27 360 q-8 0 -10 15 l-6 46 q-1 7 3 12 q4 5 10 6 l494 67 q16 2 18 -14 l6 -46 q1 -7 -3 -12 q-4 -5 -10 -6 l-322 -43 q-16 -4 -16 -18 l0 -100 q0 -16 16 -14 l333 45 q6 1 11 -3 q5 -4 6 -11 l8 -58 q1 -7 -3 -12 q-4 -5 -10 -6 l-334 -45 q-6 -1 -11 3 q-5 4 -6 10 l-8 54 q-1 6 -1.5 6 q-0.5 0 -0.5 -7 l0 -246 q0 -7 -4.5 -11.5 q-4.5 -4.5 -10.5 -4.5 l-126 0 q-6 0 -10.5 4.5 q-4.5 4.5 -4.5 11.5 l0 363 q0 6 -2.5 10.5 q-2.5 4.5 -5.5 3.5 Z" /><glyph glyph-name="G" unicode="g" d="M318 227 q0 16 16 16 l204 0 q6 0 10.5 -4.5 q4.5 -4.5 4.5 -11.5 l0 -245 q0 -7 -4.5 -11.5 q-4.5 -4.5 -10.5 -4.5 l-63 0 q-16 0 -16 8 q0 3 -4.5 4.5 q-4.5 1.5 -10.5 -0.5 l-185 -35 q-7 -2 -15.5 0 q-8.5 2 -13.5 6 l-194 124 q-5 4 -9 11 q-4 7 -4 13 l0 301 q0 6 4 12 q4 6 11 8 l287 99 q7 2 15.5 1.5 q8.5 -0.5 13.5 -3.5 l185 -86 q13 -7 8 -21 l-27 -57 q-3 -5 -9 -7.5 q-6 -2.5 -12 0.5 l-150 70 q-6 3 -14.5 3.5 q-8.5 0.5 -14.5 -1.5 l-188 -65 q-7 -2 -11 -8 q-4 -6 -4 -12 l0 -182 q0 -7 4 -14 q4 -7 9 -10 l119 -77 q6 -4 14.5 -5.5 q8.5 -1.5 14.5 -0.5 l166 32 q6 1 10.5 6.5 q4.5 5.5 4.5 11.5 l0 41 q0 7 -4.5 11.5 q-4.5 4.5 -10.5 4.5 l-110 0 q-16 0 -16 16 l0 62 Z" /><glyph glyph-name="H" unicode="h" d="M190 -33 q-2 -7 -7 -11 q-5 -4 -11 -2 l-124 22 q-6 1 -10 6.5 q-4 5.5 -2 11.5 l88 499 q2 6 7 10 q5 4 12 2 l123 -22 q6 -1 10 -6 q4 -5 3 -12 l-37 -205 q-3 -15 13 -15 l165 15 q6 1 10.5 6 q4.5 5 3.5 11 l-15 175 q-2 15 14 17 l47 4 q6 1 11 -3 q5 -4 5 -11 l45 -497 q0 -6 -4 -11 q-4 -5 -11 -6 l-46 -4 q-7 -1 -12 3.5 q-5 4.5 -5 10.5 l-20 225 q-1 7 -6 11 q-5 4 -11 4 l-183 -17 q-7 0 -12 -5 q-5 -5 -7 -11 l-34 -195 Z" /><glyph glyph-name="I" unicode="i" d="M114 -45 q-6 -1 -11 3 q-5 4 -6 11 l-63 476 q-1 6 3 11 q4 5 11 6 l124 16 q7 2 12 -2 q5 -4 6 -11 l62 -476 q2 -15 -14 -18 l-124 -16 Z" /><glyph glyph-name="J" unicode="j" d="M153 313 q0 7 -4.5 12 q-4.5 5 -10.5 6 l-96 10 q-16 2 -14 17 l13 125 q1 6 6 10 q5 4 11 3 l338 -35 q16 -2 14 -18 l-13 -124 q-2 -16 -17 -14 l-86 9 q-15 2 -17 -14 l-11 -342 q0 -6 -4.5 -10 q-4.5 -4 -11.5 -3 l-190 27 q-7 2 -10.5 7 q-3.5 5 -2.5 11 l13 93 q1 7 6 11 q5 4 12 2 l52 -7 q6 -1 10.5 3 q4.5 4 5.5 10 l7 211 Z" /><glyph glyph-name="K" unicode="k" d="M422 237 q-4 -5 -2.5 -11.5 q1.5 -6.5 6.5 -10.5 l163 -126 q5 -4 6 -10.5 q1 -6.5 -3 -11.5 l-76 -99 q-5 -5 -11 -6.5 q-6 -1.5 -11 3.5 l-276 212 q-11 8 -13 -6 l-4 -203 q0 -7 -4.5 -11.5 q-4.5 -4.5 -10.5 -3.5 l-126 2 q-6 0 -10.5 4.5 q-4.5 4.5 -4.5 11.5 l10 507 q0 16 16 16 l125 -3 q15 0 15 -16 l-5 -264 q0 -6 2.5 -7 q2.5 -1 6.5 4 l72 93 q4 5 9.5 7 q5.5 2 8.5 -1 q4 -2 9 -0.5 q5 1.5 9 6.5 l125 167 q4 5 10.5 6.5 q6.5 1.5 11.5 -2.5 l75 -57 q5 -4 6.5 -10.5 q1.5 -6.5 -3.5 -11.5 l-126 -168 Z" /><glyph glyph-name="L" unicode="l" d="M531 31 q1 -7 -3 -12 q-4 -5 -10 -6 l-452 -59 q-16 -2 -16 14 l0 506 q0 16 16 16 l125 0 q16 0 16 -16 l0 -328 q0 -6 4.5 -10.5 q4.5 -4.5 10.5 -2.5 l275 36 q16 2 18 -14 l16 -124 Z" /><glyph glyph-name="M" unicode="m" d="M184 -12 q-2 -6 -7 -9.5 q-5 -3.5 -11 -1.5 l-123 27 q-14 3 -12 19 l107 474 q3 15 19 12 l122 -27 q6 -2 10 -7.5 q4 -5.5 2 -11.5 l-14 -62 q-2 -7 -2 -15.5 q0 -8.5 1 -15.5 l30 -169 q3 -12 6 0 l26 146 q1 6 1 15 q0 9 -2 16 l-14 62 q-2 6 1.5 11.5 q3.5 5.5 10.5 7.5 l122 27 q6 2 11.5 -1.5 q5.5 -3.5 7.5 -10.5 l106 -474 q3 -16 -12 -19 l-122 -28 q-6 -1 -11.5 2.5 q-5.5 3.5 -6.5 9.5 l-33 145 q-2 6 -3.5 6 q-1.5 0 -2.5 -6 l-24 -136 q-2 -6 -7 -10 q-5 -4 -11 -2 l-62 11 q-16 2 -14 8 q0 5 -11 3 q-5 -1 -9 3 q-4 4 -6 10 l-24 136 q-3 12 -6 0 l-33 -145 Z" /><glyph glyph-name="N" unicode="n" d="M55 -26 q-7 0 -11.5 4.5 q-4.5 4.5 -4.5 10.5 l-17 533 q0 7 3 8 q3 1 7 -4 l289 -328 q4 -5 7.5 -4 q3.5 1 5.5 8 l45 245 q2 7 7 10.5 q5 3.5 11 2.5 l93 -17 q6 -2 10 -7 q4 -5 2 -12 l-92 -498 q-2 -7 -5.5 -8 q-3.5 -1 -7.5 4 l-229 260 q-4 5 -7 4 q-3 -1 -3 -8 l6 -185 q0 -6 -4 -11 q-4 -5 -11 -5 l-94 -3 Z" /><glyph glyph-name="O" unicode="o" d="M532 -40 q0 -6 -4.5 -10.5 q-4.5 -4.5 -11.5 -3.5 l-457 24 q-6 1 -10.5 5.5 q-4.5 4.5 -3.5 11.5 l26 247 q1 6 5.5 10.5 q4.5 4.5 11.5 3.5 l62 -7 q16 -2 14 -17 l-15 -149 q-1 -6 3 -11 q4 -5 11 -5 l203 -11 q7 -1 12 3.5 q5 4.5 5 11.5 l17 211 q0 16 -15 14 l-266 -27 q-7 -1 -11.5 3.5 q-4.5 4.5 -5.5 10.5 l-13 125 q-1 6 3.5 11 q4.5 5 10.5 6 l453 46 q6 1 10.5 -3 q4.5 -4 3.5 -11 l-33 -423 q0 -4 -0.5 -6.5 q-0.5 -2.5 -0.5 -4.5 l0 -5 q0 0 -2 -16 l-2 -34 Z" /><glyph glyph-name="P" unicode="p" d="M164 -33 q0 -7 -4.5 -11.5 q-4.5 -4.5 -10.5 -4.5 l-94 0 q-16 0 -16 16 l0 575 q0 16 16 16 l332 0 q16 0 26 -12 l93 -107 q11 -11 9 -27 l-12 -127 q-1 -7 -6 -11 q-5 -4 -11 -3 l-6 0 q-16 2 -12 -11 q2 -5 -1.5 -9.5 q-3.5 -4.5 -9.5 -6.5 l-202 -61 q-6 -2 -12 1 q-6 3 -8 9 l-18 60 q-3 15 11 20 l137 41 q6 2 11 8 q5 6 6 12 l3 36 q1 7 -1.5 15 q-2.5 8 -7.5 13 l-20 23 q-5 5 -12 8.5 q-7 3.5 -14 3.5 l-150 0 q-16 0 -16 -16 l0 -450 Z" /><glyph glyph-name="Q" unicode="q" d="M513 -9 q-4 5 -11 8.5 q-7 3.5 -14 2.5 l-429 -44 q-6 -1 -10.5 3.5 q-4.5 4.5 -3.5 10.5 l33 424 l0 10 q0 3 1 5 q0 0 2 16 l2 34 q0 15 16 15 l457 -25 q6 0 10.5 -5 q4.5 -5 3.5 -11 l-26 -247 q-2 -16 -17 -14 l-23 2 q-14 2 -9 -7 q8 -8 12 -8 q2 1 3.5 -1.5 q1.5 -2.5 1.5 -5.5 q1 -3 3.5 -9 q2.5 -6 7.5 -11 l74 -97 q4 -5 3 -11.5 q-1 -6.5 -6 -10.5 l-50 -38 q-5 -5 -11 -3.5 q-6 1.5 -11 6.5 l-9 11 ZM376 148 q16 2 7 14 l-26 34 q-5 5 -3.5 11.5 q1.5 6.5 6.5 10.5 l49 38 q5 4 11.5 3 q6.5 -1 10.5 -6 l13 -17 q4 -5 7 -4 q3 1 4 7 l11 107 q2 15 -14 17 l-203 11 q-7 0 -12 -4.5 q-5 -4.5 -5 -10.5 l-17 -212 q0 -16 15 -14 l146 15 Z" /><glyph glyph-name="R" unicode="r" d="M144 -32 q-2 -6 -7 -10 q-5 -4 -11 -2 l-62 10 q-15 3 -13 19 l63 363 q2 7 -2 11 q-4 4 -11 3 l-9 -1 q-16 -2 -18 14 l-6 62 q-1 7 3 12 q4 5 11 5 l36 4 q6 1 11.5 6 q5.5 5 6.5 11 l5 30 q2 7 7 10.5 q5 3.5 11 2.5 l62 -11 q15 -2 13 -18 l-1 -4 q-1 -6 2.5 -10.5 q3.5 -4.5 10.5 -3.5 l303 31 q16 2 14 -14 l-36 -278 q-2 -15 -17 -17 l-163 -20 q-6 -1 -7 -4 q-1 -3 4 -7 l117 -95 q5 -4 6 -10.5 q1 -6.5 -3 -11.5 l-40 -48 q-4 -5 -10.5 -6 q-6.5 -1 -11.5 3 l-211 170 q-5 4 -9 2.5 q-4 -1.5 -5 -8.5 l-33 -190 ZM229 375 q-6 -1 -11 -5.5 q-5 -4.5 -7 -11.5 l-16 -93 q-1 -6 2.5 -10 q3.5 -4 10.5 -3 l218 25 q15 2 17 18 l12 88 q1 6 -3 10.5 q-4 4.5 -11 3.5 l-212 -22 Z" /><glyph glyph-name="S" unicode="s" d="M86 160 q-7 0 -12 4.5 q-5 4.5 -6 10.5 l-26 140 q-1 7 1 14.5 q2 7.5 7 12.5 l105 122 q4 5 11.5 8.5 q7.5 3.5 14.5 4.5 l290 10 q7 0 11.5 -4.5 q4.5 -4.5 4.5 -10.5 l3 -63 q0 -7 -4.5 -11.5 q-4.5 -4.5 -10.5 -4.5 l-250 -9 q-7 0 -14 -3.5 q-7 -3.5 -12 -8.5 l-49 -57 q-4 -5 -6.5 -13 q-2.5 -8 -0.5 -14 l3 -20 q2 -6 7 -10.5 q5 -4.5 12 -4.5 l314 -4 q6 0 10.5 -4.5 q4.5 -4.5 3.5 -11.5 l-14 -242 q0 -6 -5 -10.5 q-5 -4.5 -11 -4.5 l-311 -4 q-16 0 -16 16 l-1 62 q0 16 16 16 l223 3 q7 0 11.5 4.5 q4.5 4.5 5.5 10.5 l3 56 q0 16 -15 16 l-293 4 Z" /><glyph glyph-name="T" unicode="t" d="M564 378 q1 -6 -3 -11 q-4 -5 -10 -6 l-475 -68 q-7 -1 -12 3 q-5 4 -6 10 l-18 124 q-1 7 3 12 q4 5 10 6 l476 68 q6 1 11 -3 q5 -4 6 -11 l18 -124 ZM355 -19 q0 -6 -4.5 -10.5 q-4.5 -4.5 -10.5 -4.5 l-63 0 q-7 0 -11.5 4.5 q-4.5 4.5 -4.5 10.5 l0 284 q0 16 16 16 l63 0 q6 0 10.5 -4.5 q4.5 -4.5 4.5 -11.5 l0 -284 Z" /><glyph glyph-name="U" unicode="u" d="M105 -23 q-6 -1 -11 3 q-5 4 -6 11 l-44 432 q-1 6 3.5 11 q4.5 5 10.5 6 l125 12 q6 1 11 -3 q5 -4 6 -11 l44 -431 q1 -7 -3.5 -12 q-4.5 -5 -10.5 -5 l-125 -13 ZM551 -28 q0 -16 -15 -16 l-257 0 q-16 0 -16 16 l0 62 q0 16 16 16 l160 0 q16 0 16 16 l-11 368 q0 7 4.5 11.5 q4.5 4.5 10.5 4.5 l63 2 q7 0 11.5 -4.5 q4.5 -4.5 4.5 -10.5 l13 -465 Z" /><glyph glyph-name="V" unicode="v" d="M234 -37 q-6 -2 -12 0.5 q-6 2.5 -8 8.5 l-180 453 q-3 6 -0.5 12 q2.5 6 8.5 8 l117 46 q6 3 12 0.5 q6 -2.5 8 -8.5 l141 -354 q2 -6 6 -6 q4 0 7 5 l172 298 q4 5 10 7 q6 2 12 -2 l40 -23 q6 -3 7.5 -9.5 q1.5 -6.5 -1.5 -11.5 l-203 -352 q-3 -5 -5 -10 q-2 -5 -1 -6 q0 -4 -3 -5 q-4 -2 -7 -7 q-2 -4 -6 -2 q-2 1 -7.5 -0.5 q-5.5 -1.5 -11.5 -3.5 l-95 -38 Z" /><glyph glyph-name="W" unicode="w" d="M455 494 q1 7 6.5 10.5 q5.5 3.5 11.5 2.5 l86 -17 q6 -2 10 -7 q4 -5 2 -11 l-96 -495 q-2 -6 -7 -10 q-5 -4 -11 -2 l-86 16 q-7 2 -11 6.5 q-4 4.5 -2 9.5 q1 6 1 14 q0 8 -2 15 l-40 168 q-3 14 -8 0 l-37 -132 q-2 -7 -2.5 -15.5 q-0.5 -8.5 1.5 -15.5 l6 -31 q1 -6 -2.5 -11 q-3.5 -5 -10.5 -7 l-123 -24 q-6 -2 -11 2 q-5 4 -7 10 l-96 495 q-2 6 1.5 11.5 q3.5 5.5 10.5 6.5 l123 24 q6 2 11.5 -2 q5.5 -4 6.5 -10 l51 -263 q3 -13 8 0 l58 206 q2 6 7.5 9.5 q5.5 3.5 11.5 1.5 l45 -13 q16 -5 11 -20 l-10 -36 q-2 -6 -2.5 -15 q-0.5 -9 1.5 -15 l32 -137 q3 -14 7 0 l55 281 Z" /><glyph glyph-name="X" unicode="x" d="M53 -4 q-5 4 -6 10.5 q-1 6.5 4 11.5 l157 186 q5 5 5 12 q0 7 -5 12 l-139 173 q-4 5 -3.5 11.5 q0.5 6.5 5.5 10.5 l98 79 q5 4 11.5 3 q6.5 -1 10.5 -6 l120 -149 q11 -12 20 -1 l111 132 q11 11 22 2 l48 -41 q5 -4 6 -10.5 q1 -6.5 -4 -11.5 l-123 -145 q-4 -5 -4 -12 q0 -7 4 -12 l155 -192 q4 -5 3 -11.5 q-1 -6.5 -6 -10.5 l-97 -79 q-5 -4 -11.5 -3.5 q-6.5 0.5 -10.5 5.5 l-136 169 q-4 5 -9.5 5 q-5.5 0 -10.5 -5 l-145 -172 q-5 -5 -11 -5.5 q-6 -0.5 -11 3.5 l-48 41 Z" /><glyph glyph-name="Y" unicode="y" d="M190 285 q-5 -5 -11 -5.5 q-6 -0.5 -11 4.5 l-135 127 q-5 5 -5 11 q0 6 5 11 l85 91 q5 5 11.5 5.5 q6.5 0.5 11.5 -4.5 l134 -127 q5 -4 5.5 -10.5 q0.5 -6.5 -4.5 -11.5 l-86 -91 ZM484 517 q12 10 22 -1 l44 -45 q11 -11 0 -22 l-205 -197 q-5 -5 -8.5 -12.5 q-3.5 -7.5 -3.5 -14.5 l-12 -251 q-2 -15 -17 -15 l-62 3 q-7 1 -11.5 5.5 q-4.5 4.5 -3.5 11.5 l14 288 q0 6 3.5 13.5 q3.5 7.5 8.5 12.5 l231 224 Z" /><glyph glyph-name="Z" unicode="z" d="M61 13 q-4 2 -4 5 q2 5 0 5 l0 1 q1 1 3 17 l11 113 q2 16 18 14 l113 -12 q7 -1 15 1.5 q8 2.5 13 7.5 l219 178 q12 10 12 26 l0 9 q0 6 -4.5 10.5 q-4.5 4.5 -10.5 4.5 l-389 0 q-6 0 -10.5 4.5 q-4.5 4.5 -4.5 11.5 l0 63 q0 6 4.5 10.5 q4.5 4.5 10.5 4.5 l483 0 q6 0 10.5 -4.5 q4.5 -4.5 4.5 -10.5 l0 -148 q0 -16 -12 -26 l-181 -147 q-5 -4 -4 -7.5 q1 -3.5 7 -3.5 l200 -21 q7 -1 11 -6 q4 -5 3 -11 l-13 -125 q-1 -6 -5.5 -10.5 q-4.5 -4.5 -11.5 -3.5 l-355 37 q-7 1 -15 -1.5 q-8 -2.5 -13 -6.5 l-38 -31 q-12 -10 -22 2 l-31 38 q-9 12 -14 12 Z" /><glyph glyph-name="a" unicode="a" d="M448 407 q6 2 11 -2 q5 -4 7 -10 l59 -359 q1 -6 -3 -11 q-4 -5 -10 -7 l-124 -20 q-6 -1 -11 2.5 q-5 3.5 -7 10.5 l-48 291 q-1 7 -6 13.5 q-5 6.5 -11 8.5 l-33 16 q-6 3 -14.5 3.5 q-8.5 0.5 -14.5 -1.5 l-103 -36 q-6 -2 -10.5 -8 q-4.5 -6 -4.5 -12 l0 -96 q0 -6 4 -13 q4 -7 9 -11 l63 -40 q5 -4 13.5 -6 q8.5 -2 15.5 -1 l75 7 q6 1 11 -3 q5 -4 6 -11 l6 -62 q1 -6 -3 -11 q-4 -5 -11 -6 l-107 -11 q-7 -1 -15.5 1 q-8.5 2 -13.5 6 l-134 86 q-5 4 -9 11 q-4 7 -4 13 l0 214 q0 6 4.5 12.5 q4.5 6.5 10.5 8.5 l202 69 q7 2 15.5 1.5 q8.5 -0.5 13.5 -3.5 l84 -39 q6 -3 14.5 -4 q8.5 -1 15.5 0 l57 9 Z" /><glyph glyph-name="b" unicode="b" d="M267 302 q0 16 15 16 l220 13 q16 0 13 -15 l-45 -311 q-1 -7 -6 -12 q-5 -5 -11 -5 l-317 -28 q-15 -2 -17 14 l-2 28 q-2 15 -17 15 l-5 -1 q-7 -1 -11.5 3.5 q-4.5 4.5 -5.5 10.5 l-39 458 q-1 7 3 12 q4 5 11 5 l125 11 q6 1 11 -3.5 q5 -4.5 6 -10.5 l36 -424 q1 -6 5.5 -10.5 q4.5 -4.5 11.5 -3.5 l122 11 q16 2 18 17 l18 124 q1 7 -3 11 q-4 4 -10 4 l-106 -6 q-6 -1 -11 3.5 q-5 4.5 -5 10.5 l-4 63 Z" /><glyph glyph-name="c" unicode="c" d="M218 -39 q-6 -1 -15 0.5 q-9 1.5 -15 3.5 l-125 42 q-6 2 -10.5 8.5 q-4.5 6.5 -4.5 12.5 l-7 346 q0 16 12 25 l123 88 q5 4 13.5 6.5 q8.5 2.5 15.5 3.5 l155 8 q16 0 28 -10 l76 -69 q5 -5 5 -11 q0 -6 -4 -11 l-43 -47 q-4 -5 -10.5 -5 q-6.5 0 -11.5 4 l-47 43 q-5 5 -12.5 7.5 q-7.5 2.5 -14.5 2.5 l-89 -5 q-7 0 -15 -3 q-8 -3 -13 -7 l-61 -43 q-5 -4 -8.5 -11 q-3.5 -7 -3.5 -13 l4 -231 q2 -16 16 -21 l45 -15 q6 -2 15 -3.5 q9 -1.5 15 -0.5 l107 5 q7 1 14 4.5 q7 3.5 12 8.5 l34 45 q4 5 10.5 6 q6.5 1 11.5 -3 l50 -38 q5 -4 6 -10.5 q1 -6.5 -4 -11.5 l-60 -79 q-5 -5 -12 -9 q-7 -4 -14 -4 l-168 -9 Z" /><glyph glyph-name="d" unicode="d" d="M280 0 q2 -6 -2 -11 q-4 -5 -11 -6 l-199 -27 q-6 -2 -11 2 q-5 4 -5 11 l-25 340 q0 16 15 16 l263 15 q6 1 10.5 5.5 q4.5 4.5 4.5 11.5 l-10 157 q0 15 15 17 l125 7 q15 0 17 -15 l29 -496 q0 -15 -15 -17 l-125 -7 q-15 0 -17 15 l-12 214 q-2 15 -17 15 l-168 -10 q-6 0 -10.5 -5 q-4.5 -5 -3.5 -11 l10 -145 q2 -16 17 -14 l99 14 q16 2 18 -14 l8 -62 Z" /><glyph glyph-name="e" unicode="e" d="M338 275 q15 2 17 18 l7 102 q1 7 -3.5 11.5 q-4.5 4.5 -10.5 4.5 l-125 2 q-7 1 -11.5 5.5 q-4.5 4.5 -3.5 10.5 l1 63 q0 7 4.5 11.5 q4.5 4.5 11.5 3.5 l224 -4 q6 0 10.5 -4.5 q4.5 -4.5 3.5 -11.5 l-20 -275 q0 -7 -5 -12 q-5 -5 -11 -6 l-190 -30 q-16 -2 -18 13 l-10 62 q-1 6 3 11 q4 5 10 7 l116 18 ZM136 -54 q-7 -2 -13.5 1.5 q-6.5 3.5 -9.5 9.5 l-67 128 q-3 5 -5 14 q-2 9 -2 15 l0 378 q0 6 4.5 10.5 q4.5 4.5 11.5 4.5 l94 0 q6 0 10.5 -4.5 q4.5 -4.5 4.5 -10.5 l0 -347 q0 -16 7 -30 l10 -19 q3 -5 10 -8.5 q7 -3.5 13 -2.5 l234 43 q7 1 12 -3 q5 -4 6 -10 l17 -92 q2 -7 -2 -12 q-4 -5 -10 -7 l-325 -58 Z" /><glyph glyph-name="f" unicode="f" d="M163 138 q-2 15 -18 13 l-73 -13 q-7 -2 -12 2 q-5 4 -6 11 l-11 61 q-2 7 2 12 q4 5 11 6 l75 14 q6 1 10 6 q4 5 3 12 l-33 206 q-1 6 3 11 q4 5 10 5 l279 14 q15 0 17 -15 l6 -125 q0 -16 -15 -16 l-105 -6 q-15 0 -13 -16 l5 -31 q1 -6 6 -10 q5 -4 12 -3 l183 33 q6 1 11 -3 q5 -4 7 -10 l11 -62 q1 -6 -3 -11 q-4 -5 -10 -7 l-185 -32 q-6 -2 -10 -7 q-4 -5 -3 -12 l27 -170 q1 -6 -3 -11 q-4 -5 -10 -7 l-124 -19 q-6 -2 -11 2 q-5 4 -7 11 l-26 167 Z" /><glyph glyph-name="g" unicode="g" d="M401 358 q2 6 -2 10.5 q-4 4.5 -11 4.5 l-248 1 q-6 0 -10.5 -4.5 q-4.5 -4.5 -3.5 -11.5 l3 -82 q1 -6 5.5 -10 q4.5 -4 10.5 -2 l190 39 q6 2 11 -1.5 q5 -3.5 7 -10.5 l13 -61 q2 -6 -2 -11.5 q-4 -5.5 -10 -7.5 l-297 -61 q-15 -3 -17 12 l-13 290 q0 7 4.5 11.5 q4.5 4.5 10.5 4.5 l366 -1 q6 0 11.5 4.5 q5.5 4.5 7.5 10.5 l4 24 q2 7 7.5 10.5 q5.5 3.5 11.5 1.5 l61 -12 q15 -3 12 -19 l-106 -520 q-3 -15 -19 -12 l-168 43 q-7 2 -10.5 7.5 q-3.5 5.5 -1.5 11.5 l16 61 q4 14 19 11 l73 -19 q6 -2 11.5 2 q5.5 4 6.5 10 l57 276 Z" /><glyph glyph-name="h" unicode="h" d="M175 -28 q-1 -7 -6 -11 q-5 -4 -11 -3 l-125 14 q-6 1 -10 6 q-4 5 -3 11 l56 506 q2 16 18 14 l124 -14 q7 -1 11 -6 q4 -5 3 -11 l-17 -149 q-1 -6 3.5 -10.5 q4.5 -4.5 10.5 -4.5 l283 0 q6 0 10.5 -4.5 q4.5 -4.5 3.5 -11.5 l-35 -322 q-1 -7 -6 -11 q-5 -4 -11 -3 l-63 6 q-6 1 -10 6 q-4 5 -3 12 l23 218 q2 16 -14 16 l-188 0 q-16 0 -18 -16 l-26 -232 Z" /><glyph glyph-name="i" unicode="i" d="M234 -14 q1 -7 -3.5 -11.5 q-4.5 -4.5 -10.5 -5.5 l-125 -11 q-15 -2 -17 14 l-27 302 q-1 6 3 11 q4 5 11 6 l125 11 q6 1 11 -3.5 q5 -4.5 6 -10.5 l27 -302 ZM41 477 q0 15 14 17 l128 14 q6 1 11 -3.5 q5 -4.5 6 -10.5 l13 -125 q1 -6 -3 -11 q-4 -5 -11 -6 l-127 -13 q-15 -2 -17 14 l-14 124 Z" /><glyph glyph-name="j" unicode="j" d="M303 404 q2 -15 -14 -17 l-127 -14 q-7 -1 -12 3.5 q-5 4.5 -5 10.5 l-10 94 q-1 6 3 11 q4 5 11 6 l127 13 q15 2 17 -14 l10 -93 ZM130 111 q7 -2 11.5 2 q4.5 4 4.5 10 l9 195 q0 6 4.5 10.5 q4.5 4.5 11.5 4.5 l94 -4 q6 -1 10.5 -5.5 q4.5 -4.5 4.5 -11.5 l-15 -343 q-2 -15 -16 -13 l-213 48 q-7 1 -10.5 6.5 q-3.5 5.5 -1.5 11.5 l20 92 q2 6 7 10 q5 4 12 2 l67 -15 Z" /><glyph glyph-name="k" unicode="k" d="M516 360 q8 -13 -4 -22 l-182 -129 q-5 -4 -5 -9 q0 -5 5 -8 l131 -78 q6 -3 7.5 -9.5 q1.5 -6.5 -1.5 -12.5 l-48 -80 q-4 -6 -10.5 -7.5 q-6.5 -1.5 -11.5 1.5 l-173 103 q-5 4 -10 1.5 q-5 -2.5 -6 -8.5 l-25 -137 q-1 -6 -6.5 -10 q-5.5 -4 -11.5 -3 l-123 23 q-7 1 -10.5 6.5 q-3.5 5.5 -2.5 11.5 l93 512 q2 6 7 10 q5 4 11 2 l123 -22 q7 -2 11 -7 q4 -5 2 -11 l-29 -160 q-2 -14 10 -6 l183 129 q5 4 11.5 2.5 q6.5 -1.5 10.5 -6.5 l54 -76 Z" /><glyph glyph-name="l" unicode="l" d="M269 -31 q0 -7 -4.5 -11.5 q-4.5 -4.5 -10.5 -4.5 l-175 0 q-16 0 -16 16 l-14 506 q0 16 16 16 l94 3 q6 0 10.5 -4.5 q4.5 -4.5 5.5 -10.5 l10 -385 q0 -16 16 -16 l53 0 q6 0 10.5 -4.5 q4.5 -4.5 4.5 -10.5 l0 -94 Z" /><glyph glyph-name="m" unicode="m" d="M40 -12 q-6 1 -10.5 5.5 q-4.5 4.5 -3.5 11.5 l35 306 q1 7 -3 13 q-4 6 -10 8 l-19 7 q-6 2 -8.5 8 q-2.5 6 -0.5 12 l21 59 q2 6 8 9 q6 3 11 1 q6 -2 10.5 1 q4.5 3 5.5 9 l6 60 q1 6 6 10 q5 4 12 3 l93 -10 q16 -2 14 -18 l-10 -88 q-1 -7 3 -13 q4 -6 10 -8 l59 -22 q15 -5 29 2 l208 109 q14 7 16 -8 l60 -451 q1 -7 -3 -11.5 q-4 -4.5 -10 -6.5 l-62 -8 q-16 -2 -18 14 l-42 317 q-2 16 -16 9 l-126 -67 q-13 -6 -29 -1 l-77 28 q-6 2 -11 -1 q-5 -3 -6 -9 l-31 -277 q-2 -16 -18 -14 l-93 11 Z" /><glyph glyph-name="n" unicode="n" d="M414 459 q7 -1 12 -6 q5 -5 6 -11 l68 -437 q2 -16 -14 -18 l-61 -10 q-7 -1 -12 3 q-5 4 -6 10 l-57 367 q-1 6 -6 11 q-5 5 -12 6 l-158 18 q-6 1 -11 -3 q-5 -4 -5 -11 l-12 -382 q0 -7 -5 -11 q-5 -4 -11 -4 l-63 2 q-6 0 -10.5 4.5 q-4.5 4.5 -4.5 11.5 l15 485 q1 6 5.5 10 q4.5 4 10.5 3 l331 -38 Z" /><glyph glyph-name="o" unicode="o" d="M422 32 q-2 -6 -7 -11 q-5 -5 -11 -6 l-331 -29 q-6 -1 -11 3.5 q-5 4.5 -5 10.5 l-24 334 q-2 15 14 17 l408 23 q6 0 10 -4 q4 -4 3 -11 l-46 -327 ZM359 259 q1 7 -3 11 q-4 4 -10 4 l-198 -12 q-7 0 -11.5 -5 q-4.5 -5 -3.5 -11 l11 -144 q0 -6 5 -10.5 q5 -4.5 11 -3.5 l161 14 q7 1 12 6 q5 5 6 11 l20 140 Z" /><glyph glyph-name="p" unicode="p" d="M184 -14 q1 -7 -3.5 -11.5 q-4.5 -4.5 -10.5 -5.5 l-94 -5 q-7 -1 -11.5 3.5 q-4.5 4.5 -5.5 11.5 l-26 472 q-1 7 3.5 11.5 q4.5 4.5 11.5 5.5 l93 5 q7 1 11.5 -3.5 q4.5 -4.5 5.5 -11.5 l11 -200 q1 -7 5.5 -11.5 q4.5 -4.5 11.5 -3.5 l155 9 q15 2 15 17 l-10 132 q0 7 -5 11 q-5 4 -11 3 l-84 -12 q-6 -1 -11 3 q-5 4 -6 10 l-9 62 q-1 7 3 12 q4 5 10 6 l184 26 q6 1 11 -3 q5 -4 5 -10 l23 -328 q0 -15 -15 -17 l-250 -15 q-7 0 -11 -5 q-4 -5 -4 -11 l8 -147 Z" /><glyph glyph-name="q" unicode="q" d="M160 415 q-6 1 -11 -3 q-5 -4 -5 -11 l-10 -132 q0 -15 15 -17 l153 -9 q16 0 16 15 l11 232 q1 7 5.5 11.5 q4.5 4.5 11.5 3.5 l93 -4 q7 -1 11.5 -5.5 q4.5 -4.5 3.5 -11.5 l-23 -505 q-1 -6 -5.5 -10.5 q-4.5 -4.5 -11.5 -4.5 l-94 5 q-6 0 -10.5 5 q-4.5 5 -3.5 11 l6 148 q1 6 -3.5 11 q-4.5 5 -10.5 5 l-249 15 q-15 2 -15 17 l23 328 q0 6 5 10 q5 4 11 3 l184 -26 q6 -1 10 -6 q4 -5 3 -12 l-9 -62 q-1 -6 -6 -10 q-5 -4 -11 -3 l-84 12 Z" /><glyph glyph-name="r" unicode="r" d="M162 -21 q-1 -6 -5.5 -10.5 q-4.5 -4.5 -11.5 -4.5 l-94 5 q-6 0 -10.5 5 q-4.5 5 -4.5 11 l24 505 q0 7 5 11.5 q5 4.5 11 3.5 l94 -4 q7 -1 11.5 -5.5 q4.5 -4.5 3.5 -11.5 l-5 -101 q0 -15 15 -12 l226 54 q6 2 11.5 -1.5 q5.5 -3.5 7.5 -9.5 l22 -91 q3 -16 -12 -19 l-261 -64 q-16 -4 -16 -19 l-11 -242 Z" /><glyph glyph-name="s" unicode="s" d="M274 79 q15 -2 17 14 l5 69 q0 15 -15 15 l-225 -17 q-15 0 -17 15 l-20 216 q-1 6 3 13 q4 7 9 11 l145 91 q5 3 13.5 4.5 q8.5 1.5 14.5 -0.5 l175 -44 q14 -4 11 -19 l-15 -61 q-2 -6 -7.5 -9.5 q-5.5 -3.5 -11.5 -1.5 l-136 34 q-6 2 -14.5 0.5 q-8.5 -1.5 -13.5 -4.5 l-62 -39 q-6 -4 -9.5 -11 q-3.5 -7 -2.5 -13 l6 -67 q1 -6 5.5 -10.5 q4.5 -4.5 11.5 -3.5 l241 17 q7 1 11.5 -3.5 q4.5 -4.5 3.5 -10.5 l-19 -277 q-2 -16 -17 -14 l-305 40 q-6 1 -10.5 6 q-4.5 5 -2.5 11 l8 63 q1 6 6 10 q5 4 11 3 l206 -27 Z" /><glyph glyph-name="t" unicode="t" d="M188 230 q-1 6 -5.5 10 q-4.5 4 -11.5 3 l-128 -18 q-6 -1 -11 3 q-5 4 -7 10 l-17 124 q-2 7 2 12 q4 5 11 6 l138 20 q15 2 15 18 l-7 82 q0 7 4 12 q4 5 11 5 l62 5 q7 1 11.5 -3.5 q4.5 -4.5 5.5 -11.5 l6 -76 q0 -7 5 -11 q5 -4 11 -3 l100 15 q6 1 11 -3 q5 -4 6 -11 l18 -124 q1 -6 -3 -11 q-4 -5 -10 -6 l-110 -16 q-6 -1 -10.5 -6 q-4.5 -5 -3.5 -12 l14 -181 q0 -6 5 -10.5 q5 -4.5 12 -4.5 l62 0 q16 0 16 -16 l0 -63 q0 -6 -4.5 -10.5 q-4.5 -4.5 -11.5 -4.5 l-150 0 q-6 0 -11 4.5 q-5 4.5 -5 10.5 l-20 262 Z" /><glyph glyph-name="u" unicode="u" d="M419 34 q-5 5 -8.5 3 q-3.5 -2 -4.5 -8 l-4 -40 q0 -6 -5 -10.5 q-5 -4.5 -12 -3.5 l-276 25 q-7 0 -12 5 q-5 5 -6 11 l-70 451 q-1 6 3 11 q4 5 10 7 l93 14 q16 2 18 -13 l55 -353 q1 -7 6 -12 q5 -5 12 -5 l145 -13 q6 -1 11 3 q5 4 5 11 l11 361 q1 6 5.5 10.5 q4.5 4.5 10.5 4.5 l63 -2 q7 0 11 -5 q4 -5 4 -11 l-11 -347 q0 -7 3.5 -14.5 q3.5 -7.5 8.5 -11.5 l77 -68 q5 -5 6 -11.5 q1 -6.5 -4 -11.5 l-41 -47 q-5 -5 -11 -5.5 q-6 -0.5 -11 4.5 l-82 71 Z" /><glyph glyph-name="v" unicode="v" d="M190 -33 q-6 -2 -12.5 0.5 q-6.5 2.5 -8.5 8.5 l-133 335 q-3 6 -0.5 12.5 q2.5 6.5 8.5 8.5 l117 46 q6 2 12 -0.5 q6 -2.5 8 -8.5 l134 -335 q2 -6 -0.5 -12 q-2.5 -6 -8.5 -8 l-116 -47 ZM399 324 q3 6 9.5 7.5 q6.5 1.5 11.5 -1.5 l41 -24 q13 -7 6 -21 l-94 -162 q-8 -13 -22 -6 l-40 24 q-13 7 -6 21 l94 162 Z" /><glyph glyph-name="w" unicode="w" d="M337 156 q-6 3 -13 3 q-7 0 -12 -5 l-215 -191 q-5 -5 -8.5 -3 q-3.5 2 -5.5 8 l-62 472 q-1 7 3 12 q4 5 10 6 l62 8 q7 1 12 -3 q5 -4 6 -10 l39 -297 q1 -7 5 -8.5 q4 -1.5 9 3.5 l136 121 q5 5 12.5 5.5 q7.5 0.5 12.5 -3.5 l83 -55 q13 -8 15 7 l26 228 q1 6 6 10 q5 4 12 3 l93 -10 q6 -1 10.5 -6 q4.5 -5 3.5 -12 l-34 -291 q-1 -7 3 -14 q4 -7 9 -10 l30 -21 q6 -3 7.5 -9.5 q1.5 -6.5 -2.5 -11.5 l-35 -53 q-9 -12 -17 -7 q-8 6 -10 -10 l-8 -65 q0 -7 -5 -11 q-5 -4 -12 -3 l-93 11 q-16 2 -14 17 l15 129 q1 6 -2.5 13 q-3.5 7 -9.5 11 l-62 42 Z" /><glyph glyph-name="x" unicode="x" d="M39 -14 q-5 5 -6 11 q-1 6 4 11 l119 142 q5 5 5 12 q0 7 -4 12 l-105 130 q-9 11 3 22 l73 59 q11 9 22 -3 l89 -111 q4 -5 9.5 -5 q5.5 0 10.5 5 l82 97 q5 5 11 6 q6 1 11 -4 l36 -30 q5 -5 6 -11 q1 -6 -4 -11 l-92 -109 q-5 -5 -5 -12 q0 -7 5 -12 l116 -145 q4 -5 3.5 -11.5 q-0.5 -6.5 -5.5 -10.5 l-73 -59 q-5 -4 -11.5 -3.5 q-6.5 0.5 -10.5 5.5 l-102 126 q-9 12 -20 1 l-109 -130 q-5 -5 -11 -6 q-6 -1 -11 4 l-36 30 Z" /><glyph glyph-name="y" unicode="y" d="M161 469 q11 11 22 0 l116 -118 q10 -11 -1 -22 l-89 -88 q-5 -5 -11 -4.5 q-6 0.5 -11 5.5 l-116 117 q-5 5 -4.5 11 q0.5 6 5.5 11 l89 88 ZM459 454 q11 11 23 1 l45 -44 q11 -11 0 -22 l-181 -190 q-5 -5 -11 -11.5 q-6 -6.5 -11 -11.5 l-220 -233 q-5 -5 -11 -5.5 q-6 -0.5 -11 4.5 l-46 43 q-5 5 -5 11 q0 6 4 11 l221 234 q5 5 11 11.5 q6 6.5 11 11.5 l181 190 Z" /><glyph glyph-name="z" unicode="z" d="M354 61 q-7 -14 8 -14 l152 0 q7 0 11.5 -4.5 q4.5 -4.5 4.5 -10.5 l0 -63 q0 -16 -16 -16 l-310 0 q-6 0 -8.5 4.5 q-2.5 4.5 0.5 9.5 l132 244 q3 5 0.5 9 q-2.5 4 -8.5 3 l-270 -24 q-6 -1 -11 3.5 q-5 4.5 -6 10.5 l-5 63 q-1 6 3 11 q4 5 11 6 l444 39 q6 1 8.5 -2.5 q2.5 -3.5 -0.5 -9.5 l-140 -259 Z" /><glyph glyph-name="quoteleft" unicode="&#x2018;" d="M709 549 l-74 196 l120 27 l18 -75 l-33 -8 l42 -113 l-73 -27 l0 0 Z" /><glyph glyph-name="ellipsis" unicode="&#x2026;" d="M289 274 l-225 50 l17 76 l225 -50 l-17 -76 l0 0 ZM575 274 l-225 50 l17 76 l225 -50 l-17 -76 l0 0 ZM875 274 l-225 50 l17 76 l225 -50 l-17 -76 l0 0 Z" /><glyph glyph-name="uni3002" unicode="&#x3002;" d="M186 -104 l-14 192 l226 12 l-27 -187 l-185 -17 l0 0 ZM255 14 l3 -33 l45 4 l4 32 l-52 -3 l0 0 Z" /><glyph glyph-name="uni4E00" unicode="&#x4e00;" d="M898 379 q1 -9 -4 -16.5 q-5 -7.5 -14 -8.5 l-740 -118 q-9 -1 -16 4 q-7 5 -8 13 l-14 87 q-2 10 3 17 q5 7 15 9 l739 118 q9 2 16 -3.5 q7 -5.5 9 -13.5 l14 -88 l0 0 Z" /><glyph glyph-name="uni4E03" unicode="&#x4e03;" d="M821 168 q16 -5 13 -22 l-30 -134 q-2 -8 -8 -12.5 q-6 -4.5 -13 -3.5 l-401 21 q-7 1 -12 6 q-5 5 -5 13 l0 333 q0 8 -5 12 q-5 4 -13 3 l-185 -26 q-8 -1 -13.5 3.5 q-5.5 4.5 -6.5 12.5 l-4 27 q-1 7 3.5 12.5 q4.5 5.5 11.5 7.5 l194 26 q8 2 13 7.5 q5 5.5 5 12.5 l0 214 q0 7 5 12 q5 5 12 5 l53 0 q7 0 12 -5 q5 -5 5 -12 l0 -201 q0 -8 5 -12.5 q5 -4.5 13 -3.5 l341 48 q8 1 13.5 -3.5 q5.5 -4.5 6.5 -11.5 l4 -28 q2 -7 -2.5 -12.5 q-4.5 -5.5 -12.5 -6.5 l-350 -49 q-8 -1 -13 -6.5 q-5 -5.5 -5 -13.5 l0 -262 q0 -8 5 -13 q5 -5 13 -6 l243 -13 q17 0 22 17 l13 62 q2 7 8 11 q6 4 13 2 l52 -11 l0 0 Z" /><glyph glyph-name="uni4E09" unicode="&#x4e09;" d="M238 591 q-10 1 -17 9 q-7 8 -6 19 l5 52 q1 12 9 18.5 q8 6.5 20 5.5 l518 -45 q12 -1 19 -9.5 q7 -8.5 5 -18.5 l-4 -53 q-1 -12 -10 -19 q-9 -7 -19 -5 l-520 46 ZM730 411 q12 0 20 -8 q8 -8 8 -18 l0 -31 q1 -12 -7 -19.5 q-8 -7.5 -18 -7.5 l-489 -10 q-10 -1 -18 7 q-8 8 -8 18 l-2 31 q0 12 7.5 19.5 q7.5 7.5 19.5 8.5 l487 10 ZM864 66 q1 -11 -6.5 -19 q-7.5 -8 -18.5 -8 l-673 -16 q-12 0 -19.5 7 q-7.5 7 -7.5 18 l-2 65 q0 12 7.5 19.5 q7.5 7.5 18.5 8.5 l673 16 q11 0 19 -7.5 q8 -7.5 8 -18.5 l1 -65 Z" /><glyph glyph-name="uni4E24" unicode="&#x4e24;" d="M330 512 q10 0 18.5 6 q8.5 6 11.5 14 l39 111 q4 9 0 15.5 q-4 6.5 -13 7.5 l-229 15 q-8 1 -14.5 7.5 q-6.5 6.5 -5.5 15.5 l2 43 q2 10 8.5 16 q6.5 6 14.5 5 l689 -45 q9 -1 15.5 -7 q6.5 -6 5.5 -16 l-2 -43 q-1 -11 -8 -16.5 q-7 -5.5 -16 -5.5 l-109 8 q-9 0 -12 -0.5 q-3 -0.5 2 -3.5 q5 -2 5 -9 q0 -7 -3 -16 l-32 -76 q-3 -7 1 -13 q4 -6 12 -6 l170 3 q10 1 16 -5 q6 -6 6 -16 l0 -531 q0 -9 -6 -14 q-6 -5 -15 -3 l-122 23 q-8 2 -13 9 q-5 7 -4 17 l9 43 q1 9 8.5 14 q7.5 5 17.5 3 l16 -3 q9 -2 15 3.5 q6 5.5 6 14.5 l0 335 q0 9 -6 15.5 q-6 6.5 -15 4.5 l-120 -2 q-9 0 -18.5 -5.5 q-9.5 -5.5 -12.5 -15.5 l-39 -93 q-4 -8 -1 -11 q3 -3 11 2 l47 28 q8 4 19 4.5 q11 0.5 19 -3.5 l80 -42 q7 -4 9.5 -12.5 q2.5 -8.5 -1.5 -17.5 l-20 -37 q-4 -9 -13 -12 q-9 -3 -17 1 l-35 19 q-8 4 -19 4 q-11 0 -19 -4 l-234 -138 q-8 -5 -11 -2 q-3 3 1 11 l128 302 q3 8 -1 14 q-4 6 -13 6 l-96 -3 q-9 0 -17.5 -6 q-8.5 -6 -12.5 -14 l-11 -35 q-4 -8 -1.5 -11.5 q2.5 -3.5 9.5 0.5 q6 3 16 2.5 q10 -0.5 18 -5.5 l38 -18 q8 -5 11 -13.5 q3 -8.5 -1 -16.5 l-20 -39 q-5 -8 -13 -11.5 q-8 -3.5 -15 1.5 q-8 3 -18.5 2.5 q-10.5 -0.5 -19.5 -5.5 l-154 -85 q-8 -4 -11.5 -1.5 q-3.5 2.5 -0.5 12.5 l79 220 q4 10 -0.5 15.5 q-4.5 5.5 -13.5 5.5 l-83 -2 q-9 0 -14.5 -6.5 q-5.5 -6.5 -4.5 -15.5 l44 -413 q1 -9 -5.5 -16 q-6.5 -7 -14.5 -8 l-44 -5 q-10 -1 -16.5 4.5 q-6.5 5.5 -7.5 15.5 l-54 508 q-1 9 5 15.5 q6 6.5 15 6.5 l211 5 ZM469 644 q10 -2 14 -10 q4 -8 0 -18 l-28 -81 q-4 -9 0 -15 q4 -6 13 -6 l102 2 q10 0 18.5 6.5 q8.5 6.5 12.5 14.5 l38 91 q4 8 0 14.5 q-4 6.5 -13 7.5 l-186 11 q-10 1 -10.5 -0.5 q-0.5 -1.5 8.5 -3.5 l31 -13 Z" /><glyph glyph-name="uni4E5D" unicode="&#x4e5d;" d="M810 284 q12 0 19.5 -7.5 q7.5 -7.5 7.5 -19.5 l-1 -166 q0 -12 -7.5 -19 q-7.5 -7 -19.5 -7 l-146 8 q-10 0 -18 8 q-8 8 -8 20 l-15 392 q-1 10 -9 17 q-8 7 -19 5 l-101 -13 q-10 -1 -19.5 -9.5 q-9.5 -8.5 -11.5 -18.5 l-87 -416 q-3 -10 -12 -15.5 q-9 -5.5 -21 -3.5 l-33 7 q-11 2 -17 11 q-6 9 -4 21 l81 383 q3 10 -3 17 q-6 7 -17 6 l-151 -21 q-11 -1 -19.5 5.5 q-8.5 6.5 -9.5 17.5 l-5 35 q-1 11 5.5 19.5 q6.5 8.5 16.5 10.5 l182 24 q11 1 20.5 9.5 q9.5 8.5 11.5 20.5 l13 55 q1 11 10 17 q9 6 19 4 l36 -7 q10 -3 16 -12 q6 -9 4 -19 l-6 -27 q-2 -10 4 -17 q6 -7 17 -6 l165 22 q12 1 19.5 -5.5 q7.5 -6.5 7.5 -17.5 l17 -408 q0 -11 4 -19 q4 -8 10 -8 q4 -1 8 7 q4 8 4 19 l0 75 q0 11 8 18.5 q8 7.5 19 7.5 l35 0 l0 0 Z" /><glyph glyph-name="uni4E8C" unicode="&#x4e8c;" d="M288 502 q-3 9 2 16.5 q5 7.5 14 10.5 l315 87 q8 2 16 -2.5 q8 -4.5 10 -12.5 l8 -30 q4 -9 -0.5 -16.5 q-4.5 -7.5 -14.5 -11.5 l-315 -86 q-9 -2 -16.5 2.5 q-7.5 4.5 -10.5 12.5 l-8 30 ZM870 191 q1 -9 -5 -16 q-6 -7 -15 -8 l-689 -65 q-9 -1 -16 4.5 q-7 5.5 -8 14.5 l-7 68 q-1 9 5.5 16 q6.5 7 14.5 8 l690 66 q9 1 16 -5 q7 -6 8 -15 l6 -68 Z" /><glyph glyph-name="uni4E94" unicode="&#x4e94;" d="M300 627 q-9 1 -14 8.5 q-5 7.5 -4 16.5 l5 44 q2 9 9.5 14 q7.5 5 16.5 4 l395 -55 q10 -1 15 -8.5 q5 -7.5 4 -17.5 l-6 -42 q-1 -10 -8.5 -15.5 q-7.5 -5.5 -15.5 -4.5 l-397 56 ZM846 93 q10 0 16.5 -6 q6.5 -6 6.5 -16 l0 -44 q0 -9 -6.5 -15 q-6.5 -6 -16.5 -6 l-693 0 q-9 0 -15.5 6 q-6.5 6 -6.5 15 l0 44 q0 10 6.5 16 q6.5 6 15.5 6 l162 0 q9 0 16.5 6.5 q7.5 6.5 9.5 15.5 l53 250 q3 10 -2.5 16 q-5.5 6 -14.5 7 l-144 12 q-10 0 -15.5 7 q-5.5 7 -4.5 16 l3 44 q1 9 7.5 14.5 q6.5 5.5 15.5 5.5 l157 -12 q9 0 16.5 5.5 q7.5 5.5 9.5 14.5 l7 35 q2 9 9.5 13.5 q7.5 4.5 16.5 3.5 l43 -9 q9 -2 14 -9.5 q5 -7.5 3 -16.5 l-4 -23 q-3 -10 2.5 -16 q5.5 -6 14.5 -7 l237 -18 q9 -1 13 -7.5 q4 -6.5 0 -14.5 l-117 -312 q-3 -8 1 -14.5 q4 -6.5 14 -6.5 l170 0 ZM654 347 q4 8 0 14.5 q-4 6.5 -14 7.5 l-131 10 q-9 0 -16.5 -5.5 q-7.5 -5.5 -9.5 -14.5 l-52 -244 q-2 -9 3 -15.5 q5 -6.5 14 -6.5 l89 0 q10 0 19 6.5 q9 6.5 11 14.5 l87 233 Z" /><glyph glyph-name="uni516B" unicode="&#x516b;" d="M470 689 q10 -2 14.5 -10.5 q4.5 -8.5 1.5 -17.5 l-230 -705 q-3 -10 -12 -14 q-9 -4 -19 -2 l-101 30 q-10 3 -14.5 11.5 q-4.5 8.5 -1.5 17.5 l231 705 q3 9 11.5 13.5 q8.5 4.5 18.5 1.5 l101 -30 ZM897 19 q8 -6 9 -15.5 q1 -9.5 -5 -17.5 l-44 -53 q-6 -8 -16 -9 q-10 -1 -18 5 l-142 104 q-8 6 -14 17 q-6 11 -8 20 l-84 617 q-2 10 4.5 17 q6.5 7 16.5 9 l71 9 q10 1 17.5 -5 q7.5 -6 9.5 -15 l78 -571 q1 -9 7.5 -20 q6.5 -11 14.5 -17 l103 -75 Z" /><glyph glyph-name="uni516D" unicode="&#x516d;" d="M363 449 q8 -4 11.5 -12 q3.5 -8 -0.5 -17 l-145 -377 q-3 -10 -11 -13 q-8 -3 -17 0 l-29 10 q-8 4 -12 12.5 q-4 8.5 -1 16.5 l145 376 q4 9 -0.5 14.5 q-4.5 5.5 -13.5 5.5 l-131 -6 q-9 -1 -15.5 5 q-6.5 6 -7.5 16 l-1 30 q0 10 6 16.5 q6 6.5 15 7.5 l308 13 q9 2 11.5 6.5 q2.5 4.5 -3.5 12.5 l-58 70 q-5 7 -4.5 16 q0.5 9 7.5 15 l24 20 q7 5 16 4 q9 -1 15 -8 l67 -81 q7 -7 5.5 -16.5 q-1.5 -9.5 -8.5 -15.5 l-8 -6 q-7 -6 -5.5 -9.5 q1.5 -3.5 10.5 -3.5 l278 13 q9 1 15.5 -5.5 q6.5 -6.5 7.5 -15.5 l1 -31 q2 -9 -4.5 -15.5 q-6.5 -6.5 -15.5 -7.5 l-475 -22 q-9 -1 -10 -3.5 q-1 -2.5 9 -5.5 l24 -9 ZM862 109 q4 -7 2 -16 q-2 -9 -10 -14 l-53 -31 q-7 -4 -16 -2 q-9 2 -14 9 l-201 341 q-5 8 -2.5 16.5 q2.5 8.5 10.5 13.5 l52 32 q8 4 17 2 q9 -2 14 -10 l201 -341 Z" /><glyph glyph-name="uni51B2" unicode="&#x51b2;" d="M260 510 q-7 -5 -15.5 -4.5 q-8.5 0.5 -15.5 6.5 l-122 134 q-6 7 -5.5 15.5 q0.5 8.5 7.5 15.5 l25 24 q7 6 16 5.5 q9 -0.5 16 -7.5 l121 -133 q7 -7 6.5 -16.5 q-0.5 -9.5 -7.5 -14.5 l-26 -25 ZM160 102 q-7 -7 -16.5 -5.5 q-9.5 1.5 -13.5 9.5 l-39 48 q-6 7 -5 16 q1 9 9 14 l122 98 q8 5 17 4 q9 -1 14 -8 l38 -48 q6 -8 5 -16.5 q-1 -8.5 -8 -14.5 l-123 -97 ZM668 638 q0 -10 6.5 -14.5 q6.5 -4.5 14.5 -3.5 l203 45 q10 2 16 -3 q6 -5 5 -15 l-16 -432 q-1 -9 -7.5 -15.5 q-6.5 -6.5 -15.5 -6.5 l-188 4 q-9 0 -16 -6.5 q-7 -6.5 -7 -15.5 l-1 -164 q0 -9 -6 -15 q-6 -6 -16 -6 l-43 1 q-9 0 -15.5 5.5 q-6.5 5.5 -6.5 16.5 l1 163 q0 9 -6.5 15.5 q-6.5 6.5 -15.5 7.5 l-179 2 q-9 0 -15.5 6.5 q-6.5 6.5 -7.5 15.5 l-16 297 q-1 10 5 17.5 q6 7.5 14 9.5 l204 44 q8 2 14.5 10 q6.5 8 6.5 18 l1 88 q0 8 6 15 q6 7 16 7 l44 -1 q10 0 16 -6.5 q6 -6.5 5 -15.5 l0 -68 ZM555 303 q10 0 16 6.5 q6 6.5 6 15.5 l1 141 q0 9 -6 14 q-6 5 -14 3 l-91 -20 q-9 -2 -15.5 -9.5 q-6.5 -7.5 -5.5 -16.5 l6 -111 q0 -8 7 -14.5 q7 -6.5 16 -6.5 l80 -2 ZM689 512 q-9 -2 -15.5 -10 q-6.5 -8 -6.5 -17 l-1 -161 q-1 -9 5.5 -15.5 q6.5 -6.5 14.5 -6.5 l87 -2 q8 0 15 6.5 q7 6.5 8 15.5 l7 193 q1 9 -5.5 14.5 q-6.5 5.5 -15.5 2.5 l-93 -20 Z" /><glyph glyph-name="uni51C0" unicode="&#x51c0;" d="M851 410 q-3 -9 2.5 -15.5 q5.5 -6.5 14.5 -6.5 l7 0 q9 0 15.5 -6.5 q6.5 -6.5 6.5 -15.5 l0 -5 q0 -10 -6.5 -16 q-6.5 -6 -15.5 -6 l-19 0 q-9 0 -17 -6.5 q-8 -6.5 -10 -15.5 l-30 -123 q-3 -9 -10 -14.5 q-7 -5.5 -17 -2.5 l-41 10 q-9 2 -15 5.5 q-6 3.5 -5 7.5 q2 3 -4.5 5.5 q-6.5 2.5 -15.5 2.5 l-37 -2 q-9 -1 -15 -7 q-6 -6 -5 -16 l14 -140 q1 -9 -3.5 -19 q-4.5 -10 -12.5 -14 l-101 -59 q-8 -4 -17.5 -2 q-9.5 2 -13.5 9 l-15 26 q-5 9 -2.5 18 q2.5 9 10.5 14 l60 34 q8 5 12.5 14.5 q4.5 9.5 4.5 18.5 l-10 98 q-2 9 -8.5 15 q-6.5 6 -16.5 6 l-144 -6 q-10 0 -16 6.5 q-6 6.5 -7 15.5 l0 26 q-2 10 4.5 16 q6.5 6 15.5 6 l141 6 q9 0 14.5 7 q5.5 7 4.5 15 l-1 23 q-1 9 -8 15.5 q-7 6.5 -16 6.5 l-203 0 q-9 0 -15 6 q-6 6 -6 16 l0 5 q0 9 6 15.5 q6 6.5 15 6.5 l198 0 q8 0 14.5 6.5 q6.5 6.5 5.5 15.5 l-4 32 q-1 9 4 16 q5 7 12 7 q8 1 7.5 2.5 q-0.5 1.5 -9.5 2.5 l-153 14 q-9 1 -15 8 q-6 7 -4 16 l3 43 q1 8 8 14.5 q7 6.5 16 5.5 l278 -25 q10 -1 11 1.5 q1 2.5 -6 7.5 q-8 6 -9 14.5 q-1 8.5 3 16.5 l37 51 q5 8 2.5 13.5 q-2.5 5.5 -11.5 6.5 l-127 13 q-10 1 -19.5 -4 q-9.5 -5 -14.5 -13 l-39 -59 q-5 -8 -13.5 -10.5 q-8.5 -2.5 -16.5 3.5 l-37 23 q-8 6 -9.5 14.5 q-1.5 8.5 3.5 16.5 l77 120 q6 8 14.5 9 q8.5 1 16.5 -4 l36 -23 q8 -5 12 -10.5 q4 -5.5 3 -7.5 q-1 -3 3.5 -5 q4.5 -2 13.5 -3 l188 -18 q9 -2 11.5 -7.5 q2.5 -5.5 -2.5 -13.5 l-84 -117 q-6 -8 -3 -14 q3 -6 12 -7 l124 -10 q8 -2 13.5 -8.5 q5.5 -6.5 3.5 -16.5 l-23 -95 ZM612 410 q2 -9 8.5 -15.5 q6.5 -6.5 16.5 -6.5 l97 0 q10 0 17.5 6.5 q7.5 6.5 9.5 15.5 l4 18 q3 8 -1.5 15 q-4.5 7 -15.5 8 l-119 11 q-10 1 -15.5 -5 q-5.5 -6 -4.5 -15 l3 -32 ZM739 317 q2 9 -2.5 15.5 q-4.5 6.5 -14.5 6.5 l-81 0 q-9 0 -14.5 -6.5 q-5.5 -6.5 -4.5 -15.5 l1 -20 q1 -9 8.5 -15.5 q7.5 -6.5 15.5 -4.5 l61 2 q9 0 17 6.5 q8 6.5 11 15.5 l3 16 ZM250 398 q-6 -6 -15 -7 q-9 -1 -16 6 l-108 100 q-7 6 -7.5 15.5 q-0.5 9.5 6.5 15.5 l46 50 q6 7 15 7.5 q9 0.5 16 -6.5 l108 -99 q7 -7 7.5 -15.5 q0.5 -8.5 -6.5 -15.5 l-46 -51 ZM200 344 q3 10 11 14 q8 4 17 0 l29 -10 q8 -4 12 -12 q4 -8 2 -16 l-75 -212 q-3 -9 -11 -13 q-8 -4 -18 -1 l-28 10 q-8 4 -12 12 q-4 8 -2 16 l75 212 Z" /><glyph glyph-name="uni51FB" unicode="&#x51fb;" d="M539 743 q9 0 15.5 -6.5 q6.5 -6.5 5.5 -16.5 l-4 -52 q0 -10 6 -16 q6 -6 15 -7 l180 -17 q9 -1 14.5 -7.5 q5.5 -6.5 4.5 -15.5 l-5 -52 q-1 -10 -7 -15.5 q-6 -5.5 -17 -4.5 l-176 15 q-9 1 -16 -5.5 q-7 -6.5 -8 -15.5 l-3 -65 q-1 -9 5 -15.5 q6 -6.5 15 -6.5 l204 7 q9 1 15.5 -5.5 q6.5 -6.5 6.5 -15.5 l1 -34 q1 -11 -5 -17 q-6 -6 -16 -8 l-211 -5 q-9 -1 -15.5 -7.5 q-6.5 -6.5 -7.5 -15.5 l-14 -210 q0 -9 -7 -14.5 q-7 -5.5 -16 -5.5 l-48 3 q-10 1 -16 8 q-6 7 -5 15 l13 200 q1 9 -5.5 15.5 q-6.5 6.5 -15.5 6.5 l-198 -7 q-10 0 -16.5 6.5 q-6.5 6.5 -6.5 14.5 l-1 36 q-1 9 5 16 q6 7 16 7 l205 6 q11 0 17 6.5 q6 6.5 8 16.5 l4 76 q1 10 -4.5 16.5 q-5.5 6.5 -15.5 7.5 l-149 13 q-9 1 -15.5 8 q-6.5 7 -5.5 16 l5 53 q1 8 8 14.5 q7 6.5 16 5.5 l147 -13 q10 -1 16 4.5 q6 5.5 7 16.5 l4 49 q1 9 7.5 15.5 q6.5 6.5 15.5 5.5 l48 -4 ZM773 303 q9 1 16 -4.5 q7 -5.5 8 -15.5 l32 -285 q1 -9 -4 -16 q-5 -7 -16 -8 l-21 -2 q-8 -1 -15 3.5 q-7 4.5 -8 10.5 q-2 8 -8.5 12.5 q-6.5 4.5 -16.5 4.5 l-549 -32 q-8 -1 -14.5 5 q-6.5 6 -5.5 15 l29 258 q1 9 8 15 q7 6 17 5 l44 -5 q9 -1 14 -8 q5 -7 4 -16 l-16 -155 q-1 -10 4 -15.5 q5 -5.5 15 -5.5 l441 25 q8 1 14 8 q6 7 5 15 l-19 163 q-1 10 5 16.5 q6 6.5 15 8.5 l22 3 Z" /><glyph glyph-name="uni5200" unicode="&#x5200;" d="M861 746 q11 1 18.5 -6 q7.5 -7 7.5 -19 l-5 -729 q0 -11 -7.5 -16 q-7.5 -5 -18.5 -3 l-259 70 q-10 2 -15.5 12 q-5.5 10 -2.5 20 l21 76 q2 12 12 17 q10 5 20 1 l93 -25 q10 -2 18.5 3.5 q8.5 5.5 8.5 16.5 l2 418 q0 12 -7.5 19.5 q-7.5 7.5 -19.5 6.5 l-341 -18 q-12 0 -12 -3.5 q0 -3.5 10 -6.5 l21 -9 q11 -4 15.5 -14 q4.5 -10 1.5 -20 l-198 -511 q-5 -9 -14.5 -14 q-9.5 -5 -20.5 -1 l-54 20 q-9 5 -13.5 15 q-4.5 10 -1.5 20 l193 497 q4 10 -0.5 17 q-4.5 7 -16.5 6 l-153 -7 q-10 -1 -18 6.5 q-8 7.5 -9 17.5 l-4 79 q-1 12 6.5 20 q7.5 8 17.5 8 l725 36 l0 0 Z" /><glyph glyph-name="uni5206" unicode="&#x5206;" d="M177 500 q-6 -6 -14.5 -6 q-8.5 0 -15.5 6 l-38 41 q-6 7 -6 16 q0 9 6 16 l165 176 q6 7 15.5 7 q9.5 0 14.5 -7 l38 -42 q6 -5 6 -14.5 q0 -9.5 -6 -16.5 l-165 -176 ZM700 536 q8 1 13.5 -4.5 q5.5 -5.5 4.5 -16.5 l-53 -544 q-1 -10 -6.5 -12 q-5.5 -2 -13.5 2 l-171 113 q-6 4 -8 13.5 q-2 9.5 2 16.5 l38 65 q4 7 12 9.5 q8 2.5 16 -2.5 l18 -11 q8 -5 13 -2 q5 3 6 12 l21 207 q1 9 -5 15 q-6 6 -14 5 l-48 -5 q-8 -1 -18 -6.5 q-10 -5.5 -15 -13.5 l-243 -330 q-6 -8 -14.5 -9 q-8.5 -1 -15.5 6 l-56 47 q-7 6 -7.5 14.5 q-0.5 8.5 3.5 16.5 l177 239 q6 8 4 13 q-2 5 -12 3 l-58 -6 q-9 -2 -15.5 4.5 q-6.5 6.5 -7.5 15.5 l-7 76 q-1 9 4.5 16 q5.5 7 14.5 8 l441 45 ZM890 591 q7 -5 8 -14 q1 -9 -4 -17 l-33 -47 q-5 -7 -13.5 -8 q-8.5 -1 -15.5 4 l-206 165 q-8 6 -9 15 q-1 9 5 16 l32 47 q6 7 14.5 9 q8.5 2 14.5 -4 l207 -166 Z" /><glyph glyph-name="uni5207" unicode="&#x5207;" d="M431 500 q1 -10 -3.5 -17.5 q-4.5 -7.5 -13.5 -8.5 l-88 -19 q-10 -3 -16.5 -10.5 q-6.5 -7.5 -8.5 -16.5 l-24 -279 q-1 -9 5 -13 q6 -4 14 0 l26 10 q8 4 16.5 1 q8.5 -3 12.5 -12 l18 -40 q3 -8 0 -17 q-3 -9 -12 -12 l-161 -69 q-8 -3 -14 1 q-6 4 -5 13 l35 398 q1 9 -5 14 q-6 5 -15 3 l-48 -10 q-9 -3 -16.5 2.5 q-7.5 5.5 -10.5 14.5 l-9 42 q-1 10 3.5 17.5 q4.5 7.5 13.5 9.5 l75 16 q9 2 16 9.5 q7 7.5 8 16.5 l14 159 q1 10 7.5 16 q6.5 6 15.5 5 l44 -4 q10 -1 16 -8 q6 -7 5 -16 l-12 -132 q-1 -9 4.5 -14.5 q5.5 -5.5 15.5 -2.5 l62 12 q9 3 16.5 -2 q7.5 -5 8.5 -14 l10 -43 ZM891 105 q0 -9 -5.5 -14 q-5.5 -5 -14.5 -4 l-151 24 q-9 1 -14.5 8.5 q-5.5 7.5 -3.5 16.5 l6 43 q2 10 9.5 14.5 q7.5 4.5 16.5 3.5 l43 -6 q9 -2 15 3 q6 5 6 15 l-21 372 q0 9 -6.5 14.5 q-6.5 5.5 -16.5 4.5 l-24 -5 q-9 -2 -17.5 -9 q-8.5 -7 -10.5 -16 l-190 -559 q-2 -8 -11 -12 q-9 -4 -17 -1 l-41 14 q-9 2 -13 10 q-4 8 -1 18 l174 512 q2 8 -2 13.5 q-4 5.5 -13 3.5 l-110 -20 q-9 -2 -16.5 3 q-7.5 5 -9.5 14 l-8 43 q-1 9 4 16.5 q5 7.5 14 9.5 l375 69 q9 1 15.5 -4 q6.5 -5 7.5 -14 l31 -581 Z" /><glyph glyph-name="uni529B" unicode="&#x529b;" d="M809 636 q8 1 13.5 -3.5 q5.5 -4.5 5.5 -12.5 l0 -621 q0 -8 -5.5 -13 q-5.5 -5 -13.5 -5 l-270 0 q-7 0 -12.5 5 q-5.5 5 -5.5 13 l0 82 q0 6 5.5 12 q5.5 6 12.5 6 l151 0 q8 0 13 5.5 q5 5.5 5 14.5 l0 353 q0 8 -5 12.5 q-5 4.5 -13 3.5 l-220 -49 q-8 -2 -15 -8.5 q-7 -6.5 -9 -14.5 l-100 -409 q-1 -8 -8 -12 q-7 -4 -15 -3 l-37 9 q-8 3 -12 9 q-4 6 -2 14 l91 374 q3 8 -1.5 12 q-4.5 4 -12.5 3 l-136 -30 q-8 -2 -15 2.5 q-7 4.5 -8 12.5 l-18 78 q-2 8 2.5 14.5 q4.5 6.5 11.5 8.5 l196 43 q8 1 14 8 q6 7 9 15 l39 160 q1 8 8 11.5 q7 3.5 15 1.5 l37 -9 q8 -2 12 -8.5 q4 -6.5 1 -14.5 l-30 -123 q-2 -8 2 -12.5 q4 -4.5 12 -2.5 l308 68 l0 0 Z" /><glyph glyph-name="uni52B2" unicode="&#x52b2;" d="M321 382 q-7 4 -13.5 2.5 q-6.5 -1.5 -10.5 -5.5 l-68 -91 q-5 -6 -2.5 -8.5 q2.5 -2.5 9.5 -1.5 l124 20 q7 2 12.5 -2.5 q5.5 -4.5 6.5 -10.5 l6 -33 q1 -7 -3.5 -12.5 q-4.5 -5.5 -10.5 -6.5 l-22 -4 q-6 -1 -11.5 -6.5 q-5.5 -5.5 -5.5 -12.5 l0 -58 q0 -8 5.5 -11.5 q5.5 -3.5 10.5 -0.5 l58 15 q7 2 12.5 -1.5 q5.5 -3.5 7.5 -10.5 l15 -57 q3 -7 -0.5 -13 q-3.5 -6 -10.5 -7 l-234 -63 q-6 -2 -12 1 q-6 3 -7 10 l-16 58 q-2 7 1 12.5 q3 5.5 10 8.5 l103 26 q7 2 11.5 8.5 q4.5 6.5 4.5 13.5 l0 62 q0 7 -4.5 11 q-4.5 4 -11.5 3 l-33 -5 q-6 -1 -12 3 q-6 4 -7 11 l-5 28 q-1 6 -5 7.5 q-4 1.5 -7 -4.5 l-11 -14 q-4 -6 -10.5 -7 q-6.5 -1 -13.5 4 l-39 30 q-6 4 -7 10.5 q-1 6.5 4 12.5 l208 278 q4 6 6.5 13.5 q2.5 7.5 2.5 11.5 q-1 5 -7 8 q-6 3 -13 1 l-136 -17 q-7 -1 -12.5 3.5 q-5.5 4.5 -6.5 10.5 l-7 49 q-1 7 3.5 12.5 q4.5 5.5 11.5 6.5 l218 27 q6 2 12 -2 q6 -4 7 -11 l15 -105 q1 -7 -1 -15.5 q-2 -8.5 -7 -14.5 l-63 -86 q-5 -6 -4 -12.5 q1 -6.5 7 -10.5 l72 -50 q5 -3 6.5 -10 q1.5 -7 -3.5 -13 l-22 -32 q-4 -6 -11 -7 q-7 -1 -12 4 l-72 50 ZM685 600 q-1 -7 2 -11.5 q3 -4.5 10 -4.5 l162 -5 q8 0 12.5 -4.5 q4.5 -4.5 3.5 -12.5 l-49 -541 q0 -7 -6 -12 q-6 -5 -13 -5 l-115 0 q-7 0 -11.5 5 q-4.5 5 -4.5 12 l0 50 q0 7 4.5 12 q4.5 5 11.5 5 l40 0 q6 0 12 4 q6 4 6 12 l34 377 q1 7 -3.5 12 q-4.5 5 -11.5 5 l-99 3 q-7 0 -13 -4.5 q-6 -4.5 -9 -11.5 l-128 -399 q-3 -7 -9 -10.5 q-6 -3.5 -13 -1.5 l-29 9 q-6 3 -9.5 8.5 q-3.5 5.5 -0.5 12.5 l123 383 q2 7 -1.5 11.5 q-3.5 4.5 -10.5 4.5 l-92 2 q-7 0 -11.5 5.5 q-4.5 5.5 -4.5 12.5 l1 49 q0 7 5.5 11.5 q5.5 4.5 12.5 4.5 l116 -2 q7 0 13 4.5 q6 4.5 9 10.5 l33 103 q2 6 8.5 9.5 q6.5 3.5 12.5 1.5 l29 -10 q6 -2 9.5 -8 q3.5 -6 1.5 -12 l-28 -85 Z" /><glyph glyph-name="uni5341" unicode="&#x5341;" d="M880 423 q1 -11 -6.5 -18.5 q-7.5 -7.5 -17.5 -8.5 l-285 -19 q-12 -1 -19.5 -9 q-7.5 -8 -7.5 -18 l0 -366 q0 -12 -8 -19 q-8 -7 -18 -7 l-36 0 q-10 0 -18 7 q-8 7 -8 19 l0 360 q0 10 -7.5 17.5 q-7.5 7.5 -17.5 6.5 l-281 -17 q-10 -1 -18.5 5.5 q-8.5 6.5 -9.5 18.5 l-2 36 q0 10 7 18 q7 8 17 9 l287 19 q10 1 17.5 9 q7.5 8 7.5 18 l0 251 q0 11 8 18.5 q8 7.5 18 7.5 l36 0 q10 0 18 -7.5 q8 -7.5 8 -18.5 l0 -245 q0 -10 7.5 -17.5 q7.5 -7.5 19.5 -7.5 l279 18 q12 1 20 -6.5 q8 -7.5 8 -17.5 l2 -36 Z" /><glyph glyph-name="uni5343" unicode="&#x5343;" d="M901 343 q1 -8 -4 -13 q-5 -5 -13 -6 l-272 -10 q-8 0 -13 -5 q-5 -5 -5 -13 l-7 -349 q0 -8 -5.5 -12.5 q-5.5 -4.5 -12.5 -4.5 l-65 1 q-8 0 -13 5 q-5 5 -5 13 l7 343 q0 8 -4.5 13 q-4.5 5 -12.5 4 l-337 -12 q-8 0 -13 4.5 q-5 4.5 -5 12.5 l-1 27 q-1 8 4 13 q5 5 13 6 l340 12 q8 1 13 6 q5 5 5 13 l3 176 q1 8 -4 12.5 q-5 4.5 -13 3.5 l-253 -26 q-8 -1 -13.5 4 q-5.5 5 -6.5 12 l-4 40 q-1 8 3.5 13 q4.5 5 12.5 6 l515 52 q8 1 17 4.5 q9 3.5 15 8.5 l37 30 q6 5 13 3.5 q7 -1.5 12 -6.5 l25 -32 q5 -5 3.5 -12 q-1.5 -7 -6.5 -12 l-55 -44 q-5 -5 -14.5 -8 q-9.5 -3 -16.5 -4 l-148 -15 q-8 -1 -13 -6.5 q-5 -5.5 -5 -13.5 l-4 -183 q0 -7 5 -12 q5 -5 13 -5 l269 10 q8 0 13 -4.5 q5 -4.5 5 -12.5 l1 -27 Z" /><glyph glyph-name="uni56DB" unicode="&#x56db;" d="M887 303 q1 -8 -2 -15 q-3 -7 -9 -8 q-6 -1 -10 -8 q-4 -7 -4 -16 l-7 -177 q0 -9 -7 -15.5 q-7 -6.5 -16 -7.5 l-632 -17 q-11 0 -18 6 q-7 6 -8 15 l-62 518 q-1 9 5 16 q6 7 15 8 l723 78 q9 1 15.5 -4 q6.5 -5 5.5 -15 l-9 -272 q0 -9 1 -15.5 q1 -6.5 4 -6.5 q3 2 5 -4.5 q2 -6.5 3 -15.5 l7 -44 ZM235 295 q1 -10 7 -12 q6 -2 12 4 l54 48 q8 7 13 17.5 q5 10.5 6 19.5 l19 144 q1 9 -4.5 14 q-5.5 5 -14.5 5 l-98 -11 q-9 -1 -14.5 -7.5 q-5.5 -6.5 -4.5 -16.5 l25 -205 ZM773 243 q0 9 -6 15 q-6 6 -14 5 l-222 -31 q-9 -1 -15 4 q-6 5 -6 14 l24 285 q0 10 -5.5 15.5 q-5.5 5.5 -14.5 4.5 l-53 -6 q-10 -1 -16.5 -8 q-6.5 -7 -8.5 -16 l-25 -197 q-1 -9 -7.5 -20 q-6.5 -11 -11.5 -16 l-118 -105 q-7 -6 -13 -9 q-6 -3 -9 0 q-2 2 -2.5 -2.5 q-0.5 -4.5 0.5 -13.5 l2 -12 q2 -9 8.5 -15.5 q6.5 -6.5 16.5 -6.5 l471 14 q8 0 15 6.5 q7 6.5 7 15.5 l3 79 ZM785 563 q0 9 -6 15 q-6 6 -15 4 l-131 -14 q-9 -2 -13.5 -2.5 q-4.5 -0.5 -2.5 -0.5 q3 0 4.5 -6 q1.5 -6 1.5 -17 l-16 -190 q-1 -9 4.5 -14 q5.5 -5 15.5 -4 l128 17 q9 1 15.5 8.5 q6.5 7.5 7.5 17.5 l7 186 Z" /><glyph glyph-name="uni5F71" unicode="&#x5f71;" d="M137 365 q-9 -2 -16.5 3 q-7.5 5 -8.5 15 l-7 43 q-1 10 5 17 q6 7 15 8 l210 31 q8 1 12 5.5 q4 4.5 1 11.5 q-4 6 -12.5 9.5 q-8.5 3.5 -17.5 2.5 l-98 -15 q-9 -1 -16.5 4 q-7.5 5 -7.5 13 l-10 57 q-1 10 -8.5 15.5 q-7.5 5.5 -17.5 4.5 l-11 0 q-9 -1 -16 4.5 q-7 5.5 -8 15.5 l-1 18 q0 9 5.5 15.5 q5.5 6.5 14.5 7.5 l6 1 q10 0 15.5 7 q5.5 7 4.5 16 l-4 16 q-1 11 4 17.5 q5 6.5 15 8.5 l17 3 q9 1 16.5 -4 q7.5 -5 8.5 -14 l4 -22 q1 -9 8.5 -15.5 q7.5 -6.5 16.5 -5.5 l205 15 q10 1 16.5 -4.5 q6.5 -5.5 7.5 -15.5 l1 -18 q1 -9 -5 -16 q-6 -7 -16 -7 l-199 -15 q-9 -1 -15 -6 q-6 -5 -4 -12 q1 -7 8.5 -11.5 q7.5 -4.5 15.5 -2.5 l231 36 q9 1 16 7.5 q7 6.5 8 17.5 l4 52 q0 9 -6 15 q-6 6 -16 6 l-234 -4 q-9 0 -16 5.5 q-7 5.5 -7 15.5 l0 18 q0 9 6.5 15.5 q6.5 6.5 15.5 6.5 l301 6 q10 0 16 -6 q6 -6 5 -16 l-11 -168 q-2 -9 -8 -16.5 q-6 -7.5 -15 -9.5 l-97 -14 q-9 -2 -13 -7 q-4 -5 0 -12 q4 -6 12.5 -9.5 q8.5 -3.5 17.5 -1.5 l81 11 q9 1 16 -4 q7 -5 8 -14 l7 -44 q1 -9 -4 -16.5 q-5 -7.5 -15 -8.5 l-437 -62 ZM473 69 q1 -9 -2.5 -20 q-3.5 -11 -9.5 -17 l-72 -69 q-6 -5 -15 -5 q-9 0 -15 5 l-38 38 q-5 7 -4.5 16.5 q0.5 9.5 6.5 14.5 l33 32 q7 7 10 17.5 q3 10.5 1 19.5 l-18 88 q-2 9 -9.5 14.5 q-7.5 5.5 -16.5 5.5 l-61 -3 q-10 -1 -17.5 5 q-7.5 6 -9.5 16 l-23 102 q-2 10 3 17 q5 7 14 9 l310 56 q9 1 15.5 -4.5 q6.5 -5.5 4.5 -14.5 l0 -149 q0 -9 -6 -15.5 q-6 -6.5 -15 -7.5 l-74 -4 q-9 -1 -14.5 -7.5 q-5.5 -6.5 -2.5 -15.5 l26 -124 ZM477 278 q8 0 14.5 7 q6.5 7 6.5 16 l0 18 q0 9 -6 14 q-6 5 -15 4 l-174 -31 q-9 -2 -14.5 -8 q-5.5 -6 -3.5 -13 q2 -7 9 -11.5 q7 -4.5 17 -3.5 l166 8 ZM247 161 q7 -7 7.5 -15.5 q0.5 -8.5 -6.5 -15.5 l-65 -72 q-5 -7 -14.5 -7.5 q-9.5 -0.5 -16.5 5.5 l-12 12 q-7 6 -7.5 15 q-0.5 9 4.5 16 l65 71 q7 7 15.5 7.5 q8.5 0.5 16.5 -4.5 l13 -12 ZM611 140 q7 -5 9 -14 q2 -9 -4 -17 l-12 -12 q-4 -8 -13.5 -9.5 q-9.5 -1.5 -16.5 4.5 l-70 52 q-7 6 -8 15 q-1 9 5 16 l10 14 q6 8 14.5 9 q8.5 1 16.5 -5 l69 -53 ZM640 535 q-6 6 -6.5 15.5 q-0.5 9.5 6.5 15.5 l152 153 q7 7 16 7 q9 0 15 -6 l38 -38 q7 -6 7 -15.5 q0 -9.5 -7 -15.5 l-152 -153 q-7 -7 -16 -7 q-9 0 -15 7 l-38 37 ZM624 370 q-4 10 -0.5 18 q3.5 8 12.5 11 l206 81 q8 3 17 -0.5 q9 -3.5 11 -12.5 l19 -49 q4 -9 0.5 -17 q-3.5 -8 -12.5 -11 l-205 -81 q-9 -3 -17 1 q-8 4 -12 12 l-19 48 ZM888 231 q6 -6 6 -15.5 q0 -9.5 -6 -15.5 l-206 -201 q-5 -6 -14.5 -6 q-9.5 0 -16.5 7 l-36 37 q-6 7 -6 16 q0 9 7 15 l204 201 q6 6 15.5 6 q9.5 0 16.5 -6 l36 -38 Z" /><glyph glyph-name="uni624B" unicode="&#x624b;" d="M827 293 q11 -2 16.5 -8 q5.5 -6 4.5 -15 l-1 -44 q-1 -9 -7.5 -15.5 q-6.5 -6.5 -15.5 -5.5 l-285 14 q-8 1 -15 -4.5 q-7 -5.5 -8 -16.5 l-11 -199 q-1 -9 -8 -15 q-7 -6 -15 -5 l-162 13 q-9 2 -15.5 8 q-6.5 6 -4.5 15 l3 44 q1 11 8 16.5 q7 5.5 16 4.5 l71 -6 q11 -1 17 4.5 q6 5.5 8 15.5 l5 109 q1 10 -5 16.5 q-6 6.5 -15 6.5 l-236 13 q-10 1 -16 7 q-6 6 -5 17 l2 43 q0 8 7 14.5 q7 6.5 16 6.5 l237 -13 q8 -1 15 5.5 q7 6.5 8 15.5 l4 61 q0 9 -6 15 q-6 6 -16 5 l-153 -12 q-10 -1 -16.5 5 q-6.5 6 -7.5 15 l-4 43 q-1 11 5.5 17 q6.5 6 14.5 8 l167 12 q9 1 15.5 8 q6.5 7 7.5 16 l3 65 q1 9 -4.5 14 q-5.5 5 -16.5 4 l-121 -19 q-10 -3 -22 -1 q-12 2 -20 5 l-52 22 q-8 4 -11.5 12 q-3.5 8 0.5 17 l17 40 q4 8 12.5 11.5 q8.5 3.5 16.5 0.5 l28 -12 q8 -3 20.5 -5 q12.5 -2 21.5 0 l347 58 q10 1 17.5 -4 q7.5 -5 8.5 -14 l7 -44 q2 -8 -4 -15.5 q-6 -7.5 -15 -9.5 l-118 -20 q-8 -1 -15 -8.5 q-7 -7.5 -8 -16.5 l-4 -73 q0 -9 6 -14.5 q6 -5.5 15 -4.5 l154 12 q10 0 16.5 -5.5 q6.5 -5.5 7.5 -14.5 l4 -44 q1 -9 -5 -16 q-6 -7 -15 -8 l-167 -13 q-10 -1 -16.5 -8 q-6.5 -7 -6.5 -16 l-4 -72 q-1 -10 5 -16 q6 -6 15 -7 l283 -15 l0 0 Z" /><glyph glyph-name="uni62E8" unicode="&#x62e8;" d="M761 144 q-3 -8 -1 -17.5 q2 -9.5 10 -14.5 l109 -69 q8 -6 9.5 -14.5 q1.5 -8.5 -3.5 -15.5 l-24 -38 q-4 -8 -13 -9 q-9 -1 -17 2 l-99 64 q-8 5 -16 2.5 q-8 -2.5 -11 -10.5 l-19 -38 q-4 -8 -12 -11.5 q-8 -3.5 -17 0.5 l-40 19 q-8 4 -10.5 12.5 q-2.5 8.5 0.5 16.5 l23 50 q5 8 2 17 q-3 9 -11 15 l-40 25 q-8 5 -10 14 q-2 9 4 16 l23 38 q6 7 14.5 8.5 q8.5 1.5 16.5 -1.5 l30 -21 q8 -4 16 -2 q8 2 11 10 l38 80 q5 8 1.5 13 q-3.5 5 -13.5 4 l-101 -16 q-8 -1 -17 -8.5 q-9 -7.5 -11 -17.5 l-60 -210 q-3 -9 -10.5 -13.5 q-7.5 -4.5 -16.5 -2.5 l-43 13 q-9 3 -13 10.5 q-4 7.5 -2 16.5 l117 408 q3 10 -2 15.5 q-5 5.5 -14 4.5 l-118 -12 q-9 -1 -12.5 4.5 q-3.5 5.5 0.5 13.5 l27 53 q4 8 0.5 12 q-3.5 4 -11.5 0 l-58 -22 q-8 -3 -14 -11.5 q-6 -8.5 -5 -18.5 l10 -95 q1 -9 7 -12.5 q6 -3.5 14 1.5 l33 16 q8 4 16.5 1 q8.5 -3 11.5 -11 l21 -39 q4 -9 1 -17 q-3 -8 -11 -13 l-62 -32 q-10 -4 -15 -13.5 q-5 -9.5 -4 -17.5 l26 -264 q1 -10 -5 -16 q-6 -6 -15 -5 l-227 22 q-10 1 -15.5 8 q-5.5 7 -4.5 16 l4 44 q1 8 8 14 q7 6 15 5 l122 -11 q9 -1 15 4.5 q6 5.5 5 14.5 l-12 126 q-1 9 -7.5 12.5 q-6.5 3.5 -14.5 -1.5 l-102 -50 q-8 -5 -16.5 -2 q-8.5 3 -13.5 11 l-19 39 q-5 8 -1.5 16.5 q3.5 8.5 11.5 13.5 l132 66 q8 5 13.5 13.5 q5.5 8.5 3.5 19.5 l-9 105 q-1 10 -8 14 q-7 4 -15 1 l-73 -27 q-8 -3 -17 0.5 q-9 3.5 -11 11.5 l-15 42 q-3 9 0.5 17 q3.5 8 12.5 12 l94 34 q9 4 14.5 12.5 q5.5 8.5 3.5 17.5 l-5 70 q-1 9 4.5 16 q5.5 7 14.5 8 l44 4 q9 1 16 -5 q7 -6 8 -15 l5 -47 q1 -9 7.5 -13 q6.5 -4 15.5 -1 l45 16 q9 4 17 0 q8 -4 11 -12 l12 -34 q3 -9 8.5 -9 q5.5 0 8.5 8 l31 61 q5 7 13.5 10.5 q8.5 3.5 16.5 -1.5 l39 -19 q8 -5 11 -13.5 q3 -8.5 -2 -16.5 l-10 -22 q-5 -8 -2.5 -13 q2.5 -5 10.5 -4 q8 1 15 7.5 q7 6.5 10 15.5 l33 114 q3 8 10.5 12.5 q7.5 4.5 16.5 2.5 l43 -13 q8 -2 12.5 -10 q4.5 -8 2.5 -17 l-23 -80 q-4 -9 0.5 -15 q4.5 -6 14.5 -5 l144 14 q10 1 16.5 -4.5 q6.5 -5.5 8.5 -14.5 l3 -44 q1 -9 -4.5 -16 q-5.5 -7 -14.5 -8 l-179 -17 q-9 -2 -17 -8 q-8 -6 -10 -15 l-28 -96 q-3 -9 2 -13.5 q5 -4.5 13 -3.5 l227 34 q8 3 12 -2 q4 -5 -1 -14 l-114 -240 ZM788 747 q5 6 14 7.5 q9 1.5 17 -3.5 l62 -44 q8 -5 9.5 -14 q1.5 -9 -3.5 -17 l-26 -36 q-5 -7 -14 -9 q-9 -2 -17 4 l-62 45 q-8 4 -9.5 13.5 q-1.5 9.5 3.5 16.5 l26 37 Z" /><glyph glyph-name="uni62F3" unicode="&#x62f3;" d="M593 296 q-9 0 -14 -5 q-5 -5 -4 -12 q1 -8 8.5 -13 q7.5 -5 17.5 -5 l67 4 q10 1 16.5 -5.5 q6.5 -6.5 6.5 -15.5 q1 -9 -4.5 -16 q-5.5 -7 -16.5 -7 l-59 -3 q-10 0 -15.5 -3.5 q-5.5 -3.5 -4.5 -9.5 q1 -4 8.5 -7 q7.5 -3 16.5 -2 l179 23 q8 1 15.5 -4 q7.5 -5 8.5 -16 l5 -42 q2 -11 -4 -17.5 q-6 -6.5 -15 -7.5 l-169 -22 q-9 -1 -14.5 -8 q-5.5 -7 -2.5 -15 l21 -96 q2 -9 -3 -14.5 q-5 -5.5 -14 -4.5 l-209 11 q-9 1 -15 7.5 q-6 6.5 -5 16.5 l2 44 q1 9 7.5 15 q6.5 6 16.5 6 l92 -6 q9 -1 14 3.5 q5 4.5 4 11.5 q-2 6 -9 9.5 q-7 3.5 -16 1.5 l-259 -32 q-10 -1 -17 4 q-7 5 -8 15 l-6 43 q-1 10 4.5 16.5 q5.5 6.5 15.5 7.5 l250 33 q8 1 14 6.5 q6 5.5 5 11.5 q-3 7 -9.5 11 q-6.5 4 -17.5 4 l-119 -6 q-11 0 -17 6 q-6 6 -6 15 q-2 9 4.5 16 q6.5 7 15.5 7 l113 6 q9 1 14.5 6.5 q5.5 5.5 2.5 13.5 q-2 8 -9.5 14 q-7.5 6 -16.5 6 l-152 0 q-8 0 -15 2.5 q-7 2.5 -7 5.5 q0 3 -4 1 q-4 -2 -10 -10 l-41 -51 q-6 -8 -15 -8.5 q-9 -0.5 -16 5.5 l-33 27 q-9 6 -10 15.5 q-1 9.5 6 15.5 l87 107 q6 8 4 13.5 q-2 5.5 -12 5.5 l-65 2 q-9 0 -15.5 6.5 q-6.5 6.5 -5.5 15.5 l0 45 q1 8 7.5 14 q6.5 6 15.5 6 l132 -3 q10 -1 19 2.5 q9 3.5 14 9.5 q3 4 -0.5 7.5 q-3.5 3.5 -12.5 2.5 l-104 -1 q-9 -1 -15 5.5 q-6 6.5 -6 14.5 l-2 44 q0 10 6.5 16.5 q6.5 6.5 15.5 6.5 l51 1 q9 0 13 6.5 q4 6.5 0 14.5 l-11 21 q-3 8 0 16.5 q3 8.5 12 11.5 l39 20 q8 3 16.5 0.5 q8.5 -2.5 13.5 -10.5 l26 -58 q5 -8 12 -13.5 q7 -5.5 12 -5.5 q7 0 15 5 q8 5 14 13 l79 98 q6 5 14.5 6.5 q8.5 1.5 16.5 -4.5 l35 -28 q6 -5 7 -14 q1 -9 -5 -17 l-32 -40 q-6 -7 -3.5 -11.5 q2.5 -4.5 11.5 -4.5 l10 0 q10 0 21 5 q11 5 16 11 l59 68 q7 7 15.5 7.5 q8.5 0.5 15.5 -5.5 l33 -28 q7 -7 7.5 -16 q0.5 -9 -6.5 -16 l-4 -6 q-7 -7 -4.5 -12 q2.5 -5 11.5 -5 l9 0 q9 0 15.5 -6 q6.5 -6 6.5 -15 l1 -44 q0 -9 -6.5 -15.5 q-6.5 -6.5 -15.5 -6.5 l-256 -6 q-10 0 -19.5 -4.5 q-9.5 -4.5 -14.5 -10.5 q-5 -5 -2 -10 q3 -5 13 -5 l341 -9 q9 0 15.5 -7 q6.5 -7 5.5 -16 l-1 -43 q0 -10 -6.5 -16 q-6.5 -6 -15.5 -6 l-36 1 q-9 0 -10.5 -4 q-1.5 -4 3.5 -11 l76 -73 q7 -6 7 -15.5 q0 -9.5 -7 -15.5 l-30 -32 q-7 -6 -16 -6 q-9 0 -15 6 l-28 28 q-7 7 -12 10.5 q-5 3.5 -5 1.5 q0 -1 -6 -2 q-6 -1 -15 -1 l-118 0 ZM649 362 q9 0 10.5 5 q1.5 5 -4.5 11 q-6 5 -8.5 12.5 q-2.5 7.5 2.5 12.5 q4 5 0.5 7.5 q-3.5 2.5 -13.5 2.5 l-240 7 q-10 1 -20 -4 q-10 -5 -16 -12 l-20 -25 q-7 -7 -4 -12 q3 -5 11 -5 l302 0 Z" /><glyph glyph-name="uni65A4" unicode="&#x65a4;" d="M236 415 q-2 10 4.5 19 q6.5 9 16.5 12 l2 0 q12 2 19 11 q7 9 5 21 l-5 66 q-1 12 -2 19.5 q-1 7.5 -2 7.5 q-1 0 -2.5 7.5 q-1.5 7.5 -4.5 17.5 l-7 35 q-2 10 4.5 19 q6.5 9 16.5 12 l387 77 q10 2 19 -4.5 q9 -6.5 12 -16.5 l7 -36 q2 -10 -4.5 -18.5 q-6.5 -8.5 -17.5 -10.5 l-295 -59 q-11 -2 -18 -11.5 q-7 -9.5 -6 -19.5 l6 -68 q1 -10 8.5 -16.5 q7.5 -6.5 17.5 -4.5 l329 67 q11 3 20 -3 q9 -6 10 -17 l8 -34 q2 -12 -3.5 -20.5 q-5.5 -8.5 -17.5 -10.5 l-34 -7 q-10 -3 -19 -12 q-9 -9 -10 -19 l-61 -412 q-2 -11 -10.5 -17.5 q-8.5 -6.5 -20.5 -4.5 l-34 5 q-11 1 -17 10.5 q-6 9.5 -5 19.5 l56 379 q1 12 -5 17.5 q-6 5.5 -17 3.5 l-161 -33 q-11 -3 -18 -11.5 q-7 -8.5 -6 -19.5 l19 -245 q1 -12 -2 -25.5 q-3 -13.5 -9 -23.5 l-40 -69 q-6 -9 -16 -11.5 q-10 -2.5 -21 2.5 l-30 18 q-9 5 -12 15.5 q-3 10.5 3 19.5 l27 46 q4 8 7.5 22.5 q3.5 14.5 2.5 25.5 l-16 206 q-1 12 -8 18 q-7 6 -15 4 q-9 -1 -17 5.5 q-8 6.5 -11 16.5 l-7 35 Z" /><glyph glyph-name="uni65A9" unicode="&#x65a9;" d="M875 367 q1 -8 -5.5 -15 q-6.5 -7 -15.5 -7 l-27 -1 q-10 0 -16.5 -6.5 q-6.5 -6.5 -7.5 -15.5 l-29 -319 q-1 -8 -8 -14 q-7 -6 -16 -5 l-39 3 q-10 1 -15.5 8.5 q-5.5 7.5 -4.5 15.5 l28 308 q1 11 -5 16.5 q-6 5.5 -15 5.5 l-33 -1 q-11 0 -17 -6 q-6 -6 -7 -16 l-21 -256 q-1 -9 -8 -15.5 q-7 -6.5 -16 -5.5 l-27 2 q-9 2 -14.5 8.5 q-5.5 6.5 -4.5 16.5 l36 456 q2 8 7 19 q5 11 11 17 l152 138 q6 6 15.5 5 q9.5 -1 15.5 -6 l18 -20 q6 -7 5.5 -16 q-0.5 -9 -7.5 -15 l-131 -118 q-6 -7 -11.5 -17.5 q-5.5 -10.5 -6.5 -20.5 l-3 -44 q-1 -9 4.5 -15.5 q5.5 -6.5 14.5 -6.5 l181 5 q9 0 15.5 -6.5 q6.5 -6.5 7.5 -15.5 l0 -40 ZM521 252 q3 -10 -1 -18 q-4 -8 -13 -11 l-94 -31 q-8 -4 -14.5 -12.5 q-6.5 -8.5 -7.5 -16.5 l-9 -157 q-2 -10 -8.5 -16 q-6.5 -6 -14.5 -5 l-41 2 q-9 1 -15 7.5 q-6 6.5 -5 15.5 l8 123 q1 11 -5.5 15 q-6.5 4 -14.5 0 l-91 -30 q-8 -3 -16.5 1 q-8.5 4 -10.5 13 l-13 38 q-2 8 2 16 q4 8 12 10 l123 43 q8 2 14.5 11 q6.5 9 7.5 18 l2 35 q1 10 -5 14.5 q-6 4.5 -16 1.5 l-153 -34 q-9 -2 -13 2.5 q-4 4.5 1 13.5 l95 224 q4 8 0 13 q-4 5 -12 2 l-53 -12 q-10 -3 -18 2 q-8 5 -9 14 l-7 26 q-2 8 3 16 q5 8 15 11 l102 24 q9 2 17.5 9 q8.5 7 12.5 16 l33 76 q2 8 11 11.5 q9 3.5 17 -0.5 l24 -11 q9 -2 12.5 -11 q3.5 -9 0.5 -17 l-13 -28 q-4 -8 -0.5 -13 q3.5 -5 13.5 -3 l48 11 q9 2 17 -2.5 q8 -4.5 9 -13.5 l7 -25 q1 -10 -3.5 -17.5 q-4.5 -7.5 -13.5 -9.5 l-99 -23 q-8 -2 -17 -9.5 q-9 -7.5 -12 -15.5 l-62 -145 q-4 -9 0 -13 q4 -4 13 -3 l40 9 q9 2 15.5 9.5 q6.5 7.5 6.5 17.5 l3 40 q0 9 7 15.5 q7 6.5 16 4.5 l40 -2 q9 -1 14.5 -7.5 q5.5 -6.5 5.5 -15.5 l-1 -16 q-1 -9 5.5 -14 q6.5 -5 15.5 -3 l18 4 q8 3 16 -2.5 q8 -5.5 11 -13.5 l5 -26 q2 -9 -3 -16.5 q-5 -7.5 -14 -10.5 l-38 -8 q-9 -2 -15.5 -10 q-6.5 -8 -7.5 -17 l-1 -26 q-1 -9 4.5 -13 q5.5 -4 13.5 -1 l63 20 q9 4 17 0 q8 -4 10 -12 l13 -38 Z" /><glyph glyph-name="uni65CB" unicode="&#x65cb;" d="M224 681 q-8 6 -7.5 16.5 q0.5 10.5 8.5 17.5 l28 26 q7 7 17.5 6.5 q10.5 -0.5 16.5 -7.5 l53 -56 q7 -8 7 -18 q0 -10 -8 -18 l-28 -25 q-8 -7 -18 -7 q-10 0 -17 8 l-52 57 ZM413 350 q10 -3 15 -13 q5 -10 2 -20 l-75 -308 q-3 -10 -12.5 -16 q-9.5 -6 -18.5 -5 l-89 14 q-10 1 -16.5 9.5 q-6.5 8.5 -3.5 19.5 l4 29 q2 10 10 15.5 q8 5.5 18 4.5 l17 -2 q11 -2 19.5 4 q8.5 6 11.5 15 l42 171 q2 10 -3 20 q-5 10 -15 13 l-56 21 q-9 3 -17.5 -1.5 q-8.5 -4.5 -11.5 -14.5 l-42 -187 q-3 -9 -11.5 -14.5 q-8.5 -5.5 -18.5 -3.5 l-46 11 q-9 2 -15 10.5 q-6 8.5 -4 18.5 l76 337 q4 10 -2.5 17.5 q-6.5 7.5 -15.5 9.5 l-37 3 q-10 1 -17 9 q-7 8 -6 19 l5 47 q1 9 8.5 16 q7.5 7 18.5 6 l319 -29 q10 -1 17 -8.5 q7 -7.5 6 -18.5 l-5 -47 q-1 -10 -8.5 -17 q-7.5 -7 -17.5 -6 l-136 13 q-11 1 -20 -5.5 q-9 -6.5 -11 -16.5 l-9 -38 q-2 -9 3.5 -19 q5.5 -10 14.5 -13 l133 -50 ZM503 529 q-9 -1 -15 5 q-6 6 -4 17 l32 177 q2 10 10 16 q8 6 19 4 l50 -9 q11 -2 16.5 -10.5 q5.5 -8.5 3.5 -18.5 l-7 -41 q-2 -10 4 -16.5 q6 -6.5 16 -5.5 l237 31 q10 1 18 -5 q8 -6 9 -17 l7 -50 q1 -11 -5 -19 q-6 -8 -17 -9 l-374 -49 ZM885 88 q11 -2 16.5 -10.5 q5.5 -8.5 3.5 -19.5 l-9 -50 q-3 -11 -11.5 -16 q-8.5 -5 -18.5 -4 l-311 61 q-9 2 -19.5 -3 q-10.5 -5 -12.5 -15 l-18 -45 q-4 -9 -13 -13.5 q-9 -4.5 -18 -1.5 l-49 18 q-9 4 -13.5 13.5 q-4.5 9.5 -1.5 19.5 l87 226 q3 9 13 14 q10 5 19 0 l47 -17 q10 -5 14 -14 q4 -9 1 -20 l-15 -38 q-4 -10 1 -18 q5 -8 15 -10 l36 -7 q10 -1 17.5 4.5 q7.5 5.5 7.5 15.5 l3 226 q0 10 -6.5 16.5 q-6.5 6.5 -18.5 5.5 l-92 -10 q-10 -1 -17.5 6 q-7.5 7 -8.5 17 l-4 29 q-1 11 6 18.5 q7 7.5 16 8.5 l335 35 q10 1 17.5 -5.5 q7.5 -6.5 7.5 -17.5 l0 -88 q0 -11 -7.5 -17.5 q-7.5 -6.5 -17.5 -6.5 l-29 0 q-10 0 -17.5 6.5 q-7.5 6.5 -7.5 17.5 l0 1 q0 10 -7 17 q-7 7 -19 6 l-25 -4 q-10 -1 -17.5 -9 q-7.5 -8 -7.5 -18 l-3 -160 q0 -10 6 -14 q6 -4 16 0 l43 23 q9 5 19 2 q10 -3 14 -12 l14 -27 q5 -9 2 -18.5 q-3 -9.5 -12 -14.5 l-81 -42 q-9 -5 -8.5 -9.5 q0.5 -4.5 10.5 -7.5 l129 -24 Z" /><glyph glyph-name="uni65E0" unicode="&#x65e0;" d="M211 42 q-4 -8 -12.5 -11 q-8.5 -3 -16.5 1 l-31 16 q-9 3 -12 11.5 q-3 8.5 2 16.5 l147 301 q3 8 -0.5 13.5 q-3.5 5.5 -12.5 4.5 l-84 -5 q-9 0 -16 6 q-7 6 -7 15 l-3 61 q-1 10 5 16.5 q6 6.5 15 7.5 l143 7 q9 1 18.5 7.5 q9.5 6.5 13.5 14.5 l62 128 q5 8 1.5 14 q-3.5 6 -12.5 6 l-150 6 q-9 0 -15 6.5 q-6 6.5 -5 16.5 l0 8 q0 9 6.5 15.5 q6.5 6.5 16.5 6.5 l427 -16 q10 -1 16 -7.5 q6 -6.5 6 -15.5 l-1 -8 q0 -9 -7 -15.5 q-7 -6.5 -15 -6.5 l-149 6 q-9 0 -18.5 -5.5 q-9.5 -5.5 -12.5 -14.5 l-59 -120 q-4 -8 -1 -13.5 q3 -5.5 13 -4.5 l296 16 q10 0 16.5 -5.5 q6.5 -5.5 6.5 -15.5 l4 -62 q0 -9 -6 -15 q-6 -6 -15 -8 l-209 -11 q-9 0 -15.5 -7 q-6.5 -7 -6.5 -16 l-8 -206 q-1 -9 5 -16.5 q6 -7.5 16 -9.5 l172 -41 q9 -2 16.5 3 q7.5 5 8.5 15 l14 81 q1 9 8 14.5 q7 5.5 17 4.5 l60 -10 q9 -1 14.5 -8.5 q5.5 -7.5 4.5 -16.5 l-30 -193 q-3 -9 -10 -13.5 q-7 -4.5 -16 -2.5 l-369 83 q-9 2 -14.5 9.5 q-5.5 7.5 -5.5 17.5 l10 283 q1 9 -4.5 15.5 q-5.5 6.5 -15.5 5.5 q-8 0 -16.5 -6.5 q-8.5 -6.5 -11.5 -14.5 l-168 -339 Z" /><glyph glyph-name="uni679C" unicode="&#x679c;" d="M899 279 q1 -8 -6.5 -15 q-7.5 -7 -17.5 -8 l-340 -16 q-11 -1 -18.5 -7.5 q-7.5 -6.5 -7.5 -15.5 l4 -212 q0 -9 -7.5 -15 q-7.5 -6 -19.5 -6 l-40 -2 q-10 0 -18 6.5 q-8 6.5 -8 15.5 l-4 208 q0 10 -7.5 15.5 q-7.5 5.5 -18.5 5.5 l-245 -13 q-12 0 -20 6 q-8 6 -8 15 l-2 35 q-1 9 6 16 q7 7 18 7 l250 12 q10 0 17.5 7 q7.5 7 7.5 16 l0 15 q0 9 -7.5 15.5 q-7.5 6.5 -18.5 5.5 l-183 -12 q-11 -1 -19.5 5 q-8.5 6 -9.5 15 l-5 76 q-1 9 -9 14 q-8 5 -19 4 l-6 0 q-11 -1 -20 4 q-9 5 -10 15 l-6 33 q-1 9 5.5 16.5 q6.5 7.5 17.5 8.5 l13 1 q11 2 18 9.5 q7 7.5 6 16.5 l-10 133 q-2 9 5 16 q7 7 19 7 l599 27 q10 0 17.5 -6 q7.5 -6 7.5 -15 l0 -320 q0 -9 -7.5 -16 q-7.5 -7 -17.5 -8 l-240 -15 q-12 -1 -19.5 -8 q-7.5 -7 -7.5 -16 l1 -16 q0 -9 7.5 -15.5 q7.5 -6.5 19.5 -5.5 l334 16 q12 1 19.5 -5 q7.5 -6 8.5 -15 l2 -35 ZM386 448 q12 0 19.5 7 q7.5 7 7.5 16 l0 12 q-1 10 -8.5 15 q-7.5 5 -18.5 4 l-99 -11 q-11 -1 -18 -8.5 q-7 -7.5 -6 -17.5 l0 -3 q1 -9 9.5 -15 q8.5 -6 19.5 -5 l94 6 ZM506 477 q0 -8 7.5 -14.5 q7.5 -6.5 18.5 -5.5 l149 10 q11 1 18.5 7.5 q7.5 6.5 7.5 16.5 l0 164 q0 9 -8 15.5 q-8 6.5 -18 6.5 l-407 -18 q-11 0 -18.5 -7 q-7.5 -7 -5.5 -16 l3 -49 q1 -9 9 -14.5 q8 -5.5 20 -4.5 l102 12 q12 2 19.5 9 q7.5 7 7.5 17 l0 20 q-2 10 5.5 16 q7.5 6 19.5 6 l40 1 q12 0 19.5 -6 q7.5 -6 7.5 -15 l1 -11 q0 -9 7.5 -15 q7.5 -6 18.5 -4 l38 4 q12 1 20.5 -4 q8.5 -5 9.5 -14 l6 -34 q2 -9 -5 -16.5 q-7 -7.5 -17 -8.5 l-51 -6 q-11 -1 -18.5 -8.5 q-7.5 -7.5 -7.5 -16.5 l1 -17 ZM370 139 q8 -5 10 -14 q2 -9 -5 -16 l-100 -106 q-7 -8 -18 -9 q-11 -1 -19 6 l-32 20 q-8 6 -9.5 14.5 q-1.5 8.5 4.5 15.5 l100 107 q7 7 18 8 q11 1 20 -6 l31 -20 ZM859 27 q8 -6 9 -15 q1 -9 -6 -16 l-24 -26 q-7 -7 -17.5 -8 q-10.5 -1 -20.5 4 l-231 154 q-8 6 -9.5 14.5 q-1.5 8.5 5.5 16.5 l25 27 q7 7 18 8 q11 1 20 -5 l231 -154 Z" /><glyph glyph-name="uni6CE2" unicode="&#x6ce2;" d="M195 717 q-3 9 1 16 q4 7 12 10 l33 9 q8 2 14.5 -2 q6.5 -4 9.5 -12 l33 -117 q2 -8 -2 -15.5 q-4 -7.5 -12 -9.5 l-33 -10 q-8 -3 -15 1.5 q-7 4.5 -9 12.5 l-32 117 ZM466 567 q-8 0 -14 -6.5 q-6 -6.5 -7 -14.5 l-41 -546 q0 -8 -6.5 -14 q-6.5 -6 -14.5 -5 l-33 3 q-8 1 -13.5 7.5 q-5.5 6.5 -5.5 14.5 l46 610 q0 8 6.5 14.5 q6.5 6.5 14.5 7.5 l177 13 q8 1 14 7.5 q6 6.5 6 14.5 l0 56 q0 9 5.5 15 q5.5 6 13.5 6 l49 0 q7 0 12.5 -6 q5.5 -6 5.5 -15 l0 -49 q0 -9 6 -14.5 q6 -5.5 14 -4.5 l147 12 q8 1 13.5 -5 q5.5 -6 5.5 -15 l0 -155 q0 -8 -5.5 -14 q-5.5 -6 -13.5 -6 l-35 0 q-8 0 -13.5 6 q-5.5 6 -5.5 14 l0 75 q0 8 -6 13.5 q-6 5.5 -14 4.5 l-73 -6 q-8 -1 -14 -6.5 q-6 -5.5 -6 -15.5 l0 -79 q0 -7 -5.5 -13.5 q-5.5 -6.5 -12.5 -6.5 l-49 0 q-8 0 -13.5 6.5 q-5.5 6.5 -5.5 13.5 l0 72 q0 10 -6 15.5 q-6 5.5 -14 4.5 l-109 -9 ZM883 65 q7 -4 9 -12 q2 -8 -3 -15 l-32 -54 q-5 -7 -13 -9 q-8 -2 -13 3 l-186 118 q-7 4 -15.5 3 q-8.5 -1 -12.5 -7 l-91 -116 q-5 -7 -13 -8 q-8 -1 -14 4 l-27 22 q-6 6 -7 14 q-1 8 3 15 l85 108 q6 7 4.5 14.5 q-1.5 7.5 -8.5 11.5 l-60 40 q-7 4 -9.5 12 q-2.5 8 2.5 15 l33 54 q5 7 12.5 9 q7.5 2 14.5 -3 l71 -45 q7 -5 15 -3 q8 2 14 8 l64 82 q6 7 3.5 12 q-2.5 5 -10.5 6 l-217 8 q-7 1 -12.5 6.5 q-5.5 5.5 -5.5 13.5 l1 36 q1 8 6.5 14 q5.5 6 14.5 6 l362 -15 q8 0 9.5 -4.5 q1.5 -4.5 -2.5 -11.5 l-151 -194 q-5 -6 -3.5 -13.5 q1.5 -7.5 8.5 -12.5 l174 -112 ZM119 445 q-5 7 -4 15 q1 8 7 13 l29 20 q6 6 14 5 q8 -1 12 -8 l108 -150 q5 -7 4 -15 q-1 -8 -7 -12 l-28 -22 q-7 -5 -15 -3.5 q-8 1.5 -12 7.5 l-108 150 ZM319 178 q7 -6 7.5 -14 q0.5 -8 -5.5 -15 l-133 -157 q-6 -6 -14 -6.5 q-8 -0.5 -14 5.5 l-47 41 q-6 6 -6.5 14 q-0.5 8 5.5 14 l133 158 q5 6 13 6.5 q8 0.5 15 -4.5 l46 -42 Z" /><glyph glyph-name="uni74DC" unicode="&#x74dc;" d="M886 79 q8 -9 6.5 -20.5 q-1.5 -11.5 -10.5 -19.5 l-47 -36 q-9 -8 -21.5 -6.5 q-12.5 1.5 -20.5 10.5 l-46 51 q-8 9 -15 23 q-7 14 -11 26 l-110 490 q-2 11 -12.5 18 q-10.5 7 -23.5 5 l-17 -2 q-13 -3 -22 -12 q-9 -9 -10 -21 l-36 -452 q-1 -11 7.5 -18 q8.5 -7 20.5 -5 l7 0 q12 3 19 8 q7 5 5 10 q-3 4 3.5 11 q6.5 7 18.5 12 l33 13 q11 5 22.5 0.5 q11.5 -4.5 17.5 -14.5 l36 -75 q6 -12 1 -23 q-5 -11 -16 -15 l-33 -14 q-12 -5 -21 -5.5 q-9 -0.5 -12 3.5 q-1 4 -11 5.5 q-10 1.5 -23 -0.5 l-152 -25 q-14 -1 -22 6 q-8 7 -7 18 l44 544 q1 13 -7 20 q-8 7 -21 4 l-5 -1 q-13 -2 -22 -11 q-9 -9 -11 -21 l-43 -483 q-1 -11 -10 -24 q-9 -13 -19 -18 l-107 -64 q-10 -5 -22 -3 q-12 2 -19 11 l-29 44 q-7 9 -4.5 20.5 q2.5 11.5 13.5 18.5 l58 33 q11 7 19 20 q8 13 9 24 l50 542 q1 11 10 19 q9 8 22 7 l54 -4 q7 -1 12 -1 q5 0 10 -2 q5 0 8 -1 q0 0 8.5 1.5 q8.5 1.5 21.5 3.5 l313 47 q11 2 21.5 -5.5 q10.5 -7.5 12.5 -18.5 l8 -50 q3 -11 -2 -20.5 q-5 -9.5 -12 -10.5 q-9 -1 -13 -10 q-4 -9 -2 -21 l104 -457 q2 -12 9.5 -26.5 q7.5 -14.5 15.5 -23.5 l27 -29 l0 0 Z" /><glyph glyph-name="uni7B2C" unicode="&#x7b2c;" d="M116 565 q-7 8 -7.5 18.5 q-0.5 10.5 7.5 18.5 l133 139 q9 8 21.5 12 q12.5 4 23.5 3 l202 -23 q11 -1 17.5 -9.5 q6.5 -8.5 6.5 -20.5 l-5 -34 q-1 -12 -9.5 -18 q-8.5 -6 -19.5 -5 l-97 11 q-12 2 -15 -3.5 q-3 -5.5 3 -14.5 l32 -48 q6 -9 4.5 -20 q-1.5 -11 -11.5 -17 l-10 -7 q-10 -7 -20.5 -4.5 q-10.5 2.5 -17.5 11.5 l-52 77 q-7 9 -16 10 q-9 1 -17 -7 l-90 -93 q-8 -7 -18 -7.5 q-10 -0.5 -18 7.5 l-27 24 ZM868 737 q12 -1 18.5 -9 q6.5 -8 5.5 -20 l-3 -34 q-1 -12 -9 -19 q-8 -7 -20 -6 l-64 6 q-12 1 -13.5 -3 q-1.5 -4 6.5 -12 l40 -35 q8 -9 8.5 -19 q0.5 -10 -6.5 -19 l-9 -10 q-7 -8 -18 -8.5 q-11 -0.5 -19 6.5 l-105 96 q-8 6 -18.5 5 q-10.5 -1 -17.5 -9 l-69 -87 q-7 -8 -18 -9.5 q-11 -1.5 -19 5.5 l-27 22 q-10 6 -11 17.5 q-1 11.5 6 19.5 l99 124 q7 9 19 14.5 q12 5.5 23 3.5 l221 -20 ZM865 532 q11 0 18 -7.5 q7 -7.5 6 -17.5 l-12 -129 q-1 -10 -9.5 -18 q-8.5 -8 -18.5 -10 l-288 -24 q-11 -1 -18.5 -7.5 q-7.5 -6.5 -6.5 -15.5 q0 -9 8 -15.5 q8 -6.5 18 -4.5 l299 5 q12 0 19 -7.5 q7 -7.5 4 -18.5 l-33 -269 q-1 -11 -9.5 -17 q-8.5 -6 -19.5 -5 l-183 30 q-10 2 -16.5 10.5 q-6.5 8.5 -5.5 19.5 l6 34 q3 12 11.5 18 q8.5 6 19.5 4 l91 -15 q12 -1 20.5 5.5 q8.5 6.5 9.5 16.5 l9 78 q3 12 -4 19.5 q-7 7.5 -19 7.5 l-195 -5 q-12 0 -19 -8 q-7 -8 -7 -18 l7 -178 q0 -10 -7.5 -18 q-7.5 -8 -18.5 -9 l-35 -1 q-11 -1 -18.5 7 q-7.5 8 -8.5 18 l-7 178 q0 12 -8 19.5 q-8 7.5 -19 7.5 l-18 -1 q-10 0 -14 -6.5 q-4 -6.5 3 -15.5 l12 -22 q6 -9 3.5 -19.5 q-2.5 -10.5 -11.5 -16.5 l-214 -131 q-9 -7 -19.5 -4 q-10.5 3 -15.5 12 l-19 30 q-6 9 -3.5 19.5 q2.5 10.5 11.5 17.5 l198 122 q9 5 8 8.5 q-1 3.5 -13 3.5 l-180 -3 q-12 0 -20.5 7.5 q-8.5 7.5 -9.5 17.5 l-14 141 q-1 11 6 19 q7 8 17 9 l285 23 q11 1 19 6 q8 5 8 10 q-1 6 -8.5 10 q-7.5 4 -19.5 4 l-256 -7 q-11 -1 -19 6.5 q-8 7.5 -8 19.5 l-1 35 q0 11 7 19 q7 8 18 8 l708 18 ZM422 279 q11 0 18.5 6 q7.5 6 7.5 14 q-1 8 -9 13 q-8 5 -18 4 l-192 -16 q-11 -1 -18.5 -5 q-7.5 -4 -5.5 -9 q0 -5 8 -8.5 q8 -3.5 19 -1.5 l190 3 ZM767 432 q11 1 18.5 3 q7.5 2 7.5 3 q2 2 -5.5 2.5 q-7.5 0.5 -19.5 0.5 l-211 -4 q-12 -2 -19 -5 q-7 -3 -7 -8 q0 -5 7.5 -7.5 q7.5 -2.5 19.5 -1.5 l209 17 Z" /><glyph glyph-name="uni810F" unicode="&#x810f;" d="M526 113 q-2 -9 -8.5 -14.5 q-6.5 -5.5 -16.5 -4.5 l-39 5 q-9 1 -14 8.5 q-5 7.5 -4 16.5 l62 474 q1 8 8 14.5 q7 6.5 16 5.5 l111 -8 q9 -1 13.5 5 q4.5 6 2.5 14 l-19 62 q-3 10 1 17 q4 7 13 11 l38 10 q9 4 16.5 0 q7.5 -4 11.5 -14 l27 -92 q4 -9 11.5 -15 q7.5 -6 17.5 -8 l18 -1 q11 -1 16.5 -8 q5.5 -7 4.5 -16 l-3 -39 q0 -9 -7 -15.5 q-7 -6.5 -16 -5.5 l-184 14 q-10 1 -16.5 -5 q-6.5 -6 -7.5 -16 l-53 -395 ZM735 115 q0 -9 5.5 -15 q5.5 -6 16.5 -4 l107 11 q9 1 16 -4.5 q7 -5.5 8 -14.5 l4 -38 q2 -11 -4 -17 q-6 -6 -15 -8 l-329 -36 q-10 -1 -16.5 5 q-6.5 6 -7.5 14 l-5 40 q-1 10 4 16.5 q5 6.5 16 8.5 l94 9 q9 1 15.5 8 q6.5 7 6.5 16 l0 125 q0 11 -6.5 16.5 q-6.5 5.5 -15.5 5.5 l-4 -1 q-9 0 -15.5 6.5 q-6.5 6.5 -7.5 15.5 l-2 39 q-1 9 5.5 16 q6.5 7 15.5 7 l8 1 q9 0 15.5 6.5 q6.5 6.5 6.5 15.5 l0 101 q0 9 6.5 15.5 q6.5 6.5 15.5 6.5 l40 0 q8 0 15 -6.5 q7 -6.5 7 -15.5 l0 -96 q0 -11 5.5 -16.5 q5.5 -5.5 16.5 -5.5 l31 1 q9 1 15.5 -5.5 q6.5 -6.5 7.5 -15.5 l1 -39 q1 -10 -5.5 -16.5 q-6.5 -6.5 -15.5 -6.5 l-34 -2 q-11 0 -16.5 -6.5 q-5.5 -6.5 -5.5 -15.5 l0 -121 ZM127 166 q-10 1 -15 7.5 q-5 6.5 -4 16.5 l30 270 q0 9 0.5 16 q0.5 7 -0.5 7 q0 1 1 2 q0 2 1.5 9.5 q1.5 7.5 2.5 15.5 l12 109 q1 9 8 15.5 q7 6.5 16 6.5 l209 0 q9 0 15 -6.5 q6 -6.5 6 -15.5 l0 -602 q0 -9 -5.5 -12.5 q-5.5 -3.5 -13.5 0.5 l-99 45 q-8 4 -11 12 q-3 8 1 16 l9 21 q3 7 12 10.5 q9 3.5 17 -0.5 l4 -2 q8 -4 14.5 0 q6.5 4 6.5 13 l0 78 q0 8 -6.5 17 q-6.5 9 -13.5 14 l-118 58 q-8 4 -14.5 0.5 q-6.5 -3.5 -7.5 -12.5 l-11 -93 q-2 -9 -8.5 -15 q-6.5 -6 -16.5 -5 l-21 4 ZM238 377 q8 6 8 13.5 q0 7.5 -7 13.5 l-20 16 q-8 6 -13.5 3.5 q-5.5 -2.5 -6.5 -11.5 l-6 -46 q-1 -9 3.5 -12 q4.5 -3 12.5 3 l29 20 ZM324 297 q7 -4 13.5 -0.5 q6.5 3.5 6.5 13.5 l0 44 q0 10 -5 12 q-5 2 -13 -2 l-38 -27 q-7 -6 -6.5 -12 q0.5 -6 8.5 -11 l34 -17 ZM238 575 q-9 0 -16 -7 q-7 -7 -8 -15 l-2 -25 q-1 -9 3 -19.5 q4 -10.5 12 -16.5 l100 -79 q7 -6 12 -3.5 q5 2.5 5 11.5 l0 131 q0 9 -7 16 q-7 7 -15 7 l-84 0 Z" /><glyph glyph-name="uni817F" unicode="&#x817f;" d="M355 709 q10 1 16 -5 q6 -6 6 -15 l3 -677 q0 -8 -6.5 -14.5 q-6.5 -6.5 -15.5 -6.5 l-44 0 q-9 0 -16 6 q-7 6 -7 15 l0 232 q0 9 -6 13 q-6 4 -15 0 l-68 -27 q-8 -4 -13.5 -12.5 q-5.5 -8.5 -5.5 -17.5 l1 -205 q0 -9 -6.5 -15.5 q-6.5 -6.5 -15.5 -6.5 l-44 0 q-9 0 -15 6.5 q-6 6.5 -6 15.5 l-5 687 q0 9 6 15.5 q6 6.5 16 7.5 l241 4 ZM270 352 q8 3 14 12.5 q6 9.5 6 18.5 l0 216 q0 8 -6.5 15 q-6.5 7 -15.5 6 l-67 -2 q-8 0 -15 -6 q-7 -6 -5 -15 l0 -54 q0 -10 6 -18.5 q6 -8.5 14 -11.5 l39 -14 q8 -2 12 -11 q4 -9 1 -17 l-14 -41 q-3 -9 -11 -12.5 q-8 -3.5 -18 -1.5 l-9 4 q-8 2 -13.5 -2 q-5.5 -4 -5.5 -13 l0 -66 q0 -9 5.5 -13.5 q5.5 -4.5 14.5 -0.5 l68 27 ZM880 96 q-6 -7 -7 -11.5 q-1 -4.5 4 -3.5 q5 0 9 -5.5 q4 -5.5 5 -14.5 l5 -44 q1 -9 -4.5 -16 q-5.5 -7 -15.5 -8 l-306 -32 q-9 -1 -20.5 2 q-11.5 3 -19.5 8 l-25 17 q-7 5 -12 5.5 q-5 0.5 -7 -4.5 q0 -4 -6 -7 q-6 -3 -15 -3 l-44 2 q-9 0 -15.5 6.5 q-6.5 6.5 -6.5 15.5 l15 492 q0 11 -2.5 16.5 q-2.5 5.5 -5.5 5.5 q-3 0 -6 6.5 q-3 6.5 -4 15.5 l-3 44 q-1 9 5.5 16 q6.5 7 15.5 7 l69 4 q10 0 16 -5.5 q6 -5.5 6 -14.5 l-14 -464 q0 -9 5 -18 q5 -9 12 -15 l45 -31 q8 -6 19.5 -9 q11.5 -3 20.5 -1 l236 25 q11 1 12 5.5 q1 4.5 -6 10.5 l-211 186 q-5 7 -10.5 5 q-5.5 -2 -5.5 -12 l0 -80 q0 -11 6.5 -17 q6.5 -6 15.5 -7 l51 -5 q9 -1 15 -8 q6 -7 6 -16 l-5 -43 q-1 -10 -7.5 -15.5 q-6.5 -5.5 -16.5 -4.5 l-130 11 q-11 1 -16.5 8 q-5.5 7 -5.5 15 l0 620 q0 9 5.5 15.5 q5.5 6.5 16.5 6.5 l321 0 q9 0 16 -6.5 q7 -6.5 7 -15.5 l10 -268 q0 -9 -5.5 -17 q-5.5 -8 -15.5 -11 l-210 -49 q-9 -2 -11 -8 q-2 -6 5 -12 l46 -40 q7 -7 9.5 -5.5 q2.5 1.5 -1.5 8.5 q-3 6 0.5 13.5 q3.5 7.5 11.5 12.5 l110 54 q7 3 16 0.5 q9 -2.5 13 -11.5 l19 -40 q4 -8 1 -16.5 q-3 -8.5 -11 -11.5 l-91 -45 q-9 -5 -9.5 -11 q-0.5 -6 6.5 -13 l120 -108 q7 -6 8 -15.5 q1 -9.5 -5 -14.5 l-23 -26 ZM608 641 q0 -9 6.5 -15 q6.5 -6 15.5 -5 l151 2 q9 0 15.5 6 q6.5 6 5.5 15 q0 8 -6.5 13.5 q-6.5 5.5 -15.5 5.5 l-150 0 q-9 0 -15.5 -5.5 q-6.5 -5.5 -6.5 -16.5 ZM608 484 q0 -9 6.5 -14.5 q6.5 -5.5 14.5 -2.5 l156 36 q10 3 16 8 q6 5 5 11 q0 6 -6 9.5 q-6 3.5 -16 3.5 l-154 -3 q-9 0 -15.5 -6 q-6.5 -6 -6.5 -17 l0 -25 ZM399 706 q-5 8 -1.5 16.5 q3.5 8.5 10.5 13.5 l39 20 q8 4 17 1 q9 -3 13 -10 l30 -58 q5 -8 2 -17 q-3 -9 -11 -13 l-39 -20 q-7 -4 -16 -1.5 q-9 2.5 -13 10.5 l-31 58 Z" /><glyph glyph-name="uni95E8" unicode="&#x95e8;" d="M281 587 q-6 -7 -15 -7.5 q-9 -0.5 -16 5.5 l-75 65 q-7 7 -7.5 15.5 q-0.5 8.5 6.5 15.5 l29 34 q5 7 14.5 7.5 q9.5 0.5 16.5 -6.5 l74 -66 q7 -6 8 -15 q1 -9 -5 -16 l-30 -32 ZM196 135 q-9 0 -15.5 7 q-6.5 7 -6.5 15 l0 313 q0 10 6.5 16 q6.5 6 16.5 6 l34 0 q10 0 16 -6 q6 -6 6 -16 l-1 -313 q0 -9 -6.5 -15.5 q-6.5 -6.5 -15.5 -6.5 l-34 0 ZM542 67 q-4 9 0.5 17 q4.5 8 13.5 12 l139 51 q8 3 13.5 11.5 q5.5 8.5 5.5 17.5 l-23 399 q-1 10 -7 15 q-6 5 -16 3 l-258 -50 q-10 -1 -16.5 4 q-6.5 5 -9.5 15 l-13 69 q-2 8 3.5 15.5 q5.5 7.5 14.5 9.5 l385 75 q9 1 16 -4 q7 -5 7 -15 l36 -614 q1 -9 -5.5 -17.5 q-6.5 -8.5 -14.5 -12.5 l-218 -80 q-9 -2 -17 1 q-8 3 -12 13 l-24 65 Z" /><glyph glyph-name="uni9898" unicode="&#x9898;" d="M206 418 q-9 -3 -16.5 1 q-7.5 4 -11.5 14 l-60 218 q-2 8 2.5 16 q4.5 8 14.5 11 l288 67 q9 3 15.5 -1.5 q6.5 -4.5 5.5 -15.5 l-15 -227 q-1 -11 -7.5 -18.5 q-6.5 -7.5 -15.5 -10.5 l-200 -54 ZM221 626 q-9 -2 -13 -9.5 q-4 -7.5 -2 -17.5 q2 -9 10 -13 q8 -4 16 -2 l46 15 q8 3 16 -1 q8 -4 12 -14 q2 -8 -2 -16 q-4 -8 -13 -11 l-47 -15 q-8 -2 -12.5 -9.5 q-4.5 -7.5 -2.5 -15.5 q1 -7 9 -11 q8 -4 16 -2 l85 23 q9 2 15.5 10 q6.5 8 6.5 18 l6 84 q1 9 -5 13.5 q-6 4.5 -15 3.5 l-126 -30 ZM141 285 q-8 -2 -16 3.5 q-8 5.5 -10 13.5 l-10 42 q-3 9 2 16.5 q5 7.5 14 10.5 l299 73 q8 2 16 -2.5 q8 -4.5 10 -13.5 l11 -42 q2 -10 -3.5 -17.5 q-5.5 -7.5 -13.5 -9.5 l-299 -74 ZM867 120 q9 1 16 -4.5 q7 -5.5 8 -14.5 l7 -43 q1 -9 -4 -16.5 q-5 -7.5 -14 -7.5 l-402 -61 q-9 -1 -20.5 1.5 q-11.5 2.5 -18.5 8.5 l-188 144 q-7 6 -15.5 4 q-8.5 -2 -13.5 -9 l-43 -67 q-5 -8 -14 -10 q-9 -2 -17 4 l-36 23 q-9 4 -10.5 13.5 q-1.5 9.5 3.5 17.5 l94 147 q5 8 13.5 9.5 q8.5 1.5 16.5 -5.5 l73 -56 q7 -6 12 -3.5 q5 2.5 3 11.5 l-10 69 q-1 9 4 16.5 q5 7.5 14 8.5 l44 6 q9 1 16.5 -4 q7.5 -5 8.5 -14 l0 -4 q2 -10 9.5 -14.5 q7.5 -4.5 16.5 -3.5 l24 5 q8 1 16 -4.5 q8 -5.5 9 -14.5 l7 -44 q2 -8 -3 -15.5 q-5 -7.5 -14 -9.5 l-90 -15 q-9 -2 -11 -7 q-2 -5 7 -10 l98 -75 q7 -7 18.5 -9.5 q11.5 -2.5 21.5 -1.5 l364 55 ZM562 557 q10 0 18.5 6.5 q8.5 6.5 10.5 14.5 l16 48 q2 8 -2 13.5 q-4 5.5 -13 4.5 l-55 -8 q-9 -1 -16.5 5 q-7.5 6 -8.5 15 l-4 25 q-1 9 4 16 q5 7 15 8 l284 39 q10 1 17 -4.5 q7 -5.5 8 -13.5 l3 -27 q2 -9 -4 -16.5 q-6 -7.5 -14 -8.5 l-108 -14 q-9 -1 -17 -8 q-8 -7 -11 -16 l-20 -57 q-3 -9 2 -15 q5 -6 14 -6 l196 2 q11 0 16 -5.5 q5 -5.5 3 -14.5 l-57 -264 q-2 -8 -9.5 -13 q-7.5 -5 -16.5 -3 l-34 7 q-10 2 -14.5 9.5 q-4.5 7.5 -3.5 17.5 l36 165 q2 9 -3 15.5 q-5 6.5 -14 6.5 l-183 -3 q-9 0 -15.5 -6.5 q-6.5 -6.5 -5.5 -15.5 l7 -111 q1 -9 -5 -16 q-6 -7 -15 -7 l-35 -2 q-9 -1 -16 4.5 q-7 5.5 -7 16.5 l-14 193 q0 9 6 15.5 q6 6.5 15 6.5 l50 1 ZM577 122 q-4 -8 -13.5 -9.5 q-9.5 -1.5 -16.5 3.5 l-43 31 q-8 5 -9.5 14 q-1.5 9 3.5 16 l162 230 q6 8 14.5 9.5 q8.5 1.5 16.5 -3.5 l43 -30 q8 -6 9.5 -14.5 q1.5 -8.5 -4.5 -16.5 l-44 -64 q-6 -8 -4 -16 q2 -8 10 -13 l109 -60 q8 -4 10 -13.5 q2 -9.5 -2 -17.5 l-5 -7 q-5 -8 -13.5 -10 q-8.5 -2 -16.5 2 l-113 63 q-8 5 -17 2.5 q-9 -2.5 -15 -10.5 l-61 -86 Z" /><glyph glyph-name="uni98CE" unicode="&#x98ce;" d="M131 14 q-9 6 -10.5 14.5 q-1.5 8.5 3.5 16.5 l31 49 q4 8 7.5 19 q3.5 11 3.5 20 l-7 590 q0 10 6.5 16 q6.5 6 15.5 5 l585 -22 q10 0 15.5 -7 q5.5 -7 4.5 -15 l-36 -569 q-1 -8 1.5 -15 q2.5 -7 4.5 -7 q4 0 6.5 6.5 q2.5 6.5 3.5 14.5 l4 30 q1 10 7.5 15.5 q6.5 5.5 15.5 3.5 l68 -5 q10 -2 15 -8.5 q5 -6.5 4 -16.5 l-13 -138 q-2 -9 -8.5 -15 q-6.5 -6 -16.5 -5 l-191 14 q-9 1 -15 8 q-6 7 -5 16 l37 563 q0 9 -6 15.5 q-6 6.5 -15 6.5 l-352 14 q-9 0 -15.5 -6.5 q-6.5 -6.5 -6.5 -14.5 l1 -85 q0 -9 1.5 -14 q1.5 -5 2.5 -3 q1 2 7.5 -1 q6.5 -3 12.5 -8 l122 -102 q7 -5 16.5 -4 q9.5 1 16.5 8 l77 90 q6 6 15 7 q9 1 16 -5 l23 -21 q7 -6 8 -15 q1 -9 -5 -15 l-77 -89 q-6 -6 -5.5 -15.5 q0.5 -9.5 7.5 -14.5 l72 -58 q5 -7 6.5 -15.5 q1.5 -8.5 -4.5 -15.5 l-28 -33 q-5 -8 -14 -8.5 q-9 -0.5 -17 4.5 l-71 59 q-8 6 -16.5 5.5 q-8.5 -0.5 -15.5 -7.5 l-62 -73 q-6 -7 -15 -7.5 q-9 -0.5 -16 5.5 l-23 21 q-7 5 -7.5 14.5 q-0.5 9.5 4.5 15.5 l61 71 q6 7 5.5 15.5 q-0.5 8.5 -7.5 15.5 l-71 59 q-7 5 -12.5 3 q-5.5 -2 -5.5 -12 l4 -277 q0 -9 -3.5 -20.5 q-3.5 -11.5 -8.5 -19.5 l-48 -77 q-5 -8 -14 -9.5 q-9 -1.5 -17 2.5 l-57 36 Z" /><glyph glyph-name="uniFF01" unicode="&#xff01;" d="M471 91 l-76 19 l120 489 l76 -18 l-120 -490 ZM410 -78 l-55 55 l46 47 l55 -55 l-46 -47 Z" /><glyph glyph-name="uniFF08" unicode="&#xff08;" d="M749 -111 q-73 73 -111.5 166.5 q-38.5 93.5 -38.5 196.5 q0 103 38.5 196.5 q38.5 93.5 111.5 166.5 l55 -55 q-62 -62 -94.5 -141 q-32.5 -79 -32.5 -167 q0 -88 32.5 -166.5 q32.5 -78.5 94.5 -141.5 l-55 -55 Z" /><glyph glyph-name="uniFF09" unicode="&#xff09;" d="M226 709 q73 -73 111.5 -166.5 q38.5 -93.5 38.5 -196.5 q0 -103 -38.5 -196.5 q-38.5 -93.5 -111.5 -166.5 l-55 55 q62 62 94.5 141 q32.5 79 32.5 167 q0 88 -32.5 166.5 q-32.5 78.5 -94.5 141.5 l55 55 Z" /><glyph glyph-name="uniFF0C" unicode="&#xff0c;" d="M234 -107 l-73 28 l46 123 l-38 8 l18 76 l125 -29 l-78 -206 Z" /></font>
</defs>
</svg>
