<?xml version="1.0" standalone="no"?><!DOCTYPE svg PUBLIC "-//W3C//DTD SVG 1.1//EN" "http://www.w3.org/Graphics/SVG/1.1/DTD/svg11.dtd" ><svg xmlns="http://www.w3.org/2000/svg"><metadata></metadata><defs><font id="xiaowei:Version 1.00" horiz-adv-x="512"><font-face font-family="xiaowei" font-weight="400" font-stretch="normal" units-per-em="512" panose-1="2 1 6 0 1 1 1 1 1 1" ascent="449" descent="-96" x-height="1" bbox="6 -100 503 421" underline-thickness="25" underline-position="-196" unicode-range="U+0023-ff1f" /><missing-glyph horiz-adv-x="512" d="M34 53 q16 10 34 0 q11 -9 13 -26 q-2 -11 -9 -19 q-16 -12 -35 -6 q-11 8 -15 19 q-2 20 12 32 ZM115 350 q10 18 30 14 q9 -5 15 -15 q2 -10 1 -21 q-12 -16 -18 -36 q-20 -96 -50 -187 q-7 -10 -21 -9 q-10 5 -14 14 q34 117 57 240 Z" /><glyph glyph-name="numbersign" unicode="#" d="M165 327 q5 6 15 6 q6 -4 12 -10 q9 -15 10 -36 q18 -6 21 -27 q-10 -14 -25 -19 q-8 -31 -6 -68 q23 -5 38 -22 q0 -6 -2 -12 q-15 -15 -40 -17 q-1 -39 -6 -77 q-6 -13 -18 -18 q-7 6 -13 12 q-7 38 -4 80 q-33 4 -52 -9 q0 -32 -2 -62 q-4 -11 -11 -21 q-10 4 -16 12 q-8 35 -6 74 q-20 3 -34 12 q-6 8 -6 18 q18 14 45 15 q1 39 3 77 q-12 9 -25 17 q7 16 25 21 q-1 26 15 42 q8 -1 14 -8 q8 -12 11 -29 q24 0 47 1 q0 27 10 48 ZM106 236 q-6 -34 -3 -71 l41 0 q10 32 6 71 l-44 0 Z" /><glyph glyph-name="percent" unicode="%" d="M143 102 q12 8 28 10 q22 3 41 -7 q18 -16 21 -40 q0 -17 -4 -32 q-6 -16 -21 -27 q-18 -7 -39 -6 q-15 3 -27 11 q-10 10 -15 20 q-6 24 0 47 q5 14 16 24 ZM198 74 q-10 12 -24 8 q-15 -9 -19 -25 q-1 -7 3 -14 q15 -15 34 -7 q8 9 11 19 q0 11 -5 19 ZM42 304 q21 15 47 18 q12 -1 23 -9 q16 -14 18 -35 q-1 -23 -11 -42 q-16 -18 -37 -24 q-29 0 -48 20 q-17 22 -10 48 q5 15 18 24 ZM84 290 l-20 -2 q-15 -9 -12 -27 q5 -13 19 -18 q11 0 20 7 q8 10 10 21 q-3 16 -17 19 ZM196 328 q6 10 16 12.5 q10 2.5 17 -6.5 l0 -13 q-98 -152 -178 -312 q-14 -8 -22 6 q83 157 167 313 Z" /><glyph glyph-name="ampersand" unicode="&amp;" d="M103 337 q32 6 59 -7 q15 -10 24 -28 q5 -15 3 -32 q-6 -12 -13 -25 q-39 -37 -79 -65 q27 -37 63 -67 q5 18 12 35 q4 7 12 6 q10 -30 2 -63 q25 -20 51 -38 q7 -7 8 -18 q-7 -8 -17 -5 q-28 19 -53 35 q-13 -24 -34 -46 q-20 -16 -44 -20 q-18 0 -32 5 q-28 15 -40.5 43.5 q-12.5 28.5 -9.5 61.5 q4 22 15 40 q13 22 34 38 q-12 21 -16 44 q-1 16 0 32 q4 30 22 53 q14 16 33 21 ZM77 165 q-21 -19 -34 -43 q-10 -28 0 -57 q7 -18 23 -31 q12 -8 28 -8 q12 3 23 8 q26 21 37 51 q-43 37 -77 80 ZM132 311 q-20 1 -35 -8 q-13 -12 -20 -29 q-6 -20 -3 -42 q2 -14 10 -27 q41 20 76 59 q3 9 3 18 q-4 12 -13 21 q-9 6 -18 8 Z" /><glyph glyph-name="asterisk" unicode="*" d="M90 276 q6 10 16 15 q19 -2 29 -18 q1 -9 4 -18 q24 9 45 21 q5 -4 10 -10 q-15 -23 -22 -51 q20 -1 25 -20 q-9 -13 -23 -20 q-11 0 -21 -2 l0 -12 q27 -23 50 -52 q5 -8 5 -22 q-6 -10 -20 -7 q-24 24 -56 33 q-3 -29 -19 -49 q-16 6 -20 21 q-1 21 -2 40 l-12 0 q-13 -27 -37 -43 q-10 3 -12 12 q7 35 32 58 q1 8 -2 14 q-18 1 -33 3 q-8 6 -14 11 q4 14 18 21 q14 2 26 7 q-6 26 -19 46 q3 9 11 14 q14 -10 28 -23 q6 0 12 1 q-1 16 1 30 Z" /><glyph glyph-name="period" unicode="." d="M21 46 q19 11 39 1 q9 -12 7 -30 q-5 -11 -15 -17 l-23 0 q-11 6 -14 17 q-2 17 6 29 Z" /><glyph glyph-name="zero" unicode="0" d="M130 64 q0 -7 -5 -12 q-6 -5 -14 -5 q-8 0 -14 5 q-5 5 -5 12 l0 215 q0 7 5 12 q6 6 14 6 q8 0 14 -6 q5 -5 5 -12 l0 -215 ZM111 350 q-32 0 -55 -21 q-23 -21 -23 -50 l0 -215 q0 -29 23 -50 q23 -20 55 -20 q32 0 55 20 q23 21 23 50 l0 215 q0 29 -23 50 q-23 21 -55 21 Z" /><glyph glyph-name="one" unicode="1" d="M85 -1 l57 0 l0 345 l-54 0 l-26 1 l-2 -25 l0 -1 l0 -1 q-1 -3 -2 -5 q-2 -7 -6 -13 q-9 -15 -28 -15 l0 -54 q37 0 61 22 l0 -254 Z" /><glyph glyph-name="two" unicode="2" d="M80 269 q0 2 1 4 l2 6 q2 7 7 11 l0 0 q1 0 1 1 q1 0 3 1 q5 1 12 1 q3 -1 5 -2 q1 0 1 -1 l1 0 l0 -1 q6 -7 5 -28 q-1 -18 -6 -34 l-76 -229 l148 0 l0 54 l-66 0 l53 160 l0 2 q1 2 1 4 q2 5 3 10 q3 15 4 28 q3 40 -15 64 q-18 24 -53 27 q-21 2 -38 -4 q-14 -4 -24 -13 q-18 -14 -26 -37 q-2 -7 -3 -15 q-1 -3 -1 -5 l0 -2 l0 -1 l0 -44 l61 0 l0 43 Z" /><glyph glyph-name="three" unicode="3" d="M110 0 q21 0 38 6 q13 4 23 12 q14 11 20 26 q2 5 3 11 q1 2 1 4 l0 1 l0 68 l0 6 q0 5 -1 10 q-3 12 -12 23 q14 15 13 32 l0 86 l0 1 q0 2 -1 4 q-1 5 -2 11 q-6 16 -21 27 q-10 7 -24 12 q-18 6 -40 5 q-39 -1 -62 -22 q-19 -17 -20 -38 l0 -52 l67 0 l0 50 l0 1 l1 1 q0 1 1 3 l1 0 l1 1 l2 2 q4 1 11 2 q10 0 14 -2 q4 -2 5 -8 l0 -84 l0 -1 q0 -1 -1 -1 q0 -1 -2 -2 q-3 -2 -12 -2 l-29 0 l0 -53 l30 0 l8 0 q3 -1 4 -2 q1 -1 1 -3 q1 -2 1 -3 l0 -1 l0 -70 l0 0 q-1 -1 -1 -2 q-1 -3 -3 -4 q-4 -3 -15 -3 q-10 1 -14 3 q-2 1 -2 2 q-1 1 -1 2 l0 53 l-67 0 l0 -50 l0 -3 l0 -4 l2 -10 q5 -14 17 -24 q9 -9 23 -14 q17 -7 40 -7 l3 0 Z" /><glyph glyph-name="four" unicode="4" d="M119 94 l-40 0 l40 92 l0 -92 ZM175 322 q0 21 -22 26 q-23 4 -32 -16 l-97 -224 q-2 -5 -2 -10 l0 -31 q0 -11 8 -19 q9 -8 20 -8 l69 0 l0 -40 l56 0 l0 40 l25 0 l0 54 l-25 0 l0 228 Z" /><glyph glyph-name="five" unicode="5" d="M180 205 q0 12 -9 20 q-8 8 -21 8 l-65 0 l0 60 l84 0 l0 56 l-113 0 q-13 0 -21 -8 q-9 -8 -9 -20 l0 -116 q0 -11 9 -19 q8 -8 21 -8 l65 0 l0 -105 l0 -2 l0 -2 q-1 -2 -1 -5 q-1 -5 -4 -8 q-3 -3 -12 -3 l-7 0 q-4 1 -6 3 q-2 2 -3 7 q0 2 -1 4 l0 3 q1 1 1 3 l0 69 l-60 0 l0 -68 l0 -4 l0 -5 q0 -7 2 -14 q4 -19 17 -32 q9 -9 21 -15 q15 -7 35 -7 l1 0 q19 0 34 7 q12 5 21 14 q13 13 19 33 l2 14 l0 5 l0 4 l0 131 Z" /><glyph glyph-name="six" unicode="6" d="M85 158 l31 0 l0 -95 l1 -2 l-1 0 l0 -1 l0 -1 q0 -2 -1 -3 q-2 -1 -5 -1 q-4 -1 -9 -1 l-10 0 q-3 1 -4 2 q-1 1 -1 3 q-1 1 -1 2 l0 2 l0 95 ZM39 325 q-17 -19 -17 -44 l0 -217 l0 -3 l0 -4 q1 -6 2 -11 q5 -15 17 -26 q9 -9 21 -14 q17 -6 38 -6 l1 0 q22 0 39 7 q12 5 21 13 q12 11 16 26 q2 5 2 11 q1 2 1 4 l0 3 l0 120 q0 12 -10 19 q-9 8 -22 8 l-63 0 l0 71 l0 1 q1 1 1 2 q0 3 2 6 q3 6 15 6 q8 1 12 -2 q2 -2 4 -7 q0 -1 1 -3 l0 -3 l0 -31 l63 0 l0 31 l0 1 l0 1 l0 5 q-1 6 -3 13 q-6 19 -21 31 q-10 8 -22 13 q-17 6 -37 5 q-39 -1 -61 -26 Z" /><glyph glyph-name="seven" unicode="7" d="M18 344 l0 -54 l90 0 l-52 -280 l62 -8 l58 311 q2 12 -8 22 q-9 9 -23 9 l-127 0 Z" /><glyph glyph-name="eight" unicode="8" d="M120 58 q-1 -6 -6 -8 q-1 -1 -4 -1 l-2 0 l-2 0 l-2 0 q-8 0 -11 3 q-3 1 -3 5 l0 79 l0 1 l1 1 q0 2 1 3 l1 1 l0 1 q1 1 2 1 q2 1 7 1 l7 0 l1 0 l2 0 q2 0 4 -1 q4 -2 4 -8 l0 -78 ZM90 285 q1 6 5 8 q3 2 10 2 q7 0 10 -2 q5 -2 5 -8 l0 -79 l0 1 q-1 -6 -5 -8 q-1 -1 -3 -1 q-2 0 -4 -1 l-8 0 l-2 1 q-2 0 -3 1 q-4 2 -5 8 l0 78 ZM160 326 q-20 21 -56 21 q-35 -1 -54 -22 q-16 -17 -16 -40 l0 -79 l0 -1 q1 -18 12 -34 q-11 -15 -12 -33 l0 -80 l0 -3 l0 -4 l2 -10 q5 -14 15 -25 q8 -7 19 -12 q14 -7 33 -7 l3 0 q34 0 53 21 q16 17 17 39 l0 80 q0 19 -12 35 q12 16 12 34 l0 80 q0 22 -16 40 Z" /><glyph glyph-name="nine" unicode="9" d="M114 199 l-27 0 l0 83 q1 7 6 9 q2 1 4 1 q1 1 2 1 l1 0 l1 0 l1 0 q1 0 2 -1 q3 0 5 -1 q5 -2 5 -9 l0 -83 ZM48 324 q-16 -17 -18 -39 l0 -2 l0 -110 q0 -11 8 -19 q9 -8 20 -8 l56 0 l0 -79 q0 -10 -5 -14 q-2 -1 -5 -2 l-2 0 l-1 0 l-1 0 l-3 0 l-3 0 q-5 1 -7 3 q-2 2 -3 6 l0 3 q-1 2 -1 3 q1 0 1 1 l0 31 l-57 0 l0 -30 l0 -3 l0 -5 q1 -7 3 -13 q4 -18 17 -30 q8 -8 19 -13 q15 -6 33 -6 l3 0 q35 1 54 25 q15 20 15 45 l0 215 l0 2 q-1 22 -17 39 q-20 22 -53 22 q-34 0 -53 -22 Z" /><glyph glyph-name="greater" unicode="&gt;" d="M19 311 q0 14 10 20 q73 -46 137 -105 q19 2 30 -8 q9 -15 16 -33 q1 -33 -16 -53 q-48 -20 -93 -44 q-40 -31 -76 -66 q-10 2 -12 12 q18 39 46 68 q40 30 75 66 l0 26 q-47 42 -95 81 q-12 18 -22 36 Z" /><glyph glyph-name="at" unicode="@" d="M85 332 q28 13 64 11 q14 -4 29 -11 q25 -16 43 -45 q11 -23 19 -50 q2 -29 2 -60 q-3 -30 -15 -56 q-9 -11 -19 -19 q-15 -3 -29 0 q-15 12 -26 21 q-11 -19 -28 -25 l-16 4 q-13 13 -20 28 q-10 35 0 70 q6 21 23 35 q19 8 37 -4 q16 -18 29 -37 q-6 -28 4 -53 q9 -5 20 -1 q13 14 17 34 q6 44 -8 83 q-13 25 -33 43 q-22 16 -51 16 q-28 -6 -50 -23 q-20 -23 -31 -50 q-13 -35 -11 -76 q2 -28 11 -54 q11 -23 26 -46 q23 -23 58 -28 q32 3 56 21 q10 0 13 -11 q-5 -14 -15 -25 q-13 -9 -27 -15 q-22 -2 -42 0 q-20 8 -38 18 q-17 16 -31 34 q-17 30 -24.5 63 q-7.5 33 -6.5 67 q2 37 14 70 q9 20 20 39 q16 20 36 32 ZM124 198 q-10 -8 -13 -20 q-6 -20 3 -39 q7 -2 14 2 q6 8 11 17 q-1 21 -6 39 q-5 2 -9 1 Z" /><glyph glyph-name="A" unicode="a" d="M62 2 q7 4 10 12 l75 222 q3 8 -1 17 q-3 8 -10 11 q-8 3 -15 -1 q-7 -3 -10 -12 l-75 -221 q-3 -9 1 -17 q3 -8 10 -11 q8 -3 15 0 ZM260 2 q7 -3 15 0 q7 3 10 11 q3 8 1 17 l-105 302 q-3 9 -10 13 q-7 3 -15 0 q-7 -3 -11 -11 q-3 -9 0 -17 l105 -303 q3 -8 10 -12 Z" /><glyph glyph-name="B" unicode="b" d="M72 152 l119 0 l6 -2 l8 -2 q10 -3 18 -9 q21 -15 20 -42 q-1 -23 -11 -34 q-8 -8 -19 -13 q-12 -5 -25 -4 l-116 0 l0 106 ZM72 302 l73 0 l1 0 l2 0 q3 -1 6 -1 q9 -2 15 -6 q22 -12 23 -41 q0 -23 -13 -37 q-8 -9 -19 -14 q-11 -6 -23 -6 l-65 0 l0 105 ZM36 7 q6 -7 15 -7 l147 0 q3 0 6 1 q37 5 59 29 q24 28 23 69 q-2 43 -24 69 q-17 20 -43 27 q17 26 16 61 q-2 46 -33 71 q-25 21 -57 21 l0 -1 l-94 0 q-9 0 -15 -6 q-6 -7 -6 -16 l0 -4 l0 -294 l0 -4 q0 -10 6 -16 Z" /><glyph glyph-name="C" unicode="c" d="M295 30 q10 7 10 19 q0 9 -6 16 q-7 7 -16 7 q-9 0 -16 -7 q-30 -20 -66 -20 q-25 0 -47 9 q-22 10 -39 27 q-16 17 -26 38 q-9 23 -9 48 q0 25 9 48 q10 22 26 39 q17 16 39 26 q22 9 47 9 q28 0 53 -12 q5 -3 11 -3 q9 0 15 6 q7 7 7 16 q0 8 -5 14 q-4 5 -11 8 q-33 16 -70 16 q-34 0 -64 -13 q-30 -13 -53 -36 q-23 -23 -35 -53 q-13 -31 -13 -65 q0 -34 13 -65 q12 -30 35 -53 q23 -23 53 -36 q30 -13 64 -13 q51 0 94 30 Z" /><glyph glyph-name="D" unicode="d" d="M36 0 l102 0 q32 0 62 14 q28 13 50 36 q22 24 34 55 q12 32 12 67 q0 35 -12 66 q-12 31 -34 55 q-21 24 -50 37 q-29 13 -60 14 q-9 0 -15 -7 q-6 -7 -6 -16 q0 -10 6 -17 q6 -6 15 -6 l1 0 q23 -1 44 -11 q20 -10 36 -27 q15 -17 24 -40 q9 -23 9 -48 q0 -26 -9 -49 q-9 -23 -25 -40 q-16 -18 -37 -27 q-21 -10 -45 -10 l-60 0 l0 226 l0 50 q0 9 -7 16 q-6 6 -14 6 q-8 0 -14 -6 q-6 -7 -7 -16 l0 -1 l0 -1 l0 -320 Z" /><glyph glyph-name="E" unicode="e" d="M37 23 q0 -10 7 -16 q7 -7 16 -7 q4 0 7 1 l145 0 q9 0 16 7 q7 6 7 16 q0 9 -7 16 q-7 6 -16 6 l-129 0 l0 103 l133 0 q9 0 16 7 q7 6 7 16 q0 9 -7 16 q-7 7 -16 7 l-133 0 l0 106 l129 0 q9 0 16 6 q7 7 7 16 q0 10 -7 16 q-7 7 -16 7 l-152 0 q-10 0 -16 -7 q-7 -6 -7 -16 l0 -3 l0 -297 Z" /><glyph glyph-name="F" unicode="f" d="M43 20 q0 -9 7 -16 q7 -7 16 -7 q10 0 16 7 q7 6 8 15 l0 125 l135 0 q10 0 16 6 q7 7 7 17 q0 9 -7 16 q-6 7 -16 7 l-135 0 l0 108 l131 0 q10 0 17 7 q6 6 6 16 q0 9 -6 16 q-7 7 -17 7 l-155 0 q-9 0 -16 -7 q-7 -7 -7 -16 l0 -4 l0 -297 Z" /><glyph glyph-name="G" unicode="g" d="M187 0 q60 0 99 43 q39 43 42 109 l1 3 q0 21 -20 22 l-159 0 l0 0 l-1 0 q-20 -1 -20 -22 q0 -22 21 -22 l135 0 q-18 -87 -98 -87 q-47 0 -80 38 q-33 37 -33 90 q0 52 33 89 q34 38 81 38 q55 0 89 -56 q6 -12 19 -12 q21 0 21 23 l-2 10 l0 1 l-4 6 q-46 74 -123 74 q-65 0 -110 -51 q-46 -51 -46 -122 q0 -73 45 -123 q45 -51 110 -51 Z" /><glyph glyph-name="H" unicode="h" d="M292 321 q-1 22 -22 22 q-23 0 -23 -23 l0 -110 l-160 0 l0 111 q-1 22 -23 22 q-22 0 -22 -23 l0 -298 q0 -22 22 -22 q22 0 23 22 l0 143 l160 0 l0 -143 q0 -22 23 -22 q21 0 22 22 l0 299 Z" /><glyph glyph-name="I" unicode="i" d="M132 300 q22 0 22 23 q0 21 -22 22 l-71 0 q-22 -1 -22 -22 q0 -23 23 -23 l12 0 l0 -256 l-13 0 q-22 -1 -22 -23 q0 -22 23 -22 l70 0 q22 0 22 22 q0 22 -22 23 l-13 0 l0 256 l13 0 Z" /><glyph glyph-name="J" unicode="j" d="M55 45 q-22 0 -22 -23 q0 -22 22 -22 l1 0 l3 0 q72 3 108 42 q16 18 24 42 q6 17 8 36 l0 5 l0 198 q0 22 -22 22 q-22 0 -22 -22 l0 -189 l-1 -10 q0 -8 -2 -15 q-5 -22 -18 -37 q-23 -26 -77 -28 l-2 1 Z" /><glyph glyph-name="K" unicode="k" d="M210 336 l-114 -141 q-6 -9 -4 -20 q1 -8 5 -13 l113 -141 q15 -18 33 -3 q18 14 3 33 l-103 128 l103 128 q15 18 -3 32 q-19 15 -33 -3 ZM86 21 l0 304 q0 21 -22 21 q-23 0 -23 -22 l0 -302 q0 -23 23 -23 q22 0 22 22 Z" /><glyph glyph-name="L" unicode="l" d="M90 325 q-1 23 -23 23 q-24 0 -24 -24 l0 -297 l0 -4 q0 -23 23 -23 l155 0 q24 0 24 23 q0 23 -24 23 l-131 0 l0 279 Z" /><glyph glyph-name="M" unicode="m" d="M304 325 q-1 7 -7 13 l-5 4 l-2 1 l-4 1 l-5 0 l-1 -1 l-6 -2 l-1 0 q-6 -4 -8 -11 l-1 0 l-78 -228 l-78 228 l-2 4 l-1 2 l-4 4 l-2 1 l-5 2 l-2 1 l-1 0 l-5 0 l-3 -1 l-1 0 l-2 -2 l-4 -3 l-2 -2 l-3 -5 l0 -2 l-2 -4 l-37 -299 q-2 -23 18 -26 q19 -3 22 19 l0 1 l27 212 l68 -200 q5 -15 19 -14 q14 -1 19 14 l1 0 l68 200 l27 -212 l0 -1 q3 -22 22 -19 q20 3 18 26 l-37 299 Z" /><glyph glyph-name="N" unicode="n" d="M279 320 l0 -189 q0 -22 22 -22 q22 0 22 22 l0 189 q0 22 -22 22 q-22 0 -22 -22 ZM75 332 q-13 18 -30 5 l-3 -2 q-7 -6 -7 -16 l0 -289 q0 -22 22 -22 q22 0 22 22 l0 227 l198 -247 q13 -18 31 -5 q18 13 5 31 l-238 296 Z" /><glyph glyph-name="O" unicode="o" d="M107 83 q-35 37 -35 89 q0 52 35 88 q35 37 85 37 q49 0 84 -37 q35 -36 35 -88 q0 -52 -35 -89 q-35 -36 -84 -36 q-50 0 -85 36 ZM192 343 q-68 0 -116 -50 q-48 -50 -48 -121 q0 -71 48 -121 q48 -50 116 -50 q67 0 115 50 q48 50 48 121 q0 71 -48 121 q-48 50 -115 50 Z" /><glyph glyph-name="P" unicode="p" d="M75 302 l97 0 l4 0 q6 -1 11 -2 q18 -3 27 -12 q10 -9 10 -28 q-2 -50 -54 -49 l0 -1 l-95 0 l0 92 ZM75 23 l0 141 l97 0 q97 0 100 95 q0 22 -8 40 q-6 13 -17 23 q-18 18 -48 24 l-20 2 l-128 0 q-23 0 -23 -23 l0 -4 l0 -130 l0 -4 l0 -4 l0 -160 q0 -23 23 -23 q24 0 24 23 Z" /><glyph glyph-name="Q" unicode="q" d="M252 139 q-11 17 -29 6 q-17 -12 -6 -29 l28 -42 q-26 -14 -55 -14 q-49 0 -84 35 q-35 35 -35 85 q0 49 35 84 q35 35 84 35 q49 0 84 -35 q35 -35 35 -84 q0 -46 -31 -80 l-26 39 ZM190 343 q-67 0 -115 -48 q-48 -48 -48 -115 q0 -68 48 -115 q48 -48 115 -48 q43 0 80 21 l18 -27 q12 -18 30 -6 q17 11 6 29 l-20 29 q49 48 49 117 q0 67 -48 115 q-48 48 -115 48 Z" /><glyph glyph-name="R" unicode="r" d="M144 116 l0 -3 q1 -7 6 -13 l77 -91 q15 -17 32 -2 q17 15 2 32 l-75 89 q-7 10 -19 10 q-23 0 -23 -22 ZM82 299 l95 0 l0 -1 l4 0 q5 0 11 -1 q17 -3 25 -12 q10 -9 10 -28 q-1 -49 -52 -48 l0 -1 l-93 0 l0 91 ZM37 182 l0 -158 q0 -23 23 -23 q22 0 22 23 l0 139 l93 0 l-1 -1 l3 0 q94 0 97 94 q0 22 -8 39 q-6 14 -16 24 q-18 17 -47 23 q-9 2 -19 3 l-10 0 l0 -1 l-114 0 q-23 0 -23 -23 l0 -3 l0 -129 l0 -3 l0 -4 Z" /><glyph glyph-name="S" unicode="s" d="M248 301 q22 0 22 23 q0 22 -22 22 l-106 0 q-36 1 -64 -26 q-33 -30 -31 -79 q2 -53 43 -76 q15 -8 35 -12 q14 -3 30 -3 l33 -1 l7 -1 q11 -1 19 -6 q26 -13 24 -49 q-2 -47 -74 -48 l-69 0 q-22 0 -22 -22 q0 -23 22 -23 l84 0 q18 0 32 2 q20 3 34 12 q38 21 40 77 q2 49 -29 78 q-27 25 -68 25 l-25 0 q-67 1 -69 50 q-2 28 14 45 q12 12 26 12 l114 0 Z" /><glyph glyph-name="T" unicode="t" d="M280 344 l-239 0 q-23 -1 -23 -22 q0 -23 24 -23 l99 0 l0 -277 q0 -23 24 -23 q23 0 23 22 l1 0 l0 1 l0 277 l90 0 q24 0 24 23 q0 21 -23 22 Z" /><glyph glyph-name="U" unicode="u" d="M250 322 l0 -188 l-1 0 l0 -10 q0 -8 -2 -15 q-5 -22 -18 -37 q-24 -26 -71 -28 q-42 -1 -64 21 q-16 15 -22 41 q-2 8 -3 17 l0 6 l0 4 l-1 0 l0 189 q0 22 -22 22 q-22 0 -22 -22 l0 -198 l2 -8 q2 -20 9 -39 q9 -26 27 -43 q34 -34 90 -34 l7 0 q67 3 102 42 q16 18 25 42 q6 17 7 35 l1 5 l0 198 q0 22 -22 22 q-22 0 -22 -22 Z" /><glyph glyph-name="V" unicode="v" d="M276 328 l-84 -216 q-7 -19 13 -27 q20 -7 28 12 l83 216 q8 20 -13 27 q-20 8 -27 -12 ZM77 328 q-7 20 -27 12 q-21 -7 -13 -27 l117 -294 q8 -20 28 -12 q20 7 12 27 l-117 294 Z" /><glyph glyph-name="W" unicode="w" d="M332 324 l-29 -212 l-77 199 q-4 10 -14 13 l-8 2 l-8 -2 q-10 -3 -13 -13 l-77 -199 l-30 212 l0 0 q-4 22 -25 19 q-23 -3 -20 -26 l42 -298 q2 -19 22 -19 l3 0 l2 1 l6 2 l1 0 q7 4 9 11 l1 0 l87 227 l88 -227 l0 0 l2 -4 l2 -2 l4 -4 l2 -1 l6 -2 l2 -1 l3 0 l7 1 l1 0 l0 1 l7 4 q6 6 7 13 l42 298 q3 23 -20 26 q-21 3 -25 -19 Z" /><glyph glyph-name="X" unicode="x" d="M212 149 q-14 20 -35 6 q-20 -15 -6 -35 l76 -108 q14 -20 35 -6 q20 14 5 35 l-75 108 ZM111 197 q14 -21 34 -6 q21 14 6 34 l-75 108 q-15 21 -35 6 q-20 -14 -6 -34 l76 -108 ZM173 225 q-14 -20 6 -34 q20 -15 35 6 l75 108 q15 20 -6 34 q-20 15 -34 -6 l-76 -108 ZM37 41 q-15 -21 6 -35 q20 -14 35 6 l75 108 q15 20 -6 35 q-20 14 -35 -6 l-75 -108 Z" /><glyph glyph-name="Y" unicode="y" d="M67 329 q-8 21 -28 14 q-21 -7 -14 -28 l101 -171 l0 -122 q0 -22 22 -22 q22 0 22 22 l0 127 q0 8 -5 15 l-98 165 ZM229 327 l-65 -110 q-7 -21 14 -29 q21 -7 28 14 l65 110 q7 21 -14 29 q-21 7 -28 -14 Z" /><glyph glyph-name="Z" unicode="z" d="M127 44 q-22 0 -22 -22 q0 -22 22 -22 l143 0 q22 0 22 22 q0 22 -22 22 l-143 0 ZM276 345 l-202 0 q-22 0 -22 -23 q0 -22 22 -22 l153 0 l-182 -254 q-18 -13 -5 -31 q13 -18 31 -5 l219 294 q18 13 5 31 l-2 2 q-7 8 -17 8 Z" /><glyph glyph-name="a" unicode="a" d="M109 114 q18 6 37 6 q2 1 3 -9 l3 -21 l-1 -22 q-4 -25 -28 -34 l-14 -1 q-23 3 -34 23 q-10 20 0 34 q11 15 34 24 ZM51 23 l13 -11 l6 -4 q22 -11 50 -7 l12 3 l18 7 l18 12 l9 -14 q7 -6 20 -2 q37 9 26 36 l-4 -1 q0 -7 -6 -14 q-6 -8 -11 -4 l-7 15 l-4 21 q5 22 0 57 q-17 115 -97 97 q-46 -11 -50 -45 l0 -10 q3 -18 20 -15 q18 2 15 20 q-1 11 -12 15 q10 16 39 5 q31 -11 35 -42 l-12 -1 l-15 -2 l-37 -8 q-46 -17 -45 -66 q1 -24 19 -42 Z" /><glyph glyph-name="b" unicode="b" d="M156 68 q-5 -23 -24 -30 q-14 -4 -32 4 q-18 7 -25 19 l0 84 l4 8 l6 7 q9 8 25 7 q30 -2 40 -29 q4 -10 6 -24 l1 -22 l-1 -24 ZM102 196 l-15 -2 l-12 -2 l0 131 q-1 22 -22 22 q-23 0 -23 -22 l0 -300 q0 -23 23 -23 q20 0 22 21 l5 -5 l10 -6 q16 -8 40 -8 q25 1 44 17 q23 19 26 51 l1 23 q-3 42 -24 70 q-18 22 -43 30 q-14 5 -32 3 Z" /><glyph glyph-name="c" unicode="c" d="M147 4 q31 8 50 39 q6 10 -2 17 q-9 7 -17 -4 q-12 -20 -54 -22 q-8 -1 -15 1 q-20 6 -28 38 l-4 26 l0 24 l4 25 q8 29 37 34 l15 0 q13 -3 21 -16 l5 -11 l3 -12 l1 -10 l0 -2 l2 -8 l0 -2 q6 -14 22 -14 q25 0 25 24 l-1 6 l-1 10 q-5 33 -31 52 q-22 16 -51 16 l-12 0 q-11 -1 -20 -3 q-28 -9 -46 -34 q-22 -31 -22 -78 l3 -25 q5 -36 32 -56 q23 -18 52 -19 q14 -1 32 4 Z" /><glyph glyph-name="d" unicode="d" d="M145 162 l7 -8 l3 -8 l0 -84 q-7 -12 -25 -20 q-19 -8 -32 -3 q-20 7 -24 30 l-2 24 l2 22 q1 14 5 24 q10 27 41 30 q16 1 25 -7 ZM140 10 l11 6 l4 5 q2 -21 23 -21 q23 0 23 23 l0 303 q0 23 -23 23 q-22 0 -23 -22 l0 -133 l-12 3 l-15 2 q-18 1 -32 -3 q-26 -8 -44 -32 q-21 -27 -24 -70 l1 -23 q3 -33 26 -52 q19 -16 45 -16 q24 -1 40 7 Z" /><glyph glyph-name="e" unicode="e" d="M127 182 q12 -3 19 -13 q5 -7 9 -21 q8 -38 -21 -40 q-24 -3 -43 3 l-13 6 l-7 5 q1 24 8 37 q10 19 33 23 l15 0 ZM141 4 q31 8 50 39 q6 11 -2 17 q-8 6 -17 -4 q-12 -20 -54 -22 q-8 -1 -15 1 q-20 6 -28 38 l-3 17 l12 -2 l18 -2 q25 -3 45 -1 q58 6 58 48 l0 1 q0 12 -2 20 q-7 30 -32 47 q-22 14 -49 14 l-12 0 q-11 -1 -20 -3 q-28 -9 -46 -34 q-22 -31 -22 -78 l3 -25 q5 -36 32 -56 q23 -18 52 -19 q14 -1 32 4 Z" /><glyph glyph-name="f" unicode="f" d="M63 69 l0 -144 q0 -21 25 -21 q24 0 25 20 l0 145 l61 0 q14 1 14 12 q0 12 -14 12 l-61 0 l0 45 q0 40 22 44 q14 3 24 0 l8 -3 q6 -4 14 -4 q21 0 21 17 q0 14 -16 18 q-14 5 -29 5 l-6 0 q-92 1 -88 -68 l0 -54 l-18 0 q-15 0 -15 -12 q0 -11 14 -12 l19 0 Z" /><glyph glyph-name="g" unicode="g" d="M127 196 q10 -2 15 -10 l3 -8 l2 -7 l1 -18 l-1 -15 l-4 -16 q-7 -19 -29 -22 q-6 0 -11 1 q-15 4 -19 24 l-1 18 l1 15 l3 16 q8 19 30 22 l10 0 ZM135 19 q12 -2 18 -10 l4 -7 l3 -8 l1 -17 l-1 -15 l-5 -17 q-9 -18 -36 -22 q-7 0 -14 2 q-18 3 -24 24 l-1 17 l1 15 l5 16 q9 19 36 22 l13 0 ZM46 29 l8 -7 l8 -4 q-24 -20 -27 -51 l1 -17 q3 -23 26 -36 q20 -12 46 -12 q13 -1 29 2 q26 5 45 22 q21 20 24 50 l-1 16 q-3 21 -22 35 q-15 10 -36 14 l-18 2 l-17 1 q-39 1 -45 18 q-6 17 2 28 q16 -11 36 -11 q11 -1 24 2 q21 5 35 21 q18 20 20 51 l-1 16 q-1 10 -5 19 q16 6 27 2 l6 -3 q6 -4 12 -4 q19 0 19 17 q0 14 -14 18 q-12 5 -24 5 q-18 0 -32 -5 l-10 -4 l-6 -5 q-14 8 -31 9 l-3 0 l-6 -1 l-14 -2 q-21 -5 -36 -22 q-17 -19 -19 -50 l0 -16 q2 -15 10 -26 q-23 -18 -22 -44 q1 -17 11 -28 Z" /><glyph glyph-name="h" unicode="h" d="M91 323 q-1 22 -24 22 q-24 0 -24 -22 l0 -300 q0 -23 24 -23 q23 0 24 22 l0 139 q8 11 22 17 q15 6 27 2 q10 -3 15 -14 l2 -9 l1 -134 q0 -23 24 -23 q23 0 24 22 l0 128 q0 30 -21 50 q-19 17 -41 16 q-21 0 -36 -6 l-11 -5 l-6 -5 l0 123 Z" /><glyph glyph-name="i" unicode="i" d="M84 222 q-1 22 -23 22 q-22 0 -22 -23 l0 -199 q0 -22 22 -22 q22 0 23 22 l0 200 ZM37 320 q0 -24 25 -24 q25 0 25 24 q0 25 -25 25 q-25 0 -25 -25 Z" /><glyph glyph-name="j" unicode="j" d="M130 252 l0 -147 l0 -8 l-2 -12 q-4 -17 -14 -29 q-18 -20 -60 -21 l-2 0 q-17 0 -17 -18 q0 -17 17 -17 l3 0 q57 2 85 33 q12 14 18 32 q5 14 6 28 l1 4 l0 155 q0 17 -17 17 q-18 0 -18 -17 ZM128 325 q0 -19 19 -19 q19 0 19 19 q0 20 -19 20 q-19 0 -19 -20 Z" /><glyph glyph-name="k" unicode="k" d="M137 114 l57 70 q13 16 -4 29 q-16 14 -29 -3 l-67 -82 q-6 -8 -4 -18 q1 -6 5 -12 l74 -87 q13 -16 30 -3 q16 14 3 30 l-65 76 ZM86 325 q-1 20 -21 20 q-21 0 -21 -21 l0 -303 q0 -21 21 -21 q20 0 21 20 l0 305 Z" /><glyph glyph-name="l" unicode="l" d="M85 323 q-1 22 -21 22 q-21 0 -21 -22 l0 -300 q0 -23 21 -23 q20 0 21 22 l0 301 Z" /><glyph glyph-name="m" unicode="m" d="M172 214 l-2 -1 l-9 -6 q-10 -6 -16 -14 q-13 24 -37 24 q-15 0 -26 -5 q-8 -4 -14 -10 q-5 16 -17 16 q-19 0 -19 -25 l0 -168 q0 -25 19 -25 q17 0 18 24 l0 133 q13 31 40 23 q19 -6 19 -69 l0 -88 q0 -21 15 -21 q15 0 15 20 l0 89 q2 21 -2 44 l1 1 l1 3 l5 8 q14 20 34 13 q19 -8 19 -69 l0 -88 q0 -21 15 -21 q14 0 15 20 l0 89 q10 101 -51 106 q-12 1 -23 -3 Z" /><glyph glyph-name="n" unicode="n" d="M29 25 q0 -25 25 -25 q23 0 24 24 l0 133 q18 33 53 23 q25 -8 25 -69 l0 -89 q0 -20 20 -20 q20 0 20 20 l1 89 q13 101 -68 106 q-18 1 -33 -4 q-11 -4 -20 -11 q-6 16 -22 16 q-25 0 -25 -25 l0 -168 Z" /><glyph glyph-name="o" unicode="o" d="M84 100 l2 23 l5 26 q11 29 43 34 l15 0 q14 -3 21 -16 l5 -11 l3 -13 l2 -26 l-2 -24 l-5 -25 q-11 -29 -43 -34 q-8 -1 -16 2 q-22 6 -28 37 l-2 27 ZM203 37 q26 31 29 79 l-1 25 q-4 36 -31 57 q-23 18 -53 18 l-5 1 l-8 -1 q-13 0 -22 -3 q-30 -9 -51 -34 q-26 -31 -29 -78 l1 -25 q3 -36 31 -57 q23 -18 53 -19 q16 -1 35 4 q30 7 51 33 Z" /><glyph glyph-name="p" unicode="p" d="M96 72 l-7 7 l-4 7 l0 77 q8 10 27 17 q19 7 33 3 q21 -6 25 -27 l1 -21 l-1 -21 q-2 -12 -5 -21 q-11 -25 -43 -27 q-17 -1 -26 6 ZM101 209 l-11 -6 l-5 -4 q-2 19 -23 19 q-24 0 -24 -20 l0 -274 q0 -20 24 -20 q23 0 23 20 l0 120 l13 -3 l15 -1 q19 -2 34 2 q27 7 45 28 q23 25 26 64 l-2 20 q-2 30 -26 47 q-21 14 -47 15 q-25 0 -42 -7 Z" /><glyph glyph-name="q" unicode="q" d="M64 153 q4 21 22 27 q12 4 29 -3 q16 -6 22 -17 l0 -76 l-3 -7 l-5 -7 q-9 -8 -23 -7 q-28 3 -37 27 q-4 9 -5 22 l-1 20 l1 21 ZM113 37 l14 2 l10 2 l0 -120 q1 -20 21 -20 q20 0 20 21 l0 273 q0 20 -20 20 q-19 0 -21 -19 l-4 5 l-9 5 q-15 7 -36 7 q-23 -1 -41 -15 q-21 -17 -23 -47 l-1 -20 q3 -39 22 -64 q16 -20 39 -27 q13 -4 29 -3 Z" /><glyph glyph-name="r" unicode="r" d="M122 170 q5 -5 12 -5 q19 0 19 20 q0 16 -14 20 q-13 5 -26 6 q-16 0 -29 -4 q-10 -3 -17 -8 q-5 16 -21 16 q-22 0 -22 -23 l0 -169 q0 -23 22 -23 q21 0 22 23 l0 136 q25 23 47 14 l7 -3 Z" /><glyph glyph-name="s" unicode="s" d="M122 221 l-6 0 l-15 -2 q-21 -5 -35 -19 q-18 -17 -20 -44 l1 -14 q1 -10 6 -18 l1 -2 l2 -2 l1 -1 q13 -15 53 -20 q12 -2 18 -9 l4 -6 l2 -7 l2 -15 l-2 -13 l-4 -15 q-10 -16 -37 -19 q-7 0 -14 1 q-18 3 -24 21 l-1 15 l0 7 l0 1 l0 5 l-1 6 q-4 9 -16 8 q-12 0 -16 -16 q-4 -14 0 -30 q4 -15 16 -24 l9 -6 l7 -3 q14 -4 29 -4 q13 0 30 2 q26 4 44 19 q22 18 25 44 l-1 14 q-2 14 -14 25 q-10 8 -28 13 l-13 4 l-11 1 q-6 0 -12 1 q-14 4 -19 21 l-1 16 l1 13 l4 14 q7 16 29 19 l11 0 q10 -1 15 -8 l3 -7 l2 -7 l1 -13 q3 -12 19 -11 q17 2 17 17 l-1 6 q-2 20 -21 32 q-16 10 -37 10 l-3 0 Z" /><glyph glyph-name="t" unicode="t" d="M122 31 l-5 -2 q-8 -2 -18 0 q-16 3 -16 38 l0 74 l44 0 q11 0 11 11 q0 10 -10 10 l-45 0 l0 37 q-1 17 -18 17 q-18 0 -18 -18 l0 -36 l-14 0 q-10 0 -10 -10 q0 -11 11 -11 l13 0 l0 -81 q-3 -61 64 -60 l4 0 q11 0 21 5 q12 3 12 15 q0 15 -16 15 q-6 0 -10 -4 Z" /><glyph glyph-name="u" unicode="u" d="M220 28 q-21 -9 -29 -2 l-4 8 l-1 7 q-1 22 0 57 l-1 0 l0 95 q0 23 -23 23 q-23 0 -24 -22 l0 -128 q-17 -32 -50 -22 q-24 7 -24 65 l-1 86 q0 19 -19 19 q-18 0 -19 -19 l0 -86 q-13 -96 65 -101 q17 -1 35 6 l13 6 l9 6 q1 -8 7 -16 q8 -9 25 -10 q20 -1 46 10 l1 0 q9 2 7 11 q-2 9 -11 7 l-2 0 Z" /><glyph glyph-name="v" unicode="v" d="M162 202 l-48 -109 l-40 107 q-8 23 -32 15 q-23 -8 -15 -31 l59 -158 l5 -8 q4 -7 11 -11 q22 -11 33 11 l71 162 q11 22 -11 33 q-22 11 -33 -11 Z" /><glyph glyph-name="w" unicode="w" d="M234 200 l-33 -104 l-27 83 q-7 22 -29 15 q-14 -5 -15 -20 l-24 -76 l-33 102 q-7 22 -29 15 q-21 -7 -14 -29 l53 -165 l4 -8 q4 -6 10 -10 q21 -10 31 11 l25 81 l23 -74 l5 -8 q3 -6 10 -10 q20 -10 31 11 l54 165 q10 21 -11 31 q-20 10 -31 -10 Z" /><glyph glyph-name="x" unicode="x" d="M147 108 l49 66 q18 17 0 34 q-17 18 -34 1 l-46 -62 l-47 57 q-18 17 -34 -2 q-17 -18 2 -34 l49 -61 l-47 -63 q-17 -17 0 -35 q17 -18 35 -1 l43 60 l49 -60 q18 -17 35 2 q16 18 -2 34 l-52 64 Z" /><glyph glyph-name="y" unicode="y" d="M151 216 l-3 1 q-18 0 -19 -19 l0 -104 q-14 -26 -41 -18 q-20 6 -20 54 l0 69 q0 16 -16 16 q-15 0 -16 -15 l0 -70 q-10 -79 53 -83 q14 -1 26 3 q9 3 15 9 l6 -8 l-1 -27 l-2 -13 q-4 -20 -16 -32 q-20 -23 -67 -25 l-2 1 q-19 0 -19 -20 q0 -19 19 -19 l4 0 q63 2 94 37 q14 15 21 36 q5 15 7 31 l0 4 l0 173 q0 20 -19 20 l-4 -1 Z" /><glyph glyph-name="z" unicode="z" d="M94 50 l63 124 l5 12 q2 12 -7 21 l-1 1 l-1 1 l-1 1 l-1 0 q-9 6 -19 4 l-86 1 q-24 4 -28 -21 q-5 -24 20 -28 l59 -1 l-64 -126 q-14 -20 6 -34 q9 -7 20 -4 l86 0 q24 -5 28 20 q5 24 -20 29 l-59 0 Z" /><glyph glyph-name="yen" unicode="¥" d="M301 325 q4 8 -4 34 q-2 8 4 10 q8 0 14 -8 q22 -28 18 -34 q-38 -94 -172 -188 q0 -4 -2 -12 l0 -12 q16 0 48 2 l34 0 q12 0 8 -12 q-2 -12 -14 -12 l-34 0 q-30 -2 -44 -2 q-2 -32 -8 -64 q-4 -24 -20 -26 q-6 0 -4 16 l0 2 q4 34 6 70 q-40 -4 -76 -4 q-14 8 8 24 q10 2 32 4 l36 0 q2 12 2 26 q118 86 168 186 ZM119 173 q-38 64 -72 122 q-6 12 -26 24 q-6 4 -2 8 q6 2 16 0 q34 -10 40 -22 q48 -94 62 -128 q2 -10 -6 -12 q-6 -2 -12 8 Z" /><glyph glyph-name="quoteleft" unicode="&#x2018;" d="M27 357 q9 11 22 15 q21 2 35 -12 q6 -10 8 -24 q-7 -24 -29 -36 q2 -25 15 -45 q0 -12 -7 -20 q-16 3 -26 15 q-14 23 -27 45 q-5 18 -3 38 q5 13 12 24 Z" /><glyph glyph-name="ellipsis" unicode="&#x2026;" d="M32 55 q8 16 28 13 q10 -2 18 -13 q8 -17 3 -37 q-7 -14 -21 -18 q-8 0 -15 1 q-12 8 -16 22 q-3 17 3 32 ZM206 56 q4 16 19 21 l16 0 q13 -7 18 -22 q1 -18 -5 -33 q-8 -11 -19 -15 q-11 0 -19 5 q-8 9 -11 19 q-2 13 1 25 ZM118 65 q9 15 28 12 q16 -6 21 -25 q1 -18 -5 -34 q-7 -6 -14 -10 q-18 -1 -28 9 q-12 24 -2 48 Z" /><glyph glyph-name="uni2103" unicode="&#x2103;" d="M158 304 q4 70 -72 76 q-64 -6 -74 -72 q-6 -74 70 -74 q66 6 76 70 ZM30 308 q14 52 58 54 q54 -6 48 -54 q-4 -50 -56 -56 q-52 2 -50 56 ZM464 288 q-2 -22 -18 -22 q-10 2 -10 26 q-8 90 -114 60 q-124 -50 -138 -212 q-8 -118 98 -114 q68 -2 124 82 q8 10 10 6 q4 -6 -2 -20 q-44 -92 -142 -94 q-120 2 -112 154 q24 206 208 224 q92 -2 96 -90 Z" /><glyph glyph-name="uni3001" unicode="&#x3001;" d="M26 56 q21 9 46 -1 q28 -11 50 -36 q12 -17 8 -43 q-6 -12 -17 -19 q-12 1 -21 6 q-27 35 -60 63 q-8 14 -6 30 Z" /><glyph glyph-name="uni3002" unicode="&#x3002;" d="M68 91 q11 9 24 12 q18 2 32 -7 q16 -12 25 -30 q6 -21 0 -43 q-12 -21 -33 -31 q-26 -5 -45 9 q-15 14 -22 31 q-4 18 1 34 q7 13 18 25 ZM107 67 q-8 4 -17 2 q-8 -7 -13 -17 q-2 -20 16 -29 q15 -1 24 9 q6 21 -10 35 Z" /><glyph glyph-name="uni4E00" unicode="&#x4e00;" d="M255 180 l210 0 l0 -9 l0 -9 l-210 1 l-211 0 l0 7 q-1 6 -0.5 8 q0.5 2 211.5 2 Z" /><glyph glyph-name="uni4E03" unicode="&#x4e03;" d="M231 387 l22 0 l0 -77 q1 -76 2 -76 q1 0 30 11 q51 19 66 24 q38 14 39.5 14 q1.5 0 1.5 -14 q0 -14 -2 -15 q-1 0 -53 -19 q-11 -4 -26.5 -10 q-15.5 -6 -25.5 -9.5 q-10 -3.5 -14 -5.5 q-16 -5 -17 -6 q-1 -1 -1 -99 l0 -98 l72 0 l73 0 l0 14 q0 15 2 20 q2 7 6.5 12 q4.5 5 9 7 q4.5 2 11.5 2 l6 0 l0 -43 l0 -44 l-17 0 l-18 0 l0 7 l0 6 l-76 0 l-76 0 l-4 -4 q-3 -5 -10.5 -8.5 q-7.5 -3.5 -14.5 -3.5 l-7 0 l0 108 q0 108 -0.5 108 q-0.5 0 -45.5 -17 q-11 -4 -24.5 -9 q-13.5 -5 -25.5 -9.5 q-12 -4.5 -15 -5.5 l-21 -7 l0 14 l0 14 l18 7 q4 1 14.5 5 q10.5 4 25.5 9.5 q15 5.5 25 9.5 l48 18 l1 85 l0 85 l21 0 Z" /><glyph glyph-name="uni4E07" unicode="&#x4e07;" d="M261 370 l207 0 l0 -10 l0 -9 l-101 0 l-100 0 l-1 -5 q0 -4 -1 -24 q0 -21 -2 -36 q-1 -4 -1.5 -8.5 q-0.5 -4.5 -0.5 -8 q0 -3.5 -1 -4.5 l0 -6 l46 0 l46 0 l0 6 l0 5 l28 0 l27 0 l0 -117 q-1 -118 -3 -124 q-2 -6 -5 -13 q-4 -7 -9 -11.5 q-5 -4.5 -12 -7.5 q-7 -3 -13 -4 q-6 -2 -9 -2 l-4 0 l0 125 l0 124 l-48 0 l-48 0 l-3 -13 q-2 -11 -8 -31 q-6 -19 -12 -34 q-6 -15 -14 -31 q-8 -16 -16 -28 q-9 -13 -16.5 -22.5 q-7.5 -9.5 -21.5 -23.5 q-14 -14 -25 -22 q-13 -10 -20 -14 q-8 -5 -20 -12 q-12 -6 -24 -11 q-11 -4 -20 -6 q-9 -3 -11 -3 q-3 0 -3 10 l1 11 l10 3 q10 4 18 8 q8 3 19 10 q11 8 21 18 q11 10 17 17 q6 8 14 19 q7 12 15 26 q8 16 13 31 q6 15 12 33 q5 17 9 36 q4 18 7 34 q3 17 5 38 q2 21 3 39 q2 21 2 24 l0 5 l-77 0 l-76 0 l0 10 l0 9 l206 0 Z" /><glyph glyph-name="uni4E09" unicode="&#x4e09;" d="M259 338 l179 0 l0 -9 l0 -9 l-179 0 l-178 0 l0 9 l0 9 l178 0 ZM259 194 l144 0 l0 -9 l0 -10 l-144 0 l-143 0 l0 10 l0 9 l143 0 ZM259 35 l206 -1 l0 -9 l0 -9 l-206 0 l-205 0 l0 9 l-1 10 l206 0 Z" /><glyph glyph-name="uni4E0A" unicode="&#x4e0a;" d="M259 400 l23 0 l0 -102 l0 -102 l93 0 l93 0 l0 -10 l0 -10 l-93 0 l-93 0 l0 -80 q0 -81 -1.5 -90 q-1.5 -9 -5.5 -16 q-4 -7 -5 -10 l-2 -2 l100 0 l100 0 l0 -10 l0 -10 l-213 0 l-213 0 l0 10 l1 9 l97 1 l97 0 l0 211 l0 211 l22 0 Z" /><glyph glyph-name="uni4E0B" unicode="&#x4e0b;" d="M255 370 l208 0 l1 -3 l0 -9 l0 -7 l-91 0 l-91 0 l-1 -158 l0 -157 l-3 -8 q-2 -9 -5 -15 q-4 -7 -8 -12.5 q-4 -5.5 -8.5 -8.5 q-4.5 -3 -11.5 -3 l-7 0 l-1 181 l0 181 l-94 0 l-95 0 l0 9 l0 10 l207 0 ZM295 243.5 q0 1.5 17 0.5 q17 -1 28 -3 q11 -2 19 -5 q9 -3 16 -7 q8 -4 15.5 -11 q7.5 -7 7.5 -8 q0 -1 -3 -5 q-5 -5 -16 -17 l-12 -13 l-4 7 q-3 6 -7 12 q-4 6 -13 15 q-9 9 -19 15 q-9 6 -18 11 q-9 4 -10 5.5 q-1 1.5 -1 3 Z" /><glyph glyph-name="uni4E0D" unicode="&#x4e0d;" d="M270 370 l207 0 l-1 -9 l0 -10 l-87 0 q-87 0 -88 -1 q-1 -1 -21.5 -32.5 q-20.5 -31.5 -20.5 -33.5 q0 -1 18 -1 l18 0 l0 -124 q0 -85 -0.5 -105.5 q-0.5 -20.5 -1.5 -25.5 q-2 -6 -6.5 -15.5 q-4.5 -9.5 -10 -15 q-5.5 -5.5 -10.5 -7.5 q-5 -2 -10 -2 l-5 1 l0 141 l-1 142 l-13 -20 q-12 -19 -19 -29 q-7 -9 -20 -22 q-13 -14 -24 -23 q-11 -9 -19 -15 q-7 -5 -20 -13 q-12 -7 -23 -12 q-11 -6 -24 -11 q-14 -6 -24 -8 q-9 -3 -16 -5 q-6 -1 -9.5 1.5 q-3.5 2.5 -3.5 3 q0 0.5 6 4.5 q7 4 31 21 q24 17 38 28 q13 11 25 21 q12 11 22 21 q8 9 24 32 q7 10 43 63 q27 40 26.5 41 q-0.5 1 -90.5 1 l-94 0 q-3 1 -3 9 q0 9 1 9 q0 1 206 1 ZM336 225 q19 -1 23 -2 q5 0 15 -2 q11 -2 24 -5 q13 -4 21 -7 q9 -4 17.5 -8 q8.5 -4 16.5 -11 q8 -7 12.5 -12 q4.5 -5 2.5 -8 l-3 -4 q-4 -4 -9.5 -10 q-5.5 -6 -10.5 -11 q-21 -23 -22 -23 q-1 0 -6 9 q-5 9 -8 14 q-3 5 -11 15 q-8 9 -18 18 q-11 9 -20 15 q-11 8 -27 16 q-12 7 -14 8.5 q-2 1.5 -2 4.5 l0 4 l19 -1 Z" /><glyph glyph-name="uni4E0E" unicode="&#x4e0e;" d="M167 388 l21 0 l0 -36 l0 -37 l131 0 l131 0 l0 -9 l0 -9 l-131 0 l-131 0 l0 -37 q0 -37 -1 -38 l16 -2 q14 -1 75 -1 l91 0 l0 3 l0 3 l21 0 l21 0 l0 -106 q0 -107 -3 -113 q-2 -7 -5.5 -11.5 q-3.5 -4.5 -7.5 -9.5 q-5 -3 -11 -7 q-6 -3 -10 -4 l-5 -2 l0 114 l0 114 l-96 0 l-98 0 l-5 -4 q-6 -5 -12 -8 q-7 -3 -9 -3 l-3 -1 l0 102 l0 102 l21 0 ZM200 119 l139 0 l0 -9 l0 -9 l-139 0 l-140 0 l0 9 l0 9 l140 0 Z" /><glyph glyph-name="uni4E13" unicode="&#x4e13;" d="M230 378 l3 0 q3 -1 8.5 -1.5 q5.5 -0.5 9.5 -0.5 q21 -2 21 -2.5 q0 -0.5 -6 -24.5 q-7 -23 -8 -27 l-1 -3 l67 0 l67 0 l0 -12 l0 -12 l-71 0 l-70 0 l-1 -6 q-3 -10 -9 -29 l-6 -25 q0 -2 102 -2 l101 0 l1 -11 l0 -12 l-106 0 l-105 0 l-1 -3 q-2 -3 -3 -12 q-2 -10 -4 -17 q-2 -7 -6 -14 q-4 -6 -4 -6.5 q0 -0.5 70 -0.5 l70 0 l4 4 l4 5 l17 0 q16 0 16 -1 q0 -1 -14 -19 q-3 -4 -20.5 -26.5 q-17.5 -22.5 -27.5 -36.5 q-33 -43 -35 -46 q-1 -1 8 -8 q9 -8 15 -16 l7 -8 l-12 -13 q-13 -12 -14 -12 q-1 0 -5 4 q-3 5 -12 13 q-8 9 -18 17 q-11 9 -19 15 q-12 8 -24 15 q-12 8 -29 17 q-16 8 -16 9 q0 1 5 7 q5 6 9 5 q6 -1 16 -4 q10 -2 20 -5 q9 -4 19 -8 q12 -5 18 -8 q8 -5 10 -2 q2 2 33 42 l30 40 l-80 0 l-81 0 l0 10 q0 10 2.5 10 q2.5 0 2.5 1 l6 24 q5 24 5 26 q0 2 -57 2 l-58 0 l0 12 l0 11 l61 0 l61 0 l2 12 q3 11 7 30 q1 4 2.5 9.5 q1.5 5.5 2.5 7.5 l0 2 q0 1 -51 1 l-52 0 l0 12 l0 12 l54 0 l54 0 l2 4 q0 2 5 24 q6 24 6 26 l2 5 Z" /><glyph glyph-name="uni4E16" unicode="&#x4e16;" d="M129 388 l21 0 l0 -56 l1 -56 l32 1 l33 0 l1 55 l0 56 l21 0 l20 0 l1 -56 l0 -56 l46 0 l46 0 l0 56 l1 56 l20 0 l21 0 l0 -56 l1 -55 l35 0 l34 -1 l0 -9 l0 -10 l-35 0 l-34 0 l-1 -69 q0 -70 -3 -76 q-2 -6 -6 -11 q-3 -6 -9 -9.5 q-6 -3.5 -15 -4.5 l-9 0 l0 13 l0 12 l-46 0 l-46 0 l0 -12 l0 -13 l-8 0 q-8 0 -14 3 q-6 3 -9 7 q-4 4 -6 9 q-2 5 -3.5 10.5 q-1.5 5.5 -1.5 73.5 l0 67 l-33 0 l-33 0 l0 -111 l0 -111 l152 0 l152 0 l0 -11 l0 -11 l-152 0 l-152 0 l0 -20 q0 -21 -2 -21 q-2 0 -11.5 4.5 q-9.5 4.5 -14.5 9.5 q-4 4 -8 10 q-3 5 -6 12 q-2 8 -2 128 l0 121 l-29 0 l-30 0 l0 10 l0 9 l29 1 l30 0 l0 56 l0 55 l22 0 ZM305 257 l-46 0 l0 -63 l0 -62 l46 0 l46 0 l0 62 l0 63 l-46 0 Z" /><glyph glyph-name="uni4E1C" unicode="&#x4e1c;" d="M229 379 q24 0 24 -1 q1 -1 -3 -23 q-5 -24 -7 -28 q-1 -7 -2 -9 l20 -1 q15 -1 74 -1 l95 0 l0 -9 l0 -9 l-98 0 l-98 0 l-5 -12 q-6 -13 -15 -28 q-8 -14 -16 -25 q-8 -11 -18.5 -22 q-10.5 -11 -20.5 -18 q-10 -8 -10 -9 q0 -1 52 -1 l52 1 l0 48 l0 48 l22 0 l21 0 l0 -49 l0 -48 l59 0 l59 0 l0 -9 l0 -9 l-59 0 l-59 0 l0 -71 q0 -71 -1 -79 q-1 -7 -4 -14 q-4 -8 -8 -12 q-4 -4 -9.5 -6.5 q-5.5 -2.5 -12.5 -2.5 l-8 0 l0 92 l0 93 l-68 0 l-69 0 l0 4 l-1 3 q-1 4 -1 6 l-1 6 l11 10 q10 11 17 20 q7 10 15 22 q7 11 13 24 q7 12 12 25 q5 12 5 12.5 q0 0.5 -59 0.5 l-60 0 l0 9 l0 9 l63 1 l62 0 l2 8 q2 7 6 30 q3 22 4.5 23 q1.5 1 24.5 1 ZM202 148 q1 0 16.5 -11.5 q15.5 -11.5 15.5 -12.5 q0 -1 -18 -20 q-18 -18 -33 -31 q-17 -15 -32 -27 q-17 -12 -38 -27 q-23 -14 -31 -19 l-16 -9 l-6 -4 l-2 5 q-1 3 -0.5 4 q0.5 1 1.5 2 q2 1 19 14 q15 12 31 26 q17 16 31 30 q16 17 24 27 q11 12 18 23 q8 11 13.5 20 q5.5 9 6.5 10 ZM328 126 q1 2 5 1.5 q4 -0.5 14 -3.5 q12 -3 22 -8 q12 -6 19 -12 q9 -5 16 -12 q8 -8 14 -16 q7 -8 13 -17 q7 -10 11 -19 q4 -9 9 -20 q4 -11 4 -12 q0 -1 -3 -1 l-19 0 l-17 0 l-3 12 q-4 11 -11 26 q-8 16 -15 26 q-7 12 -17 21 q-9 11 -18 17 q-9 7 -17 11 q-6 3 -7 4 q-1 1 0 2 Z" /><glyph glyph-name="uni4E24" unicode="&#x4e24;" d="M255 370 l208 0 l0 -9 l0 -9 l-55 0 l-55 -1 l0 -33 l-1 -34 l28 0 q28 0 28.5 2.5 q0.5 2.5 22.5 2.5 l22 0 l0 -129 q0 -129 -2 -138 q-3 -9 -5 -13 q-3 -5 -8 -10 q-5 -5 -11.5 -7.5 q-6.5 -2.5 -11.5 -2.5 l-6 1 l-1 137 l0 138 l-28 0 l-28 0 l0 -14 q0 -13 -2 -29 q-2 -16 -4 -25 l-3 -10 l10 -9 q10 -9 16.5 -19 q6.5 -10 10.5 -20 q4 -11 5 -18 q2 -10 2 -13 q1 -6 0 -6 q-1 0 -17 4 q-15 4 -20 5 l-4 1 l0 13 q1 13 0 21 q-1 9 -4 17 q-2 7 -3 7 q-1 0 -4 -9 q-4 -10 -9.5 -21 q-5.5 -11 -14.5 -25 q-8 -12 -22.5 -26.5 q-14.5 -14.5 -24.5 -21.5 q-9 -6 -18 -11 q-7 -4 -8.5 -4 q-1.5 0 -1.5 4.5 q0 4.5 3 6.5 q3 3 11 14 q8 9 17 22 q8 13 9 15 q2 4 1 5 q-1 0 -20 3 l-18 3 q-1 1 -2 14 q-1 13 -3 23 q-2 9 -4 13 l-3 4 q-1 -1 -4 -10 q-3 -8 -8 -17 q-5 -10 -12 -21 q-7 -11 -21 -25 q-14 -14 -25 -21 q-9 -6 -19 -12 l-9 -4 l0 10 l0 10 l5 3 q5 3 15 13 q9 9 15 19 q7 9 10 16 q3 7 6 13 q3 7 5.5 19.5 q2.5 12.5 3.5 52.5 l1 40 l-35 0 l-34 0 l0 -119 q0 -119 -1.5 -125.5 q-1.5 -6.5 -4.5 -10.5 q-2 -5 -6 -10 q-4 -4 -12 -8 q-6 -3 -13 -3 l-6 0 l0 150 l0 150 l21 0 q22 0 22 -2.5 q0 -2.5 34 -2.5 l34 0 l0 34 l0 33 l-71 1 l-70 0 l0 9 l0 9 l207 0 ZM271 352 l-34 0 l0 -34 l0 -34 l34 0 l35 0 l-1 34 l0 33 l-34 1 ZM272 265 l-35 0 l0 -11 l0 -22 q-1 -10 -3 -23 l-2 -12 l2 -1 q2 -2 9 -8 q7 -6 13.5 -14 q6.5 -8 12.5 -19 q5 -10 8 -23 l3 -12 l6 13 q7 15 10 24 q4 11 6 22 q3 11 3 49 l1 37 l-34 0 Z" /><glyph glyph-name="uni4E25" unicode="&#x4e25;" d="M261 375 l195 0 l0 -10 l0 -9 l-58 0 l-58 0 l0 -41 q0 -41 -2 -50 q-2 -9 -5 -16 q-3 -7 -3 -7.5 q0 -0.5 69 -0.5 l69 0 l0 -9 l0 -9 l-163 0 q-162 0 -162.5 -1.5 q-0.5 -1.5 -0.5 -55.5 q-1 -53 -2.5 -63.5 q-1.5 -10.5 -5.5 -21.5 q-4 -11 -9 -23 q-6 -12 -12 -20 q-6 -8 -17 -19 q-5 -5 -11 -10 q-6 -5 -10 -8 q-10 -6 -20 -11 q-10 -5 -11 -5 q-1 0 -1 8 l0 8 l7 4 q6 4 15 13 q9 9 14 17 q5 6 9 15 q3 7 6 17 q3 11 4 18 q1 8 1 9 l0 75 l0 72 l53 0 l53 0 l0 58 l0 57 l-70 1 l-69 0 l-1 9 l0 9 l196 0 ZM273 356 l-23 0 l-1 -42 q0 -42 -2 -51 q-2 -7 -5 -15 l-4 -7 l30 0 l28 0 l0 58 l0 57 l-23 0 ZM127 336 q6 -3 12 -8 q6 -4 13 -11 q7 -8 11 -15 q5 -7 9 -15 q4 -8 6 -14 q3 -7 2.5 -7.5 q-0.5 -0.5 -19.5 0.5 l-18 2 l-2 8 q-1 6 -3 17 q-2 10 -5 17 q-3 8 -7 13 q-3 6 -6 8 l-4 3 l3 2 l2 3 l6 -3 ZM413 327 l3 0 l-7 -21 q-7 -21 -12.5 -26.5 q-5.5 -5.5 -11.5 -10.5 q-6 -5 -16 -10 q-9 -4 -15 -5 l-7 -1 l2 2 q1 3 5 7 q6 9 10 14 q2 5 10 26 l7 21 l14 2 q15 1 18 2 Z" /><glyph glyph-name="uni4E2A" unicode="&#x4e2a;" d="M270 400 l18 0 q6 0 10 -0.5 q4 -0.5 5 -0.5 q1 0 1 -1 q0 -1 -6 -9 q-6 -8 -6.5 -9.5 q-0.5 -1.5 17.5 -23.5 q17 -20 40 -49 q21 -27 30 -34 q9 -9 21 -17 q14 -10 30 -20 q18 -11 36 -20 q18 -9 18.5 -10 q0.5 -1 -2 -5.5 q-2.5 -4.5 -4.5 -4.5 q-1 0 -19 4 q-18 5 -28 8 l-20 8 q-8 4 -21 11 q-11 6 -23 13 q-10 7 -20 15 q-9 8 -19 18 q-11 12 -34 37 q-23 25 -26 28 l-3 4 l-27 -39 q-27 -39 -35.5 -46 q-8.5 -7 -20.5 -15 q-14 -9 -27 -17 q-16 -9 -38 -20 q-27 -13 -48 -22 q-25 -10 -27 -10 q-2 0 -8 2 q-6 3 -7 3 q-1 1 12 8 q12 6 25 14 q11 6 26 17 q13 9 23 18 q9 7 22 20 q11 12 19 21.5 q8 9.5 15 20.5 q8 12 35 55 q28 43 30 46 q1 2 36 2 ZM260 257 l22 0 l-1 -126 l0 -126 l-4 -11 q-4 -11 -7 -17 q-4 -6 -8 -11 q-3 -3 -7 -6 q-4 -2 -10 -2 l-7 0 l0 150 l0 149 l22 0 Z" /><glyph glyph-name="uni4E2D" unicode="&#x4e2d;" d="M257 378 l21 0 l0 -43 l1 -43 l55 0 l56 -1 l0 7 l0 7 l22 0 l22 -1 l0 -66 q0 -68 -1 -75 q-1 -7 -3 -14 q-3 -6 -9 -13 q-6 -6 -12 -8 q-6 -2 -12 -2 l-7 0 l0 11 l0 11 l-56 0 l-56 0 l0 -66 l0 -53 q0 -14 -1 -19 q-2 -6 -4 -11 l-6 -8 q-4 -4 -11 -8 q-7 -3 -14 -3 l-7 0 l0 84 l0 84 l-59 0 l-59 0 l-3 -5 q-2 -4 -6 -8 q-4 -3 -9 -5.5 q-5 -2.5 -13 -3.5 l-8 0 l0 89 l0 90 l21 0 l22 0 l0 -7 l0 -7 l57 1 l56 0 l1 43 l0 43 l22 0 ZM178 273 l-57 0 l0 -53 l0 -53 l57 0 l56 1 l0 52 l0 53 l-56 0 ZM334 273 l-56 0 l0 -53 l0 -53 l56 0 l56 0 l0 53 l0 53 l-56 0 Z" /><glyph glyph-name="uni4E3A" unicode="&#x4e3a;" d="M295 391 l24 0 l-1 -15 q0 -19 -1 -32 q-1 -15 -3 -34 q-2 -15 -5 -33 q-3 -18 -3 -19 l12 -2 l38 0 l51 1 l0 8 l0 9 l22 0 l21 0 l0 -130 q0 -130 -1.5 -138.5 q-1.5 -8.5 -4.5 -14.5 q-4 -8 -9 -12 q-5 -5 -11.5 -8 q-6.5 -3 -11.5 -4 l-4 0 l-1 135 l0 135 l-53 0 l-53 0 l-2 -10 q-2 -9 -10 -31 q-6 -21 -12 -35 q-6 -13 -15 -30 q-8 -17 -19 -33 q-10 -15 -19 -26 q-9 -12 -23 -26 q-14 -14 -27 -24 q-11 -9 -23 -17 q-12 -7 -26 -15 q-12 -6 -24 -11 q-11 -4 -21 -7 q-7 -2 -15 -4 l-5 -1 l1 6 l0 7 l12 4 q13 5 21 9 q9 4 20 12 q10 7 22 17 q11 9 17 17 q8 8 15 17 q8 11 15.5 23 q7.5 12 19.5 34 q10 21 17 37 q5 14 10 29 q5 14 11 35 l6 22 l-86 0 l-86 1 l0 9 l0 10 l89 0 l88 0 l1 7 q3 14 5 24 q3 18 5 35 q3 17 4 30 q2 12 3 27 l1 13 l24 -1 ZM180 366 l21 0 l0 -27 q0 -27 -2 -34 q-2 -8 -5 -13 q-3 -6 -8.5 -11 q-5.5 -5 -10 -7.5 q-4.5 -2.5 -10.5 -3.5 q-6 -1 -7 -1 q-1 1 -1 48.5 q0 47.5 1 48.5 q1 1 22 0 ZM346 175 l22 -1 l0 -30 q0 -31 -1.5 -37 q-1.5 -6 -5 -13.5 q-3.5 -7.5 -8.5 -11.5 q-5 -5 -11 -8 q-6 -3 -12 -3 l-6 -1 l0 52 l0 53 l22 0 Z" /><glyph glyph-name="uni4E45" unicode="&#x4e45;" d="M184 390 q0 2 22.5 2 q22.5 0 22.5 -1 q0 -1 -6 -16 q-7 -16 -16 -35 q-9 -19 -14 -28 l-5 -8 l66 0 l65 0 l2 4 l1 5 l37 0 q36 0 36 -1 q0 -1 -11 -20 q-8 -16 -20 -37 q-9 -16 -19 -31 q-9 -14 -19 -28 l-9 -14 l2 -10 q3 -11 7 -21 q4 -10 10 -20 q5 -10 14 -21 q8 -11 20 -24 q13 -13 22 -21 q10 -8 21 -16 q10 -8 22 -16 q12 -7 28 -16 l17 -10 l0 -13 q0 -14 -0.5 -14 q-0.5 0 -13.5 5 q-12 5 -25 10 q-13 6 -24 12 q-11 5 -25 13 q-13 7 -23 14 q-11 7 -20 15 q-11 8 -23 21 q-13 12 -21 22 q-7 10 -12.5 19.5 q-5.5 9.5 -8.5 17 q-3 7.5 -3.5 7.5 q-0.5 0 -8.5 -9 q-8 -9 -20 -21 q-13 -13 -27 -26 q-15 -13 -24 -21 l-20 -15 q-13 -10 -25 -18 q-13 -8 -29 -18 q-17 -9 -29 -15 q-12 -6 -25 -11 q-12 -5 -26.5 -10 q-14.5 -5 -15.5 -5 q-1 0 -1 3.5 q0 3.5 0.5 5 q0.5 1.5 19.5 10.5 q20 10 34 19 q16 10 32 22 q17 13 29 24 q14 12 28.5 26.5 q14.5 14.5 26.5 27.5 q10 11 20 24 q8 10 17 23 q7 10 18 27 q10 15 19 31 q10 17 17 32 q9 18 14 29 l6 13 l-67 0 l-67 0 l-9 -13 q-10 -15 -16 -23 q-7 -9 -16 -20 q-7 -8 -17 -20 l-24 -24 q-15 -13 -27 -23 q-12 -9 -13 -8 q-2 2 -2 5 q-1 2 13 16 q12 13 24 28 q11 14 22 31 q11 17 20 32 q7 13 16 31 q9 19 15 33.5 q6 14.5 13.5 36.5 q7.5 22 7.5 24 Z" /><glyph glyph-name="uni4E48" unicode="&#x4e48;" d="M230 348 q2 9 2.5 9 q0.5 0 21 -16.5 q20.5 -16.5 21 -18 q0.5 -1.5 -7.5 -16.5 q-7 -13 -15 -26.5 q-8 -13.5 -14 -22.5 q-11 -17 -16 -23 q-10 -14 -21 -27 q-12 -13 -28 -29 q-16 -16 -30 -26 q-12 -10 -23 -16 q-10 -7 -21 -12 q-11 -6 -26 -10 q-11 -4 -17 -6 q-3 0 -6 3 l-2 3 l12 9 l22 16 q11 9 24 21 q13 11 27.5 26 q14.5 15 21.5 23 q6 7 15 19 q8 10 17 23 q7 12 13 23 q6 11 12 23 q6 13 11 27.5 q5 14.5 7 23.5 ZM310 254 q5 0 31 -1 q27 -1 29.5 -1.5 q2.5 -0.5 -7.5 -16.5 l-20 -30 q-9 -12 -21 -27 q-12 -15 -23 -28 q-11 -14 -37 -39 q-25 -25 -37 -36 q-13 -10 -35 -28 q-21 -17 -21 -18 l7 0 q8 0 19 1 q21 0 114 3 q87 2 87.5 2.5 q0.5 0.5 -4.5 10.5 q-5 9 -13 21 q-5 8 -12 17 q-4 6 -4 9.5 q0 3.5 1 3.5 q1 0 10 -2 q8 -2 16 -6 q9 -4 19 -10 q9 -6 17 -13 q8 -8 13 -15 q6 -8 12 -20 q6 -12 9 -20.5 q3 -8.5 2 -8.5 q0 -1 -24 -1 q-23 1 -26 1 q-2 1 -4 8 q-2 7 -3 7.5 q-1 0.5 -31 -0.5 q-8 -1 -27 -1.5 q-19 -0.5 -26 -0.5 q-21 -1 -113 -4 q-90 -3 -90 -2 l-1 10 l0 9 l12 10 q12 11 36 35 q25 25 36.5 37.5 q11.5 12.5 26.5 31.5 q14 16 25 31 q9 12 24 33 q12 18 19.5 32.5 q7.5 14.5 7.5 15.5 q1 1 6 0 Z" /><glyph glyph-name="uni4E50" unicode="&#x4e50;" d="M368 385 q10 7 11.5 7 q1.5 0 5.5 -3 q4 -3 4 -3.5 q0 -0.5 -12 -9.5 q-13 -9 -24 -16.5 q-11 -7.5 -22 -13 q-11 -5.5 -22 -11.5 q-12 -5 -27 -10 q-16 -5 -23 -7 q-9 -2 -67 -2 l-59 -1 l0 -48 q0 -48 -1 -56 q-1 -5 -1 -9 q0 -2 7 -2 l48 0 l55 0 l1 44 l0 44 l21 0 l21 0 l0 -44 l1 -44 l65 -1 l66 0 l0 -9 l0 -9 l-66 0 l-66 0 l0 -84 q-1 -83 -3 -91 q-2 -7 -6 -15 q-3 -8 -8 -14 q-5 -6 -10 -8.5 q-5 -2.5 -10 -1.5 l-5 0 l0 107 l-1 106 l-59 0 l-60 1 l-4 -6 q-5 -6 -9 -9 q-4 -4 -12 -4 l-7 0 l0 96 l0 96 l22 0 l21 0 l0 -4 l0 -4 l65 1 q63 0 75 1 q10 0 21.5 3 q11.5 3 22.5 8 q10 4 26 12 q15 7 25 14 ZM162 132 q1 0 16.5 -7.5 q15.5 -7.5 16.5 -8.5 q1 -1 0 -7 q-1 -5 -4.5 -12.5 q-3.5 -7.5 -8.5 -14.5 q-5 -7 -14.5 -16 q-9.5 -9 -23.5 -18 q-12 -8 -26 -16 l-13 -7 l-1 3 q-1 3 10 14 q12 12 16 18 q4 5 10 13 q3 6 8 15 q4 9 7 17 q4 9 5 15 q0 2 0.5 5 q0.5 3 0.5 4 l1 3 ZM330 122.5 q0 2.5 1.5 2.5 q1.5 0 16.5 -5 q16 -6 23 -9 q9 -4 19 -11 q10 -6 17 -13 q7 -7 10 -14 q4 -7 4 -10 q0 -2 -12.5 -10.5 q-12.5 -8.5 -13.5 -8.5 q-1 0 -4 7 q-2 7 -7 15 q-4 8 -12 18 q-7 9 -16.5 17 q-9.5 8 -17.5 13 q-8 6 -8 8.5 Z" /><glyph glyph-name="uni4E5D" unicode="&#x4e5d;" d="M229 392 q31 0 31 -2 l-3 -39 q-4 -41 -6 -57 q-2 -19 -2 -21 q0 -2 30 -2 q30 0 30 2 q0 2 23 2 l23 0 l0 -136 l0 -136 l34 -1 q34 0 36 -0.5 q2 -0.5 2.5 0.5 q0.5 1 1.5 4 q2 6 4 10 q2 5 7 8 q4 4 8 6 q3 1 9 1 l6 0 l0 -28 l0 -29 l-54 0 q-54 0 -55 -1 q-1 -1 -23 -1 l-21 1 l-1 140 l0 140 l-32 -1 l-31 0 l-2 -11 q-1 -8 -4 -26 q-2 -18 -5 -33 q-3 -15 -8 -37 q-4 -21 -9 -38 l-9 -30 q-3 -11 -7 -20 q-4 -9 -11 -20 q-7 -10 -16 -19 q-9 -9 -18 -15 q-8 -6 -17 -11 q-11 -6 -20 -9 q-10 -4 -20 -7 q-11 -3 -23 -5 q-10 -2 -21 -3 l-8 -1 l0 5 l0 4 l9 3 q10 3 19 8 q10 5 17 9 q8 6 16.5 13.5 q8.5 7.5 16.5 15.5 q7 9 14 19 q7 11 13.5 24.5 q6.5 13.5 12.5 29.5 q5 17 7 25 q2 9 5 26 q4 19 5 34 q2 14 5 43 q2 24 2 26 q-1 1 -65 1 l-63 0 l0 9 l0 9 l65 0 l65 0 l0 2 q1 3 2 32 q2 27 3 58 l2 29 l30 0 Z" /><glyph glyph-name="uni4E5F" unicode="&#x4e5f;" d="M256 379 l21 0 l0 -54 q0 -53 1 -53 q1 0 35 12 q37 13 45 17 q13 4 14 4 q2 0 3 -3.5 q1 -3.5 8 -3.5 l7 0 l0 -58 q1 -65 1 -72 q-1 -13 -3.5 -21.5 q-2.5 -8.5 -6.5 -16.5 q-4 -8 -9 -16 q-5 -6 -14 -14 q-7 -7 -15 -12 q-6 -5 -17 -11 q-10 -6 -10.5 -6 q-0.5 0 -0.5 8 l0 8 l5 4 q5 3 10 9 q5 6 10 15 q4 9 7 20 q3 11 4 21 q1 11 1 63 l0 53 l-32 -11 q-32 -12 -37 -14 l-5 -2 l-1 -86 l0 -86 l-4 -7 q-3 -6 -7 -11 q-3 -3 -9 -8 q-5 -3 -12 -6 q-7 -3 -8 -3 q-1 0 -1 96 q0 96 -0.5 96 q-0.5 0 -30.5 -11 q-30 -10 -32 -12 l-4 -1 l0 -96 l0 -96 l131 0 l131 0 l0 3 q0 3 2 8 q2 5 7 9 q5 4 11 6 q5 2 9 3 l3 1 l0 -32 l0 -32 l-159 0 l-159 1 l-5 2 q-4 2 -10 8 q-5 4 -7 10.5 q-2 6.5 -2 96.5 l0 45 q0 17 -0.5 27.5 q-0.5 10.5 -0.5 14.5 q0 4 0 3 q-2 0 -33 -11 q-30 -11 -31 -10 q-1 1 -5 11 l-3 10 q2 1 37 14 l35 13 l1 49 l0 50 l24 0 l23 0 l1 -41 l0 -41 l9 4 q1 0 13 4 q12 4 19 7 q23 8 25 9 q1 1 1 62 l0 61 l20 0 Z" /><glyph glyph-name="uni4E60" unicode="&#x4e60;" d="M400 392 l21 0 l0 -194 q0 -194 -2 -200 q-2 -6 -4 -11 q-2 -5 -6 -9.5 q-4 -4.5 -10 -7.5 q-6 -3 -13 -3 l-7 0 l0 187 l0 186 l-144 0 l-144 0 l0 13 l0 14 l144 0 l144 0 l0 12 l0 13 l21 0 ZM166 310 q0 2 8 0 q8 -2 17 -5 q11 -4 19 -8 q10 -5 18 -11 q8 -6 17 -16 q8 -9 13 -16 q6 -9 10 -18 q4 -8 8 -19 q3 -9 2 -10 q-1 -1 -21 -3 q-19 -2 -24 -2 l-5 -1 l-2 8 q-1 7 -5 17 q-4 9 -11 23 q-6 14 -12 22 q-7 10 -10 14 q-4 5 -13 14 q-9 9 -9 11 ZM353 221 q2 0 5 -1 q2 -1 2 -2 q0 -2 -7 -16 q-7 -14 -15 -25 q-6 -10 -15 -21 q-7 -9 -19 -21 q-12 -12 -24 -22 q-14 -11 -25 -18 q-13 -9 -28 -17 q-15 -8 -31 -15 q-17 -7 -29 -11 q-12 -5 -25 -8.5 q-13 -3.5 -21 -5.5 q-7 -1 -7.5 -0.5 q-0.5 0.5 0.5 23.5 l1 22 l14 4 q14 3 33 10 q19 6 33.5 12.5 q14.5 6.5 27.5 12.5 q14 7 22 12 q8 5 27 17 q18 12 29 20 q11 9 23 21 q13 12 20 20 q8 9 9 9 Z" /><glyph glyph-name="uni4E70" unicode="&#x4e70;" d="M258 370 l181 0 l0 -36 q-1 -35 -3.5 -42.5 q-2.5 -7.5 -6 -13 q-3.5 -5.5 -8.5 -9.5 q-5 -4 -10 -5 q-5 -1 -10 -1 l-6 0 l0 44 l0 44 l-159 0 l-159 0 l0 10 l-1 9 l182 0 ZM290 338 l26 0 l0 -4 q0 -3 -2 -23 q-3 -25 -6 -43 q-2 -17 -7 -50 q-3 -25 -6 -38 q-2 -11 -5 -21 l-4 -9 l87 0 l86 -1 l0 -9 l0 -9 l-88 0 l-89 -1 l8 -7 q8 -7 18 -15 q9 -8 21 -15.5 q12 -7.5 22 -13.5 q11 -5 24 -11 q14 -6 26.5 -10.5 q12.5 -4.5 26.5 -8.5 q15 -4 25 -6 q6 -1 8 -2 q2 -1 1 -1 q0 -2 -6 -26 q-6 -23 -7 -24 q-1 -1 -9 1 q-7 3 -19 7 q-10 4 -26 12 q-14 7 -37 20 q-21 13 -31 20 q-10 8 -17 14 q-7 6 -16 18 q-9 11 -17 23 q-8 12 -9 12 q-1 0 -7 -8 q-6 -8 -18 -21 q-12 -11 -22 -19 q-8 -7 -23 -17 q-14 -9 -28 -16 q-15 -8 -25 -12 q-9 -4 -20 -8 q-10 -3 -19 -6 q-11 -3 -24 -5 q-15 -3 -16.5 -1 q-1.5 2 -0.5 2.5 q1 0.5 8 3.5 q6 2 19 7 q11 5 27 13 q15 8 25 15 q10 7 21 15 q8 7 19 17 q8 8 19 21 q11 12 17 20 q6 9 6 11 q1 0 -1 0.5 q-2 0.5 -12.5 0.5 q-10.5 0 -26.5 0.5 q-16 0.5 -49 0.5 l-90 0 l0 7 l0 9 l1 3 l95 0 l95 0 l3 11 q4 11 6 23 q3 15 6 35 q4 27 6 52 q3 30 5 47 l1 20 l25 0 ZM153 304 q18 0 27 -2 q9 -2 17 -5 q8 -3 16 -8 q8 -4 15 -11.5 q7 -7.5 10 -11.5 l2 -3 l-18 -9 l-17 -8 l-5 6 q-4 6 -12 13 q-8 8 -16 13 q-8 6 -16 9 q-8 3 -17 5 q-10 3 -16 3 q-7 1 -7 3 l0 3 q0 1 3 1.5 q3 0.5 7 1.5 q9 1 27 0 ZM121 238 q12 0 20 -2 q8 0 16 -2 q6 -2 14 -5 q8 -3 16 -8 q9 -6 15 -12.5 q6 -6.5 8 -9.5 q1 -3 0 -3 q-1 -1 -17 -10 q-8 -4 -13 -5 l-4 -2 q-1 2 -6 9 q-5 7 -10.5 11.5 q-5.5 4.5 -12.5 9.5 q-7 5 -13 8 q-7 3 -16.5 6 q-9.5 3 -18.5 4.5 q-9 1.5 -10 1.5 q-1 1 -1 3 q0 2 1 3 q1 0 11 1 q10 1 21 2 Z" /><glyph glyph-name="uni4E86" unicode="&#x4e86;" d="M256 375 l177 0 l0 -10 l0 -10 l-5 0 q-6 0 -19 -9 q-17 -12 -30 -20 q-16 -11 -37 -23 q-20 -12 -37 -21 l-17 -9 l0 -124 q0 -124 -2 -133 q-1 -4 -2.5 -8 q-1.5 -4 -2.5 -6 q-3 -5 -7.5 -9 q-4.5 -4 -9.5 -6 q-5 -2 -12 -2 l-7 0 l0 154 l0 155 l22 0 q21 0 21 -2 q0 -2 12 6 q13 9 26 19 q18 13 31 24 q16 12 16 13 q0 1 -148 1 l-147 0 l0 9 l0 10 q1 1 178 1 Z" /><glyph glyph-name="uni4E8C" unicode="&#x4e8c;" d="M255 313 l173 0 l0 -9 l0 -9 l-173 0 l-172 0 l0 9 l0 9 l172 0 ZM262 55 l218 0 l0 -9 l0 -9 l-218 0 l-219 0 l0 9 l0 9 l219 0 Z" /><glyph glyph-name="uni4E8E" unicode="&#x4e8e;" d="M255 361 l137 0 l0 -9 l0 -9 l-57 0 l-58 0 l0 -51 l0 -50 l96 0 l95 0 l0 -9 l0 -10 l-95 0 l-96 0 l0 -88 q0 -88 -2 -97 q-2 -9 -6 -18 q-4 -7 -10 -13 q-2 -3 -4.5 -5 q-2.5 -2 -4.5 -3 q-3 -2 -10 -2 l-6 0 l0 113 l0 113 l-95 0 l-96 0 l0 10 l0 9 l96 0 l95 0 l0 50 l0 51 l-58 0 l-57 0 l0 9 l0 9 l136 0 Z" /><glyph glyph-name="uni4E94" unicode="&#x4e94;" d="M229 357 l179 0 l0 -9 l0 -9 l-95 0 l-96 0 l0 -56 l0 -56 l49 0 l50 0 l0 5 l0 5 l21 -1 l22 0 l0 -86 q0 -86 -1 -94 q-1 -8 -4 -15 q-4 -7 -8 -11 q-4 -4 -9 -7 l-5 -3 l68 0 l68 0 l0 -9 l0 -9 l-213 0 l-212 0 l0 9 l0 9 l65 0 l65 0 l0 94 l0 94 l-42 0 l-41 1 l0 9 l0 9 l41 0 l42 0 l0 56 l0 56 l-62 0 l-62 0 l0 9 l0 9 l180 0 ZM267 208 q-49 0 -49.5 -1.5 q-0.5 -1.5 -1.5 -79.5 l0 -79 l-3 -7 q-2 -7 -10 -14 l-7 -7 l60 0 l59 0 l1 94 l0 94 l-49 0 Z" /><glyph glyph-name="uni4E9B" unicode="&#x4e9b;" d="M196 346 l23 0 l0 -47 l0 -46 l25 0 l24 0 l0 -9 l0 -9 l-24 0 l-25 0 l0 -34 q0 -35 -2 -42 q-1 -8 -4 -13 q-2 -4 -5 -8 l-3 -3 l32 0 l31 0 l0 -9 l0 -10 l-106 0 l-106 0 l0 9 l1 9 l23 0 l23 1 l0 78 l0 77 l18 1 l18 0 l0 -64 q0 -64 -1 -72 q-2 -8 -5 -14 l-4 -6 l22 0 l22 0 l0 105 l0 106 l23 0 ZM315 343 l23 0 l0 -49 q0 -48 1 -48 q2 0 41 23 q9 6 19 12 l15 9 l5 3 q1 0 5 -7 l5 -8 l-2 -2 q-1 -1 -46 -27 l-43 -26 l0 -35 q-1 -34 -3.5 -40.5 q-2.5 -6.5 -2.5 -7 q0 -0.5 43 0.5 l42 0 l1 11 q0 12 2 19 q2 6 4 10 q2 3 5 7 q4 4 8 6 q4 2 11 2 l6 0 l0 -37 l0 -37 l-77 0 q-78 0 -81 1 l-3 1 l0 110 l0 109 l22 0 ZM258 69 l141 0 l0 -10 l0 -9 l-141 0 l-140 0 l0 9 l0 10 l140 0 ZM250 15 l196 0 l0 -9 l0 -9 l-196 0 l-198 0 l0 9 l0 9 l198 0 Z" /><glyph glyph-name="uni4EA4" unicode="&#x4ea4;" d="M260 375 l22 0 l-1 -12 q0 -12 -3 -19 q-2 -6 -5 -11 l-3 -4 l80 0 l80 -1 l1 -8 l0 -9 l-168 0 l-168 0 l0 9 l0 9 l71 0 l72 0 l0 23 l0 23 l22 0 ZM178 279 q0 1 25.5 1 q25.5 0 25.5 -1 q0 -1 -5 -9 q-5 -7 -13 -16 l-7 -9 l0 -22 q1 -21 5 -34 q4 -11 10 -23 q6 -12 14 -22 q7 -11 17 -23 l13 -13 l3 -3 l8 9 q9 9 16 18 q6 8 12 18 q6 10 10 19 q4 8 8 20 q4 12 5 33 l0 22 l-6 8 q-8 8 -12 15 q-6 8 -7 10 l-1 3 l25 0 l26 0 l6 -9 q5 -8 17 -22 q11 -13 30 -31 q18 -19 22 -21 q3 -2 3 -4 q0 -2 -6 -1 q-9 1 -13 1 q-7 2 -15 4 q-9 3 -17 7 q-7 4 -8 4 q-1 0 -1 -3.5 q0 -3.5 -1 -14.5 q-2 -12 -6 -23 q-4 -11 -10 -23 q-6 -11 -13 -21 q-7 -10 -18 -22 q-10 -11 -17 -16 q-6 -5 -7 -6 q0 -1 17 -12 q17 -11 33 -20 q17 -10 29 -16 q12 -6 36 -16 l22 -10 l0 -8 q0 -8 -2 -8 q-2 0 -19 5 q-17 5 -32 10 q-14 4 -33 12 q-19 8 -37 16 q-20 10 -31 17 l-14 8 l-12 -7 q-10 -6 -28 -15 q-17 -9 -38 -17 q-21 -9 -40 -15 q-18 -6 -40 -12 q-20 -5 -25 -6 l-5 -1 l1 6 l0 5 l21 8 q23 10 36 16 q19 8 31 15 q14 7 27 15 q13 8 27 18 l15 10 l-8 8 q-8 7 -16 15 q-8 8 -15 17 q-8 11 -14 20 q-7 12 -11 23 q-4 11 -7 22 q-2 13 -3 19 q0 7 -1 7 q-1 0 -9 -4 q-9 -4 -17 -7 q-8 -2 -15 -4 q-3 0 -13 -1 q-6 -1 -6 0.5 q0 1.5 16 16.5 q17 15 29 28 q13 14 23 27.5 q10 13.5 10 14.5 Z" /><glyph glyph-name="uni4EA7" unicode="&#x4ea7;" d="M274 387 l22 0 l-1 -11 q-1 -11 -3 -17 q-3 -7 -5 -11 q-3 -4 -3 -4.5 q0 -0.5 83 -0.5 l83 0 l0 -10 l0 -10 l-176 0 l-176 0 l0 10 l0 10 l78 0 l77 0 l0 22 l0 22 l21 0 ZM232 308 l21 0 l0 -17 q0 -16 -1 -22 q-1 -6 -3.5 -12.5 q-2.5 -6.5 -7.5 -11.5 q-5 -6 -5 -6.5 q0 -0.5 37 -0.5 l37 0 l0 35 l1 35 l20 0 l21 0 l0 -16 q1 -16 -1 -23 q-1 -8 -4 -15 q-3 -6 -8 -11 l-4 -4 q0 -1 50 -1 l51 0 l-1 -10 l0 -9 l-138 0 l-138 -1 l-1 -60 q0 -61 -3 -72 q-2 -12 -5 -20 q-3 -9 -7 -18 q-5 -9 -12 -20 q-6 -10 -15 -19 q-10 -10 -19 -17 q-9 -7 -20 -13 q-11 -6 -13 -7 l-4 -1 l0 8 l0 9 l6 3 q5 3 14 11.5 q9 8.5 15 18.5 q7 9 10 18 q5 10 7 18 q2 9 3 95 l1 85 q0 1 47 1 l47 0 l0 34 q0 35 1 36 l21 0 Z" /><glyph glyph-name="uni4EAB" unicode="&#x4eab;" d="M272 400 l23 0 l-1 -13 q-1 -12 -3 -19 q-1 -7 -4 -12 q-2 -4 -6 -9 q-5 -5 -10 -7 q-3 -2 2 -2 q7 -1 91 -1 l98 -1 l1 -9 l0 -9 l-202 0 l-203 0 l0 9 l0 10 l96 0 l96 0 l0 31 l0 32 l22 0 ZM152 300 l21 0 l0 -2 l0 -3 l92 0 l91 0 l0 3 l0 2 l21 0 l22 0 l0 -34 q0 -35 -2 -44 q-1 -8 -4 -14 q-3 -5 -7 -10 q-4 -5 -10 -7 q-6 -3 -13 -3 l-7 0 l0 9 l0 9 l-95 0 l-94 0 l-5 -6 q-6 -7 -11.5 -9.5 q-5.5 -2.5 -13.5 -2.5 l-7 0 l0 56 l0 56 l22 0 ZM264 276 l-91 0 l0 -25 l0 -26 l91 0 l92 0 l0 26 l-1 25 l-91 0 ZM387 187 q1 1 16 -9 q14 -9 14 -10 q0 -1 -12 -7 q-14 -7 -33 -14 q-20 -8 -55 -20 l-35 -12 l0 -9 l0 -10 l90 0 l91 0 l0 -9 l0 -10 l-91 0 l-90 0 l-1 -42 q0 -27 -0.5 -36 q-0.5 -9 -1.5 -12 l-4 -10 q-2 -5 -7 -9 q-4 -5 -10 -7 q-5 -3 -12 -3 l-8 0 l0 60 l0 59 l-95 0 l-95 0 l0 10 l0 9 l95 0 l95 0 l1 17 l0 16 l21 0 q22 0 22 -2 l0 -1 l5 2 l16 8 q15 9 25 14 l14 8 l-128 1 l-128 0 l0 10 l0 9 l143 0 l144 0 l6 5 q7 4 8 4 Z" /><glyph glyph-name="uni4EAE" unicode="&#x4eae;" d="M231 390.5 q2 1.5 8 1.5 q6 0 15 -2 q9 -2 16 -5 q8 -4 14 -10.5 q6 -6.5 10 -13.5 q4 -7 2 -7 q-3 -2 -18 -8 q-17 -7 -17.5 -7 q-0.5 0 -8.5 14 q-8 14 -15 25 q-8 11 -6 12.5 ZM261 334 l183 0 l0 -10 l0 -9 l-183 0 l-182 0 l0 9 l0 10 l182 0 ZM159 300 l20 0 l0 -4 l0 -4 l82 0 l82 0 l0 4 l0 4 l21 0 l20 0 l0 -28 q0 -29 -1 -36 q-2 -7 -5 -13 q-3 -6 -9 -11 q-6 -6 -13 -8 q-6 -3 -9.5 -3 q-3.5 0 -3.5 5 l0 4 l-90 0 l-90 0 l-4 -2 q-4 -3 -9 -5 q-5 -2 -9 -2 l-3 0 l0 50 l0 49 l21 0 ZM262 273 q-82 0 -82 -1 q-1 0 -1 -14 q0 -14 -1 -19 q-1 -5 -2 -7 l17 -2 l66 0 l84 0 l0 21 l0 22 l-81 0 ZM97 198 q20 0 21 -1 q0 -1 -1 -6 l0 -3 q-1 -3 -1 -3.5 q0 -0.5 4 -1 q4 -0.5 20 -0.5 q16 0 41 -0.5 q25 -0.5 73 -0.5 l139 0 l0 5 l-1 4 l7 0 q4 1 20 2 l14 0 l2 -11 q2 -11 5 -21 q3 -11 7 -18 q4 -8 3.5 -8.5 q-0.5 -0.5 -7.5 1.5 q-6 2 -15 6 q-9 5 -15 9 q-6 5 -9 9 l-3 4 l-148 0 q-149 0 -150 -2 q-3 -3 -10 -8 q-8 -5 -20 -10 q-12 -5 -12.5 -4 q-0.5 1 3.5 9 q4 8 7 18 q3 9 5 20 l2 11 q0 1 19 0 ZM184 135 l21 0 l0 -4 l0 -5 l45 0 l44 0 l0 5 l0 4 l21 0 l20 0 l0 -55 q0 -55 2 -58 q2 -3 5 -6 q4 -3 7 -4.5 q3 -1.5 38 -1.5 l34 -1 l0 -6 q0 -6 -2 -9 q-2 -3 -5 -5 q-3 -2 -10 -3 q-8 -2 -32.5 -1.5 q-24.5 0.5 -37.5 1.5 q-13 1 -18.5 3 q-5.5 2 -10.5 7 q-4 4 -6 8 q-2 4 -3.5 10.5 q-1.5 6.5 -1.5 50.5 l0 43 l-44 0 l-44 -1 l-1 -26 q0 -26 -2 -31 q-2 -5 -6 -13 q-4 -7 -10 -14 q-5 -7 -13 -14 q-8 -7 -17 -12 q-9 -6 -16 -10 q-8 -4 -20 -8 q-10 -4 -22 -7 q-9 -3 -14 -4 l-4 -1 l0 5 l1 6 l8 3 q9 5 19 11 q9 6 19 15 q10 10 16 18 q5 8 9 16 q3 7 6 19 q3 11 4 43 l0 32 l21 0 Z" /><glyph glyph-name="uni4EBA" unicode="&#x4eba;" d="M291 362 q24 -16 23 -17 l-1 -3 q-1 -2 -2.5 -6.5 q-1.5 -4.5 -4 -9.5 q-2.5 -5 -5.5 -12 l-6 -14 l-18 -43 l15 -27 q2 -4 30 -56 q5 -9 19 -34.5 q14 -25.5 18 -32.5 q21 -40 26 -46 q4 -6 11 -14 q8 -9 19 -19 l26 -22 q13 -11 20 -15 l6 -4 l-2 -4 q-3 -3 -4.5 -3 q-1.5 0 -12.5 4 q-10 4 -21 10 q-10 4 -21 11 q-10 6 -20 14 q-9 7 -19 15 q-7 6 -17 17 q-10 11 -16 23 q-2 3 -10 16 q-8 13 -12 19 q-8 14 -34 59 q-21 34 -22 35 l-9 -16 q-3 -7 -7 -17 q-17 -39 -30 -68 l-14 -34 l-10 -9 q-10 -8 -21 -15 q-11 -8 -24 -16 q-13 -8 -26 -15 q-11 -7 -35 -19 l-22 -11 l-7 2 q-6 1 -7 2 q-1 0 9 6 q9 4 21 13 q12 8 23 17 q13 10 28 25 q14 14 24 27 l9 13 l32 84 q18 47 47 126 q19 50 21 57 q6 16 8 20 l1 3 l24 -16 Z" /><glyph glyph-name="uni4EC5" unicode="&#x4ec5;" d="M198 371 q10 0 11.5 -1 q1.5 -1 -1.5 -13 q-3 -12 -7 -22 q-4 -12 -8 -19 l-10 -18 q-7 -10 -13 -17 l-6 -7 l0 -116 q0 -116 -2 -123 q-2 -6 -6 -13.5 q-4 -7.5 -10 -13.5 q-6 -6 -13 -10 q-7 -3 -11 -4 l-3 -1 l0 123 l0 122 l-6 -3 q-7 -4 -18 -8 q-13 -5 -27 -9 q-14 -4 -16 -4 q-2 0 -3 3 q-1 2 0.5 3.5 q1.5 1.5 10.5 5.5 q11 6 20 12 q8 5 20 14 l16 16 q7 9 13 16 q5 7 12 19 q6 10 12 23 q5 12 9 23 q3 9 4 16 l2 5 l10 0 q2 0 9.5 0.5 q7.5 0.5 10.5 0.5 ZM339 354 l105 0 l-1 -11 q0 -11 -9 -37 q-9 -26 -16 -43 q-7 -18 -15.5 -35 q-8.5 -17 -16.5 -30 q-7 -13 -16 -26 q-8 -12 -16 -23 l-8 -11 l8 -8 q9 -10 23 -23 q15 -13 28 -24 q11 -10 33 -26 q20 -15 22 -17 l3 -1 l-7 -21 l-7 -22 q-1 0 -10 6 q-2 1 -6 4 q-4 3 -7.5 6 q-3.5 3 -6.5 4 q-9 7 -22 17 q-11 9 -21 17 q-10 9 -24 23 q-15 15 -23 24 q-8 9 -9 9 q0 1 -18 -17 q-19 -19 -29 -28 q-15 -12 -24 -19 q-12 -9 -26 -18 q-12 -8 -22 -15 q-7 -4 -23 -12 q-14 -8 -14.5 -7.5 q-0.5 0.5 -1.5 4.5 q-1 4 0 4 l2 1 q1 1 3.5 2.5 q2.5 1.5 5.5 2.5 q10 6 22 15 q12 9 28 25 q15 15 26 28 q11 12 21 25 q12 16 18 26 l10 13 l-7 10 q-7 10 -14 22 q-8 14 -11 21 q-4 9 -9 20 q-6 13 -10 26 q-5 15 -8 30 q-4 15 -6 30 q-1 8 -3 23 l-1 6 l5 0 q4 0 5 -4 q1 -8 4 -18 q3 -13 8 -26 q5 -12 12 -26 q6 -11 14 -24 q7 -12 14 -23 q7 -10 17 -23 q9 -11 10.5 -9 q1.5 2 10.5 18 q10 18 22 41 q14 28 22 46 q9 21 17 39 q7 18 7 19 q0 1 -81 1 l-81 0 l0 10 l0 9 l104 0 Z" /><glyph glyph-name="uni4ECA" unicode="&#x4eca;" d="M255 374 q1 0 5 -1.5 q4 -1.5 11.5 -3.5 q7.5 -2 14.5 -4 q29 -9 30.5 -9 q1.5 0 1.5 -1 q0 -1 -8.5 -8 q-8.5 -7 -7.5 -8 q1 -1 20 -18 q19 -18 24 -23 q6 -5 18 -13 q12 -8 24 -14 q12 -7 30 -14 q17 -8 38 -15 q19 -6 20 -7 q1 0 -1 -6 l-2 -5 l-9 1 q-11 1 -20 2 q-12 2 -25.5 5 q-13.5 3 -25.5 6 q-12 4 -25 9 q-12 5 -24 11 q-7 5 -18 11 q-10 6 -31 23 q-23 18 -25 20 q-2 1 -20.5 -14.5 q-18.5 -15.5 -30.5 -21.5 q-12 -6 -28 -12 q-17 -7 -34 -12 q-19 -7 -28 -9 q-9 -3 -26 -7 q-15 -4 -34 -8 l-18 -4 l-8 5 l-8 5 l13 3 l24 8 q13 5 20 8 q9 4 27 13 q16 8 30 17 q15 10 24 17 q11 9 23 21 q8 7 35 33 q23 21 24 20 ZM267 242 l25 0 l0 -12 q0 -11 -2 -20 q-2 -8 -5 -16 q-4 -9 -9 -14 q-5 -5 -12 -8 q-6 -4 -14 -4 l-8 0 l0 37 l0 37 l25 0 ZM264 157 l110 0 l0 -13 q0 -12 -2 -12 q-2 0 -16 -18 q-3 -4 -23.5 -30.5 q-20.5 -26.5 -33.5 -42.5 l-43 -56 l-25 0 q-25 0 -25 0.5 q0 0.5 21 26.5 q18 25 54 73 q35 45 35 46 q0 1 -81 1 l-82 0 l0 11 l0 12 q1 2 111 2 Z" /><glyph glyph-name="uni4EE3" unicode="&#x4ee3;" d="M134 385 q1 2 23.5 2 q22.5 0 22.5 -1.5 q0 -1.5 -3 -12.5 q-3 -11 -8 -26 q-5 -15 -12 -28 l-6 -14 l0 -147 q0 -77 -0.5 -113.5 q-0.5 -36.5 -1.5 -40.5 q-1 -6 -4 -12 q-3 -6 -7 -11 q-5 -4 -10 -7 q-5 -2 -11 -2 l-5 0 l0 140 l-1 141 l-7 -6 q-7 -6 -16 -12 q-10 -7 -19 -11 q-9 -3 -9 -1 q0 2 11 19 q10 16 21 35 q8 15 17 34 q6 14 11 25 q5 13 7 20 q2 8 5 18 q0 2 0.5 4.5 q0.5 2.5 1 4 q0.5 1.5 0.5 2.5 ZM296 380 l22 0 l1 -4 q1 -9 7 -57 q6 -53 6 -56 l1 -4 l59 0 l59 0 l0 -10 l1 -9 l-59 0 l-58 0 q0 -1 8 -62 q7 -59 9 -70 q2 -10 5 -21.5 q3 -11.5 7 -21.5 q3 -9 8 -19 q5 -11 12 -22 q8 -12 18 -22 q10 -10 18 -14 l8 -5 q-1 -1 -4 -5 l-3 -4 l-10 4 q-11 4 -21 9 q-11 5 -21 12.5 q-10 7.5 -17 14.5 q-8 8 -14 17 q-8 10 -13 19 q-5 10 -9 22 q-5 11 -7 21 q-2 11 -10 76 q-7 63 -8 68 l0 3 l-59 0 l-59 0 l1 9 l0 10 l57 0 q57 0 57 2 q0 2 -6 56 q-6 52 -7 58 l0 5 l21 0 ZM393 354 l19 0 l-1 -14 q0 -14 -2.5 -20.5 q-2.5 -6.5 -6.5 -11.5 q-4 -5 -9.5 -8 q-5.5 -3 -12.5 -3 l-7 1 l0 26 q0 27 0.5 28.5 q0.5 1.5 19.5 1.5 Z" /><glyph glyph-name="uni4EE5" unicode="&#x4ee5;" d="M87 375 l21 0 l0 -158 l0 -158 l54 31 q47 26 58 33 l3 2 l5 -8 q5 -8 4 -9 l-63 -36 q-63 -36 -72 -45 q-8 -9 -14 -11 q-6 -2 -12 -2 l-6 0 l0 180 l0 181 l22 0 ZM317 375 l22 0 l-1 -110 q0 -108 -3 -120 q-2 -11 -5 -19 q-4 -10 -7 -17 q-5 -10 -12 -19 q-6 -11 -15 -20 q-9 -10 -19 -17 q-10 -7 -22 -15 l-30 -18 q-20 -11 -43 -23 l-25 -13 l-6 2 q-6 2 -7 2 q0 1 1.5 1.5 q1.5 0.5 3.5 2 q2 1.5 5 3.5 q12 7 24 15 q15 10 23 16 q10 7 21 17 q11 10 22 21 q11 11 18 21 q8 10 12 19 q5 10 10 23 q5 13 8 22 l3 9 l0 109 l0 108 l22 0 ZM156 346.5 q0 2.5 1 2.5 q1 0 9 -4 q8 -4 16 -12 q9 -8 16 -17 q6 -9 11 -18 q6 -11 10 -21 q5 -11 4 -11 q0 -1 -19 -3 q-19 -2 -22 -2 l-3 0 l0 8 q0 9 -2 20 q-2 12 -5 21 q-4 11 -10 22 q-6 12 -6 14.5 ZM342 96 q3 0 14.5 -2 q11.5 -2 22.5 -6 q11 -4 20 -8 q10 -5 14 -8 q4 -3 10 -8 q5 -4 10 -10 q5 -6 10 -15 l4 -9 l-22 -23 q-23 -22 -24 -22 q0 1 -1 6 q-1 7 -4 16 q-3 11 -8 21 q-5 10 -12 22 q-8 12 -20 23 q-11 12 -14 14 q-3 2 -2.5 5.5 q0.5 3.5 2.5 3.5 Z" /><glyph glyph-name="uni4EEC" unicode="&#x4eec;" d="M269.5 389 q1.5 3 2.5 3 q1 0 10 -9 q9 -10 17 -20 q7 -11 13 -23 q6 -13 9 -20 q3 -8 3 -9 q-1 0 -21 -7 q-21 -6 -21 -5.5 q0 0.5 1 6.5 q1 7 1 16 q0 9 -2 20 q-1 10 -3 16 q-2 7 -7 18 q-4 11 -2.5 14 ZM164 357 l24 0 l0 -4 q-1 -5 -5 -15 q-3 -10 -9 -23 q-7 -14 -12 -21 q-5 -8 -14 -19 q-9 -11 -16 -17 q-8 -7 -18.5 -15.5 q-10.5 -8.5 -21.5 -14.5 q-10 -6 -17 -9 l-7 -3 l-5 5 l-6 5 l1 1 q2 1 4.5 3 q2.5 2 5.5 4 q10 8 21 19 q10 10 19 24 q8 12 14 25 q6 12 8 20 q3 9 6 21 q0 2 1 5.5 q1 3.5 1 5.5 l1 2 q0 1 25 1 ZM434 337 l20 -1 l1 -158 q0 -158 -1 -165.5 q-1 -7.5 -4 -13.5 q-2 -7 -7.5 -13 q-5.5 -6 -10.5 -8 q-5 -3 -13 -3 l-7 0 l0 169 l0 169 l-34 0 l-34 0 l0 10 l0 9 l34 0 q33 0 34 2.5 q1 2.5 22 2.5 ZM247 332 l21 0 l0 -157 q0 -158 -1.5 -166 q-1.5 -8 -4.5 -14 q-3 -5 -8 -10 q-4 -5 -9 -7 q-5 -3 -13 -3 l-7 0 l0 178 l0 179 l22 0 ZM136 235 l21 0 l0 -112 l0 -93 q0 -23 -1 -28 q-2 -8 -5 -13.5 q-3 -5.5 -8 -10.5 q-5 -5 -10 -8 q-6 -3 -12 -3 l-7 0 l0 134 l0 134 l22 0 Z" /><glyph glyph-name="uni4EFD" unicode="&#x4efd;" d="M333 387 q2 0 5 -2 q4 -2 10 -17 q5 -14 16 -37 q11 -22 19 -36 q10 -14 16 -23 q8 -9 31 -29 q24 -19 24.5 -20.5 q0.5 -1.5 -6 -17 q-6.5 -15.5 -7.5 -15.5 q-1 0 -16 13 q-4 5 -14.5 14.5 q-10.5 9.5 -12.5 10.5 q-13 12 -16 17 l-10 21 q-9 17 -15 32 q-7 15 -11 28 q-4 12 -7 23 q-2 8 -4 19 q-2 11 -2 15 q-1 4 0 4 ZM124 374 q1 1 24.5 1 q23.5 0 24 -2 q0.5 -2 -0.5 -8 q-1 -8 -6 -20 q-4 -14 -10 -27 q-7 -15 -5.5 -15.5 q1.5 -0.5 0.5 -150.5 l0 -150 l-3 -7 q-3 -7 -9 -13 q-6 -6 -12 -8 q-6 -2 -11 -2 l-7 0 l0 139 l0 139 l-5 -5 q-5 -4 -15 -10 q-9 -6 -17.5 -9.5 q-8.5 -3.5 -11.5 -4.5 q-3 -1 -3 1 q0 2 7 13 q6 9 15 23 l13 26 q6 12 12 26 q6 14 10 26 q5 14 7 25 q2 12 3 13 ZM276 364 q4 -3 14 -11 l3 -2 q1 -2 2 -2 l1 -1 q1 -1 -13 -24 q-4 -7 -15.5 -26 q-11.5 -19 -14.5 -24 q-21 -36 -21 -37 q-5 -8 -18 -22 q-10 -12 -32 -33 q-20 -19 -22 -19 q-1 -1 -3 1.5 q-2 2.5 7 14.5 q11 15 23 35 q14 21 48 88 l33 68 l8 -6 ZM373 201 l21 0 l0 -89 q1 -89 -1 -95 q-1 -6 -3 -13 q-3 -6 -9 -11 q-6 -6 -13 -9.5 q-7 -3.5 -12 -3.5 l-4 1 l-1 97 l0 97 l-31 0 l-31 0 l-1 -38 q0 -38 -3 -50 q-3 -12 -6 -20 q-3 -8 -9 -20 q-6 -11 -13 -21 q-7 -9 -17.5 -19 q-10.5 -10 -18.5 -15 q-8 -5 -20 -12 q-12 -6 -12.5 -5.5 q-0.5 0.5 1 4.5 q1.5 4 7.5 8 q6 4 16 13 q9 9 14 16.5 q5 7.5 9 16.5 q4 9 8 21 l3 11 l0 55 l1 55 l-16 0 l-15 0 l0 9 l0 8 l67 0 l67 0 l0 5 l0 4 l22 0 Z" /><glyph glyph-name="uni4F18" unicode="&#x4f18;" d="M147 387 l26 0 l-1 -6 q-1 -6 -5 -19 l-8 -24 q-5 -11 -8 -17 q-3 -6 -1 -7 q2 -1 2 -150 q0 -149 -2 -157 q-1 -6 -4 -14 q-3 -7 -6.5 -11 q-3.5 -4 -9.5 -7 q-6 -3 -14 -3 l-7 -1 l0 145 l-1 144 l-10 -8 q-10 -8 -22 -14 q-12 -6 -16 -7 q-3 0 -3 1.5 q0 1.5 7 13.5 q8 13 16 27 q8 15 16 31 q8 17 12 28 l8 24 q3 13 5 22 l1 9 l25 0 ZM269 378 l21 0 l0 -55 l0 -55 l79 0 l78 -1 l0 -9 l-1 -9 l-46 0 l-47 0 l-1 -117 q0 -116 -1 -119 l-1 -2 l34 0 q34 0 34 0.5 q0 0.5 -2.5 7.5 q-2.5 7 -2.5 41 l0 34 l21 0 l21 0 l0 -51 l0 -52 l-58 0 l-58 0 l-5 -3 q-5 -3 -9 -4 q-5 -2 -10 -1 l-4 0 l-1 132 l0 133 l-2 1 l-10 0 l-8 0 l0 -91 q-1 -91 -3 -99 q-3 -10 -5 -15 q-3 -7 -10 -17 q-6 -10 -14 -17 q-7 -7 -16 -13 q-8 -5 -17 -10 q-9 -4 -17 -7 q-6 -2 -16 -5 l-15 -3 l-7 -1 l0 6 q0 6 3 7 q3 1 13 5 q8 4 16 10 q8 5 15 13 q7 8 13 17 q5 10 9 19.5 q4 9.5 6 19.5 q2 10 2 95 l1 85 l-3 0 q-3 1 -40 1 l-37 0 l0 9 l0 9 l39 1 l40 0 l0 55 l0 55 l22 0 ZM334 368 q4 -1 14 -4 q10 -3 20.5 -9 q10.5 -6 17.5 -12 q8 -7 15 -16 l7 -10 q0 -2 -15.5 -12 q-15.5 -10 -16.5 -10 q-1 0 -9 15 q-8 17 -14 25 q-5 9 -11.5 15.5 q-6.5 6.5 -11 8 q-4.5 1.5 -4.5 3 q0 1.5 2.5 4.5 q2.5 3 5.5 2 Z" /><glyph glyph-name="uni4F1A" unicode="&#x4f1a;" d="M257 370 l29 0 l-2 -3 q-1 -1 -10 -14 l-8 -10 l36 -37 q37 -36 46 -43 q10 -6 27 -14 q18 -9 33 -14 q17 -6 29 -10 q13 -4 13 -5 q0 -1 -1 -4 q-2 -4 -8 -3 q-7 0 -23 2 q-16 2 -31 6 q-13 3 -25 8 q-10 3 -24 10 q-14 7 -22 12.5 q-8 5.5 -21 16.5 q-15 14 -29 25 q-17 16 -19 18 l-4 3 l-7 -9 q-9 -11 -21 -22 q-14 -13 -25 -22 q-12 -11 -30 -24 q-16 -12 -34 -24 q-13 -9 -34 -21 l-17 -10 l-6 1 q-7 2 -8 2 l1 1 q2 2 5.5 5 q3.5 3 7.5 6 q14 11 30 25 q15 13 33 31 q16 15 27 28 q11 13 14 17 q5 7 23 33 q22 33 23 33 l4 6 l28 0 ZM258 222 l113 0 l0 -10 l0 -10 l-114 1 l-113 0 l0 8 q-1 8 0 9 q1 2 114 2 ZM253 143 l170 0 l0 -9 l0 -9 l-170 0 l-170 0 l0 9 l0 9 l170 0 ZM209 96 l21 -1 l-1 -1 q-3 -5 -24 -38 l-23 -37 l19 2 q21 2 83 9 q63 7 64.5 7.5 q1.5 0.5 -1.5 8.5 q-2 6 -8 17 q-5 10 -5 13 q0 3 2 3 q1 0 8 -4 q8 -5 17 -14 q10 -10 17 -19 q6 -9 11 -19 q4 -10 7.5 -18.5 q3.5 -8.5 2.5 -9.5 q-1 -1 -19 -3 q-19 -2 -21 -3 l-3 0 l0 14 q-1 15 -2 16 q-1 0 -48 -5 q-54 -6 -104 -12 q-55 -6 -62 -8 q-7 -1 -13 -1 q-5 0 -5 0.5 q0 0.5 25 39.5 q8 13 19.5 31 q11.5 18 13.5 21 l7 11 l22 0 Z" /><glyph glyph-name="uni4F59" unicode="&#x4f59;" d="M243 366 q23 26 24.5 25.5 q1.5 -0.5 18.5 -11.5 q11 -8 13.5 -10 q2.5 -2 1.5 -3 l-2 -2 q-1 -1 -2.5 -3 q-1.5 -2 -2.5 -3 l-6 -7 l3 -2 q2 -2 23 -16 q21 -15 38 -25 q17 -11 41 -23 q23 -12 44 -20 q20 -8 20 -10 q2 -2 6 -21 q5 -19 4.5 -19.5 q-0.5 -0.5 -15 5.5 q-14.5 6 -35.5 17 q-22 11 -37 20 q-14 8 -30 19 q-18 12 -29 20 q-14 11 -29 26 l-16 15 l-11 -11 q-9 -10 -25 -24 q-16 -15 -25 -22 q-11 -9 -24 -17 q-14 -9 -33 -19 q-19 -9 -33 -15 q-13 -4 -32 -10 q-19 -5 -32 -8 q-16 -3 -16 -2.5 q0 0.5 -1 4.5 l0 5 l7 2 q8 2 15.5 5 q7.5 3 20.5 9 q11 5 26 14 q13 8 24 15 q10 7 19 15 q10 8 24 20 q14 13 27 27 q8 9 36 40 ZM258 229 l99 0 l0 -10 l0 -10 l-35 0 l-35 0 l0 -21 l0 -21 l73 0 l72 0 l0 -9 l0 -10 l-72 0 l-73 0 l0 -66 q0 -66 -2 -75 q-2 -9 -6 -16 q-3 -7 -8 -13 q-4 -6 -8 -8.5 q-4 -2.5 -11 -2.5 l-8 0 l0 91 l0 90 l-80 0 l-80 0 l-1 10 l0 9 l81 0 l80 0 l0 21 l0 21 l-43 0 l-42 0 l0 10 l0 10 l99 0 ZM182 131 q3 -1 19 -10 q18 -10 18 -11 q0 -1 -7 -13 q-6 -11 -12 -20 q-6 -8 -15 -17 q-10 -10 -19 -17 q-9 -6 -22 -13 q-13 -7 -21 -9 q-10 -3 -18 -5 q-8 -2 -28 -3 q-20 0 -21 1 q-1 1 2 8 l4 7 l9 0 q9 1 17 3 q8 3 18 7 q9 4 16 9 q8 6 15 13 q7 7 13 14 q4 6 18 32 q6 11 10 17 l4 7 ZM330 125 q1 0 10 -3 q7 -3 21 -10 q13 -7 23 -13 q9 -6 18 -13 q8 -6 19 -17 q11 -12 17 -21 q8 -10 12 -19 q5 -8 5 -10 q0 -1 -26 -3 q-27 -2 -28 -2 l-6 11 q-6 9 -15 24 q-7 12 -19 27 q-10 13 -24 28 l-14 14 l2 4 q2 4 5 3 Z" /><glyph glyph-name="uni4F5C" unicode="&#x4f5c;" d="M313 392 q23 0 23 -1.5 q0 -1.5 -9.5 -37 q-9.5 -35.5 -9.5 -37 q0 -1.5 69 -1.5 l69 0 l0 -9 l0 -9 l-46 0 l-47 -1 l0 -39 l-1 -40 l39 0 q38 0 38 -1 l0 -9 l0 -9 l-38 0 l-38 -1 l0 -39 l-1 -40 l39 0 l38 -1 l0 -8 l0 -9 q0 -1 -38 -1 l-39 0 l0 -41 l0 -33 q0 -10 -1 -15 q-2 -7 -6 -16 q-4 -8 -10 -14 q-6 -6 -11 -9 q-6 -2 -8 -3 l-3 -1 l0 165 l0 165 l-7 0 q-6 0 -8 -3 q-1 -1 -7 -11 q-6 -9 -13 -16 q-8 -9 -15 -14 q-7 -5 -16 -10 q-8 -4 -13 -4 q-4 0 -8 1 l-3 0 l10 20 q10 20 15 32 q6 13 11 26 q5 13 13 44 l8 30 l24 0 ZM192 391 q24 0 24 -0.5 q0 -0.5 -4 -14.5 q-4 -14 -9 -26 l-5 -11 l-1 -155 l0 -154 l-3 -13 q-3 -12 -7 -22 q-5 -10 -8 -15 q-4 -6 -7 -9 q-3 -3 -10 -3 l-6 0 l-1 149 l0 149 l-7 -7 q-7 -7 -16 -14 q-8 -7 -17 -12 q-8 -5 -17 -10 q-9 -4 -18 -7 q-9 -3 -14 -4 q-5 -1 -7 2 l-2 4 l9 5 q10 5 19 13 q8 7 18 17 q9 10 18 24 q9 14 18 32 q9 18 14 33 q6 17 11 32 l4 17 l24 0 Z" /><glyph glyph-name="uni4F60" unicode="&#x4f60;" d="M140 397 q0 2 21.5 -3.5 q21.5 -5.5 22 -5.5 q0.5 0 0.5 -2.5 q0 -2.5 -5 -18.5 q-3 -14 -8 -30 q-4 -13 -10 -27 l-5 -12 l0 -69 l1 -69 l7 9 q6 8 17 25 q9 16 21 39 q11 22 18 40 q8 20 14 37 q6 17 11 36 q5 16 8 31 q1 4 2.5 8.5 q1.5 4.5 1.5 7.5 l1 3 l1 3 l21 -5 l22 -6 l0 -2 q0 -2 -4 -21 q-6 -21 -11 -36 q-7 -18 -11 -28 q-5 -11 -5 -12 q0 -1 85 -1 l85 0 l4 5 q6 5 13 11 q8 7 15 10 q7 4 8.5 3.5 q1.5 -0.5 2.5 -20.5 q1 -20 0.5 -20.5 q-0.5 -0.5 -7.5 -1.5 q-7 -2 -14.5 -5 q-7.5 -3 -14.5 -8 q-6 -5 -13 -11 q-7 -6 -15 -14.5 q-8 -8.5 -9 -10.5 q-2 -3 -6 -3 q-3 -1 -3.5 -0.5 q-0.5 0.5 -0.5 2.5 q1 2 6 13 q5 11 11 21 q6 9 6 9.5 q0 0.5 -82 0.5 l-81 0 l-6 -10 q-5 -10 -14 -23 q-10 -15 -19 -27 q-9 -12 -28 -30 q-18 -18 -28 -26 l-10 -8 l0 -41 q0 -41 1 -41 q1 0 9.5 7.5 q8.5 7.5 17 16.5 q8.5 9 15 19 q6.5 10 11.5 20.5 q5 10.5 8 19.5 q3 8 5 19 q2 9 3 10.5 q1 1.5 25 1.5 q24 0 24 -1 q1 -2 -2 -12 q-3 -10 -7.5 -19.5 q-4.5 -9.5 -8.5 -16.5 q-5 -7 -13 -18 q-7 -10 -17 -19 q-11 -11 -21 -19 q-10 -7 -21 -14 q-10 -6 -19 -11 l-10 -4 l0 -23 q0 -13 -0.5 -19.5 q-0.5 -6.5 -1.5 -10.5 q-1 -6 -4 -12 q-3 -6 -7.5 -10.5 q-4.5 -4.5 -10 -7 q-5.5 -2.5 -12.5 -3.5 l-7 0 l0 132 l-1 132 l-9 -13 q-11 -12 -28 -30 q-18 -18 -31 -28 q-11 -9 -15 -11 l-3 -2 l1 5 q1 5 3 8 q1 1 10 12 q6 8 15 21 q8 13 18 29 q8 15 17 34 q8 17 14 33 q5 13 11 30 q6 18 10 31 q4 15 10 36 q0 4 1.5 9.5 q1.5 5.5 2.5 8 q1 2.5 1 3.5 ZM325 254 l22 0 l0 -128 q0 -128 -2 -135 l-4 -12 q-2 -4 -6 -9 q-4 -5 -10 -8 q-6 -3 -14 -3 l-8 -1 l0 148 l0 148 l22 0 ZM373 174 q1 0 10 -3 q7 -3 16 -8 q7 -3 18 -10 q10 -7 20 -16 q10 -10 16 -20 q6 -8 10 -16 l6 -16 q2 -8 4 -18 q1 -10 1 -13 l0 -4 l-19 -2 q-18 -2 -19.5 -0.5 q-1.5 1.5 -1.5 4.5 q0 3 -2 14 q-2 12 -6 24 q-4 12 -9 23 q-5 10 -12.5 21 q-7.5 11 -14.5 19 q-8 9 -13.5 12.5 q-5.5 3.5 -5.5 6.5 q0 3 2 2 Z" /><glyph glyph-name="uni4F7F" unicode="&#x4f7f;" d="M122.5 385.5 q0.5 1.5 25 1.5 q24.5 0 25 -0.5 q0.5 -0.5 -1.5 -8.5 q-1 -5 -4 -16 q-3 -10 -7 -19 q-4 -11 -6 -15 q-2 -4 -2 -155 l-1 -150 l-2 -7 q-3 -6 -6 -11 q-4 -5 -8.5 -8.5 q-4.5 -3.5 -8.5 -4.5 q-4 -2 -10 -2 l-7 0 l0 136 q0 136 -0.5 136 q-0.5 0 -5.5 -5 q-5 -4 -14 -10 q-9 -5 -17.5 -9 q-8.5 -4 -11.5 -4 q-3 -1 -3 0.5 q0 1.5 6 10.5 q5 9 14 24 q8 13 18 33 q8 17 13 29 q3 10 7 22 q4 12 5 22 q2 9 2.5 10.5 ZM314 387 l21 0 l0 -18 l0 -18 l60 0 l60 0 l0 -10 l0 -10 l-60 0 l-60 0 l0 -23 l0 -23 l9 -1 l29 0 q21 0 21.5 2.5 q0.5 2.5 21.5 2.5 l21 0 l0 -40 q0 -41 -2 -50 q-2 -8 -5 -15 q-3 -8 -7 -13 q-4 -7 -9 -10.5 q-5 -3.5 -12 -3.5 l-7 0 l0 8 l0 9 l-30 0 l-29 0 l-1 -11 q-1 -11 -3 -20 q-1 -9 -4 -18 q-3 -9 -7 -18 q-5 -10 -9 -16.5 q-4 -6.5 -7 -10.5 l-2 -3 l11 -6 q9 -6 23 -13 q13 -6 23.5 -9.5 q10.5 -3.5 19.5 -5.5 q8 -2 42 -2 l33 -1 l0 -21 l0 -21 l-36 0 q-36 0 -47 2 q-9 2 -20 5 q-12 4 -23 10 q-12 6 -22.5 14 q-10.5 8 -17.5 15 q-7 7 -8 7 q-1 0 -10 -8.5 q-9 -8.5 -21 -16.5 q-12 -9 -23 -16 q-13 -9 -28 -16 q-17 -9 -31 -15 q-15 -7 -16 -7 q-1 0 -1 4 q0 4 8 9 q10 6 20 13 q12 9 24 19 q13 10 25 23 q11 11 20 23 q9 12 9.5 13.5 q0.5 1.5 -8.5 14.5 l-16 26 q-9 16 -15 29 l-5 11 q-2 3 -3 2 q-2 0 -10 -1 l-8 0 l0 65 l0 66 l21 0 q21 0 21 -2.5 q0 -2.5 29 -2.5 l29 0 l1 24 l0 23 l-60 0 l-60 0 l0 10 l0 10 l60 0 l60 0 l0 18 l0 18 l21 0 ZM263 265 l-29 0 l-1 -33 q0 -32 -1 -35 l0 -3 l30 0 l30 0 l0 35 l0 36 l-29 0 ZM365 265 l-30 0 l0 -36 l0 -36 l30 0 l30 0 l0 36 l0 36 l-30 0 ZM258 175 l-34 0 l-2 -3 q-2 -3 0 -6.5 q2 -3.5 11 -16.5 q10 -14 20 -25 q12 -14 15 -17 l5 -4 q0 1 6 13 q5 11 7 20 q2 7 4 17 q2 9 2 15 l0 6 l-34 1 Z" /><glyph glyph-name="uni4FDD" unicode="&#x4fdd;" d="M158 404 l26 0 l-1 -3 q-1 -3 -4 -14 q-4 -12 -10 -26 l-12 -24 l-4 -8 l0 -167 l0 -85 q0 -32 -0.5 -51.5 q-0.5 -19.5 -0.5 -27.5 q0 -8 -1 -10 q-1 -8 -4 -13 q-3 -6 -6 -9 q-3 -4 -10 -7 q-6 -4 -14 -4 l-8 0 l0 157 q0 157 -0.5 157 q-0.5 0 -8.5 -8 q-9 -8 -17 -14 q-10 -6 -19 -10 q-10 -5 -13 -5.5 q-3 -0.5 -3 1.5 q0 2 4 8 q5 6 18 26 q13 20 22 35 q8 14 17 34 q10 19 14 32 q5 15 7 25 l3 11 l25 0 ZM225 383 l22 0 l0 -5 l1 -6 l63 1 l62 0 l1 5 l0 6 l22 0 l21 0 l0 -57 q0 -57 -1 -63 q-1 -6 -5 -14.5 q-4 -8.5 -11 -15.5 q-7 -7 -15 -10 q-8 -5 -9.5 -5 q-1.5 0 -1.5 12 l0 12 l-68 0 l-68 0 l-8 -8 q-8 -8 -16 -12 q-8 -4 -9.5 -4 q-1.5 0 -1.5 83 l0 82 l22 -1 ZM311 353 l-63 0 l-1 -43 q0 -43 -1 -45 l10 -2 l53 0 l65 0 l0 45 l0 45 l-63 0 ZM317 224 l21 -1 l0 -33 l1 -34 l62 0 l62 0 l0 -10 l0 -10 l-62 0 l-62 0 l-1 -68 q0 -51 -0.5 -60.5 q-0.5 -9.5 -2.5 -14.5 q-2 -8 -5 -12 q-4 -5 -10 -10.5 q-6 -5.5 -13 -8.5 q-7 -4 -10 -4 l-3 -1 l0 90 l0 89 l-64 0 l-65 0 l1 10 l0 9 l64 0 l64 1 l0 33 q0 34 1 34.5 q1 0.5 22 0.5 ZM233 123 l22 0 l0 -58 l0 -47 q0 -13 -1 -18 q-2 -8 -5.5 -15 q-3.5 -7 -11.5 -14 q-7 -7 -14 -11 q-8 -4 -10 -4 q-2 0 -2 83 l0 84 l22 0 ZM395 122 l22 0 l0 -60 q0 -61 -3 -68 q-2 -6 -6 -12 q-3 -5 -9 -11 q-6 -5 -13 -9 q-6 -3 -9 -4 l-3 -1 l0 83 l0 83 l21 -1 Z" /><glyph glyph-name="uni4FE1" unicode="&#x4fe1;" d="M115 375 q0 3 25 3 q25 0 25.5 -0.5 q0.5 -0.5 -1.5 -10.5 q-2 -8 -6 -21 q-3 -9 -9 -21 l-4 -10 l0 -147 q0 -146 -1 -153 q-1 -6 -3.5 -12.5 q-2.5 -6.5 -8.5 -12.5 q-6 -6 -12.5 -8.5 q-6.5 -2.5 -12.5 -2.5 l-6 0 l0 139 l-1 138 l-5 -4 q-4 -3 -13 -9 q-9 -6 -18.5 -10 q-9.5 -4 -12.5 -5 q-3 -1 -3 1.5 q0 2.5 8 14.5 q9 14 17.5 28 q8.5 14 13.5 25 q5 9 10 22 q6 12 9 24 q4 12 6 21 q2 7 3 11 ZM317 378 l22 0 l0 -5 q0 -5 -3 -14 q-2 -9 -5 -15 q-3 -7 -7 -12 q-4 -5 -4 -5.5 q0 -0.5 72 -0.5 l71 0 l0 -10 l0 -9 l-146 0 l-146 0 l0 9 l0 10 l62 0 l62 0 l0 26 l0 26 l22 0 ZM318 254 l118 0 l-1 -9 l0 -9 l-118 0 l-117 -1 l0 10 l0 9 l118 0 ZM317 188 l118 0 l0 -9 l0 -9 l-118 0 l-117 -1 l0 10 l0 10 l117 -1 ZM230 137 l22 0 l0 -4 l0 -5 l65 0 l65 0 l0 5 l0 4 l22 0 l23 0 l-1 -55 q0 -35 -0.5 -46 q-0.5 -11 -1.5 -16 q-2 -8 -7 -17 q-4 -9 -9 -14 q-5 -6 -9.5 -8 q-4.5 -2 -9.5 -2 l-6 0 l-1 15 l0 15 l-68 0 l-68 0 l-3 -8 q-4 -6 -9.5 -12 q-5.5 -6 -9.5 -8 q-4 -2 -10 -2 l-5 0 l0 79 l0 79 l21 0 ZM317 110 q-64 0 -64.5 -1.5 q-0.5 -1.5 -0.5 -41.5 l-1 -40 l66 0 l65 0 l0 41 l-1 41 l-64 1 Z" /><glyph glyph-name="uni5012" unicode="&#x5012;" d="M120 403 q1 1 26.5 1 q25.5 0 25.5 -1 q0 -1 -2 -11 q-2 -9 -7 -22 q-4 -13 -8 -22 l-4 -9 l0 -166 q0 -166 -2 -172 q0 -5 -3 -12 q-3 -7 -8 -13 q-6 -6 -13 -8.5 q-7 -2.5 -13 -2.5 l-5 1 l-1 156 l0 156 l-10 -8 q-11 -9 -20 -13 q-9 -4 -15 -7 q-7 -2 -8 -1.5 q-1 0.5 1 4.5 q1 2 13 20 q9 15 20 36 q9 19 16 35 q6 15 10 28 q4 13 6 21 q1 8 1 10 ZM438 399 l22 0 l-1 -158 q0 -158 -3 -168 q-2 -9 -5 -21 q-4 -11 -9 -20 q-4 -9 -11 -20 q-7 -10 -18 -22 q-10 -10 -21 -18 q-9 -6 -19 -11 q-8 -5 -11 -6 q-2 0 -2.5 1 q-0.5 1 -0.5 7 l0 9 l6 3 q5 3 15 13 q11 11 16 19 q5 8 8.5 15.5 q3.5 7.5 5.5 15.5 q3 8 4 15 q1 8 1 176 q0 168 1 169 q0 1 22 1 ZM260 362 l88 0 l0 -9 l-1 -10 l-29 0 l-29 0 l-13 -22 q-4 -6 -14.5 -23 q-10.5 -17 -15.5 -24 q-16 -27 -19 -31 q-3 -4 -3 -4.5 q0 -0.5 35.5 -0.5 q35.5 0 35.5 0.5 q0 0.5 -14 24 q-14 23.5 -14 24 q0 0.5 16 0.5 l16 -1 l25 -40 q24 -40 24 -40.5 q0 -0.5 -3.5 -2.5 q-3.5 -2 -8.5 -2 q-6 0 -11 2.5 q-5 2.5 -11 8.5 l-7 6 l-15 0 l-16 0 l0 -34 l0 -34 l27 0 l27 0 l0 -10 l0 -9 l-27 -1 l-26 0 l-1 -33 q-1 -30 -1 -33 l7 1 q6 1 18 4 q20 5 27 6 q1 1 2 -1 q1 -2 2 -9 q3 -10 2 -11 l-36 -8 q-36 -9 -43 -12 q-6 -3 -16 -3.5 q-10 -0.5 -42 -7.5 q-33 -8 -35 -7 q-1 0 -3 10 l-2 10 q1 1 38 9 l38 9 l0 38 l0 38 l-32 0 l-32 1 l0 9 l0 10 l32 0 l33 0 l0 34 l0 34 l-17 0 q-17 0 -22.5 -1.5 q-5.5 -1.5 -12 -1.5 q-6.5 0 -12.5 4 l-6 3 q0 1 28 46 q8 13 21 34.5 q13 21.5 16 24.5 l9 15 l-33 0 l-32 1 l0 9 l0 10 l88 0 ZM370 323 l20 0 l0 -108 q0 -109 -2 -117 q-1 -7 -4 -13 q-2 -5 -6 -10 q-4 -5 -10 -8 q-6 -3 -12 -3 l-6 0 l0 130 l0 129 l20 0 Z" /><glyph glyph-name="uni505A" unicode="&#x505a;" d="M175 387 l28 0 l-5 -10 q-4 -6 -17 -31 q-13 -21 -17 -27 q-5 -7 -9 -11 l-3 -5 l0 -138 q0 -138 -2 -144 q-2 -7 -4 -11 q-2 -5 -8 -10 q-5 -5 -11 -7 q-6 -3 -12 -2 l-6 0 l0 137 q-1 137 -1.5 137 q-0.5 0 -9.5 -5 l-16 -10 q-8 -4 -18 -8 q-9 -3 -19 -7 q-8 -3 -19 -6 q-10 -3 -11 -3 q-1 0 -1 7 l0 7 l12 6 q12 7 23 15 q13 8 21 15 q8 6 22 20 q12 13 20 23 q6 10 10 16 q4 8 14 29 l11 23 l28 0 ZM251 377 l18 -1 l0 -42 l0 -43 l30 0 l31 0 l0 -8 l0 -8 l-31 0 l-30 0 l0 -25 q0 -25 -1 -34 q-2 -9 -5 -15 l-4 -7 l4 -1 q4 0 9 0 l14 0 l0 6 l0 6 l18 0 l19 0 l0 -73 q0 -34 -0.5 -55.5 q-0.5 -21.5 -1.5 -24.5 q-1 -7 -3 -12 q-2 -5 -6 -10 q-5 -5 -9 -7 q-5 -2 -11 -2 l-6 0 l0 18 l0 19 l-33 0 l-34 0 l-1 -8 q-1 -7 -4 -12 q-3 -5 -8 -10 q-5 -5 -10 -6 q-4 -1 -8 -1 l-5 1 l0 91 l0 91 l18 0 l18 1 l0 -6 l0 -6 l6 0 l6 0 l0 41 l0 41 l-30 0 l-30 0 l0 8 l0 8 l30 0 l30 0 l0 42 q0 42 1 43 q1 1 19 1 ZM253 177 l-34 0 l0 -50 l0 -51 l34 0 l33 0 l0 51 l0 50 l-33 0 ZM367 374 q1 3 20 3 q19 0 19.5 -1 q0.5 -1 -6.5 -31 q-6 -27 -7 -33 l-1 -5 l53 0 l52 0 l0 -9 l0 -10 l-8 0 q-9 0 -9 -3 q-2 -8 -6 -42 q-6 -43 -8 -54 q-2 -14 -7 -31 q-6 -19 -12 -34 q-7 -18 -7 -18.5 q0 -0.5 6 -8.5 q6 -7 23 -23 l17 -17 l-2 -38 q-1 -15 -1.5 -26 q-0.5 -11 -0.5 -12 l-1 0 l-2 2 q-2 3 -6 7.5 q-4 4.5 -7 8.5 q-13 16 -22 25 q-5 6 -14 17 q-8 10 -11 14 l-4 6 l-7 -10 q-7 -10 -18 -22.5 q-11 -12.5 -22 -22.5 q-11 -10 -20 -17 q-7 -5 -17 -12 q-8 -5 -12 -5 q-4 0 -6 1 q-3 1 6 8.5 q9 7.5 17 16.5 q8 9 15 17 q6 8 15 21 q9 13 15 23 q7 12 11 20 q5 10 5 12 q0 2 -5.5 15 q-5.5 13 -11.5 29 q-6 17 -9 30 q-3 11 -7 28 q-4 15 -7 29 q-3 15 -3.5 16 q-0.5 1 -5.5 -3 q-5 -4 -10 -7 q-5 -3 -11 -2.5 q-6 0.5 -6.5 1 q-0.5 0.5 10.5 25.5 q10 24 17 45 q6 20 12 47 q6 28 7 30 ZM413 288 l-27 0 l-4 -9 q-3 -7 -10 -18 l-7 -11 l5 -12 q5 -12 11 -25 q5 -13 16 -35 q11 -23 15 -30 l4 -7 l1 4 q2 4 5 18 q5 17 7 29 q2 12 7 54 q4 41 4 41.5 q0 0.5 -27 0.5 Z" /><glyph glyph-name="uni513F" unicode="&#x513f;" d="M302 392 l22 0 l0 -180 l-1 -180 l-2 -7 q-3 -6 -3 -7 q0 -1 57 -1 l56 0 l0 27 l0 27 l16 0 l16 0 l0 -17 q0 -17 -1 -22.5 q-1 -5.5 -3.5 -12 q-2.5 -6.5 -7.5 -12 q-5 -5.5 -11 -8.5 l-5 -2 l-78 0 l-77 1 l0 197 l-1 197 l23 0 ZM184 387 l21 0 l0 -129 q0 -129 -1.5 -136.5 q-1.5 -7.5 -3.5 -14.5 q-3 -8 -7.5 -17.5 q-4.5 -9.5 -11.5 -19.5 q-7 -10 -15.5 -20.5 q-8.5 -10.5 -21.5 -22.5 q-12 -11 -22 -18 q-11 -8 -23 -16 q-12 -7 -29 -16 q-16 -8 -19 -9 q-2 0 -2.5 0.5 q-0.5 0.5 -0.5 2.5 q0 4 7 9 q8 6 21 16 q15 12 32 29 q17 16 25 26 q7 8 14 19 q6 10 11 20 l3 9 l1 144 l0 144 l22 0 Z" /><glyph glyph-name="uni5143" unicode="&#x5143;" d="M265 370 l152 0 l0 -9 l0 -10 l-152 0 l-153 0 l0 10 l0 9 l153 0 ZM256 266 l199 0 l0 -9 l0 -9 l-66 0 l-66 -1 l0 -89 l-1 -90 l-4 -13 q-3 -12 -5 -18 q-3 -6 -3 -7 q0 -1 57 -1 l57 0 l1 9 q0 10 3 16 q3 6 7.5 9.5 q4.5 3.5 10.5 6 q6 2.5 7.5 2.5 q1.5 0 1.5 -30 l0 -31 l-87 0 l-87 0 l0 118 l0 119 l-32 0 l-31 0 l0 -37 q0 -36 -1 -49 q-2 -12 -4 -26 q-3 -14 -8 -29 q-6 -16 -11.5 -26.5 q-5.5 -10.5 -11.5 -21.5 q-7 -10 -13 -17 q-6 -7 -15.5 -15 q-9.5 -8 -20.5 -15 q-11 -6 -22 -11 q-9 -4 -22.5 -7.5 q-13.5 -3.5 -20.5 -4 q-7 -0.5 -9 0.5 q-2 1 3 4 q2 1 5 3 q12 6 22 14 q11 7 23.5 19.5 q12.5 12.5 20.5 23.5 q7 11 13 21.5 q6 10.5 10 19.5 q4 9 8 21 q4 12 7 26 q3 14 3 60 l1 46 l-59 0 l-59 0 l0 9 l0 9 l199 0 Z" /><glyph glyph-name="uni5148" unicode="&#x5148;" d="M257 387 l22 0 l1 -47 l0 -48 l72 0 l72 -1 l0 -9 l0 -9 l-72 0 l-72 0 l-1 -26 q0 -26 -2 -32 l-4 -10 q-2 -5 -7 -11 l-4 -5 l95 0 l95 0 l0 -10 l0 -10 l-68 0 l-67 0 l0 -72 q-1 -73 -3 -80 q-2 -6 -6 -11 q-2 -3 -2.5 -4.5 q-0.5 -1.5 0.5 -1.5 q1 -1 63 0 l63 0 l0 3 q0 4 1.5 11 q1.5 7 3.5 12 q3 5 8 10 q5 4 11 7 q6 3 7 2.5 q1 -0.5 1 -32.5 l0 -32 l-96 0 l-95 0 l0 94 l0 94 l-28 0 l-27 0 l-1 -15 q-1 -15 -3 -31 q-2 -15 -5 -28 q-3 -12 -7 -23 q-4 -10 -9 -21 q-5 -11 -11 -20 q-6 -9 -12 -17 l-13 -13 q-7 -6 -13 -9 q-5 -3 -12 -7 q-6 -3 -15 -6 q-10 -3 -21 -5 q-11 -2 -14 -1 q-3 2 4 5 l16 8 q8 6 17 15 q9 9 15.5 19 q6.5 10 11.5 20 q6 11 11 25 q4 14 8 27 q3 12 5 26 q2 14 3 33 l1 18 l-64 1 l-63 0 l0 9 l0 9 l94 0 l94 1 l0 42 l0 42 l-35 0 l-35 0 l-6 -8 q-6 -10 -12 -17 q-8 -9 -15.5 -15 q-7.5 -6 -16.5 -11 q-8 -5 -19 -9 q-12 -4 -16 -4 q-6 -1 -6 1.5 q0 2.5 9 11.5 q8 10 15 20 q6 8 15 23 q8 14 13 27 q6 14 10 25 q3 11 6 25 q3 14 3 16 q0 3 1 3 q1 1 22 -1 q21 -2 22 -3 q1 -1 0 -11 q-2 -8 -5 -22 q-4 -13 -7 -22 q-4 -9 -4 -10 q0 -1 31 -1 l30 0 l0 48 l0 48 l22 0 Z" /><glyph glyph-name="uni5149" unicode="&#x5149;" d="M266 379 l21 0 l0 -77 l0 -76 l-3 -7 q-3 -6 -7 -12 l-5 -7 q1 -1 91 -1 l90 0 l0 -9 l0 -9 l-70 0 l-70 0 l-1 -80 q0 -79 -3 -86 q-2 -7 -5 -11 q-3 -4 -3 -5 q0 -1 62 -1 l61 0 l0 21 q1 21 4 28 q3 7 9 12 q5 6 10 8 q5 2 6.5 2 q1.5 0 1.5 -45 l0 -44 l-93 0 l-93 0 l0 100 l0 101 l-22 0 l-22 0 l0 -13 q0 -13 -2 -28 q-2 -16 -3.5 -24.5 q-1.5 -8.5 -4.5 -19.5 q-3 -11 -7 -22 q-4 -11 -10 -23 q-5 -11 -12 -20 q-8 -10 -13 -15 q-5 -6 -14 -12 q-9 -7 -16 -10.5 q-7 -3.5 -14 -6.5 q-7 -2 -18 -5 q-10 -2 -13 -2 q-4 0 -6 1.5 q-2 1.5 4 3.5 q7 3 15 8 q8 6 17 15 q9 9 16 19 q6 9 12 22 q6 12 11 27 q5 17 8 29 q3 14 4.5 28 q1.5 14 2.5 31 l0 16 l-62 0 l-63 1 l0 9 l0 9 l93 0 l93 1 l1 88 q0 89 1 90 q0 1 21 1 ZM140 324 l27 0 l3 -9 q2 -11 7 -22 q4 -11 11 -24 q7 -13 16 -25 l8 -13 l-10 0 q-11 0 -15 3 q-5 3 -14.5 10.5 q-9.5 7.5 -18.5 17.5 q-7 9 -16 20 q-7 10 -15 24 q-8 14 -9 16 q0 2 3 2 l23 0 ZM379 324 l27 0 l-5 -10 q-5 -9 -15 -25 q-10 -14 -18 -24 q-8 -9 -16 -16 q-6 -6 -15 -13 l-9 -5 l-10 0 l-10 0 q0 1 10 16 q10 15 16 28 q7 14 10 21 q3 9 5 18 l3 10 l27 0 Z" /><glyph glyph-name="uni514D" unicode="&#x514d;" d="M216 378 l28 0 l-1 -4 q-5 -11 -6 -13 q-5 -11 -8 -17 q-4 -7 -3.5 -7.5 q0.5 -0.5 38.5 -0.5 l38 0 l7 7 q6 6 10 9 l4 3 l19 -13 q20 -14 21 -14 l-5 -5 q-7 -3 -18 -11 q-13 -10 -25 -22 q-13 -11 -29 -27 l-15 -14 l46 0 l47 0 l0 6 l0 6 l21 0 l22 0 l0 -50 q0 -49 -1.5 -55.5 q-1.5 -6.5 -4.5 -11.5 q-2 -4 -6 -8.5 q-4 -4.5 -10 -7.5 q-6 -3 -13 -3 l-8 0 l0 8 l0 9 l-30 0 l-31 0 l0 -56 l0 -48 q0 -11 -2 -15 q-2 -8 -2 -10 l0 -2 l54 0 l54 0 l0 14 q1 14 3.5 20.5 q2.5 6.5 5.5 11.5 q2 3 6 7 q2 2 8 6 q6 2 13 2 l7 0 l0 -46 l0 -46 l-21 0 l-22 0 l0 6 l0 7 l-61 0 q-61 0 -65 -2.5 q-4 -2.5 -10 -2.5 l-7 1 l0 76 l-1 77 l-8 0 q-8 0 -8 -1 q0 -2 -4 -26 q-5 -25 -8 -33 q-3 -8 -7 -15 q-3 -6 -10 -18 q-8 -10 -19 -22 q-12 -12 -20 -17 q-8 -6 -18.5 -11 q-10.5 -5 -21.5 -9 q-10 -3 -22 -5 q-13 -3 -30 -4 l-18 0 l-2 5 l-2 6 l10 2 q9 1 18 3 q9 3 16 6 q9 3 16 8 q8 5 14 9 q6 5 15 15 q10 10 14 16 q4 6 10 16 q5 10 9 20 q5 9 9 30 q4 21 4 22 l0 3 l-28 0 l-27 0 l-4 -5 q-4 -5 -10 -8.5 q-6 -3.5 -14 -3.5 l-9 0 l0 52 q0 52 -1 52 l-10 -4 q-8 -4 -21 -8 q-11 -4 -12 -2.5 q-1 1.5 -2.5 7 q-1.5 5.5 0 6.5 q1.5 1 12 8.5 q10.5 7.5 22.5 17 q12 9.5 27 25.5 q15 16 22 24 q7 10 16 23 q9 13 18 33 l10 19 l27 0 ZM249 318 l-36 0 l-2 -5 q-2 -3 -12 -15 q-8 -11 -20 -22 q-10 -10 -18 -16 q-8 -6 -8 -7 q-1 -1 -1 -2.5 q0 -1.5 45 -1.5 l46 0 l0 4 q0 4 6 14 q5 10 13 20 q8 11 15 20 q8 9 8 10 q0 1 -36 1 ZM183 231 q-30 0 -31 -1 l0 -35 l0 -34 l25 0 l26 0 l0 4 q1 1 5 31 q4 30 4 32 l0 3 l-29 0 ZM314 231 l-51 0 l-1 -3 q-1 -3 -5 -32 q-5 -28 -6 -33 l11 -1 q8 -1 45 -1 l57 0 l0 35 l0 35 l-50 0 Z" /><glyph glyph-name="uni5151" unicode="&#x5151;" d="M137 383 q4 0 12 -1 q10 -1 19.5 -3 q9.5 -2 17.5 -5.5 q8 -3.5 14 -7.5 q7 -5 13.5 -11 q6.5 -6 11.5 -13 q4 -7 4 -8.5 q0 -1.5 -13 -22.5 q-12 -19 -15 -24 q-2 -3 -3 1 q-1 2 -2 6 q-4 11 -9 21 q-6 11 -12 20 q-7 9 -16 19 q-10 9 -18 16 q-9 6 -9 9 q0 3 1 4 q1 1 4 0 ZM325 380 q5 3 6 3 q1 0 12 -28 q10 -26 10 -28 q0 -1 -6 -2 q-6 -2 -15 -6 q-8 -4 -16 -10 q-8 -6 -19 -17 q-11 -11 -11 -12 q0 -1 30 -1 l31 0 l0 3 l0 2 l26 0 l26 0 l0 -45 q0 -46 -1.5 -53.5 q-1.5 -7.5 -6.5 -16.5 q-4 -9 -11 -17 q-6 -7 -12 -9 q-5 -3 -28 -3 l-22 0 l0 -40 q0 -40 -2 -48.5 q-2 -8.5 -6 -17.5 l-4 -8 l59 0 l59 0 l0 26 l0 26 l26 0 l27 0 l0 -10 q0 -10 -2.5 -18.5 q-2.5 -8.5 -6 -16 q-3.5 -7.5 -7.5 -13.5 q-5 -6 -11 -10 l-5 -5 l-90 0 l-90 0 l0 67 l0 68 l-22 0 l-22 0 l0 -7 q-1 -6 -4 -19 q-4 -14 -7 -23 q-3 -9 -9 -20 q-5 -10 -11 -20 q-7 -9 -16 -19 q-8 -9 -17 -16 q-9 -7 -19 -13 q-10 -6 -18 -9 q-8 -4 -20 -8 q-11 -3 -23 -6 q-12 -2 -27 -4 q-14 -2 -14 -1 q-1 0 0 3 q1 2 22 12 q21 10 31 16 q13 8 25 16 q13 8 26 19 q11 9 18 17 q6 9 9 14.5 q3 5.5 10.5 34.5 q7.5 29 7.5 31 q0 2 -33 2 l-33 0 l0 72 l0 72 l26 0 l26 0 l0 -2 l0 -3 l51 0 l50 0 l2 8 q2 7 7 22 q5 14 12 28.5 q7 14.5 14 23.5 q6 8 10 12 q4 4 8 7 ZM259 259 l-88 0 l0 -36 q-1 -36 -4 -44 q-3 -10 -6 -14 q-2 -5 -2 -5.5 q0 -0.5 93 -0.5 l94 1 l0 49 l0 50 l-87 0 Z" /><glyph glyph-name="uni5165" unicode="&#x5165;" d="M235 387 l27 0 l4 -18 q0 -1 8 -32.5 q8 -31.5 13 -53.5 q17 -70 21 -82 q5 -12 12 -27 q8 -17 18 -31 q10 -14 17 -24 q7 -8 18 -21 q13 -15 26 -27 q16 -16 33 -30 q17 -14 27 -21 q8 -6 8 -8.5 q0 -2.5 -2 -8.5 q-1 -6 -2 -6 q-1 0 -14 8 q-14 7 -32 20 q-17 10 -33 23 q-16 12 -30 24 q-15 13 -29 27 q-14 14 -23 26 q-8 11 -17 23 q-7 12 -13 23 q-6 11 -6.5 11 q-0.5 0 -4.5 -11 q-4 -11 -11 -22 q-7 -13 -14 -23 q-7 -11 -16 -21 q-9 -11 -24 -26 q-17 -17 -28 -26 q-12 -10 -28 -22 q-16 -12 -34 -24 q-17 -11 -37 -22 q-18 -11 -21 -13 q-2 0 -3.5 4.5 q-1.5 4.5 -1.5 5.5 q0 1 19 15 q19 14 29 22 q11 10 21 19 q13 11 26 25 q13 14 22 24 q9 11 16 21 q9 12 15 21 q6 10 14 24 q7 14 11 26 q4 12 14 49 q11 38 11 39 q0 3 -16 60 q-16 58 -16 59 q0 1 26 1 Z" /><glyph glyph-name="uni5168" unicode="&#x5168;" d="M260 388 q24 0 24 -1 q1 0 -1 -2.5 q-2 -2.5 0 -5.5 q2 -3 9 -12.5 q7 -9.5 15 -18.5 q7 -9 25 -26 q17 -17 29 -26 q11 -10 24 -19 q10 -7 25 -16 q14 -8 29 -16 q19 -9 23 -10 l6 -3 l0 -18 q0 -17 -1 -17 q-2 0 -10 3 q-9 3 -21 9 q-13 6 -28 16 q-13 9 -28 20 q-13 11 -30 29 q-19 19 -30 33 q-13 16 -20 25 q-9 13 -16 25 l-9 15 q-1 0 -25 -31 q-23 -30 -35 -42 q-11 -11 -23 -21 q-13 -11 -25 -20 q-12 -9 -29 -21 q-15 -10 -36 -21 q-17 -10 -32 -18 q-12 -6 -18 -5 q-1 0 -7 2 l13 11 q14 9 32 23 q19 14 33 25 q14 12 36 34 q20 21 28 30 q5 8 27 39 q20 30 21 30 q2 1 25 1 ZM264 196 l137 0 l0 -10 l0 -10 l-58 0 l-58 0 l0 -35 l0 -34 l48 -1 l48 0 l1 -10 l0 -10 l-48 0 l-49 0 l0 -36 q0 -36 -2.5 -43 q-2.5 -7 -4.5 -11 q-2 -4 -2 -4.5 q0 -0.5 91 -0.5 l91 0 l0 -9 l0 -10 l-194 0 l-194 0 l0 10 l0 9 l86 1 l86 0 l1 47 l0 47 l-49 0 l-48 0 l0 10 l0 11 l48 0 l49 0 l0 34 l0 35 l-58 0 l-58 0 l0 10 l0 10 l137 0 Z" /><glyph glyph-name="uni516B" unicode="&#x516b;" d="M309 375 l24 0 l2 -23 q0 -4 1.5 -24.5 q1.5 -20.5 2.5 -31.5 q3 -36 4 -45 q2 -12 4 -26 q3 -14 8 -28 q6 -18 10 -25 q4 -9 12 -26 q8 -16 17 -29 l18 -27 q9 -13 19 -24 q10 -13 21 -25 q11 -13 14 -16 q2 -3 -1.5 -10 q-3.5 -7 -4 -7.5 q-0.5 -0.5 -15.5 12.5 q-16 15 -30 28 q-14 14 -26 28 q-11 11 -23 26 q-10 13 -22 31 q-12 18 -21 34 q-8 16 -12 27 q-4 10 -7 20 q-3 10 -5 20 q-1 9 -3 28 q0 2 -1.5 17.5 q-1.5 15.5 -2.5 22.5 q0 5 -0.5 11 q-0.5 6 -1 10.5 q-0.5 4.5 -0.5 5.5 q0 6 -2 25 q-2 19 -2 20 q0 1 23 1 ZM215 365 l23 0 l-1 -8 q-1 -4 -6 -63 q-4 -54 -6 -65 q-2 -12 -4 -22 q-3 -9 -7 -20 q-4 -11 -10 -23 q-5 -11 -10 -20 q-5 -8 -13 -20 q-7 -11 -16 -23 q-8 -11 -18 -23 q-10 -12 -32 -33 q-20 -21 -36 -35 q-15 -13 -23 -20 q-7 -5 -7.5 -5 q-0.5 0 -3.5 5 l-2 5 l11 11 q9 10 19 21 q7 8 16 19 q6 7 20 25 q11 15 21 32 q9 13 21 36 q10 22 17 41 q6 19 9 34 q3 13 5 35 q0 4 0.5 10.5 q0.5 6.5 1 10.5 q0.5 4 0.5 5.5 q0 1.5 0.5 6.5 q0.5 5 1 12.5 q0.5 7.5 1.5 13.5 q2 28 4 42 l1 15 l23 0 Z" /><glyph glyph-name="uni516D" unicode="&#x516d;" d="M252 361 l22 0 l-1 -11 q0 -10 -3 -18 q-2 -7 -5 -11 q-3 -4 -3 -5 q0 -1 91 -1 l91 0 l0 -9 l0 -9 l-190 0 l-189 0 l0 9 l0 9 l82 0 l82 0 l0 22 q0 22 1 23 q1 1 22 1 ZM302 279 q23 0 23 -3 q1 -3 2 -11 q1 -11 3 -24 q3 -14 7 -27 q4 -12 10.5 -26 q6.5 -14 13.5 -27 q7 -13 18 -29 q11 -17 21 -31 q10 -12 21 -25 q10 -12 17 -19 l8 -8 l0 -12 l0 -11 l-3 2 q-5 3 -21 17 q-17 14 -36 34 q-20 20 -31 33 q-12 14 -19 24 q-6 7 -14 19 q-8 11 -13 22 q-7 12 -10 19 q-4 8 -8 18 q-3 11 -6 23 q-3 12 -4 23 q-2 14 -2 15 l-1 4 l24 0 ZM168.5 260.5 q0.5 1.5 22.5 1.5 q22 0 22.5 -1 q0.5 -1 -2.5 -31 q-2 -30 -5 -44 q-3 -14 -7 -25 q-4 -12 -10.5 -25 q-6.5 -13 -15.5 -27 q-8 -13 -21 -30 q-12 -17 -20 -25 q-12 -14 -16 -18 q-9 -9 -25 -24 q-15 -15 -16 -15 q-1 0 -1 8 l0 8 l10 12 q10 13 18 25 q9 13 17 27 q8 15 14 27 q8 15 13 29 q6 16 10 31 q3 14 5 27 q2 15 4 40 q3 28 3.5 29.5 Z" /><glyph glyph-name="uni5177" unicode="&#x5177;" d="M163 375 l20 0 l0 -6 l1 -6 l71 0 l71 0 l0 6 l0 7 l21 -1 l21 0 l0 -126 q0 -127 -1 -132 l0 -4 l44 0 l44 -1 l0 -9 l0 -9 l-48 0 l-48 0 l-5 -5 q-5 -5 -11.5 -7.5 q-6.5 -2.5 -11.5 -2.5 l-5 0 l0 7 l0 7 l-76 1 l-75 0 l-6 -5 q-5 -5 -11 -7 q-7 -3 -11 -3 l-5 1 l-1 7 l0 6 l-42 1 l-42 0 l0 9 l0 9 l42 1 l42 0 l0 130 q0 130 1 131 q0 2 21 1 ZM255 344 l-71 0 l0 -21 l0 -20 l71 0 l71 0 l0 20 l0 21 l-71 0 ZM255 283 l-71 0 l0 -20 l0 -20 l71 0 l71 0 l0 20 l0 20 l-71 0 ZM255 224 l-71 0 l0 -24 l0 -24 l71 0 l71 1 l0 23 l0 24 l-71 0 ZM255 157 l-71 0 l-1 -20 q0 -21 -1 -22 q0 -1 2 -1.5 q2 -0.5 10 -0.5 l22 0 l38 0 l72 0 l0 22 l0 22 l-71 0 ZM195 67 q3 5 4 5 q1 0 16 -7 q14 -7 14 -8 q0 -1 -4.5 -9.5 q-4.5 -8.5 -14.5 -18.5 q-10 -10 -22 -16 q-12 -6 -22 -8 q-8 -2 -19 -3 q-9 -1 -22 -1 q-12 0 -13 1 q-1 1 1 2 q1 2 6 3 q5 1 13.5 4 q8.5 3 17.5 9 q9 5 19 15 q9 8 16 17 q6 8 10 15 ZM295 61 q6 0 16 -2 l22 -4 q10 -3 19 -6 q7 -2 17 -8 q11 -5 18 -12 q6 -6 10 -11 q3 -6 3 -7 q0 -2 -12 -14 q-4 -4 -7 -6.5 q-3 -2.5 -5 -3.5 l-1 -2 q-1 0 -4.5 6.5 q-3.5 6.5 -10 15 q-6.5 8.5 -13.5 15 q-7 6.5 -18 13.5 q-9 6 -25 14 q-16 8 -16 10.5 q0 2.5 7 1.5 Z" /><glyph glyph-name="uni517B" unicode="&#x517b;" d="M196 409 l22 0 l0 -27 q0 -26 -2 -28.5 q-2 -2.5 -8 -5.5 q-6 -2 -20 -3 l-14 0 l0 32 l0 32 l22 0 ZM308 409 l22 0 l-1 -28 l0 -27 l-4 -3 q-3 -3 -8 -4 q-4 -1 -17 -2 l-14 0 l0 32 l0 32 l22 0 ZM255 340 l187 0 l0 -8 l0 -8 l-95 0 l-95 0 l-2 -4 q0 -2 -1 -5 q-1 -3 -3 -8 q-2 -5 -3 -9 q-6 -16 -6 -17 q0 -1 79 -1 l80 0 l-1 -8 l0 -9 l-82 0 l-82 -1 l-6 -20 q-7 -20 -7 -20.5 q0 -0.5 116 -0.5 l115 0 l0 -8 l0 -8 l-69 0 l-35 0 q-13 0 -21 -0.5 q-8 -0.5 -11 -0.5 q-3 0 -3 -1 q1 -1 11 -10 q11 -10 23 -19 q13 -9 28 -18 q14 -9 30 -17 q16 -8 23 -10 q9 -3 19 -5 q11 -2 22 -1 l12 0 l1 -18 q1 -18 0.5 -18.5 q-0.5 -0.5 -14.5 2.5 q-14 4 -30 8 q-15 5 -25 9 q-10 3 -25 10 q-15 7 -25 14 q-9 5 -20 14 q-11 9 -23 21 q-14 13 -24 24 q-6 8 -12 14 q-2 2 -36 2 q-34 0 -35 -2 q-2 -1 -8.5 -13 q-6.5 -12 -13.5 -21 q-7 -9 -21 -23 q-14 -14 -24 -22 q-10 -7 -19 -13 q-10 -6 -21 -12 q-12 -7 -25 -13 q-12 -5 -26 -10 q-14 -5 -15 -5 q-1 0 -4 6 l-2 5 l11 4 q11 4 22 9 q11 6 24 15 q13 8 25 18 q11 10 21 21 q10 12 16 21 q7 9 14 21 q7 12 6.5 13 q-0.5 1 -62.5 1 l-62 0 l0 8 l0 8 l67 0 l67 0 l5 12 q4 11 7 20 q3 8 3 9 q0 1 -51 1 l-50 0 l0 8 l0 9 l53 0 l53 0 l7 21 q6 21 6 23 l-72 0 l-73 0 l0 8 l0 8 l187 0 ZM201 151 l23 0 l-1 -48 q0 -48 -2 -57 q-3 -10 -5 -18 q-3 -9 -8 -19 q-5 -10 -12 -20 q-8 -10 -14 -16 q-7 -6 -14 -11 l-12 -8 l-5 -3 l-3 6 l-3 5 l6 7 q7 8 10 14 q4 7 7.5 16 q3.5 9 5.5 21 q3 12 4 25 q1 15 1 61 l0 45 l22 0 ZM308 151 l21 -1 l0 -82 q1 -81 0 -88 q-1 -6 -4.5 -11 q-3.5 -5 -9.5 -9 q-6 -3 -13 -6 q-5 -2 -11 -3 l-5 -1 l0 101 l0 100 l22 0 Z" /><glyph glyph-name="uni5185" unicode="&#x5185;" d="M274 392 l22 0 l0 -35 q-1 -35 -2 -45 l0 -10 l42 0 q43 0 43 2 q0 2 21 2 l21 0 l0 -149 q0 -80 -0.5 -116 q-0.5 -36 -0.5 -40 q-2 -5 -5 -12 q-3 -7 -7 -12 q-5 -4 -10.5 -7 q-5.5 -3 -12.5 -3 l-6 0 l0 86 q0 26 -0.5 42 q-0.5 16 -0.5 26 l0 13 q0 4 -0.5 4 q-0.5 0 -3 -1 q-2.5 -1 -6.5 -2.5 q-4 -1.5 -8 -3.5 q-15 -6 -16 -6 q-1 0 -5 8 l-10 18 q-6 10 -14 23 q-8 11 -15 19 q-6 9 -4 9 q3 1 12 -1 q8 -2 17 -6 q9 -3 16 -8 q8 -5 15 -12 q7 -7 13 -17 q2 -2 4 -5 q2 -3 3 -5 l1 -2 l1 67 l1 69 l-45 0 l-44 0 l-1 -4 q-1 -4 -5 -16 q-3 -11 -11 -29 q-8 -16 -15.5 -27 q-7.5 -11 -16.5 -22.5 q-9 -11.5 -18 -19.5 q-8 -8 -20 -18 q-11 -9 -22 -16 q-11 -8 -23 -15 q-13 -7 -18 -9 l-6 -3 l-1 -50 q0 -50 -3 -57 q-2 -7 -5 -12 q-3 -5 -8 -9 q-5 -4 -10 -6 q-5 -2 -11 -1 l-5 0 l-1 169 l0 169 l22 0 q21 0 21 -2 q0 -2 58 -2 l58 0 l1 7 q1 7 1 24 q0 18 1 38 l0 21 l22 0 ZM190 282 l-57 0 l0 -83 q0 -83 1 -83 q1 0 10 7 q11 9 19 16 q9 8 18 18 q8 9 16 19 q6 8 14 20 q7 10 14 23 q7 15 10 24 q5 11 8 24 q3 13 3 14 q0 1 -56 1 Z" /><glyph glyph-name="uni518D" unicode="&#x518d;" d="M343 374 l105 1 l0 -10 l0 -10 l-86 0 l-85 0 l0 -31 l0 -30 l44 0 l45 0 l0 9 l0 10 l20 0 l19 -1 l1 -88 l0 -89 l22 0 l22 0 l0 -10 l0 -9 l-22 0 l-22 0 l0 -44 q0 -43 -1 -51 q-1 -7 -4 -14 q-2 -6 -7 -12 q-5 -6 -10 -8 q-6 -2 -12 -2 l-6 0 l0 65 l0 66 l-109 0 l-110 0 l0 -66 l0 -65 l-6 0 q-7 0 -10.5 1.5 q-3.5 1.5 -9 6.5 q-5.5 5 -8.5 10 q-3 6 -4 13 q-2 8 -2 54 l0 46 l-22 0 l-22 0 l0 9 l0 10 l22 0 l22 0 l0 89 l0 89 l20 0 l20 -1 l0 -9 l0 -9 l45 0 l45 0 l0 30 l0 30 l-88 0 l-89 0 l0 10 l0 9 l89 1 l194 0 ZM192 275 l-45 0 l0 -30 l0 -30 l45 0 l45 0 l0 30 l0 30 l-45 0 ZM321 275 l-45 0 l0 -30 l0 -30 l45 0 l45 0 l0 30 l0 30 l-45 0 ZM192 196 l-45 0 l0 -31 l0 -30 l45 0 l45 0 l0 30 l0 31 l-45 0 ZM321 196 l-45 0 l0 -22 q-1 -22 -3 -29 q-1 -1 -1.5 -3 q-0.5 -2 -1 -3 q-0.5 -1 -0.5 -2 l7 -2 l40 0 l49 0 l0 30 l0 31 l-45 0 Z" /><glyph glyph-name="uni519C" unicode="&#x519c;" d="M326 383 q33 0 33 -1 q0 -1 -19 -40 q-22 -43 -25 -49 l-6 -11 l54 0 l53 0 l0 5 l0 4 l16 1 q13 0 20 1 q5 0 5 -4 l1 -7 q2 -6 3 -11 q3 -13 7 -22 q3 -8 5 -11 q1 -2 1 -4 q0 -2 -8 1 q-9 3 -14 6 q-7 3 -14 8.5 q-7 5.5 -10 9.5 l-3 4 l-64 0 l-64 0 l-4 -6 l-4 -6 l10 -19 q9 -18 17 -32 q8 -15 20 -32 q12 -18 13.5 -19 q1.5 -1 10.5 4 q8 5 18 12 q10 7 22 18 q12 10 25.5 23 q13.5 13 15.5 11 q5 -4 18 -15 q14 -12 18 -15 q1 -2 -7 -7 q-6 -4 -29 -17 q-18 -12 -34 -19 q-14 -8 -22 -10 q-8 -3 -13 -5 q-6 -1 -6 -2 q0 -1 11 -12 q9 -10 20 -21 q10 -9 21 -17 q11 -7 24 -14 q13 -6 24 -9 q9 -3 12 -3 q2 0 2 -3 q0 -3 -2 -29 q-2 -24 -3 -31 l-1 -4 l-7 4 l-30 18 q-21 12 -29 17 q-8 6 -17 13 q-9 7 -17 15 q-9 9 -18 20 q-9 11 -16 22 q-6 10 -13 22 q-7 12 -14 28 l-14 32 q-5 14 -14 38 l-7 23 l-3 -4 q-3 -4 -10 -13 q-10 -11 -17 -18 l-7 -9 l0 -86 q0 -88 -2 -96 q-2 -8 -5 -14 q-3 -6 -7 -10 q-4 -5 -9.5 -8 q-5.5 -3 -13.5 -3 l-7 0 l-1 89 l0 89 l-8 -6 q-10 -7 -22 -15 q-15 -9 -30.5 -18 q-15.5 -9 -33.5 -17 q-19 -9 -32 -14 q-16 -6 -22 -5.5 q-6 0.5 -12 1.5 l-5 0 l19 10 q19 9 32 17 q13 7 30 19 q17 12 31 22 q13 11 25 21 q11 10 25 24 q13 13 20 22 q7 8 16 20 q10 12 14 19 q6 9 6 9.5 q0 0.5 -39 0.5 l-39 0 l-7 -5 q-6 -6 -16 -11 l-15 -6 l-7 -2 q-1 1 4 10.5 q5 9.5 8 22.5 q3 14 4 20 l1 8 l17 -1 q17 -1 21 -2 q4 0 3.5 -3.5 q-0.5 -3.5 -1.5 -7.5 l-1 -4 l39 0 l40 0 l5 11 q5 10 9 22 q4 10 8 23 q4 13 6 23 q2 9 3 16 l1 6 l33 0 Z" /><glyph glyph-name="uni51B0" unicode="&#x51b0;" d="M309 387 l19 0 l0 -42 q0 -41 2 -52 q1 -9 4 -20 q2 -11 6 -23 q5 -12 11 -24 q7 -15 15 -28 q9 -14 16 -24 q9 -12 17 -23 q9 -11 16 -17 q8 -7 17 -15 q10 -7 17 -11 q6 -4 6 -5 l-3 -24 q-4 -25 -4 -26 q-1 -2 -2 -2 q-1 0 -15 11.5 q-14 11.5 -25 20.5 q-10 10 -21 24 q-13 15 -22 29 q-9 14 -17 29 q-7 14 -11 25 q-4 11 -6 13 l0 -13 q0 -12 -0.5 -34.5 q-0.5 -22.5 -0.5 -49.5 q0 -97 -1.5 -103.5 q-1.5 -6.5 -3.5 -11.5 q-3 -4 -7 -8.5 q-4 -4.5 -9.5 -7.5 q-5.5 -3 -11.5 -3 l-5 0 l0 208 l0 207 l19 0 ZM97 337 l41 0 l0 -9 l-1 -10 l-40 0 l-40 0 l0 9 l0 10 l40 0 ZM433 272 q22 0 22 -1 l-4 -8 q-4 -8 -9 -15 q-5 -7 -13 -14.5 q-8 -7.5 -18 -14.5 q-11 -7 -24 -13 q-13 -7 -14 -7 q-1 0 -1 10 l0 10 l9 10 q10 10 16 19 q7 11 10 17 l4 7 l22 0 ZM219 262 l45 0 l1 -3 q0 -4 -1 -37 q0 -34 -2 -43 q-2 -8 -5 -22 q-4 -13 -6 -19 q-1 -3 -7 -15 q-4 -9 -9 -17 q-4 -8 -12 -18 q-7 -9 -15 -17 q-8 -7 -17 -14 q-8 -6 -21.5 -12.5 q-13.5 -6.5 -16.5 -7.5 q-3 0 -3.5 0.5 q-0.5 0.5 -0.5 3.5 q0 5 14 19 q14 13 23.5 24.5 q9.5 11.5 14.5 19.5 q5 8 12 23 q7 14 10.5 23.5 q3.5 9.5 5.5 21.5 q1 12 1 41 l0 30 l-28 0 l-28 0 l0 10 l0 9 l45 0 ZM99 227 l21 0 l0 -86 q0 -62 -0.5 -75.5 q-0.5 -13.5 -2.5 -19.5 q-2 -9 -5 -14 q-3 -5 -7 -9 q-5 -4 -10 -6.5 q-5 -2.5 -12 -2.5 l-6 1 l0 105 q-1 105 -0.5 106 q0.5 1 22.5 1 Z" /><glyph glyph-name="uni51B2" unicode="&#x51b2;" d="M326 400 l22 0 l0 -51 l0 -51 l25 0 l26 0 l0 8 l0 9 l22 0 l22 0 l-1 -81 q0 -82 -3 -89 q-2 -7 -6 -11 q-3 -5 -7 -8 q-4 -4 -8 -5 q-4 -2 -11 -2 l-8 0 l0 4 l0 3 l-25 0 l-26 0 l0 -52 q-1 -51 -3 -62 q-2 -8 -5 -19 q-3 -7 -7 -16 q-4 -8 -7 -12 q-2 -3 -6 -5.5 q-4 -2.5 -9 -2.5 l-6 1 l0 84 l-1 84 l-33 0 q-34 0 -34.5 -1 q-0.5 -1 -5.5 -3 q-5 -3 -13 -3 l-7 0 l0 98 l0 98 l21 0 l22 0 l0 -9 l0 -9 l25 0 l25 1 l0 51 l0 51 l22 0 ZM279 278 l-25 0 l0 -59 q0 -59 -1 -66 l-2 -8 l27 0 l26 0 l0 66 l0 67 l-25 0 ZM373 278 l-25 0 l0 -67 l0 -66 l25 0 l26 0 l0 66 l0 67 l-26 0 ZM110 281 l41 -1 l0 -9 l0 -9 l-41 0 l-40 0 l0 9 l0 10 l40 0 ZM112 157 l21 0 l0 -47 q0 -48 -1.5 -56 q-1.5 -8 -4.5 -15 q-4 -7 -8 -11 q-4 -4 -9 -7 q-5 -2 -13 -2 l-7 0 l0 69 l0 69 l22 0 Z" /><glyph glyph-name="uni51B7" unicode="&#x51b7;" d="M260 340 q30 34 31 34.5 q1 0.5 26 -9.5 q19 -6 27 -9 q2 -1 -6 -9 l-7 -7 l16 -18 q17 -20 24 -27 q9 -9 18 -16 q11 -7 19 -13 q9 -5 27 -14 q17 -8 30 -13 q11 -5 13 -5 q0 -1 -2 -6 l-2 -6 l-6 1 q-6 0 -16 2 q-12 2 -22 4 q-11 3 -24 8 q-14 6 -24 11 q-11 6 -21 13 q-11 7 -21 17 q-16 14 -24 22 l-13 12 l-17 -16 q-16 -17 -26 -23 q-10 -5 -18 -10 q-10 -4 -24 -10 q-15 -6 -31 -12 q-18 -6 -39 -12 q-23 -6 -25 -6 q-2 0 -8 4 l-4 3 l-1 2 q1 1 4 2 q4 1 17 6 q14 6 22 10 q7 3 20 11 q12 7 22.5 15 q10.5 8 22.5 18 q11 10 42 46 ZM76 326 l41 0 l0 -10 l0 -10 l-41 0 l-41 1 l-1 8 q0 7 1 9 q0 2 41 2 ZM303 259 l20 0 l0 -13 q0 -11 -2 -22 q-2 -9 -6 -18 q-3 -8 -7 -11 q-3 -4 -8 -8 q-5 -3 -12 -3 l-6 0 l0 38 l0 37 l21 0 ZM300 173 l91 0 l0 -13 q0 -12 -1.5 -12 q-1.5 0 -29.5 -44 q-28 -44 -28 -45 q0 -1 7 -6 q7 -4 15 -13 q8 -7 12.5 -14.5 q4.5 -7.5 4 -9.5 q-0.5 -2 -27 -17 q-26.5 -15 -27.5 -14 q-1 1 -3 7 q-2 5 -9 19 q-6 12 -14 23 q-7 9 -15 16 q-7 7 -14 12 q-6 4 -13 8 q-7 3 -11 4.5 q-4 1.5 -4 2.5 q0 1 1.5 2 q1.5 1 16.5 0 q15 -1 23 -2 l15 -3 q8 -2 8 -1 l23 36 q22 36 23 37 q0 1 -3 1 q-3 0 -10.5 0.5 q-7.5 0.5 -20.5 0.5 l-34 0 l-67 0 l0 11 l0 13 q1 1 92 1 ZM78 120 l22 0 l0 -48 q0 -48 -1.5 -54.5 q-1.5 -6.5 -4.5 -12 q-3 -5.5 -7 -10.5 q-5 -5 -10 -8 q-6 -2 -14 -2 l-8 0 l0 67 q0 67 0.5 67.5 q0.5 0.5 22.5 0.5 Z" /><glyph glyph-name="uni51C0" unicode="&#x51c0;" d="M231 374 q5 0 25 -1 l18 -1 l-3 -6 q-4 -6 -6 -10 q-3 -4 -3 -4.5 q0 -0.5 80 -0.5 q80 0 80 -1 q0 -1 -8 -11 q-7 -9 -19 -21 q-10 -11 -21 -19 q-11 -9 -25 -18 q-15 -10 -19 -12 l-4 -3 l27 0 l27 0 l0 5 l0 4 l21 0 l21 0 l0 -43 l0 -43 l16 0 q17 0 18 -3 l0 -9 l0 -7 l-17 -1 l-17 0 l0 -24 q-1 -24 -3 -31 q-2 -6 -6 -11 q-3 -5 -8 -8 q-4 -3 -8 -5 q-4 -2 -10 -2 q-7 0 -8 3 l0 2 l-30 1 q-31 0 -31 -1 l0 -31 q0 -30 -1 -38 q-1 -9 -3.5 -16 q-2.5 -7 -7.5 -12.5 q-5 -5.5 -11 -8.5 q-5 -2 -13 -2 l-7 0 l0 54 l0 55 l-56 0 l-56 0 l0 9 l0 9 l56 0 l56 0 l0 29 l0 28 l-55 1 l-54 0 l0 9 l0 9 l54 0 l55 1 l0 29 l0 29 l-56 0 l-56 0 l0 10 l0 9 l57 0 l56 0 l11 7 q13 9 17 12 q5 3 16 12 q9 8 23 21 q13 12 12 13 q-1 1 -53 1 l-52 0 l-8 -10 q-9 -10 -17 -18 q-9 -9 -16 -14 l-15 -10 q-6 -3 -16 -7 q-9 -3 -10 -3 q-2 1 -2 4 q0 3 9 11 q8 9 15 17 q8 10 11 17 q5 7 9 14 q3 7 7 18 q4 12 5 17 q1 4 1 6 q1 1 8 0 ZM349 247 l-31 0 l0 -29 l0 -29 l31 0 l31 0 l0 29 l0 29 l-31 0 ZM349 169 l-31 0 l0 -28 l0 -29 l31 1 l30 0 l0 28 l0 28 l-30 0 ZM97 325 l40 0 l0 -9 l0 -9 l-40 -1 l-40 0 l0 10 l0 10 l40 -1 ZM99 218 l21 0 l0 -83 q0 -83 -2 -91 q-2 -7 -4.5 -12.5 q-2.5 -5.5 -6.5 -9.5 q-3 -4 -9 -7 q-6 -3 -14 -4 l-7 0 l0 102 q-1 103 -0.5 104 q0.5 1 22.5 1 Z" /><glyph glyph-name="uni51C9" unicode="&#x51c9;" d="M303 387 l21 0 l-1 -5 l-2 -10 q-1 -5 -3.5 -9 q-2.5 -4 -5.5 -9 q-4 -5 -11 -8 q-8 -4 -14 -3 l-6 0 l0 21 q0 20 0.5 21.5 q0.5 1.5 21.5 1.5 ZM303 339 l145 0 l0 -10 l0 -9 l-145 0 l-146 0 l0 10 l0 9 l146 0 ZM101 325 l40 0 l0 -9 l0 -9 l-40 -1 l-41 0 l0 10 l0 10 l41 -1 ZM214 276 q21 0 22 -3 l0 -2 l67 0 l66 0 l0 3 q1 2 22 2 l21 0 l0 -51 q0 -52 -2 -58 q-2 -7 -4 -11 q-2 -5 -6 -9.5 q-4 -4.5 -10 -7.5 q-6 -3 -13 -3 l-8 0 l0 8 l0 8 l-22 0 l-23 0 l0 -67 q-1 -67 -3 -74 q-2 -7 -6 -16 q-5 -9 -9 -14 q-5 -6 -8.5 -7.5 q-3.5 -1.5 -10.5 -1.5 l-6 0 l0 90 l0 90 l-26 0 l-26 1 l-5 -6 q-6 -5 -11 -8 q-5 -3 -13 -3 l-7 0 l0 70 l0 70 l21 0 ZM303 251 l-67 0 l0 -36 q0 -36 -1 -40 l0 -3 l67 0 l67 0 l0 40 l0 39 l-66 0 ZM101 151 l22 0 l0 -66 q0 -65 -1 -71 q-1 -6 -4 -12 q-3 -5 -7 -10 q-4 -4 -10 -7 q-6 -3 -13 -3 l-8 0 l0 85 l0 84 l21 0 ZM214 118.5 q2 4.5 2.5 4.5 q0.5 0 3 -1 q2.5 -1 7.5 -4 l9 -4 q19 -9 19 -10 q0 -1 -4 -10 q-5 -8 -11 -17 q-7 -9 -18 -20 q-11 -11 -21.5 -18 q-10.5 -7 -19.5 -12 q-11 -5 -21 -8.5 q-10 -3.5 -11 -3.5 q-1 0 -2 2.5 q-1 2.5 10 14.5 q10 11 20 23 q8 11 16 23 q7 11 15 29 q4 7 6 11.5 ZM362 116 q7 -2 14 -5 q7 -3 16 -8 q9 -5 19 -14 q11 -9 19 -19 q9 -10 14 -19 q5 -9 6 -11 q0 -1 -3.5 -3.5 q-3.5 -2.5 -15.5 -7.5 q-20 -10 -21 -10 q-1 1 -4 8 q-2 8 -10 23 q-7 15 -17 30 q-10 15 -19 25 q-8 9 -6 11 q2 2 8 0 Z" /><glyph glyph-name="uni51FA" unicode="&#x51fa;" d="M256 387 l21 0 l0 -85 l0 -85 l43 0 l44 0 l0 50 l0 51 l21 0 l21 0 l0 -57 q-1 -57 -3.5 -65.5 q-2.5 -8.5 -6.5 -16.5 q-4 -8 -8.5 -13.5 q-4.5 -5.5 -8.5 -7 q-4 -1.5 -9 -1.5 l-6 0 l0 20 l0 21 l-44 0 l-43 0 l0 -72 q-1 -71 -3 -80 q-3 -9 -8 -18 l-5 -9 l59 0 l59 0 l0 66 l0 65 l21 1 l21 0 l0 -65 q0 -64 -2 -72 q-2 -8 -5 -14 q-2 -8 -6 -14 q-5 -6 -8 -9 q-4 -4 -6.5 -4.5 q-2.5 -0.5 -8.5 -0.5 l-6 1 l0 13 l0 13 l-126 0 l-127 0 l-3 -6 q-3 -7 -6 -10 q-3 -4 -8 -8 q-4 -3 -12 -3 l-7 0 l0 90 l1 90 l20 0 l21 0 l0 -67 l0 -66 l52 0 l51 0 l0 89 l0 90 l-43 0 l-43 -1 l-3 -6 q-2 -7 -7 -13 q-4 -7 -9 -11 q-5 -3 -12 -3 l-6 0 l0 81 l0 81 l21 -1 l20 0 l1 -54 l0 -54 l40 0 l41 0 l0 85 l0 85 l21 0 Z" /><glyph glyph-name="uni51FB" unicode="&#x51fb;" d="M268 370 l18 0 l0 -29 l0 -29 l75 0 l76 0 l0 -10 l-1 -9 l-75 0 l-75 -1 l0 -39 l0 -39 l82 0 l82 0 l0 -10 l0 -10 l-82 0 l-82 0 l0 -70 q0 -70 -2 -78 q-1 -7 -4 -12 q-3 -5 -2 -5.5 q1 -0.5 53 -0.5 q52 0 53.5 0.5 q1.5 0.5 1.5 58.5 l0 59 q1 2 19 2 l18 0 l0 -58 q0 -58 -2 -66 q-1 -7 -4 -13 q-2 -5 -6 -10 q-4 -5 -11 -8 q-7 -4 -10 -4 q-3 0 -3 1 q0 1 -1 7 l0 9 l0 2 q-1 2 -119 2 l-118 0 l-3 -5 q-4 -6 -7 -8 q-4 -3 -9 -5.5 q-5 -2.5 -8 -2.5 l-3 0 l0 79 l0 80 l18 0 l18 0 l0 -60 l0 -60 l47 0 l48 0 l0 83 l0 83 l-95 1 l-95 0 l0 9 l0 9 l95 1 l95 0 l0 39 l0 39 l-74 0 l-75 0 l0 10 l0 10 l75 0 l74 0 l0 29 l0 29 l18 0 Z" /><glyph glyph-name="uni5200" unicode="&#x5200;" d="M429 371 l21 0 l0 -153 l0 -116 q0 -39 -1 -43 q-1 -8 -4 -16 q-3 -9 -7 -16 q-3 -6 -8 -11 q-5 -5 -9 -6.5 q-4 -1.5 -9 -0.5 l-5 0 l-1 166 l0 166 l-68 0 l-68 0 l0 -78 q0 -79 -3 -91 q-2 -10 -6 -22 q-4 -11 -9 -21 q-5 -11 -11 -20 q-5 -8 -13 -18 q-7 -10 -18.5 -21.5 q-11.5 -11.5 -23.5 -20.5 q-11 -8 -23 -16 q-11 -7 -26 -15 q-15 -7 -29 -13 q-14 -6 -30 -11 q-17 -5 -17.5 -4.5 q-0.5 0.5 1 4.5 q1.5 4 12.5 9 q10 4 25 12 q15 8 25 15 q10 7 21 16 q9 7 19 16 q9 9 18 20 q9 11 15 20 q7 10 12 20 q5 11 10 25 q4 14 6 25 q2 10 3 90 l0 79 l-61 1 l-60 0 l-1 8 l0 9 l150 0 l150 0 l0 5 q0 6 1 6.5 q1 0.5 22 0.5 Z" /><glyph glyph-name="uni5206" unicode="&#x5206;" d="M308 391 q3 -1 5 -2 q3 -1 8 -14 q4 -11 9 -22 q5 -10 11 -21 q5 -9 13 -21 l14 -20 q9 -10 20 -21 q12 -11 19 -16 q6 -5 31 -22 q24 -16 24.5 -16.5 q0.5 -0.5 -3.5 -17.5 l-4 -18 l-10 6 q-9 7 -23 16 q-31 23 -40 32 q-7 8 -16 20 q-7 11 -15 24 q-7 12 -13 24 q-6 16 -12 28 q-6 15 -11 29 q-4 11 -7 23 l-3 10 l3 -1 ZM188 349 q19 32 20 32 q1 0 10 -3 q13 -5 20 -8 q11 -4 11 -5 q0 -1 -30 -39 q-20 -27 -54 -73 l-26 -33 l-15 -12 q-11 -8 -28 -20 q-16 -11 -28 -18 q-14 -10 -15 -10 q-1 0 -3 2 q-2 2 1 5 q3 2 11 9 q6 5 21.5 20.5 q15.5 15.5 24.5 25.5 q9 11 35 53 q27 46 45 74 ZM349 211 l22 0 l-1 -98 l0 -99 l-4 -8 q-3 -8 -9.5 -13.5 q-6.5 -5.5 -12.5 -8.5 q-6 -3 -12 -3 l-5 1 l-1 102 l0 101 l-38 0 l-38 0 l-1 -30 q0 -31 -2.5 -40 q-2.5 -9 -8.5 -21 q-6 -12 -12 -22 q-8 -10 -21 -24 q-14 -14 -25 -22 q-14 -11 -23 -16 q-9 -6 -29 -16 q-19 -9 -36 -16 q-16 -6 -23 -9 q-7 -2 -7 -1 q-1 0 1 4 q2 4 9 7 l21 9 q12 6 24 14 q9 5 19 13 q9 6 17 14 q8 7 16 15 q7 9 12 16 q5 7 10 17 q5 9 8 20 q4 11 6 20 q1 10 1 39 l0 29 l-35 1 l-35 0 l0 8 l0 9 l95 0 l95 1 l0 3 q0 3 1 4 l22 0 Z" /><glyph glyph-name="uni5207" unicode="&#x5207;" d="M148 387 l21 0 l0 -66 l0 -67 l5 1 q9 3 34 12 l29 9 l0 -14 l0 -15 l-34 -11 l-34 -11 l-1 -70 q0 -70 -1 -75 q-2 -5 -1.5 -5.5 q0.5 -0.5 9.5 2.5 q8 3 21 9 q13 7 16 7 l4 0 l-2 -4 q-2 -5 -7 -12 q-5 -8 -14 -16 q-9 -9 -18.5 -15 q-9.5 -6 -17.5 -10 q-7 -4 -10 -8 q-3 -4 -6 -5 q-3 -2 -9 -2 l-7 0 l0 95 l0 77 q0 17 -1 17 q-1 -1 -34 -11 q-32 -10 -32.5 -10 q-0.5 0 -0.5 14 l0 14 l34 11 l34 11 l0 73 q0 74 1 74.5 q1 0.5 22 0.5 ZM433 353 l21 -1 l1 -164 q0 -165 -1 -176 q-1 -10 -3.5 -18 q-2.5 -8 -7.5 -12 q-4 -5 -11 -8 q-7 -2 -14 -2 l-6 0 l0 172 l0 172 l-39 0 l-38 0 l0 -95 q0 -96 -1.5 -105 q-1.5 -9 -5.5 -21 q-4 -11 -10 -23 q-6 -11 -13 -22 q-6 -10 -20 -24 q-14 -13 -26.5 -21.5 q-12.5 -8.5 -25.5 -14.5 q-13 -7 -26 -11 q-14 -5 -15.5 -5 q-1.5 0 -0.5 5 q0 3 1.5 4.5 q1.5 1.5 8.5 5.5 q9 5 19 12 q8 7 20 18 q12 12 19 22 q5 8 12 19 q5 10 9 19 q5 11 8 23 l3 13 l1 101 l0 100 l-30 1 l-30 0 l0 13 l-1 13 l90 0 l90 0 l0 5 l1 5 l21 0 Z" /><glyph glyph-name="uni5219" unicode="&#x5219;" d="M434 393 l20 -1 l1 -188 q0 -188 -1 -195 q-1 -8 -3.5 -13.5 q-2.5 -5.5 -7.5 -10.5 q-4 -5 -10 -8 q-5 -3 -13 -3 l-8 0 l0 209 q0 208 0.5 209 q0.5 1 21.5 1 ZM125 373 l23 0 l0 -8 l0 -8 l44 0 l44 0 l0 8 l0 8 l23 0 l24 0 l0 -104 q0 -106 -2 -114 q-2 -8 -5 -16 q-4 -6 -8 -10.5 q-4 -4.5 -9.5 -7.5 q-5.5 -3 -14.5 -3 l-8 0 l0 109 l-1 109 l-43 0 l-43 0 l-1 -101 l0 -102 l-3 -7 q-4 -9 -7 -13 q-3 -4 -7 -8 q-4 -3 -9 -5 q-5 -3 -13 -3 l-8 0 l0 138 l0 138 l24 0 ZM361 335 l29 0 l0 -11 l0 -10 l-11 0 l-11 0 l0 -92 l0 -93 l-3 -7 q-2 -6 -7 -11 q-4 -5 -11 -9 q-6 -3 -10 -4 l-4 -1 l0 107 q0 110 -1 116 l0 12 l1 3 l28 0 ZM192 318 l22 0 l0 -95 q0 -95 -1 -106 q-2 -11 -4 -19 q-2 -6 -7 -17 q-4 -9 -10 -20 q-7 -12 -14 -21 q-8 -10 -21 -23 q-12 -12 -24 -20 q-10 -8 -24 -15 q-14 -7 -26 -10 q-12 -5 -15 -5 q-2 0 -7 2 l-4 1 l11 7 q11 7 19 13 q9 6 16 12 q6 6 15 17 q8 9 17 22 q8 11 14 24 q5 9 10 22 q4 12 8 25 l3 13 l0 96 l0 97 l22 0 ZM212.5 89 q1.5 3 2 3 q0.5 0 12.5 -4 q12 -4 23 -9 q10 -4 18 -9 q8 -4 17 -11 q9 -7 16 -15 q6 -6 11 -14 q4 -6 7 -12.5 q3 -6.5 3 -8.5 q0 -2 -26 -11 q-27 -9 -28 -9 q-1 0 -2 8 q-2 8 -3 14 q-2 7 -6 15 q-3 8 -9 17 l-10 16 q-6 7 -9 10 q-5 5 -11 10 q-7 7 -5.5 10 Z" /><glyph glyph-name="uni521B" unicode="&#x521b;" d="M199 387 q2 0 2 -1 q0 -1 -3 -8 l-3 -8 l10 -19 q9 -19 15 -27 q7 -9 17 -19 q11 -11 21 -18 q10 -7 20 -12 l9 -6 l0 -5 l0 -4 q0 0 -3 0 q-3 1 -17 5 q-12 4 -25 11 q-13 6 -20 11 q-8 5 -18 14 q-9 7 -17 17 q-7 8 -8 10.5 q-1 2.5 -3 -0.5 q-1 -2 -11 -15 q-8 -11 -21 -26 q-11 -12 -32 -33 q-21 -21 -34 -32 l-14 -11 l-3 3 l-2 3 l16 16 q16 16 26.5 28 q10.5 12 18.5 24 q7 9 14 20 q5 8 10 18 q4 8 6 15 q3 7 6 25 q4 19 4.5 19.5 q0.5 0.5 19.5 2.5 l19 2 ZM429 387 l21 0 l0 -189 q0 -189 -2 -197 q-2 -7 -5.5 -13 q-3.5 -6 -7.5 -9 q-4 -2 -10 -4.5 q-6 -2.5 -11 -2.5 l-6 0 l0 208 l0 207 l21 0 ZM349 315 l22 0 l0 -95 q0 -96 -2 -102.5 q-2 -6.5 -5 -11.5 q-2 -5 -7 -9.5 q-5 -4.5 -9 -6.5 q-5 -3 -13 -3 l-7 0 l-1 114 l0 114 l22 0 ZM184 238 l78 0 l0 -51 q0 -52 -2.5 -58.5 q-2.5 -6.5 -7.5 -12.5 q-4 -6 -10 -9 q-6 -4 -14 -4 l-8 0 l0 58 l0 57 l-36 0 l-37 0 l0 -100 q0 -42 -0.5 -72.5 q-0.5 -30.5 -0.5 -31.5 l-1 -3 l51 0 l51 0 l0 39 l0 39 l22 0 l22 0 l0 -32 q0 -18 -0.5 -27 q-0.5 -9 -1.5 -13 q-2 -8 -4 -13 q-2 -6 -7 -11 q-5 -6 -11 -8 q-5 -3 -12 -3 l-8 0 l0 5 l0 4 l-56 0 q-57 0 -60 -2 q-3 -2 -8 -4 q-4 -3 -12 -3 l-7 0 l0 127 q0 127 0.5 128 q0.5 1 79.5 1 Z" /><glyph glyph-name="uni522B" unicode="&#x522b;" d="M433 392 l22 0 l0 -194 q0 -194 -2 -201 q-3 -8 -6 -13 q-4 -5 -8 -8 q-5 -4 -10 -6 q-6 -2 -11 -1 l-6 0 l0 211 l0 212 l21 0 ZM122 384 l18 0 l0 -5 l1 -5 l52 0 l52 0 l0 5 l0 5 l19 0 l19 0 l0 -62 l-1 -62 l-3 -7 q-3 -6 -7 -9 q-4 -4 -10 -6 q-7 -3 -12 -2 l-4 0 l-1 13 l0 13 l-52 -1 l-53 0 l-2 -6 q-2 -6 -8 -11 q-6 -5 -12 -7 q-6 -2 -10 -2 l-4 0 l0 75 l0 74 l18 0 ZM193 355 q-52 0 -52.5 -1.5 q-0.5 -1.5 -0.5 -37.5 l1 -36 l52 0 l52 0 l0 38 l0 37 l-52 0 ZM356 335 l18 0 l0 -109 l-1 -110 l-3 -6 q-2 -7 -7 -12 q-5 -5 -11 -8 q-6 -2 -10 -3 l-3 -1 l0 124 l0 125 l17 0 ZM172 239 l21 0 l-1 -7 q0 -6 -2 -27 q-1 -20 -0.5 -20.5 q0.5 -0.5 27.5 -0.5 l28 0 l0 8 l0 8 l16 0 l16 0 l0 -86 q0 -57 -0.5 -72.5 q-0.5 -15.5 -1.5 -18.5 q-2 -6 -4 -10 q-3 -4 -6 -6 q-3 -2 -7 -3.5 q-4 -1.5 -8 -1.5 l-5 0 l0 82 l0 81 l-29 0 l-28 0 l-1 -9 q-1 -7 -2 -18 q-2 -9 -4 -19 q-3 -10 -7 -20 q-4 -10 -10 -22 q-7 -13 -13 -22 q-6 -10 -13 -18 q-7 -10 -19 -21 q-11 -12 -22 -21 q-11 -9 -23 -17 q-11 -7 -14 -9 q-3 4 -3 6 q0 8 4 11 q5 3 15 13 q11 11 19 20 q6 8 14 20 q7 11 14 25 q7 15 11.5 28.5 q4.5 13.5 7 25.5 q2.5 12 3.5 25 q1 13 1 18 l0 5 l-37 0 l-37 0 l0 9 l0 9 l37 0 q38 0 38 1 q1 1 2 12 q0 13 2 25 q1 13 1 15 q0 2 20 2 Z" /><glyph glyph-name="uni5230" unicode="&#x5230;" d="M425 400 l22 0 l0 -155 q-1 -154 -3 -165 q-2 -11 -6 -24 q-4 -13 -9 -23 q-6 -10 -12 -19 q-7 -11 -17 -20 q-10 -10 -19 -17 q-9 -6 -21 -12 l-12 -7 q-1 0 -1 9 l0 8 l6 4 q5 4 13 11 q8 7 13 14 q6 8 12 20 q6 13 8 22 l3 10 l0 172 l1 172 l22 0 ZM185 362 l111 -1 l0 -9 l1 -9 l-53 0 l-53 0 l-12 -20 q-1 -2 -12.5 -20 q-11.5 -18 -16.5 -27 q-18 -28 -21 -33 q-4 -4 -4 -4.5 q0 -0.5 66.5 -0.5 q66.5 0 66.5 1 q0 1 -13 22 q-13 22 -14 24 l0 1 l2 0 q2 1 5 1 l8 0 l16 0 l9 -16 q19 -31 24 -39 q14 -23 14.5 -25 q0.5 -2 -3 -4 q-3.5 -2 -8 -2 q-4.5 0 -9.5 2.5 q-5 2.5 -12 8.5 l-6 6 l-30 0 l-29 0 l0 -37 l0 -37 l42 0 l42 0 l0 -10 l1 -9 l-43 0 l-42 0 l0 -31 q-1 -30 -3 -36 q-2 -5 -3 -7 q-1 -3 0 -3 q0 -1 46 9 q46 11 49 11 q2 0 2.5 -1 q0.5 -1 2.5 -7 q2 -9 1 -9.5 q-1 -0.5 -115 -26.5 q-114 -26 -116 -26 q-2 0 -3.5 9 q-1.5 9 -0.5 9.5 q1 0.5 49 11.5 l48 11 l0 43 l0 43 l-46 0 l-47 0 l1 9 l0 10 l46 0 l46 0 l0 37 l0 37 l-35 0 q-34 0 -39 -1 q-4 -2 -11 -2 q-6 0 -10.5 2.5 q-4.5 2.5 -6.5 3.5 q-1 1 3.5 9.5 q4.5 8.5 26.5 43.5 q7 11 16 26 q9 15 14.5 23.5 q5.5 8.5 6.5 10.5 l5 8 l-32 0 l-33 1 l0 9 l0 10 l111 0 ZM351 326 l20 0 l0 -108 q0 -108 -2 -117 q-2 -9 -4 -13 q-2 -5 -7 -10.5 q-5 -5.5 -9 -7.5 q-5 -2 -11 -2 l-7 0 l0 129 l0 129 l20 0 Z" /><glyph glyph-name="uni5236" unicode="&#x5236;" d="M197 417 l21 0 l0 -45 l0 -45 l38 0 l38 0 l0 -12 l0 -12 l-38 0 l-38 0 l0 -30 l0 -30 l45 0 l45 0 l0 -12 l0 -12 l-45 0 l-45 0 l0 -19 l0 -20 l19 0 l20 0 l0 9 l0 9 l20 0 l20 0 l-1 -74 l0 -74 l-4 -7 q-3 -8 -8 -13.5 q-5 -5.5 -12 -8.5 q-7 -3 -11 -4 l-4 -1 l0 70 l0 70 l-20 0 l-19 0 l0 -86 q0 -52 -0.5 -69.5 q-0.5 -17.5 -1.5 -22.5 q-1 -6 -4 -12 q-3 -5 -5.5 -8.5 q-2.5 -3.5 -8.5 -7.5 q-6 -4 -12.5 -6.5 q-6.5 -2.5 -7.5 -2.5 q-1 0 -1 107 l0 108 l-23 0 l-23 0 l0 -48 q0 -48 -1 -54 q-1 -6 -5 -13 q-3 -7 -8 -12 q-5 -5 -13 -9 q-7 -3 -11 -3 l-3 0 l0 90 l1 90 l20 1 l20 0 l0 -9 l0 -9 l23 0 l23 0 l0 20 l0 19 l-50 1 l-50 0 l0 11 q0 12 3 12 l3 1 l-3 2 q-2 1 -2 2.5 q0 1.5 4 9.5 l10 20 q5 12 8 20 q3 9 4 17 q2 8 3 30 l1 22 l13 8 q13 8 13 7.5 q0 -0.5 1 -25.5 q0 -25 -1 -28 l-1 -2 l22 0 l22 0 l0 45 l0 45 l20 0 ZM151 303 l-25 0 l-5 -10 q-5 -11 -12 -20 q-7 -10 -16 -20 l-9 -10 l46 0 l47 0 l0 30 l0 30 l-26 0 ZM413 398 l20 0 l0 -193 q0 -194 -1 -199 q-1 -6 -3.5 -11.5 q-2.5 -5.5 -7.5 -10.5 q-4 -5 -10 -8 q-6 -3 -13 -3 l-7 0 l0 212 q0 212 1 213 q1 1 21 0 ZM336 340 l17 0 l0 -107 q0 -107 -2 -114 q-2 -6 -5.5 -11.5 q-3.5 -5.5 -8.5 -8.5 q-4 -3 -10 -6 q-7 -2 -8 -2 q-1 0 -1 124 l0 125 l18 0 Z" /><glyph glyph-name="uni5237" unicode="&#x5237;" d="M311 392 l16 0 l0 -52 q0 -52 -1 -60 q-2 -8 -4 -13 q-3 -6 -7 -10 q-4 -5 -10 -8 q-4 -2 -7 -2 q-1 -1 -1.5 1 q-0.5 2 -0.5 13 l-1 14 l-70 0 l-71 0 l0 -92 q-1 -92 -3 -102 q-2 -8 -6 -18 q-2 -8 -8 -20 q-6 -12 -12 -20 q-5 -9 -17 -21 q-12 -12 -23 -19 q-11 -7 -19 -11 q-9 -5 -10 -5 l0 8 q0 8 1 9 q1 1 7 5 q6 4 14 13 q8 8 13 15 q4 7 8 13 q3 7 6 16 q3 10 5 21 q2 11 2 165 l0 153 l21 0 l21 0 l0 -4 l1 -5 l70 0 l70 0 l0 8 l0 8 l16 0 ZM225 356 q-70 0 -70.5 -0.5 q-0.5 -0.5 -0.5 -30.5 l0 -30 l71 0 l70 0 l0 31 l0 30 l-70 0 ZM434 385 l21 0 l0 -187 q0 -187 -1.5 -194 q-1.5 -7 -4.5 -12 q-2 -4 -6 -9 q-4 -4 -9.5 -7 q-5.5 -3 -13.5 -3 l-7 0 l0 206 l0 206 l21 0 ZM375 322 l27 0 l0 -10 l1 -9 l-7 0 l-6 0 l0 -67 q0 -67 -1.5 -74.5 q-1.5 -7.5 -4.5 -11.5 q-2 -5 -6.5 -9.5 q-4.5 -4.5 -9.5 -7.5 q-6 -3 -13 -3 l-8 0 l0 95 l0 96 q1 1 28 1 ZM243 256 l16 0 l0 -28 l0 -27 l14 -1 l13 0 l0 5 l0 5 l16 0 l16 0 l0 -54 q-1 -55 -2 -60 q-2 -6 -5 -11 q-2 -6 -6 -10 q-4 -5 -10 -8 q-6 -3 -7 -3 q-2 0 -2 59 l0 58 l-13 0 l-14 0 l0 -84 q0 -84 -2 -90 q-1 -6 -3.5 -11.5 q-2.5 -5.5 -6.5 -9.5 q-4 -4 -10.5 -7.5 q-6.5 -3.5 -7.5 -3.5 q-1 0 -1 103 l0 103 l-13 0 l-13 0 l0 -44 q-1 -43 -3 -49 q-2 -6 -6 -13 q-5 -7 -10 -10 q-5 -4 -9 -5 l-3 0 l0 73 l0 73 l15 0 l16 0 l0 -3 l0 -3 l13 0 l13 0 l0 28 l0 28 l15 0 Z" /><glyph glyph-name="uni5238" unicode="&#x5238;" d="M267 392 q27 0 27 -0.5 q0 -0.5 -12 -45.5 q-3 -10 -6.5 -21.5 q-3.5 -11.5 -5.5 -17.5 q-2 -6 -2 -7 l15 -2 l59 0 l75 0 l0 -10 l0 -9 l-78 0 l-78 0 l-5 -11 q-7 -12 -15 -24 l-8 -13 l111 0 l111 0 l0 -9 l0 -9 l-52 0 q-52 0 -52 -1.5 q0 -1.5 10 -13.5 q9 -11 21 -23 q11 -11 17 -16 q6 -5 18 -12 q10 -7 20 -12 q11 -4 12 -4 q1 0 2.5 -3 q1.5 -3 1.5 -7 l0 -4 l-7 1 q-8 0 -21 2 q-13 3 -26 7 q-14 5 -25 10 q-12 6 -22 13 q-10 7 -22 19 q-12 12 -23 25 l-12 16 q-2 2 -39 2 l-38 1 l-7 -7 q-5 -6 -8 -9 q0 -2 -17 -17 q-14 -13 -26 -23 q-12 -9 -26 -19 q-16 -11 -34 -23 q-21 -12 -29 -16 q-8 -5 -9.5 -4 q-1.5 1 -2.5 5 l-2 4 l14 12 q15 13 33 29 q18 18 35 36 q17 18 21 24 q5 6 4.5 7 q-0.5 1 -47.5 1 l-47 0 l0 9 l0 9 l55 0 l56 0 l10 16 q11 16 15 23 l4 8 l-51 1 l-51 0 l0 9 l0 10 l55 0 l55 0 l10 43 q11 45 12 46 l1 5 l26 0 ZM139 353 q12 14 12.5 14 q0.5 0 7.5 -4 q7 -4 14.5 -11.5 q7.5 -7.5 12.5 -16.5 q4 -10 6 -19 l3 -9 l-4 -2 q-3 -2 -5 -2 q-2 0 -5.5 3.5 q-3.5 3.5 -13.5 11 q-10 7.5 -18 12.5 q-7 4 -14 7 l-7 3 l11 13 ZM339 362 q6 3 7.5 3 q1.5 0 16 -12 q14.5 -12 14.5 -12.5 q0 -0.5 -11 -5.5 q-12 -6 -25 -13 q-13 -7 -20 -14 q-8 -8 -12 -6 l-4 1 l1 6 q1 8 3 14 q2 8 8 16 q6 9 11 14 q6 6 11 9 ZM333 147 l20 0 l0 -70 q0 -70 -1 -77 q-2 -7 -5 -12.5 q-3 -5.5 -8 -9.5 q-4 -4 -10 -6 q-6 -2 -12 -2 l-6 0 l0 75 l0 75 l-39 0 l-39 0 l0 -27 q0 -28 -2 -36 q-2 -8 -5.5 -15 q-3.5 -7 -8.5 -14.5 q-5 -7.5 -13 -15.5 q-9 -8 -19 -14 q-9 -7 -21 -12 q-13 -6 -22 -9 q-10 -4 -21 -7 l-10 -2 l0 5 l0 5 l7 4 q8 3 19.5 10.5 q11.5 7.5 19.5 15.5 q7 7 13 16 q6 8 9 14 q3 6 7 17 q3 10 3 38 l1 27 l-16 1 l-15 0 l0 9 l-1 9 l77 0 l76 0 l0 4 l0 4 l22 0 Z" /><glyph glyph-name="uni523B" unicode="&#x523b;" d="M193 378 l21 -1 l0 -9 q1 -8 -1 -14 q-1 -6 -5 -14 q-1 -3 -4 -8 l7 0 q8 -1 20 -1 l28 0 l54 0 l0 -9 l0 -10 l-52 0 l-52 0 l-5 -9 q-3 -7 -12 -26 q-8 -17 -16.5 -28.5 q-8.5 -11.5 -21.5 -23.5 q-12 -12 -22 -19 l-9 -7 l43 0 l43 1 l5 12 q5 14 8 24 l3 11 l23 0 q23 -1 24 -2 q1 0 -2 -9 q-3 -10 -7 -21 q-5 -13 -13 -28 q-8 -16 -18 -32 q-11 -15 -19.5 -25.5 q-8.5 -10.5 -19.5 -20.5 q-10 -10 -19 -17 q-11 -8 -18 -13 q-10 -6 -19 -10 q-9 -4 -19 -8 q-10 -4 -20 -7 q-8 -3 -18 -5 q-9 -2 -9.5 -1 q-0.5 1 -0.5 4 q0 3 1 4.5 q1 1.5 8 4.5 q9 4 22 12 q13 9 24 17 q11 9 26 24 q14 15 24 29 q10 13 17 24 q6 11 6 12 q0 1 -54 1 q-54 0 -58 -3 l-5 -2 l-2 3 q-3 4 -3 5 q0 1 1 1 q1 0 12 11 q11 9 19 20 q7 9 15 20 q7 11 15 26 q7 15 11 29 q3 11 4 18 l1 4 l-47 0 l-47 0 l1 9 l0 10 l55 0 l55 0 l0 23 q0 23 1 23.5 q1 0.5 21 0.5 ZM429 378 q21 0 22 -2 q1 -2 1 -176 q0 -173 -1.5 -181.5 q-1.5 -8.5 -4.5 -15.5 q-3 -6 -7 -11 q-4 -4 -10.5 -7.5 q-6.5 -3.5 -14.5 -3.5 l-7 0 l0 199 l0 198 l22 0 ZM351 310 l28 0 l0 -10 q0 -10 -2.5 -10 q-2.5 0 -2.5 -65 q0 -65 -2 -73 q-1 -7 -4 -13 q-3 -6 -7.5 -10 q-4.5 -4 -10 -7 q-5.5 -3 -13.5 -3 l-7 1 l0 85 l0 85 l-4 0 l-4 1 l0 8 q-1 7 0 9 q1 2 29 2 ZM288 158 q22 -5 23 -5 q2 -1 -4 -11 q-5 -10 -15.5 -26 q-10.5 -16 -19.5 -27 q-10 -11 -22 -23 q-14 -13 -21 -19 q-8 -6 -19 -13.5 q-11 -7.5 -26 -14.5 q-14 -7 -29 -13 q-15 -4 -26 -6 q-11 -3 -21 -4 q-11 -1 -22 -1 q-11 0 -10 1 q0 1 1 5 q1 3 8 5 q9 2 19 6 q10 4 23 10 q12 5 25 13 q12 7 23 15 q11 9 21 18 q11 9 21 21 q9 10 17 20 q8 11 15 23 q6 10 12 21 l5 9 l22 -4 ZM235 32 q13 -1 24 -2 q11 -2 21 -5 q9 -3 19 -8 q9 -4 16 -11 q7 -6 7 -8 q0 -2 -16 -8 q-17 -7 -20 -8 l-4 -2 l-4 7 q-5 8 -9 13 q-5 6 -11 11 q-6 6 -15 10 q-7 5 -15 7 q-8 2 -7 4 q1 1 14 0 Z" /><glyph glyph-name="uni5242" unicode="&#x5242;" d="M166 387 l17 0 l2 -5 q1 -5 4.5 -15 q3.5 -10 6.5 -16 q5 -7 5 -8 l2 -3 l-7 0 q-6 0 -14 4 q-8 4 -15 10 q-7 6 -10.5 12 q-3.5 6 -5.5 13 q-3 7 -3 8 l18 0 ZM441 363 l21 0 l1 -176 q0 -175 -2 -183 q-1 -7 -4 -13 q-3 -6 -7 -9 q-5 -5 -10 -7 q-6 -3 -13 -3 l-7 0 l0 196 l0 195 l21 0 ZM197 334 l106 0 l0 -10 l0 -10 l-15 0 l-15 0 l-1 -7 q-1 -5 -6 -15 q-3 -10 -9.5 -20 q-6.5 -10 -17.5 -20.5 q-11 -10.5 -11 -11 q0 -0.5 13 -3.5 q10 -3 26 -7 q14 -3 21.5 -3.5 q7.5 -0.5 10.5 -0.5 q2 -1 2 -18 q0 -17 -2.5 -17 q-2.5 0 -16.5 2 q-14 3 -25 5 q-11 3 -21 7 q-10 3 -23 10 l-14 7 l-9 -5 q-9 -5 -19 -9 q-9 -4 -23 -9 q-12 -4 -30 -9 q-16 -4 -29 -7 q-13 -2 -15 -2 q-2 0 -2 5 l0 5 l15 6 q15 5 30 13 q14 7 25 13 q14 9 20 13 l8 5 l-11 11 q-12 12 -18 19 q-5 6 -12 17 q-8 12 -11 18 l-4 8 l-12 0 l-12 1 l-1 8 l0 9 q1 2 108 2 ZM182 314 l-20 0 l-14 0 l-10 0 q-4 0 -6.5 -0.5 q-2.5 -0.5 -3.5 -0.5 l-1 0 q1 -2 7 -9 q5 -7 17 -18 q11 -11 24 -19.5 q13 -8.5 14.5 -8.5 q1.5 0 14.5 13 q12 12 20 23 q8 11 11 16 l2 4 l-55 0 ZM363 300 l28 0 l0 -9 l0 -10 l-6 0 l-6 0 l0 -66 q0 -66 -1.5 -72 q-1.5 -6 -4.5 -13 q-3 -7 -8.5 -12 q-5.5 -5 -10.5 -6.5 q-5 -1.5 -12 -1.5 l-7 0 l0 95 l0 95 l28 0 ZM151 172 l23 0 l-1 -43 q-1 -43 -2.5 -51 q-1.5 -8 -6.5 -18 q-6 -10 -13 -19 q-8 -10 -16 -17 q-9 -7 -15 -10 q-6 -5 -13 -8 q-8 -5 -18.5 -9 q-10.5 -4 -24.5 -8 q-13 -4 -14 -2.5 q-1 1.5 -1 4.5 q0 3 1 4 q1 1 7 2 q8 2 20 8 q11 5 19 12 q7 5 12 12 q5 7 7.5 11.5 q2.5 4.5 6 15 q3.5 10.5 4.5 22.5 q2 12 2 53 l0 41 l23 0 ZM248 166 l21 0 l0 -68 q0 -68 -3 -75 q-2 -7 -5 -12 q-3 -6 -9 -13 q-6 -6 -13 -9.5 q-7 -3.5 -10 -4.5 l-4 0 l0 90 q0 90 1.5 91 q1.5 1 21.5 1 Z" /><glyph glyph-name="uni524D" unicode="&#x524d;" d="M207 392 l21 0 l0 -18 q0 -17 -2 -24 q-2 -7 -5 -12 q-2 -5 -7 -10 q-5 -3 -9 -5 q-4 -2 -12 -2 l-7 0 l0 35 l0 36 l21 0 ZM343 391 l21 0 l1 -14 q0 -15 -2 -23 q-1 -8 -4.5 -14.5 q-3.5 -6.5 -7.5 -10.5 q-5 -4 -9.5 -6 q-4.5 -2 -12.5 -2 l-7 0 l0 35 l0 36 l21 -1 ZM255 310 l175 0 l0 -10 l0 -10 l-175 0 l-174 0 l0 10 l0 10 l174 0 ZM408 278 l21 0 l0 -135 q0 -135 -2 -142 q-2 -7 -4 -12 q-2 -4 -6 -8 q-3 -4 -10 -8 q-7 -3 -14 -3 l-8 0 l0 153 q0 153 1 154 q1 1 22 1 ZM140 269 l21 0 l0 -7 l0 -7 l30 0 l30 0 l0 7 l0 7 l21 0 l20 0 l0 -133 l0 -131 l-4 -8 q-4 -8 -10 -13.5 q-6 -5.5 -14 -8.5 l-10 -5 l-3 0 l0 65 l0 66 l-30 0 l-30 0 l-1 -8 q-1 -8 -3 -18 q-2 -11 -5 -22 q-5 -12 -9 -21 q-5 -11 -11.5 -21 q-6.5 -10 -15.5 -19 q-9 -10 -17 -15 l-12 -8 q-4 -2 -5 -2 q-1 0 -1 7.5 q0 7.5 5 13.5 q4 4 10 14 q6 9 10 20 q4 11 7 20 q2 9 4 23 q2 14 2 108 l0 96 l21 0 ZM191 236 q-29 0 -29.5 -0.5 q-0.5 -0.5 -0.5 -24.5 l0 -25 l30 0 l30 0 l0 25 l0 25 l-30 0 ZM191 167 l-30 0 l0 -24 l0 -23 l30 0 l30 0 l0 23 l0 24 l-30 0 ZM328 245 l28 0 l0 -10 l-1 -9 l-6 -1 l-6 0 l0 -69 q0 -69 -3 -76 q-2 -7 -6 -11 q-3 -4 -6 -7 q-3 -3 -8 -5 q-6 -3 -13 -3 l-7 0 l0 95 l0 96 l28 0 Z" /><glyph glyph-name="uni5269" unicode="&#x5269;" d="M288 403 q2 0 6 -2 q4 -3 4 -4 q0 -1 -9 -7 q-10 -7 -21 -15 q-13 -9 -23 -14 q-10 -6 -23 -12 l-11 -6 l0 -22 l0 -23 l58 0 l57 0 l0 -10 l0 -9 l-57 0 l-58 0 l0 -86 l0 -85 l8 0 q7 0 14 -2 q7 -1 14 -3 q7 -2 16 -6 q8 -5 16 -13 q8 -8 9 -11 q1 -3 -12.5 -22 q-13.5 -19 -14 -19 q-0.5 0 -4.5 9 q-4 10 -10 19 q-7 10 -14 18 q-8 8 -14 12 q-7 5 -7.5 5 q-0.5 0 -1 -51.5 q-0.5 -51.5 -2.5 -59.5 q-3 -7 -5 -12 q-3 -4 -7 -8 q-4 -4 -10 -6 q-5 -3 -12 -3 l-8 0 l0 59 l0 60 l-13 -13 q-15 -14 -26 -23 q-13 -10 -22 -17 q-11 -8 -22 -14 q-11 -7 -22 -13 q-13 -6 -19.5 -5 q-6.5 1 -6.5 2 q1 1 9 7 q8 5 21 16 q11 8 26 21 q12 12 24 25 q10 11 19 24 q8 10 21 32 l11 21 l0 71 l0 71 l-57 0 l-58 0 l0 9 l0 10 l58 0 l57 0 l0 16 l0 15 l-9 -2 q-9 -1 -44 -1 l-34 0 l0 15 l0 16 l48 0 q49 0 59 2 q10 2 22 5 q13 4 25 9 q12 5 28 14 q14 8 20 12 q6 4 7 4 ZM455 359 l22 0 l-1 -183 l0 -182 l-3 -6 q-2 -7 -6.5 -12.5 q-4.5 -5.5 -11.5 -9 q-7 -3.5 -14 -3.5 l-8 0 l0 198 l0 198 l22 0 ZM376 295 l29 0 l0 -9 l0 -9 l-7 -1 l-6 0 l-1 -71 q0 -72 -3 -78 q-3 -6 -6 -10 q-2 -4 -6 -8 q-5 -3 -10 -5 q-5 -2 -12 -2 l-6 0 l0 96 l0 97 l28 0 ZM141 262 l7 0 l0 -51 q0 -52 -1 -60 q-2 -8 -5 -14 q-3 -6 -6 -10 q-4 -4 -9 -7 q-5 -3 -8 -4 l-3 0 l0 17 q0 18 -0.5 18 q-0.5 0 -32 -15.5 q-31.5 -15.5 -32.5 -15.5 q-1 0 -1 9 l0 10 l33 16 l33 17 l0 13 l0 13 l-33 1 l-33 0 l0 9 l0 9 l33 0 l33 1 l0 22 l0 22 l10 0 l15 0 ZM255 263 l6 0 l0 -25 l1 -25 l33 16 q34 17 34.5 17 q0.5 0 0.5 -10 l0 -9 l-35 -17 l-34 -17 l0 -18 l0 -17 l18 0 l19 0 l0 15 l0 16 l16 0 l16 0 l0 -15 q0 -16 -2 -23 q-2 -8 -4 -13 q-2 -5 -6 -10 q-4 -5 -10 -8 q-6 -3 -8 -3.5 q-2 -0.5 -2 1.5 q0 2 -1 9 l0 11 l-20 0 l-21 1 l-3 -6 q-2 -5 -6 -8 l-8 -6 q-5 -2 -7 -3 l-3 0 l0 73 l0 73 l10 0 q3 0 9 0.5 q6 0.5 7 0.5 Z" /><glyph glyph-name="uni529B" unicode="&#x529b;" d="M260 388 l20 0 l0 -52 l1 -53 l57 0 l58 0 l0 5 l0 4 l21 0 l21 0 l1 -125 q0 -89 -0.5 -108 q-0.5 -19 -1.5 -27 q-2 -11 -7 -20 q-3 -8 -8 -14 q-4 -5 -8 -8 q-4 -3 -11 -3 l-7 0 l-1 139 l0 140 l-57 0 l-57 0 l-1 -53 q0 -53 -2 -61 l-6 -20 q-3 -10 -10 -24 q-6 -13 -13 -23 q-6 -9 -13 -17 q-5 -7 -14 -15 q-6 -8 -18 -17.5 q-12 -9.5 -22 -15.5 q-9 -6 -23 -14 q-14 -8 -23 -12 q-10 -5 -25 -11 q-15 -5 -26 -8 q-11 -4 -11 -3 q0 2 2 5 q1 3 14 9 q13 6 23 12 q11 6 23 14 q13 9 22 17 q10 8 21 18 q11 11 18 21 q8 9 13 18 q6 9 11 20 q6 11 9 20 q3 9 5 19 q2 9 3 23 q2 12 1 55 l0 43 l-63 0 l-63 0 l0 9 l0 8 l64 0 l62 0 l0 53 l0 52 l21 0 Z" /><glyph glyph-name="uni529F" unicode="&#x529f;" d="M316 387 l19 0 l0 -49 l0 -50 l60 0 l60 0 l0 -137 l0 -88 q0 -29 -0.5 -41.5 q-0.5 -12.5 -1.5 -15.5 q-1 -7 -4.5 -14 q-3.5 -7 -9 -12 q-5.5 -5 -10.5 -6.5 q-5 -1.5 -11 -1.5 l-5 0 l0 149 l-1 148 l-38 0 l-39 1 l0 -88 q0 -87 -3 -96 q-2 -8 -6 -17 q-4 -8 -9 -15 q-5 -7 -11.5 -14.5 q-6.5 -7.5 -15.5 -15.5 q-9 -8 -19 -14 q-10 -6 -21 -11 q-10 -6 -11 -5 q-1 0 2 8 q2 8 6 10.5 q4 2.5 11 8 q7 5.5 15 15.5 q7 10 13 21 q5 10 8 22 l3 11 l0 90 l0 89 l-36 0 l-36 1 l0 9 l0 9 l36 0 l36 0 l0 50 l1 49 l18 0 ZM157 338 l100 0 l0 -10 l1 -9 l-40 0 l-40 0 l0 -90 q-1 -90 -3.5 -101 q-2.5 -11 -5.5 -20 q-3 -8 -6 -15 q-3 -7 -3 -7.5 q0 -0.5 48 -0.5 l49 -1 l0 -9 l1 -9 l-101 0 l-101 0 l0 9 l0 9 l40 1 l40 0 l0 117 l0 117 l-40 0 l-40 0 l0 8 q0 7 0.5 9 q0.5 2 100.5 2 Z" /><glyph glyph-name="uni52A0" unicode="&#x52a0;" d="M152 378 l21 0 l0 -45 l0 -45 l22 0 l22 0 l0 4 l0 4 l22 0 l22 0 l0 -126 q0 -125 -2 -132 q-2 -7 -5 -14 q-2 -7 -7 -13.5 q-5 -6.5 -10 -10.5 q-5 -4 -12 -4 l-8 0 l0 136 l0 136 l-21 1 l-21 0 q-2 -1 -2 -83 q0 -82 -2 -91 q-3 -9 -6 -19 q-4 -11 -8 -20 q-6 -10 -11 -19 q-6 -9 -17.5 -20 q-11.5 -11 -23 -19 q-11.5 -8 -22.5 -13 q-11 -5 -12 -5 q0 1 1 4.5 q1 3.5 9 8.5 q8 5 17 14 q9 10 13 16 q5 7 8 13 q3 6 6 14 q2 7 4 17 q2 9 2 105.5 q0 96.5 -1 96.5 l-4 0 l-13 0 l-16 0 l-31 0 l-1 10 l0 9 l33 0 l33 0 l0 45 l0 45 l21 0 ZM329 317 l22 0 l0 -5 l0 -5 l26 0 l25 0 l1 5 l0 5 l22 0 l21 0 l0 -135 q0 -135 -2 -142 q-2 -7 -4 -11 q-2 -4 -6 -9 q-4 -5 -10 -7.5 q-6 -2.5 -14 -2.5 l-7 0 l0 8 l0 8 l-27 0 l-29 0 q-4 0 -8 -5 q-5 -5 -11 -8 q-6 -3 -14 -3 l-7 0 l0 153 q0 153 0.5 154 q0.5 1 21.5 0 ZM377 289 l-26 0 l0 -118 l0 -122 l-1 -4 l26 0 l27 0 l0 122 l0 122 l-26 0 Z" /><glyph glyph-name="uni52A1" unicode="&#x52a1;" d="M197 375 q30 0 30 -1 q0 -1 -6 -11 q-6 -10 -10 -15 l-3 -5 l63 0 l64 0 l4 6 l4 7 l25 0 q25 0 25 -0.5 q0 -0.5 -5 -9.5 q-7 -12 -14 -22 q-9 -11 -18 -23 q-10 -11 -24 -25 q-14 -14 -23 -22 q-9 -8 -8 -8 q0 -1 18 -7 q16 -6 31 -11 q11 -3 34 -9 q17 -4 32 -8 q3 0 6.5 -0.5 q3.5 -0.5 5.5 -1 q2 -0.5 3 -0.5 q2 -1 2 -23 q0 -22 -1 -22 q-1 0 -29 7 q-26 7 -44 12 q-19 6 -30 10 q-14 5 -26 11 q-9 3 -24 10 q-12 7 -13.5 7 q-1.5 0 -8.5 -5 q-6 -3 -19 -10 l-12 -7 l17 0 l16 0 l0 -24 l0 -24 l31 0 l31 0 l1 10 l0 11 l21 0 l21 0 l1 -73 q0 -74 -1 -81 q-2 -6 -5 -12.5 q-3 -6.5 -8 -12 q-5 -5.5 -11.5 -8 q-6.5 -2.5 -12.5 -1.5 l-5 0 l0 75 l0 75 l-33 0 l-33 -1 l-2 -8 q-3 -10 -7 -18 q-4 -10 -9 -18 q-5 -9 -11 -17 q-7 -9 -16 -18 q-8 -9 -17 -16 q-8 -7 -19 -14 q-11 -7 -26.5 -14.5 q-15.5 -7.5 -29.5 -13.5 q-13 -5 -27 -9 q-11 -3 -12 -2 q-1 1 -2 5 l-1 4 l12 6 q11 6 25 15 q15 10 25 18 q11 9 25 23 q13 13 20 23 q6 9 13 21 q6 12 9 21 q3 9 3 11 q0 2 -53 2 l-53 0 l0 9 l0 8 l54 0 l54 0 l0 3 q1 3 1 20 l0 18 l-4 -2 q-8 -3 -14 -5 q-10 -4 -25 -9 q-16 -5 -35 -10 q-20 -5 -26 -6 q-7 -1 -10 -2 q-2 0 -2 1 l0 4 l0 4 l18 6 q16 6 31 12.5 q15 6.5 30 14.5 q13 7 27 15 q12 8 22 15 q12 8 12 8.5 q0 0.5 -9 7.5 q-10 7 -23 20 q-12 11 -21 23 q-2 2 -4 5 l-3 5 q-1 1 -1 1.5 q0 0.5 -5.5 -4.5 q-5.5 -5 -12.5 -12 q-17 -17 -29 -27 q-12 -9 -23 -16 q-10 -7 -19 -12 q-7 -4 -8.5 -3 q-1.5 1 -1.5 3 q0 3 8 11 q9 11 19 25 q12 15 24 33 q12 19 21 34 q8 15 12 25 q2 3 4 8 q2 5 2 6 l2 4 l29 0 ZM256 323 l-62 0 l-4 -4 q-4 -4 -5 -6 q-1 -2 10 -10 q11 -9 24 -17 q14 -8 29 -16 l15 -9 l9 9 q10 9 19 19 q12 13 19 22 q9 10 9 11 q0 1 -63 1 Z" /><glyph glyph-name="uni52A8" unicode="&#x52a8;" d="M344 384 l19 0 l-1 -48 l0 -47 l57 0 l58 0 l-1 -94 l0 -94 l-3 -12 q-3 -12 -8 -24 q-4 -11 -10 -21 q-5 -9 -9 -15 q-6 -7 -13 -15 q-8 -8 -17 -15 q-10 -8 -14 -10 q-6 -4 -15 -8 q-10 -5 -11 -5 q-1 1 -1 9 l0 7 l8 5 q8 6 16.5 15 q8.5 9 13.5 17 q5 8 10 17 q4 10 6 18.5 q2 8.5 3 106.5 l0 99 l-36 0 q-36 0 -36 -1 l-1 -21 q-2 -21 -4 -39 q-3 -20 -5 -33 q-2 -14 -5 -25 q-3 -10 -7 -23 q-3 -10 -10 -25 q-6 -13 -13 -26 q-6 -12 -15 -25 q-9 -14 -15 -22 q-6 -8 -13 -17 q-7 -7 -16 -17 q-10 -10 -11 -10 q-1 0 -5 6 l-4 6 l6 8 q6 8 13 20 q8 14 14 25 q6 12 13 30 q8 19 16 42 q8 23 10 37 q3 13 5 32 q3 20 4 39 l3 30 l0 8 l-31 0 l-30 1 l0 9 l0 9 l31 1 l31 0 l1 24 q1 23 1 47 q0 22 1 23 q0 1 20 1 ZM159 338 l80 0 l0 -10 l0 -9 l-80 0 l-80 0 l0 9 l0 10 l80 0 ZM159 242 l100 0 l1 -10 l0 -9 l-37 0 q-37 0 -38 -1 q-1 -2 -20 -37 q-18 -34 -24 -44 q-6 -8 -14 -18 q-8 -10 -17 -19 q-9 -9 -19 -17 q-8 -7 -11 -9 q-2 -1 2 -2 l63 0 q67 0 67 1.5 q0 1.5 -5 10.5 q-7 10 -12 17 q-5 6 -14 15 q-9 8 -9 11 q0 3 1 3 q1 0 9 -2 q8 -3 19 -7 q11 -5 17 -8 q6 -4 13 -9 q7 -4 15 -13 q7 -8 10.5 -15.5 q3.5 -7.5 2 -8.5 q-1.5 -1 -18 -14 q-16.5 -13 -17 -13 q-0.5 0 -1.5 5.5 q-1 5.5 -1.5 6 q-0.5 0.5 -92.5 0.5 l-91 1 l-1 6 q-1 7 0 8 l2 1 q1 1 3.5 3 q2.5 2 4.5 4 q8 6 18 16 q11 11 19 22 q9 12 16 24 q7 11 16 28 q8 16 15 33.5 q7 17.5 7 19.5 q0 1 -40 1 l-39 0 l0 10 l0 9 l101 0 Z" /><glyph glyph-name="uni52A9" unicode="&#x52a9;" d="M344 378 l21 -1 l1 -23 l0 -24 l23 0 l23 0 l0 4 l0 5 l22 0 l21 0 l0 -159 q0 -160 -1 -166 l-4 -12 q-3 -6 -7 -10 q-4 -5 -10 -8 q-6 -3 -14 -3 l-7 0 l0 165 l0 165 l-23 0 l-23 0 l0 -102 q-1 -102 -3 -112.5 q-2 -10.5 -5 -19 q-3 -8.5 -8 -19.5 q-6 -13 -12 -22 q-6 -9 -18 -21 q-11 -11 -21 -18 q-10 -6 -20 -11 q-9 -5 -10 -5 q-2 0 -2 8 q0 8 4.5 10.5 q4.5 2.5 12.5 9 q8 6.5 14 15 q6 8.5 10 16 q4 7.5 8 16.5 q3 10 5 18 q1 8 1 122 l0 114 l-29 0 l-28 1 l0 9 l0 10 l29 0 l29 0 l0 24 l0 24 l21 0 ZM93 347 l18 0 l0 -8 l0 -9 l48 0 l49 0 l0 9 l0 8 l19 0 l19 0 l0 -159 q0 -158 -1 -166 q-2 -7 -5 -14 l-2 -5 l11 0 l12 0 l0 -10 l0 -10 l-102 1 l-103 0 l0 9 l0 9 l10 1 l9 0 l0 172 l0 172 l18 0 ZM159 311 l-48 0 l0 -40 l0 -39 l48 0 l49 0 l0 39 l0 40 l-49 0 ZM160 214 q-48 0 -48.5 -1 q-0.5 -1 -0.5 -49 l0 -48 l48 0 l49 0 l0 49 l0 49 l-48 0 ZM159 96 l-48 0 l0 -34 q0 -34 -2 -42 q-2 -7 -4 -11.5 q-2 -4.5 -2 -5 q0 -0.5 52 -0.5 l53 0 l0 47 l0 46 l-49 0 Z" /><glyph glyph-name="uni52B2" unicode="&#x52b2;" d="M330 370 l21 0 l0 -40 l0 -40 l52 0 l51 0 l0 -121 l0 -121 l-2 -9 q-3 -10 -7 -16 q-4 -7 -9 -12 q-5 -5 -12 -8 l-5 -2 q-3 -2 -5 -2 l-3 -1 l0 136 l0 137 l-30 0 l-30 0 l0 -79 q-1 -78 -3 -87 q-1 -7 -5 -20 q-5 -12 -11 -24 q-6 -12 -13 -22 q-8 -9 -17 -18 q-9 -9 -19 -16 q-11 -7 -20 -11 l-9 -5 q-1 0 -1 9 l0 8 l7 4 q6 5 14 13 q8 8 13 15 q4 6 8 14 q3 5 7 15 q3 9 4 18 q2 8 2 97 l0 89 l-24 0 l-25 0 l0 10 l0 9 l24 0 l25 0 l0 40 l0 40 l22 0 ZM207 338 l20 0 l0 -4 q0 -5 -2 -14 q-3 -8 -6 -17 q-3 -9 -8 -21 q-6 -11 -10 -18 l-4 -7 q1 -1 10.5 -8 q9.5 -7 17.5 -16 q9 -9 15 -18 q6 -9 10 -16 q3 -8 5 -15 q2 -6 2 -9 q0 -2 -19 -2 l-18 0 l-1 6 q-1 7 -4 16 q-2 9 -5 17 q-2 7 -9 20 q-6 12 -7.5 14 q-1.5 2 -2.5 2 l-1 -1 q-1 -2 -3 -4.5 q-2 -2.5 -3 -4.5 q-6 -7 -14 -17 q-8 -8 -14 -15 q-8 -7 -17 -14 q-9 -8 -21 -16 q-11 -8 -19 -13 q-10 -6 -22 -12 l-13 -7 l-4 3 q-3 2 -3 2.5 q0 0.5 9 6.5 q9 6 20 14 q11 10 22 21 q11 11 21 23 q9 11 17 23 q7 11 15 26 q7 14 12 27 q5 11 6 15 l0 3 l-42 0 l-42 0 l0 10 l0 10 l45 0 l45 0 l0 4 q0 5 0.5 5.5 q0.5 0.5 21.5 0.5 ZM160 145 l82 0 l0 -9 l-1 -9 l-25 -1 l-24 0 l0 -34 q0 -34 -3 -43 q-2 -10 -5 -16 q-4 -7 -3.5 -7 q0.5 0 28.5 4 q26 4 30 5 q3 0 3 -10 l-1 -9 l-25 -4 q-1 0 -10 -1.5 q-9 -1.5 -15.5 -2 q-6.5 -0.5 -15.5 -1.5 l-19 -3 q-10 -2 -19 -3 q-55 -9 -56 -9 q-2 0 -2 1 l0 8 q0 10 2 10 q5 1 34 5 q31 5 32 5.5 q1 0.5 1 52.5 l0 52 l-34 0 l-35 1 l0 9 l0 9 l81 0 Z" /><glyph glyph-name="uni52B3" unicode="&#x52b3;" d="M190 387 l22 0 l0 -23 l0 -23 l54 0 l54 0 l1 23 l0 23 l21 0 l21 0 l1 -23 l0 -23 l45 0 l45 0 l1 -9 l0 -10 l-45 0 l-46 0 l-1 -11 q-2 -12 -5 -18 q-3 -6 -7 -10 q-3 -4 -9 -7 q-6 -3 -14 -3 l-7 0 l0 24 l-1 25 l-54 0 l-54 0 l0 -6 q-1 -5 -2 -12 q-2 -6 -4 -11 q-3 -6 -7.5 -10.5 q-4.5 -4.5 -9.5 -7.5 q-5 -2 -12 -3 l-8 0 l0 25 l0 25 l-47 0 l-47 0 l0 10 l0 9 l47 0 l47 0 l0 23 l0 23 l21 0 ZM110 257 q2 0 20 -2 l9 0 l0 -6 q-1 -5 -2 -7 l25 -2 l102 0 l127 0 l0 4 q-1 4 0 4 q0 1 20 2 l20 1 l0 -4 q0 -2 3 -16 q3 -13 6 -22 q3 -9 5 -12 q2 -3 2 -4 q0 -1 -2.5 -0.5 q-2.5 0.5 -7.5 2.5 q-10 4 -17 7 q-7 5 -14 12 l-7 7 l-137 0 l-137 0 l-3 -3 q-2 -2 -9 -7 q-8 -5 -16 -9 l-12 -4 q-3 0 -3 0.5 q0 0.5 3 7.5 q4 7 6 13 q2 8 4 15 q2 7 3 15 l1 8 l11 0 ZM214 204 l20 0 l0 -20 l0 -20 l60 0 l59 0 l0 5 l1 4 l21 0 l21 0 l1 -69 q0 -69 -1 -77 q-2 -9 -5 -18 q-3 -9 -8 -16.5 q-5 -7.5 -9.5 -11 q-4.5 -3.5 -12.5 -3.5 l-8 0 l0 83 l0 84 l-59 0 l-60 0 l0 -10 q-1 -10 -4 -20 q-2 -10 -6 -20 q-4 -9 -11 -21.5 q-7 -12.5 -20 -24.5 q-12 -12 -24 -21 q-12 -8 -32 -20 q-21 -13 -44 -24 q-23 -12 -28 -11 q-5 1 -7 2 l12 8 q15 9 24 16 q11 7 23 17 q10 8 25 23 q14 14 21.5 24 q7.5 10 14 22.5 q6.5 12.5 9.5 24.5 q4 11 6 21 q2 9 2 12 l0 2 l-49 0 l-49 0 l0 9 l0 10 l49 0 l48 0 l1 20 l0 20 l19 0 Z" /><glyph glyph-name="uni52FA" unicode="&#x52fa;" d="M191 387 q9 -3 20 -7 q20 -6 21 -7 q1 -1 -16 -34 q-18 -34 -18 -34.5 q0 -0.5 98 -0.5 l98 0 l1 4 l0 4 l22 1 l21 0 l0 -151 q0 -151 -2 -158 q-2 -7 -4.5 -12.5 q-2.5 -5.5 -7.5 -10.5 q-4 -4 -9 -6.5 q-5 -2.5 -13 -2.5 l-7 0 l0 156 l0 156 l-105 0 l-105 0 l-6 -7 q-4 -6 -20 -28 q-20 -26 -32 -40 q-14 -18 -32 -39 q-18 -20 -19 -19.5 q-1 0.5 -1.5 3 q-0.5 2.5 3.5 8.5 q7 9 22 35 q16 27 30 51 q12 23 24 47.5 q12 24.5 25 58.5 l12 33 ZM213 218 q10 -6 20 -13 q8 -6 18 -14 q9 -8 16 -18 q8 -10 14 -21 q5 -11 6 -14 q0 -2 -3 -3.5 q-3 -1.5 -17 -7.5 q-20 -8 -21.5 -8.5 q-1.5 -0.5 -2 10 q-0.5 10.5 -3.5 20.5 q-3 10 -9 22 q-6 13 -12 22 q-6 10 -12 17 q-5 7 -5 10 l1 3 l10 -5 Z" /><glyph glyph-name="uni5305" unicode="&#x5305;" d="M106 387 l22 0 l0 -36 l0 -36 l123 0 l123 0 l0 8 l0 7 l22 0 l22 0 l0 -63 q1 -63 0 -101 l-1 -39 l-5 -11 q-6 -11 -13 -20 q-6 -9 -16 -18.5 q-10 -9.5 -21 -16.5 q-10 -7 -17 -10 q-6 -4 -7 -4 q-2 0 -2 8 l0 7 l9 9 q9 9 14 18 q4 9 7 18 q3 8 6 22 q2 13 2 90 l0 77 l-123 0 l-123 0 l0 -7 q0 -7 -2 -15 q-2 -6 -5 -14 q-4 -7 -11 -14 q-7 -7 -15 -11 q-8 -4 -16 -6 q-9 -3 -14 -3 l-5 -1 l0 6 q0 5 6 11 q6 5 9 12 q4 7 6.5 15.5 q2.5 8.5 2.5 63.5 l0 54 l22 0 ZM306 231 l21 0 l0 -46 q0 -45 -1 -51 q-1 -6 -5 -14 q-3 -7 -10.5 -14.5 q-7.5 -7.5 -15.5 -11.5 q-8 -4 -10 -4 l-2 -1 l0 15 l0 15 l-52 0 l-52 0 l0 -50 q-1 -36 -1 -44 q0 -8 -2 -13 q-2 -7 -7 -14 l-4 -7 l121 0 l120 0 l0 9 q0 8 1.5 16 q1.5 8 5.5 15 q3 7 10 14 q7 7 16 11 q10 5 10.5 5 q0.5 0 0.5 -44 l0 -45 l-158 0 l-157 0 l0 129 l0 129 l22 0 q21 -1 22 -3 l0 -3 l52 0 l52 0 l0 3 q0 2 1 3 q0 1 22 1 ZM231 205 l-52 0 l0 -33 l0 -33 l52 0 l52 0 l0 33 l0 33 l-52 0 Z" /><glyph glyph-name="uni5341" unicode="&#x5341;" d="M260 393 l21 -1 l0 -82 l1 -81 l93 0 l93 0 l0 -10 l0 -10 l-93 0 l-93 0 l0 -100 q0 -100 -3 -109 q-2 -9 -4 -13 q-2 -5 -7 -9.5 q-5 -4.5 -11 -7.5 q-6 -3 -12 -3 l-7 0 l0 121 l0 121 l-97 0 l-98 0 l0 10 l0 10 l98 0 l97 0 l0 82 l0 82 l22 0 Z" /><glyph glyph-name="uni5343" unicode="&#x5343;" d="M411 370 q7 8 8 7 q1 -1 3 -7 l3 -7 l-3 -6 q-3 -6 -9 -11.5 q-6 -5.5 -12 -9.5 q-6 -3 -13 -6 q-8 -3 -13 -4 q-6 -2 -49 -3 l-43 0 l0 -31 l0 -53 l1 -22 l92 0 l92 0 l0 -9 l0 -9 l-92 0 l-92 0 l0 -90 q0 -89 -2 -97 q-1 -8 -4 -12 q-2 -5 -6 -10 q-4 -4 -10 -7 q-6 -3 -14 -4 l-7 0 l-1 109 l0 110 l-98 1 l-99 0 l0 9 l0 9 l99 0 l98 1 l0 52 l0 53 l-66 0 l-66 1 l0 14 l0 13 l137 1 l138 0 l6 3 q7 2 11 5 q5 3 11 10 Z" /><glyph glyph-name="uni5355" unicode="&#x5355;" d="M356 421 l11 -27 q10 -25 11 -28 q0 -2 -8 -4 q-8 -2 -15 -5 q-6 -3 -13 -9 q-8 -5 -15 -12 q-7 -8 -14 -17 q-7 -9 -10 -14 q-2 -2 -3 -3 l0 -2 l55 0 l55 0 l0 -77 l0 -77 l-3 -9 q-2 -8 -7 -17 q-5 -9 -10 -14 q-7 -6 -12 -7 q-5 -1 -7.5 -0.5 q-2.5 0.5 -3.5 14.5 l0 14 l-41 0 l-41 0 l0 -23 l0 -24 l81 0 l80 0 l0 -9 l0 -9 l-80 -1 l-81 0 l0 -37 q-1 -38 -3 -45 q-2 -6 -5 -14 q-4 -8 -10 -14 q-7 -6 -13 -9 q-6 -3 -10 -4 l-3 0 l0 61 l0 62 l-88 0 l-88 0 l0 10 l0 9 l88 0 l88 0 l0 24 l0 23 l-45 0 l-44 0 l-4 -7 q-4 -7 -10 -13.5 q-6 -6.5 -10 -7 q-4 -0.5 -8 -0.5 l-5 0 l0 100 l0 101 l47 0 q47 1 48 1 q0 1 -2 7 q-2 7 -8 19 q-5 11 -13 23 q-7 10 -18 21 q-12 12 -18 15 q-6 5 -6 9 l0 4 l11 -1 q13 -1 21 -3 q9 -1 17 -5 q9 -3 17 -8 q8 -6 15 -12 q6 -7 10 -13 q5 -7 5 -9 q0 -1 -4 -7 q-5 -9 -13 -22 q-11 -18 -10.5 -18.5 q0.5 -0.5 40.5 -0.5 l40 0 l4 19 q6 20 9 29 q4 12 9 23 q5 13 12 22 q6 10 11.5 16 q5.5 6 10.5 9 q5 3 6 3 ZM200 280 l-41 0 l0 -26 l0 -27 l41 0 l41 0 l0 27 l0 26 l-41 0 ZM326 280 l-41 0 l0 -26 l0 -27 l41 0 l41 0 l0 27 l0 26 l-41 0 ZM200 208 l-41 0 l0 -28 q0 -28 -1 -31 l-1 -2 l42 0 l42 0 l0 30 l0 31 l-41 0 ZM326 208 l-41 0 l0 -31 l0 -30 l41 0 l41 0 l0 30 l0 31 l-41 0 Z" /><glyph glyph-name="uni5373" unicode="&#x5373;" d="M317 378 q22 0 22 -2.5 q0 -2.5 25.5 -2.5 q25.5 0 25.5 2.5 q0 2.5 22 2.5 l21 0 l0 -119 q0 -118 -1.5 -126 q-1.5 -8 -3.5 -13 q-3 -5 -7 -10 q-4 -4 -10 -7 q-5 -3 -8 -3 q-2 -1 -8 0 l-5 0 l0 127 l0 127 l-26 0 l-25 0 l0 -168 q0 -168 -2 -174 q-2 -7 -4 -12 q-3 -6 -8 -11 q-5 -4 -10 -6.5 q-5 -2.5 -12 -2.5 l-8 0 l0 199 l0 199 l22 0 ZM98 372 l21 0 l1 -7 l0 -6 l44 0 l45 0 l0 6 l0 7 l21 0 l21 0 l0 -79 q0 -80 -2 -86 q-1 -5 -5 -11 q-3 -6 -8 -11 q-5 -5 -13 -8.5 q-8 -3.5 -11 -4.5 l-3 -1 l0 15 l0 15 l-45 0 l-44 0 l0 -66 q0 -66 2 -66 q9 4 38 17 q35 17 35.5 17.5 q0.5 0.5 -1.5 8.5 q-2 7 -9 20 q-6 11 -6 14.5 q0 3.5 0.5 3.5 q0.5 0 5.5 -2 q6 -3 12 -8 q7 -5 13 -12 q7 -8 14 -17 q6 -9 10 -18 q4 -8 8 -17 q3 -8 3 -10 q0 -1 -18 -3 q-20 -2 -22 -3 l-3 0 l-1 12 q0 12 -1 13 l-35 -16 q-35 -16 -45 -20 q-10 -5 -15 -10.5 q-5 -5.5 -13 -8.5 q-8 -4 -11 -5 l-3 -1 l0 174 l0 174 l20 0 ZM164 339 l-44 0 l0 -24 l0 -25 l44 0 l45 0 l0 25 l0 24 l-45 0 ZM164 272 l-44 0 l0 -26 l0 -25 l44 0 l45 0 l0 25 l0 26 l-45 0 Z" /><glyph glyph-name="uni5382" unicode="&#x5382;" d="M284 378 l171 0 l0 -10 l0 -9 l-149 0 l-150 0 l0 -127 q0 -127 -3 -137 q-2 -10 -5 -20 q-3 -8 -9 -20 q-5 -10 -12 -20 q-6 -9 -17 -20 q-11 -11 -20 -18 q-9 -5 -19.5 -11 q-10.5 -6 -12 -6 q-1.5 0 -1.5 8 l0 9 l5 2 q5 3 11 8 q7 6 14 16 q8 8 13 20 q6 11 9 23 l3 12 l1 150 l0 150 l171 0 Z" /><glyph glyph-name="uni539F" unicode="&#x539f;" d="M124 387 l21 0 l0 -9 l0 -9 l159 0 l159 0 l0 -10 l0 -10 l-159 0 l-159 0 l0 -119 q0 -118 -2 -129 q-2 -11 -6 -24 q-5 -13 -9 -23 q-6 -11 -11 -18 q-5 -8 -18 -21 q-13 -13 -23 -19 q-10 -7 -19 -11 q-9 -5 -10 -5 l0 8 l0 8 l8 6 q9 7 16 14 q7 8 11 13 q4 6 9 16 q5 11 7 20 q2 7 3 18 q2 10 2 156 l0 148 l21 0 ZM308 341 l20 0 l0 -6 q0 -6 -1 -14 q-2 -7 -5 -12.5 q-3 -5.5 -5 -8.5 q-3 -3 -3 -3.5 q0 -0.5 32 -0.5 l33 0 l0 8 l0 8 l21 0 l22 0 l0 -74 q0 -75 -2 -83 q-2 -9 -4.5 -14.5 q-2.5 -5.5 -7 -10 q-4.5 -4.5 -9.5 -7.5 q-6 -3 -13 -3 l-7 0 l0 12 l0 11 l-29 0 l-28 0 l0 -67 q0 -67 -2 -73 q-2 -7 -4 -11 q-2 -4 -6 -9 q-3 -4 -10 -7 q-7 -4 -14 -4 l-7 0 l0 86 l0 85 l-29 0 l-29 0 l-2 -4 q-2 -4 -6.5 -8.5 q-4.5 -4.5 -10 -7.5 q-5.5 -3 -12.5 -3 l-8 0 l0 96 l0 96 l22 0 l22 0 l0 -8 l0 -8 l31 0 l30 0 l0 23 l0 22 l21 0 ZM302 276 l-76 0 l0 -25 l0 -25 l76 0 l77 0 l0 25 l0 25 l-77 0 ZM302 207 q-75 0 -75.5 -1.5 q-0.5 -1.5 -0.5 -22.5 l-1 -21 l77 0 l77 0 l-1 22 l0 22 l-76 1 ZM200 106 q0 3 0.5 3 q0.5 0 19.5 -11 q17 -10 19 -11 q2 -2 -5 -15 q-5 -12 -12 -22 q-5 -8 -10 -14 q-4 -5 -13 -14 q-9 -9 -18 -16 q-8 -6 -16 -11 q-8 -4 -17 -8 l-10 -4 q-1 0 -2 3 q0 2 8 13 q9 11 20 27 q10 16 16 26 q6 11 7 15 l5 12 q3 8 5 15 q3 9 3 12 ZM347 103.5 q1 2.5 5 1.5 q4 -1 12 -4 q9 -4 16 -8 q8 -5 12 -8 q5 -4 14 -11 q9 -8 17.5 -18 q8.5 -10 15.5 -20 q6 -9 10 -19 q5 -9 5 -10 q-1 -1 -19 -12 q-19 -12 -20 -12 q-1 0 -1 3 q0 3 -2 11 q-3 9 -9 22 l-14 26 q-9 14 -19 26 q-10 14 -17 22 q-7 8 -6 10.5 Z" /><glyph glyph-name="uni53A8" unicode="&#x53a8;" d="M263 383 l171 0 l0 -10 l0 -10 l-149 0 l-150 0 l-1 -129 q0 -88 -0.5 -110 q-0.5 -22 -1.5 -29 q-2 -10 -6.5 -23 q-4.5 -13 -8.5 -21.5 q-4 -8.5 -10.5 -18 q-6.5 -9.5 -15.5 -18.5 q-10 -11 -20 -18 q-11 -9 -23 -15 q-11 -6 -12.5 -6 q-1.5 0 -1.5 8 q0 7 1 8 q1 1 10 8 q8 6 12.5 10.5 q4.5 4.5 9.5 11.5 q6 8 11 19 q5 10 8 20 l4 11 l0 154 q0 155 0.5 156.5 q0.5 1.5 172.5 1.5 ZM415 340 l22 0 l0 -45 q0 -46 1.5 -46.5 q1.5 -0.5 19.5 -0.5 l18 0 l0 -9 l1 -9 l-20 0 l-20 0 l0 -83 q-1 -83 -3.5 -91.5 q-2.5 -8.5 -6.5 -16.5 q-4 -8 -9 -14 q-5 -5 -9 -7 q-4 -3 -10 -2 l-6 0 l-1 68 l0 69 l-11 -18 q-11 -18 -12 -17 q0 1 -4 10 q-2 7 -6 15 q-5 8 -11 16 q-6 8 -13.5 15 q-7.5 7 -11.5 9.5 q-4 2.5 -4 5.5 l0 3 l10 0 q11 -1 19 -3 l16 -6 q7 -4 14 -10 q7 -7 10 -12 l4 -6 l0 37 l0 37 l-36 1 l-37 0 l0 9 l0 10 l36 0 l37 0 l0 46 l0 45 l23 0 ZM236 322 l83 0 l0 -10 l0 -9 l-83 0 l-83 0 l0 9 l0 10 l83 0 ZM286 276 l22 0 l0 -40 l-1 -40 l-3 -11 q-4 -10 -8 -16 q-3 -6 -6 -9 q-3 -4 -6 -6 q-4 -3 -12 -3 l-7 0 l-1 9 l0 9 l-34 0 l-35 0 l-1 -2 q-2 -3 -7 -8 q-5 -6 -8 -7 q-3 -2 -10 -2 l-6 0 l0 63 l0 62 l22 0 l21 0 l0 -4 l0 -5 l29 0 l30 0 l0 5 l0 5 l21 0 ZM235 247 l-29 0 l0 -21 q0 -21 -1 -27.5 q-1 -6.5 -2 -7.5 l5 -2 l26 0 l31 0 l0 29 l0 29 l-30 0 ZM146 145 q6 0 16 -2 q10 -2 18 -5 q8 -4 14.5 -9 q6.5 -5 10.5 -11 q5 -5 6 -8 q1 -3 -10 -21 q-3 -5 -5.5 -9.5 q-2.5 -4.5 -4.5 -6.5 l-2 -2 q0 1 -3 8 l-6 14 q-3 7 -8 14 q-5 7 -13 15 q-7 8 -14 13 q-6 5 -6 7.5 q0 2.5 7 2.5 ZM292 145 q2 0 6 -21 q4 -16 5 -23 q0 -1 -8 -2 q-9 -2 -17 -5 q-8 -4 -15 -9.5 q-7 -5.5 -15.5 -13 q-8.5 -7.5 -8.5 -9 q0 -1.5 46 -1.5 l46 0 l-1 -9 l0 -10 l-102 0 l-102 0 l0 10 l-1 9 l54 0 l54 1 l5 13 q6 14 11 23 q6 11 11 19 q7 8 12 15 q7 6 13 10 q6 3 7 3 Z" /><glyph glyph-name="uni53BB" unicode="&#x53bb;" d="M253 378 l22 0 l0 -45 l0 -45 l72 0 l73 0 l0 -10 l0 -9 l-73 0 l-72 0 l0 -33 q0 -32 -2.5 -40.5 q-2.5 -8.5 -5 -13.5 q-2.5 -5 -6.5 -11 l-4 -5 l106 0 l105 0 l0 -10 l0 -9 l-99 -1 l-99 0 l-20 -23 q-25 -30 -29 -35 q-10 -12 -19 -20 q-10 -9 -19 -16 q-9 -7 -20 -14 q-10 -7 -18 -11 q-7 -4 -7 -5 q0 -1 109 -1 q109 0 109 1.5 q0 1.5 -6 10.5 q-5 8 -11 19 q-7 10 -10 14 q-4 4 -3 10 q0 4 0.5 5 q0.5 1 2.5 0 q1 0 13 -6 q11 -7 22 -15 q12 -9 22 -19 q10 -11 16 -20 q7 -9 15 -24 q7 -15 7 -16 q0 -1 -25 -1 l-24 1 l-4 9 q-1 3 -2 5.5 q-1 2.5 -1 3.5 l-1 2 q-1 2 -137 2 l-136 0 l0 9 l0 9 l7 5 q8 6 21 17 q13 11 29 27 q16 17 21 23 q6 8 20 30 q16 22 16 23 q0 1 -83 1 l-82 0 l1 9 l0 9 l93 1 l93 0 l0 51 l0 52 l-68 0 l-68 0 l0 10 l-1 9 l69 0 l68 0 l0 45 l0 45 l23 0 Z" /><glyph glyph-name="uni53C8" unicode="&#x53c8;" d="M242 370 l133 0 l0 -3 q1 -2 0 -86.5 q-1 -84.5 -3 -94.5 q-2 -9 -5 -17 q-2 -7 -9 -20 q-7 -13 -16 -26 q-10 -12 -18 -21 q-10 -10 -19 -17 q-9 -7 -8 -8 q0 -1 9 -7 q6 -4 24 -15 q15 -9 37 -20 q21 -11 38 -18 l16 -7 l0 -8 q0 -8 -1 -8 q-1 0 -20 5 q-19 6 -35 11 q-16 6 -33 13 q-17 7 -34 16 q-13 6 -25 13 l-8 4 l-7 -4 q-7 -4 -23 -12 q-18 -9 -33 -16 q-18 -7 -31 -12 q-12 -4 -32 -10 q-19 -6 -33 -10 l-14 -3 q-1 0 -1 6 l0 5 l18 7 q19 8 37 16 q19 9 34 17 q14 8 27 16 q12 8 20 14 l9 6 l-9 8 q-10 7 -20 17 q-11 12 -17 20 q-8 10 -14 20 q-6 11 -10 21 q-4 10 -7 21 q-3 12 -4 25 q-1 13 -1 77 l0 66 l-22 0 l-23 0 l0 9 l0 10 l133 0 ZM265 351 q-67 0 -68 -1 q-1 -1 -1 -64 q0 -63 1 -72 q2 -9 6 -21 q3 -11 9 -22 q5 -11 12 -21 q7 -10 18 -24 q11 -13 17 -18 q7 -6 8 -6 q1 0 12 13 q12 12 19 21 q6 9 11 18 q4 6 11 20 q5 11 9 22 l3 10 l1 73 l0 72 l-68 0 Z" /><glyph glyph-name="uni53CA" unicode="&#x53ca;" d="M251 370 l65 0 q30 0 47 0 l18 -1 q-1 -1 -27 -55 q-27 -54 -26.5 -55.5 q0.5 -1.5 41.5 -1.5 l44 0 l2 0 l0 -65 q-1 -65 -3 -74 q-2 -9 -6 -19 q-3 -8 -9 -17 q-6 -9 -11 -16 q-6 -7 -6 -8 q0 -1 7 -4 q8 -3 19.5 -7.5 q11.5 -4.5 25.5 -7.5 q13 -3 15.5 -3 q2.5 0 2.5 -1 q0 -1 -21 -20 q-22 -18 -24 -18 q-2 0 -15 5 q-14 4 -28 11 l-20 10 l-5 4 l-9 -4 q-8 -4 -18 -8 q-10 -4 -21 -7 q-11 -3 -27 -7 q-15 -3 -45 -6 q-30 -3 -36 -4 q-5 -1 -5 1 q0 2 14 5 q16 3 32 7 q17 4 30 9 q12 5 24 11 q10 6 22 13 q2 1 5 3 l4 3 l2 1 q1 0 -3 4.5 q-4 4.5 -10 10.5 q-14 13 -22 23 q-6 8 -18 25 q-9 14 -18 32 q-9 18 -13 29 l-4 11 l-1 -9 q-1 -8 -3 -20 q-2 -10 -5 -19 q-2 -7 -9 -22 q-7 -14 -15 -24 q-8 -12 -22 -25 q-13 -14 -25 -23 q-9 -7 -20 -15 q-10 -6 -23 -14 q-14 -7 -25 -13 q-12 -6 -12.5 -6 q-0.5 0 -0.5 7 l0 7 l13 9 q14 11 25 21 q12 11 19 19 q8 8 17 20 l14 21 q6 10 11 21 q5 11 9 23 q4 11 7 23 q2 11 2 101 l0 90 l-28 0 l-29 0 l0 8 l0 10 q1 1 131 1 ZM277 351 l-57 0 l0 -56 l0 -56 l12 -24 q12 -24 20 -36 q8 -13 16 -25 q9 -11 19 -23 q10 -12 22 -24 q13 -12 24 -20 q12 -9 13 -9 q1 0 7 10 q7 11 10.5 19.5 q3.5 8.5 6 16.5 q2.5 8 2.5 62 l0 53 l-46 -1 q-45 0 -45 0.5 q0 0.5 26 56.5 q27 54 27 55 q0 1 -57 1 Z" /><glyph glyph-name="uni53CD" unicode="&#x53cd;" d="M414 377 q7 9 8 9 q1 0 4 -8 l3 -7 l-3 -6 q-4 -6 -11 -12 q-7 -7 -16 -11.5 q-9 -4.5 -19 -7.5 q-9 -2 -104 -3 l-96 0 l0 -36 l0 -36 l103 0 l103 0 l-1 -71 q0 -72 -2 -80.5 q-2 -8.5 -4.5 -15.5 q-2.5 -7 -7.5 -17 q-5 -9 -11 -17 q-6 -9 -15.5 -18 q-9.5 -9 -14.5 -12 q-4 -3 -4 -3.5 q0 -0.5 9.5 -6.5 q9.5 -6 17.5 -10 q8 -4 20 -8 l12 -5 l0 -4 q1 -4 0 -5 q-1 -1 -19 2 q-17 3 -30 8 q-13 4 -24 9 l-11 5 l-10 -5 q-10 -4 -21 -8 q-11 -4 -21 -6 q-11 -3 -19 -4 q-8 -2 -10.5 -2 q-2.5 0 -2.5 0 l0 5 l0 6 l9 3 q10 3 20 8 q10 5 19.5 10.5 q9.5 5.5 9.5 6.5 q0 1 -5 5 q-6 4 -12.5 10 q-6.5 6 -12.5 14 q-7 8 -11 15 q-4 6 -8 15 q-2 7 -6 18 l-3 11 l0 64 l0 64 l-19 0 l-18 0 l0 -68 q0 -67 -1.5 -77.5 q-1.5 -10.5 -4.5 -20.5 q-3 -10 -7 -19.5 q-4 -9.5 -8 -17.5 l-10 -14 q-5 -8 -15 -17 q-11 -11 -21 -18 q-11 -7 -20 -11.5 q-9 -4.5 -10 -4.5 q-1 0 -1 8 l0 8 l7 4 q7 5 14 13 q9 8 15 18 q6 9 10 17 q3 10 6 18 l2 9 l1 156 l0 156 l22 0 l21 0 l0 -10 l0 -9 l99 0 q99 0 107 1 q8 2 14 5 q6 3 14 11 ZM300 240 l-41 0 l0 -55 l1 -55 l3 -11 q3 -11 8 -23 q5 -12 11 -22 q6 -10 12 -17 q5 -8 6 -8 q2 0 9 9 q5 7 9 13 q3 5 8 16 q6 12 9 20 q3 8 5 17 q2 10 2 63 l0 53 l-42 0 Z" /><glyph glyph-name="uni53D1" unicode="&#x53d1;" d="M244 392 q23 0 23 -1 q0 -1 -12 -60.5 q-12 -59.5 -12 -60.5 q0 -1 97 -1 l97 0 l0 -10 l0 -10 l-100 0 l-99 0 l-5 -20 q-4 -16 -7 -25 q-1 -5 -1 -6.5 q0 -1.5 80 -0.5 l80 0 l-4 -10 q-4 -12 -11 -26 q-7 -15 -15 -29 q-9 -15 -18 -27 q-10 -13 -17 -22 q-8 -8 -7.5 -10 q0.5 -2 17.5 -13 q18 -11 31 -18 q14 -8 29 -15 q13 -6 31 -13 q16 -5 25 -8 l9 -3 q-1 -1 -16 -15 l-15 -14 q-1 0 -13 5 q-14 4 -22 8 q-10 4 -18 7 q-9 5 -20 11 q-9 5 -21 13 q-10 7 -18 13 q-3 3 -15 13 l-8 7 l-12 -10 q-13 -10 -27 -19 q-16 -11 -33 -19 q-16 -9 -30 -14 q-11 -5 -25 -9 q-11 -4 -26 -7 q-13 -4 -21 -5 q-5 -1 -6.5 2 q-1.5 3 -1.5 4 l5 1 q4 2 17 7 q13 5 24 11 l21 10 q10 5 24 15 q15 10 25 18 q11 9 27 24 q15 14 14 16 q0 1 -8.5 11.5 q-8.5 10.5 -17.5 23.5 q-10 15 -19 33 l-10 19 l-7 -12 q-7 -12 -17 -28 q-11 -16 -22 -30 q-10 -12 -25 -29 q-12 -15 -40 -42 q-23 -23 -32 -30 l-5 -5 l-2 3 q-2 4 -2 5 q0 1 13.5 17.5 q13.5 16.5 23.5 29.5 q11 16 21 31 q12 18 21 34 q6 11 14 25 q4 7 12 24 q8 17 12 26 q3 9 8 26 q5 17 8 28 l4 13 l-52 0 l-52 1 l-1 9 q0 9 1.5 10 q1.5 1 5.5 22 q2 11 9 46 q4 25 4 26 q0 1 22.5 1 q22.5 0 23 -0.5 q0.5 -0.5 -8.5 -45.5 q-9 -46 -9 -47 q0 -2 30 -2 q30 0 31 1 q1 1 8 40 q9 44 12 60 l4 22 l22 0 ZM274 177 l-58 0 l-3 -5 q-2 -5 -2 -6 q0 -1 3 -1 q3 0 4.5 -1 q1.5 -1 10.5 -13 q10 -12 31 -33 q21 -22 22.5 -22 q1.5 0 11.5 14 q9 12 16 25 q6 9 14 24 q6 13 7 16 l1 2 l-58 0 ZM326 357 q1 0 11 -1 q10 -2 17.5 -4 q7.5 -2 17.5 -7 q8 -5 17 -12 q7 -7 10 -11 l2 -4 l-12 -13 q-11 -12 -14 -14 q-2 -2 -3.5 2 q-1.5 4 -5.5 12 q-4 8 -8 15 q-5 7 -12 14 q-8 8 -16 14 q-7 5 -7 6.5 q0 1.5 1 2.5 l2 0 Z" /><glyph glyph-name="uni53D6" unicode="&#x53d6;" d="M183 375 l117 0 l1 -9 l0 -10 l-22 0 l-21 0 l0 -107 q0 -108 1 -108.5 q1 -0.5 9 1.5 q7 2 8 2 q1 0 1 -9 l0 -9 l-9 -3 l-9 -2 l0 -52 q-1 -35 -1 -44.5 q0 -9.5 -2 -13.5 q-2 -5 -5 -11 q-4 -5 -9 -9 q-5 -3 -9 -5 q-5 -1 -11 -1 l-6 0 l0 61 q0 61 -2 61 q-1 0 -16 -5 q-4 -1 -12 -3.5 q-8 -2.5 -20 -6 q-12 -3.5 -19 -5.5 q-24 -8 -59 -18 q-23 -7 -24 -7 l0 9 l0 10 l23 7 q23 7 24 7.5 q1 0.5 0 130.5 l-1 130 l-23 1 l-23 0 l0 8 q0 8 0.5 9.5 q0.5 1.5 118.5 0.5 ZM184 356 l-30 0 l0 -33 l0 -34 l30 0 l30 0 l0 34 l0 33 l-30 0 ZM185 271 q-30 0 -30.5 -1 q-0.5 -1 -0.5 -34 l0 -32 l30 0 l30 0 l0 33 l0 34 l-29 0 ZM185 184 l-31 0 l0 -32 q0 -31 -2 -38 q-2 -7 -1.5 -7 q0.5 0 30.5 9 q31 9 32 10 q2 1 2 30 l1 28 l-31 0 ZM347 336 l80 -1 l0 -109 l0 -109 l-3 -11 q-3 -11 -8 -20 q-4 -9 -10 -18 q-6 -7 -14 -15 l-8 -8 l9 -6 q9 -5 23 -13 q17 -8 22 -10 l8 -3 l0 -9 l0 -8 l-5 0 q-6 1 -20 6 q-15 4 -29 9 q-13 6 -24 11 l-11 5 l-5 -3 q-5 -3 -19 -9 q-14 -6 -29 -11 q-14 -4 -29 -8 q-14 -3 -15 -3 q-1 0 -1 4 l0 5 l10 4 q11 4 27 12 q17 8 28 16 q10 7 10 7.5 q0 0.5 -4.5 4 q-4.5 3.5 -14.5 13.5 q-10 11 -16 20 q-5 8 -9 20 q-4 11 -5 22 q-1 10 -1 103 l0 92 l-9 0 l-9 0 l0 9 l0 10 q1 1 81 1 ZM356 316 l-29 0 l0 -100 l1 -100 l3 -8 q3 -8 8 -17 q5 -9 13 -17 l8 -9 l4 4 q3 4 8 12 q5 8 8 16 q3 8 4 17 q1 10 1 105 l-1 97 l-28 0 Z" /><glyph glyph-name="uni53D7" unicode="&#x53d7;" d="M444 385 q9 7 9.5 7 q0.5 0 5 -3 q4.5 -3 4.5 -4 q0 -1 -3 -3 l-14 -10 q-11 -8 -25 -16 q-12 -8 -25 -15 q-14 -6 -27 -11 q-13 -5 -26 -8.5 q-13 -3.5 -21 -5.5 q-10 -1 -20 -1 q-8 0 -119 1 q-107 2 -108.5 2.5 q-1.5 0.5 -1.5 13.5 l0 14 l139 0 q140 1 150 3 q9 2 20 6 q11 4 31 14 q20 9 31 16 ZM163 296 l22 0 l0 -12 q0 -12 -2 -20 q-1 -8 -4.5 -14.5 q-3.5 -6.5 -7.5 -10 q-4 -3.5 -10.5 -6.5 q-6.5 -3 -12.5 -3 l-7 0 l0 33 l0 33 l22 0 ZM252 296 l22 0 l0 -13 q0 -14 -2 -20.5 q-2 -6.5 -4 -11.5 q-3 -5 -7 -10 q-4 -5 -10 -8 q-6 -3 -13 -3 l-8 0 l0 33 l0 33 l22 0 ZM343 296 l21 0 l0 -15 q0 -14 -1.5 -20 q-1.5 -6 -3.5 -10 q-2 -4 -7 -10 q-6 -6 -11.5 -8.5 q-5.5 -2.5 -12.5 -2.5 l-6 0 l0 33 l0 33 l21 0 ZM85 236 l21 -1 q1 -1 -0.5 -7.5 q-1.5 -6.5 -1 -7 q0.5 -0.5 141.5 -0.5 l141 -1 l0 5 l0 4 l6 1 q3 0 19 1 q14 1 15 -1 q1 -3 1 -7 q1 -6 3 -14 q3 -10 5 -16 q2 -7 5 -13 q3 -5 3 -6.5 q0 -1.5 -3 -0.5 l-12 4 q-8 4 -17 10 q-9 6 -13 10 l-4 5 l-151 0 l-151 0 l-7 -5 q-8 -6 -16 -10 q-9 -4 -15 -6 q-6 -3 -6.5 -2.5 q-0.5 0.5 4.5 10.5 q5 11 7 23 q4 13 4 19 l1 7 l20 -1 ZM238 160 l109 0 l-1 -30 q0 -30 -2 -38 q-2 -6 -6 -17 q-4 -9 -9 -18 q-6 -8 -15 -17 q-9 -10 -17 -15 l-8 -6 l18 -9 q17 -8 34 -15 q14 -5 31 -11 q17 -6 18 -6 q1 0 1 -5 q0 -5 -1 -5.5 q-1 -0.5 -20 2 q-19 2.5 -37 6.5 q-18 4 -32 8 q-14 4 -30 10 l-15 7 l-9 -4 q-9 -4 -21 -8 q-12 -4 -26 -8 q-11 -3 -27 -6 q-14 -3 -32 -5.5 q-18 -2.5 -19 -2 q-1 0.5 -1 5.5 q0 5 1 5 q1 0 3 1 q2 1 7 2.5 q5 1.5 8 2.5 q15 5 31 11 q12 5 32 14 q18 9 18 9.5 q0 0.5 -9 8.5 q-10 7 -17 15 q-7 7 -12 15 q-4 6 -8 14.5 q-4 8.5 -6 17.5 q-3 10 -3 32 l-1 21 l-18 0 l-18 0 l0 9 l0 9 l109 0 ZM256 142 q-46 0 -47 -2 q-1 -2 -0.5 -19 q0.5 -17 3.5 -24 q2 -5 5 -12 q3 -5 10 -15 q7 -9 16 -17 q10 -9 11 -10 q2 -1 9.5 5 q7.5 6 14.5 14 q8 9 12 16 q5 8 8.5 15.5 q3.5 7.5 3.5 28.5 l0 20 l-46 0 Z" /><glyph glyph-name="uni53D8" unicode="&#x53d8;" d="M274 378 l21 0 l-1 -8 q-2 -8 -5 -14.5 q-3 -6.5 -7.5 -11 q-4.5 -4.5 -9.5 -6.5 q-3 -1 2 -2 l87 0 l93 -1 l1 -9 l0 -10 l-61 0 l-62 0 l0 -50 q-1 -51 -3 -55 q-2 -5 -6 -9 q-4 -4 -11 -7 q-7 -3 -15 -4 l-9 0 l0 63 l0 63 l-17 -1 l-18 0 l-1 -52 l-1 -51 l-3 -6 q-3 -5 -9 -9 q-6 -4 -11 -5 q-6 -2 -12 -2 l-6 0 l0 63 l0 62 l-58 0 l-57 0 l0 10 l0 9 l79 1 l78 0 l0 21 l0 21 l22 0 ZM143 287 q8 -3 18 -6 q17 -6 17 -7 q0 -1 -5 -7 q-5 -6 -13 -13 q-9 -8 -17 -14 q-9 -7 -21 -14 q-13 -8 -21 -12 q-8 -4 -20 -9 q-11 -4 -12 -2.5 q-1 1.5 2 3.5 q3 2 14 11 q11 9 23 21 q12 12 19 21 q8 11 12 19 l4 9 ZM374 276 q3 5 4 5 q1 0 6 -3 q6 -4 13 -11.5 q7 -7.5 13 -16.5 q5 -8 10 -21 q5 -12 5 -13 q0 -1 -4 -1 q-4 0 -13 7 q-9 7 -23 14 q-13 6 -19 8 q-6 1 -7 2 q-1 1 5 13 q2 4 5.5 10 q3.5 6 4.5 7 ZM254 179 l125 0 q3 -1 3 -10 q0 -9 -1 -9 q-1 0 -15 -17 q-14 -17 -27 -30 q-14 -13 -23 -20 q-9 -8 -18.5 -15 q-9.5 -7 -10.5 -7 q0 -1 2 -2 q2 -1 5.5 -2.5 q3.5 -1.5 7.5 -3.5 q15 -7 29 -12 q16 -6 42 -12 q29 -8 36 -10 l7 -3 l0 -16 q0 -17 -1 -17 q-1 0 -18 5 q-11 3 -38 12 q-22 7 -34 12 q-13 5 -30 14 q-19 9 -25 13 q-7 4 -8.5 4 q-1.5 0 -15.5 -8 q-14 -8 -33 -17 q-21 -10 -38 -17 q-18 -7 -36 -13 q-17 -6 -38 -11 q-21 -6 -26 -6 q-5 0 -12 2 l-7 2 l19 6 q17 7 30 12 q12 5 32 13 q19 8 47 22 q26 13 40.5 21.5 q14.5 8.5 14 9.5 q-0.5 1 -9.5 8 q-11 8 -20 17 q-12 10 -22 22 q-12 13 -19 23 l-8 11 l4 1 q4 1 8 1 q4 0 18 -12 q15 -13 29 -24 q15 -12 28 -22 q14 -9 16 -9 q2 1 10 8 q8 6 19 16 q10 10 15 17 q5 6 15 20 l9 14 l-102 0 l-101 0 l0 9 q0 9 2 9.5 q2 0.5 124 0.5 Z" /><glyph glyph-name="uni53E3" unicode="&#x53e3;" d="M138 345 l21 -1 l0 -6 l1 -7 l96 0 l97 1 l0 6 l1 7 l21 0 l21 -1 l1 -143 q0 -143 -2 -151.5 q-2 -8.5 -4 -14.5 q-3 -6 -7 -10 q-4 -5 -10.5 -8 q-6.5 -3 -13.5 -3 l-7 0 l0 31 l0 31 l-97 1 l-96 0 l0 -9 q-1 -10 -2 -19 q-2 -8 -4.5 -14 q-2.5 -6 -7.5 -11 q-4 -4 -10 -7 q-6 -3 -13 -3 l-7 0 l0 166 l0 165 l22 0 ZM257 312 l-97 0 l0 -108 l0 -109 l96 0 l97 1 l0 108 l0 108 l-96 0 Z" /><glyph glyph-name="uni53EA" unicode="&#x53ea;" d="M379 375 l22 0 l0 -91 q0 -91 -1 -98 l-4 -12 q-3 -4 -7 -9 q-4 -5 -11 -8.5 q-7 -3.5 -14 -3.5 l-7 0 l0 13 l-1 13 l-92 0 l-92 1 l-3 -6 q-3 -6 -7 -11 q-5 -6 -11 -8 q-6 -3 -13 -3 l-8 0 l0 111 l0 110 l22 0 l22 0 l0 -6 l0 -6 l92 0 l91 0 l0 7 l0 7 l22 0 ZM266 337 l-92 0 l0 -67 l0 -68 l92 0 l91 0 l0 68 l0 67 l-91 0 ZM214 141 l30 0 l-9 -18 q-9 -17 -18 -32 q-9 -14 -19 -26 l-22 -24 q-13 -12 -20 -18 q-9 -7 -20 -15 q-10 -7 -19 -11 q-11 -5 -19 -9 l-10 -4 l-6 3 l-4 3 q1 1 10 8 q10 8 24.5 23 q14.5 15 24.5 29 q10 13 15 20 l9 18 q6 11 8 17 q2 6 9 21 l6 15 l30 0 ZM313 122.5 q1 1.5 2 1.5 q1 0 12.5 -3.5 q11.5 -3.5 22.5 -8.5 q11 -5 19 -9 q9 -5 18 -12 q9 -7 17 -15 q8 -9 14 -19 q7 -10 11 -19 q3 -9 4 -13 l1 -3 l-29 -5 q-28 -5 -30 -5 q-1 0 -1 5.5 q0 5.5 -2 14.5 q-1 9 -4 17 q-3 8 -6.5 15.5 q-3.5 7.5 -7.5 13.5 l-11 14 q-7 9 -15.5 16.5 q-8.5 7.5 -12.5 10.5 q-3 2 -2 3.5 Z" /><glyph glyph-name="uni53EF" unicode="&#x53ef;" d="M255 375 l195 0 l0 -10 l0 -10 l-28 0 l-27 0 l-1 -162 q0 -162 -2 -169 q-2 -7 -7 -17.5 q-5 -10.5 -10 -15.5 q-5 -5 -10 -7 q-4 -1 -9 0 l-4 0 l-1 186 l0 185 l-145 0 l-146 0 l0 10 l0 10 l195 0 ZM144 300 l21 0 l0 -6 l0 -7 l44 0 l44 0 l0 7 l0 6 l17 0 l16 0 l0 -94 q0 -93 -1 -101 q-2 -7 -5 -15 q-2 -6 -6 -13 q-4 -7 -10 -12 q-5 -5 -8 -5 q-3 0 -3 11 l0 11 l-48 0 l-48 0 l-5 -8 q-5 -8 -10 -11 q-4 -3 -12 -3 l-7 0 l0 120 l0 120 l21 0 ZM209 267 l-44 0 l0 -78 l0 -83 l-1 -5 l45 0 l44 0 l0 83 l0 83 l-44 0 Z" /><glyph glyph-name="uni53F0" unicode="&#x53f0;" d="M261 392 q29 0 29 -2 q0 -2 -2 -6 q-1 -2 -10 -15 q-8 -11 -16 -21 q-8 -9 -17.5 -19 q-9.5 -10 -21.5 -21 q-11 -10 -24 -20 q-14 -11 -24 -18 q-14 -10 -32 -21 q-18 -11 -26 -16 q-8 -4 -8 -5 q0 -1 128.5 -1 q128.5 0 128.5 1.5 q0 1.5 -7 13.5 q-11 15 -14 19 q-5 7 -14 19 q-9 11 -8 16.5 q1 5.5 1.5 6 q0.5 0.5 6.5 -2.5 q6 -3 16 -9 q12 -8 17 -11.5 q5 -3.5 17 -13.5 q11 -10 19 -20 q10 -10 15 -18 q4 -6 9 -14 q4 -7 7 -15 q2 -7 2 -7.5 q0 -0.5 -25 -0.5 l-25 0 l-2 8 q-2 7 -3.5 8.5 q-1.5 1.5 -150.5 1.5 l-149 0 l0 10 q0 9 2 11 q2 1 18 14 q16 12 27 22 q11 10 26 24 q14 14 26 27 q11 12 20 23 q8 10 16 22 q8 11 13 20 l6 10 l29 0 ZM133 167 l21 0 l0 -6 l0 -5 l94 0 l94 0 l0 5 l1 5 l21 0 l22 0 l0 -75 q0 -75 -2 -83 q-2 -8 -7 -14 q-4 -7 -9 -10 q-6 -4 -10 -5 q-4 -1 -10 -1 l-5 0 l-1 9 l0 9 l-95 0 l-95 0 l-4 -9 q-5 -8 -10 -13 q-6 -4 -11.5 -6 q-5.5 -2 -10.5 -1 l-5 0 l0 99 q0 98 0.5 99.5 q0.5 1.5 21.5 1.5 ZM249 136 q-94 0 -94.5 -0.5 q-0.5 -0.5 -0.5 -60.5 l0 -60 l94 0 l94 0 l0 61 l0 60 l-93 0 Z" /><glyph glyph-name="uni5403" unicode="&#x5403;" d="M282 336 q5 0 25 -1 q17 -2 17 -4 q0 -1 -6 -28 q-2 -7 -3.5 -14 q-1.5 -7 -2.5 -11 l-1 -5 l-1 -4 l69 0 l68 0 l0 -11 l-1 -10 l-73 0 l-73 -1 l-3 -6 q-4 -7 -11 -17 q-6 -9 -21 -23 q-14 -14 -25 -23 l-10 -8 q-9 -8 -9.5 -7 q-0.5 1 -10.5 -5 q-10 -6 -11 -6 q-1 0 -1 -31.5 q0 -31.5 -1 -39.5 q-2 -7 -5 -12 q-2 -6 -7 -10 q-4 -5 -10 -7.5 q-6 -2.5 -13 -2.5 q-7 0 -7 1.5 q0 1.5 -33.5 1.5 q-33.5 0 -38.5 -1.5 q-5 -1.5 -11 -1.5 l-7 0 l0 121 l0 121 l22 0 l21 0 l0 -4 l0 -4 l24 0 l23 0 l0 4 l0 4 l22 0 l21 0 l0 -61 l1 -61 l8 9 q8 8 15 17 q8 10 14 19 q6 10 14.5 26.5 q8.5 16.5 8.5 22.5 q0 6 2 6 q2 1 4 7 q2 6 6 34 l4 26 l7 0 ZM132 248 l-24 0 l0 -86 q0 -85 -1 -92 q-1 -3 -2 -7 l0 -1 q0 -1 25 -1 l25 0 l0 93 l0 94 l-23 0 ZM420 62 l-40 0 l0 -30 l-96 0 q1 9 1 17 l0 13 l129 129 l0 17 l-123 0 l0 -17 l77 0 l-122 -129 l0 -70 q22 -2 33 23 l101 0 l0 -23 q10 -1 20 6 q20 14 20 51 l0 13 Z" /><glyph glyph-name="uni540E" unicode="&#x540e;" d="M436 366 q7 8 7.5 7.5 q0.5 -0.5 3 -6.5 q2.5 -6 2.5 -8 q0 -2 -3 -7 q-3 -6 -9 -11 q-6 -5 -12 -9 q-6 -3 -14 -6 q-9 -3 -18 -4 q-9 -2 -125 -2 l-116 0 l0 -29 l0 -28 l156 0 l156 -1 l0 -9 l0 -9 l-156 0 l-156 -1 l0 -61 q0 -62 -2 -73 q-2 -9 -5 -21 q-4 -10 -9 -22 q-6 -11 -10.5 -18 q-4.5 -7 -12.5 -15.5 q-8 -8.5 -16 -14.5 q-8 -7 -14 -12 q-8 -4 -19 -10 q-12 -6 -13.5 -6.5 q-1.5 -0.5 -2 0 q-0.5 0.5 0.5 3.5 q2 4 11 10 q9 6 17 14 q7 8 14 17 q6 10 9 18 q4 9 6.5 18 q2.5 9 2.5 149 l1 141 l21 0 l21 0 l0 -6 l0 -6 l125 0 q126 0 134 2 q7 2 12 6 q6 3 13 10 ZM214 176 l22 0 l0 -7 l1 -7 l73 0 l73 -1 l0 8 l0 7 l22 0 l23 0 l0 -75 q0 -75 -2 -82.5 q-2 -7.5 -5 -14.5 q-4 -7 -8 -11 q-4 -3 -10 -5.5 q-6 -2.5 -13 -2.5 l-6 0 l-1 15 l0 14 l-74 0 l-75 0 l-3 -6 q-2 -7 -8.5 -13.5 q-6.5 -6.5 -12 -8 q-5.5 -1.5 -11.5 -1.5 l-6 0 l0 95 l0 96 l21 0 ZM310 143 l-74 0 l0 -55 l0 -54 l74 0 l73 0 l0 54 l0 55 l-73 0 Z" /><glyph glyph-name="uni5417" unicode="&#x5417;" d="M305 370 l97 -1 l0 -71 q0 -71 -2.5 -79 q-2.5 -8 -6.5 -13 q-3 -5 -7 -9 q-4 -3 -9 -5 q-5 -2 -12 -2 l-7 0 l0 80 l0 81 l-75 0 l-74 0 l0 9 l0 10 l96 0 ZM87 369 l21 0 l0 -3 l0 -3 l15 0 q16 1 16 3 l0 3 l22 0 l21 -1 l0 -127 q0 -128 -1.5 -135 q-1.5 -7 -4 -12 q-2.5 -5 -6.5 -10 q-4 -5 -11 -8.5 q-7 -3.5 -13 -3.5 l-7 0 l0 9 l0 8 l-19 0 l-19 1 l-4 -6 q-5 -5 -12 -8 q-7 -4 -13 -4 l-7 0 l0 149 l0 148 l22 0 ZM123 344 l-15 0 l0 -118 l0 -117 l16 0 l15 0 l0 117 l0 117 l-16 1 ZM261 340 l21 0 l-1 -69 q0 -69 -2 -76 q-3 -6 -3 -7 l85 0 l85 0 l0 -79 q0 -78 -2 -86 q-2 -8 -4 -14 q-3 -6 -8.5 -10.5 q-5.5 -4.5 -10 -7 q-4.5 -2.5 -12.5 -2.5 l-8 0 l0 90 l0 90 l-81 0 l-82 0 l0 85 q0 85 1 86 l22 0 ZM302 116 l79 0 l0 -10 l-1 -9 l-79 0 l-79 -1 l0 10 l0 10 l80 0 Z" /><glyph glyph-name="uni5426" unicode="&#x5426;" d="M260 371 l204 0 l0 -10 l0 -9 l-87 0 l-86 0 l-13 -17 q-12 -17 -12 -18 q0 -1 9 -1 l10 0 l0 -49 q0 -50 -2 -59 q-2 -9 -4 -16 q-3 -8 -8 -15.5 q-5 -7.5 -11 -10.5 q-5 -4 -11 -3 l-7 0 l0 61 l-1 61 l-19 -26 q-20 -26 -28 -34 q-7 -7 -16 -14 q-7 -6 -17 -12 q-8 -5 -18 -11 q-7 -4 -20 -10 q-11 -4 -23 -9 q-13 -5 -29 -9 q-18 -6 -20 -6 q-3 0 -2 6 l0 5 l13 6 q13 6 24 12 q13 8 22 14 q10 6 19 13 q7 6 16 15 q7 7 52.5 66 q45.5 59 46.5 60 l-11 0 q-11 0 -32.5 0.5 q-21.5 0.5 -49.5 0.5 l-92 0 l0 9 l0 10 l203 0 ZM328 295 q14 -1 27 -3 q12 -2 22 -5 q12 -3 19 -6 q8 -2 17 -7 q9 -5 16 -9 q6 -4 13 -10 q6 -6 9 -10 q2 -4 0 -6 q-1 -1 -22 -25 l-21 -23 q-1 -2 -5 4 q-1 2 -3 5 q-6 13 -13 22 q-7 10 -17 20 q-10 9 -20 17 q-11 8 -23 16 q-12 7 -19 10 q-6 2 -6 6 q0 3 1 3.5 q1 0.5 5 0.5 l20 0 ZM151 165 l21 0 l0 -5 l0 -6 l89 0 l89 0 l0 6 l0 5 l22 0 l22 0 l-1 -64 q0 -63 -3 -72 q-2 -8 -6 -18 q-4 -8 -10 -14 q-5 -5 -9.5 -7 q-4.5 -2 -9.5 -2 l-4 1 l-1 12 l0 13 l-93 0 l-93 0 l-2 -5 q-3 -6 -8 -11 q-6 -6 -10 -8 q-4 -2 -9 -2 l-6 1 l0 88 l0 88 l22 0 ZM261 135 l-89 0 l0 -46 l0 -51 l-1 -4 l89 0 l90 0 l0 50 l0 51 l-89 0 Z" /><glyph glyph-name="uni542B" unicode="&#x542b;" d="M226 377 q26 23 27.5 23 q1.5 0 28 -7.5 q26.5 -7.5 27 -8 q0.5 -0.5 -1.5 -2 q-2 -1.5 -5 -3.5 q-8 -6 -7 -7 l20 -18 q19 -16 26.5 -21 q7.5 -5 17.5 -10 q8 -5 25 -12 q13 -6 37 -14 q20 -7 23 -8 q2 0 -0.5 -4.5 q-2.5 -4.5 -7.5 -4.5 q-2 1 -6.5 1.5 q-4.5 0.5 -6.5 0.5 q-6 0 -22 3 q-15 3 -27 6 l-24 8 q-12 5 -25 12 q-13 7 -36 23.5 q-23 16.5 -25 15.5 l-14 -11 q-12 -9 -19 -13 q-6 -4 -18 -9 q-12 -5 -31.5 -11 q-19.5 -6 -42.5 -12 q-25 -6 -42 -10 l-19 -4 l-6 4 q-7 3 -7 4 q1 0 14 4 q14 4 29 9 q13 5 33 15 q19 10 31 17 q13 8 20 14 q12 11 34 30 ZM258 307 l21 0 l0 -9 q0 -9 -1 -17 q-2 -7 -5 -12.5 q-3 -5.5 -7.5 -10 q-4.5 -4.5 -9 -7 q-4.5 -2.5 -10.5 -2.5 q-6 -1 -8 -0.5 q-2 0.5 -2 29.5 l0 29 l22 0 ZM255 239 l95 0 l0 -10 q0 -10 -1.5 -10 q-1.5 0 -22.5 -31 q-22 -32 -39 -58 l-19 -28 l-20 0 q-21 1 -21.5 1.5 q-0.5 0.5 37.5 58.5 l38 57 l-71 0 l-71 0 l0 10 l0 10 l95 0 ZM153 94 l21 0 l0 -3 l0 -3 l81 0 l80 0 l0 3 l0 3 l22 0 l22 0 l0 -48 q0 -47 -3 -56 q-2 -9 -5 -14 q-3 -5 -7 -10 q-5 -4 -11.5 -6.5 q-6.5 -2.5 -11.5 -1.5 l-5 0 q-1 0 -1 9 l0 8 l-84 0 l-84 0 l-3 -4 q-3 -5 -9 -8 q-5 -3 -9 -5 q-5 -1 -9 -1 l-5 1 l-1 66 q0 67 0.5 68.5 q0.5 1.5 21.5 1.5 ZM256 68 q-80 0 -81 -1 q-1 -1 -1 -36 l0 -36 l81 0 l80 0 l0 36 l0 37 l-79 0 Z" /><glyph glyph-name="uni5438" unicode="&#x5438;" d="M292 375 q117 0 117 -1 q0 -1 -3 -7 q-1 -2 -3 -6.5 q-2 -4.5 -6 -12 q-4 -7.5 -7 -12.5 l-13 -27 l-13 -25 q-14 -27 -14 -28 q0 -1 31 -1 q31 0 31 -1 l0 -61 q-1 -60 -4 -68 q-2 -8 -5 -18 q-4 -9 -11 -19 l-8 -11 l17 -8 q17 -8 31 -13 q15 -5 29 -7.5 q14 -2.5 14 -3.5 q2 0 1.5 -1 q-0.5 -1 -23.5 -19 l-22 -18 l-9 3 q-9 2 -21 7 q-13 5 -21 9 q-10 5 -21 11 l-13 8 l-17 -9 q-17 -8 -31 -13 q-12 -4 -27 -8 q-13 -3 -22 -5 q-9 -1 -42 -5 q-33 -3 -37 -4 q-4 0 -4.5 2 q-0.5 2 11.5 4 q14 2 29 6 q18 4 28 7 q12 4 23 9 q14 6 25 12 q11 6 21 13 q8 5 13 9 l4 3 l-7 6 q-6 6 -17 19 q-11 13 -20 26 q-9 13 -15 25 q-6 11 -12 25.5 q-6 14.5 -8 16.5 l-2 -31 q0 -35 -4 -48 q-4 -14 -10 -26 q-6 -13 -12 -22 q-7 -10 -11 -16 q-7 -8 -16 -16 q-9 -9 -19 -17 q-10 -8 -22 -16 l-11 -8 l0 7 q-1 6 5 13 q6 6 13 15 q7 10 13 22 q8 13 13 27 q7 15 10 25 q2 10 5 23 q2 13 3 126 l0 113 l-10 0 l-11 1 l0 9 l-1 10 l118 0 ZM300 355 l-61 0 l0 -53 l0 -53 l5 -9 q4 -10 12 -26 q8 -14 19 -32 q11 -16 20 -27 q9 -11 20 -23 q11 -11 23 -21 q11 -10 13 -10 q1 1 7 13 q5 11 8 19 q2 8 2 56 l0 47 l-33 0 q-33 -1 -33 0 q0 2 18 36 q10 19 29 58 q12 24 12 24.5 q0 0.5 -61 0.5 ZM58 345 q21 -1 21.5 -3.5 q0.5 -2.5 15.5 -2.5 l14 0 l0 3 l0 3 l22 0 l22 -1 l1 -125 q0 -125 -1.5 -133.5 q-1.5 -8.5 -4.5 -14.5 q-3 -5 -7 -10 q-4 -4 -10 -7 q-6 -3 -14 -3 l-8 0 l0 8 l0 9 l-18 0 l-18 0 l-5 -6 q-6 -6 -11 -8 q-6 -3 -14 -3 l-8 0 l0 146 q0 146 1 147 q1 1 22 1 ZM95 321 q-14 0 -14.5 -1.5 q-0.5 -1.5 -0.5 -117.5 l-1 -116 l15 0 l15 0 l0 118 l0 117 l-14 0 Z" /><glyph glyph-name="uni5440" unicode="&#x5440;" d="M319 371 l137 0 l0 -10 l0 -9 l-40 0 l-40 0 l0 -57 l0 -56 l35 0 l34 0 l0 -9 l0 -9 l-34 0 l-35 0 l0 -96 q0 -95 -1 -102 q-1 -7 -4 -13 q-3 -6 -7.5 -10.5 q-4.5 -4.5 -10.5 -7.5 q-6 -3 -13 -3 l-7 0 l0 97 l0 96 l-10 -20 q-10 -19 -18 -31 q-7 -11 -14 -19.5 q-7 -8.5 -19 -20.5 q-13 -12 -20 -18 q-7 -6 -21 -14 q-13 -9 -30 -17 q-15 -8 -29 -13 q-13 -5 -16 -6 q-2 0 -3 2 q0 2 10 9 q10 7 27 20 q17 13 29 25 q12 12 19.5 21 q7.5 9 12.5 17 q6 9 12 20 q6 11 13 27 q7 18 13 35 q6 19 6 20.5 q0 1.5 -44 1.5 l-45 0 l0 54 l0 54 l22 0 l22 0 l0 -34 q-1 -35 -4 -44 q-1 -1 -2 -4 l-2 -5 l0 -1 l10 -2 l35 0 l45 0 l1 57 l0 56 l-76 0 l-76 0 l0 9 q0 9 1 9 q1 1 137 1 ZM79 355 l21 0 l0 -3 l0 -3 l15 1 q14 0 14.5 2.5 q0.5 2.5 22.5 2.5 l21 0 l0 -126 q0 -127 -1.5 -135.5 q-1.5 -8.5 -5 -15 q-3.5 -6.5 -7.5 -11.5 q-5 -4 -10 -6 q-5 -2 -12 -2 l-7 0 l0 8 l-1 8 l-18 1 l-18 0 l-5 -6 q-5 -6 -11 -8 q-5 -3 -13 -3 l-7 0 l0 148 l0 148 l22 0 ZM115 330 l-15 0 l0 -115 l0 -58 l0 -44 l0 -16 q0 -2 2 -2 l13 0 l14 0 l1 117 l0 118 l-15 0 Z" /><glyph glyph-name="uni5458" unicode="&#x5458;" d="M156 375 l16 0 l0 -4 l0 -3 l85 0 l85 0 l0 3 l0 4 l17 0 l16 0 l0 -49 q0 -49 -2 -56 q-1 -6 -4.5 -12 q-3.5 -6 -8.5 -9 l-10 -5 q-5 -2 -6.5 -2 q-1.5 0 -1.5 14 l0 14 l-86 1 l-85 0 l-3 -7 q-3 -6 -7 -11 q-4 -4 -11 -7 q-7 -4 -9 -4 q-2 0 -2 66 l0 67 l17 0 ZM257 348 l-85 0 l0 -29 l0 -30 l85 0 l85 0 l0 30 l0 29 l-85 0 ZM130 230 l16 0 l0 -3 l1 -4 l110 0 l110 0 l0 4 l0 3 l16 0 l16 0 l0 -67 l0 -67 l-3 -6 q-3 -6 -9 -12 q-6 -5 -11 -7 q-6 -2 -7 -2 q-2 0 -2 68 l0 67 l-110 0 l-110 0 l-1 -54 l-1 -54 l-3 -7 q-3 -6 -7 -10 q-4 -4 -9 -6 q-4 -3 -8 -4 l-4 0 l0 80 l0 81 l16 0 ZM259 168 l16 -8 q3 -2 6 -3.5 q3 -1.5 5 -2.5 l1 -1 l-3 -13 q-3 -13 -7 -24 l-9 -18 q-5 -9 -12 -18 q-7 -9 -15 -18 q-9 -10 -18 -16 q-9 -8 -19 -14 q-10 -7 -19 -11 q-10 -5 -20 -9 q-9 -4 -23 -8 q-13 -4 -26 -7 q-14 -3 -24 -5 q-8 -1 -17 -2 q-5 -1 -7.5 2.5 q-2.5 3.5 -2 4 q0.5 0.5 13.5 3.5 q14 4 24 8 q10 4 22 9 q11 5 21 11 q11 7 22 15.5 q11 8.5 23 19.5 q10 10 19 21 q9 11 15.5 21 q6.5 10 14.5 26 q7 16 11 26 l4 12 q0 2 4 -1 ZM302 80 q25 -1 33 -2.5 q8 -1.5 15.5 -4 q7.5 -2.5 13.5 -5.5 q8 -4 18 -11 q11 -6 19 -12 q6 -4 20 -17 q12 -10 20 -17 l5 -5 l-4 -1 q-3 -2 -25 -11 q-20 -9 -21.5 -9 q-1.5 0 -13.5 16 q-12 15 -27 27 q-14 12 -27 21 q-13 8 -23 13 q-11 6 -18 7.5 q-7 1.5 -13 1.5 q-4 0 -4.5 0.5 q-0.5 0.5 -0.5 3.5 q0 4 4 4.5 q4 0.5 29 0.5 Z" /><glyph glyph-name="uni5468" unicode="&#x5468;" d="M256 375 l181 0 l0 -170 q0 -171 -2 -179 q-2 -8 -5 -15 q-4 -7 -9 -12 q-6 -6 -12.5 -9.5 q-6.5 -3.5 -10.5 -4.5 l-3 -1 l-1 186 l0 186 l-138 0 l-138 0 l-1 -161 q0 -162 -2 -169 q-2 -7 -6 -14 q-3 -7 -8.5 -13 q-5.5 -6 -12 -9.5 q-6.5 -3.5 -10.5 -4.5 l-4 -1 l0 196 l0 195 l182 0 ZM268 337 l21 -1 l0 -17 l1 -17 l33 0 l33 0 l0 -10 l-1 -9 l-33 -1 l-32 0 l0 -5 q0 -6 -1 -12 q-2 -7 -4 -13 q-2 -7 -8 -12 q-5 -6 -9 -8 l-5 -2 l59 0 l59 0 l0 -10 l0 -10 l-117 0 l-117 0 l0 10 l0 10 l50 0 l50 0 l0 26 l0 26 l-39 0 l-40 0 l0 10 l0 10 l40 0 l39 0 l0 17 l0 18 l21 0 ZM196 190 l21 -1 l1 -8 l0 -8 l43 0 l42 0 l1 8 l0 8 l20 0 l21 0 l0 -51 q1 -51 -1 -59 q-1 -7 -4 -13 q-2 -6 -7 -11 q-4 -5 -10 -7 q-5 -3 -12 -3 l-8 0 l0 13 l0 12 l-44 0 l-44 0 l-3 -6 q-4 -6 -8 -10 q-4 -4 -10 -7 q-5 -2 -12 -2 l-7 1 l0 70 q-1 71 -0.5 72.5 q0.5 1.5 21.5 1.5 ZM261 153 l-43 0 l0 -32 l0 -32 l43 0 l42 0 l0 32 l0 32 l-42 0 Z" /><glyph glyph-name="uni548C" unicode="&#x548c;" d="M205 385 q19 15 20.5 15 q1.5 0 20 -6.5 q18.5 -6.5 18.5 -7 q0 -0.5 -6.5 -6 q-6.5 -5.5 -20.5 -15.5 q-27 -21 -34 -25 l-8 -4 l0 -21 l0 -21 l30 0 l30 0 l0 -10 l0 -10 l-30 0 l-30 0 l0 -31 l0 -30 l30 0 l30 0 l0 -10 l0 -10 l-29 0 l-30 0 l-1 -98 l-1 -97 l-3 -9 q-3 -10 -7 -15 q-4 -5 -9.5 -8.5 q-5.5 -3.5 -10.5 -5.5 q-6 -2 -10 -2 l-3 0 l0 158 l0 158 l-30 0 l-29 0 l0 10 l0 10 l29 0 l30 0 l0 15 l0 15 l-6 -1 q-10 -1 -19 -2 q-14 -2 -33 -1 q-18 1 -24 2 q-4 0 -4 5 l0 4 l7 1 q3 0 18 2 q13 2 25 5 q13 3 24.5 7.5 q11.5 4.5 19.5 8.5 q8 4 17 10 q11 8 29 20 ZM306 344 l20 0 l0 -7 l0 -7 l40 0 l39 1 l1 6 l0 7 l20 0 l20 0 l0 -156 l-1 -155 l-2 -5 q-3 -4 -7.5 -8 q-4.5 -4 -7.5 -6 q-3 -2 -12 -4 q-8 -3 -9 -3 q-1 0 -1 22 l-1 21 l-39 0 l-40 1 l0 -6 q0 -6 -2 -12 q-1 -6 -6 -11 q-5 -5 -10 -8 q-6 -3 -13 -5 q-7 -2 -8.5 -2 q-1.5 0 -1.5 169 l0 168 l21 0 ZM366 310 l-40 1 l0 -121 l0 -120 l40 0 l39 1 l0 119 l0 120 l-39 0 ZM109 238 l20 0 l0 -119 q-1 -119 -3 -126 q-2 -7 -4 -11 q-3 -5 -5.5 -8.5 q-2.5 -3.5 -6.5 -6.5 q-5 -3 -11.5 -5 q-6.5 -2 -8 -1 q-1.5 1 -1.5 139 l0 138 l20 0 Z" /><glyph glyph-name="uni54C1" unicode="&#x54c1;" d="M162 378 l21 0 l1 -7 l0 -6 l75 0 l74 -1 l0 7 l1 6 l21 1 l21 0 l0 -72 q0 -71 -1 -78 q-1 -7 -4 -13 q-3 -6 -7 -11 q-5 -6 -11 -8 q-6 -3 -13 -3 l-7 0 l0 18 l0 19 l-75 0 l-74 0 l0 -19 l0 -18 l-7 0 q-6 0 -12 3 q-6 3 -10 7 q-4 4 -7 10 q-3 5 -5 12.5 q-2 7.5 -2 79.5 l0 73 l21 0 ZM258 345 l-74 0 l0 -48 l0 -48 l75 -1 l74 0 l0 48 l0 49 l-75 0 ZM95 175 l21 0 l0 -9 l0 -9 l38 0 l38 0 l0 9 l1 9 l21 0 l21 -1 l0 -77 q0 -77 -1 -85 q-3 -7 -5 -12 q-3 -6 -8 -11 q-5 -4 -9 -6 q-4 -2 -12 -3 l-7 0 l-1 18 l0 18 l-38 0 l-38 1 l0 -19 l0 -18 l-6 0 q-7 0 -12 2 q-4 2 -8 6 q-4 2 -8 8 q-3 5 -5.5 13 q-2.5 8 -3 85.5 q-0.5 77.5 -0.5 79.5 q1 1 22 1 ZM155 137 l-39 0 l0 -50 l0 -51 l39 0 l38 0 l0 51 l0 50 l-38 0 ZM298 175 l21 0 l1 -9 l0 -9 l38 0 l38 0 l0 9 l0 9 l21 0 l21 -1 l1 -74 q0 -73 -2 -83 q-1 -9 -4 -16 q-3 -6 -8 -11 q-5 -5 -10 -7 q-6 -3 -13 -3 l-6 0 l0 18 l0 19 l-38 -1 l-38 0 l0 -18 l-1 -18 l-5 0 q-6 0 -11 2 q-6 2 -11.5 7 q-5.5 5 -8.5 11 q-3 6 -4 12 q-2 6 -2 85 l0 78 l21 0 ZM357 137 l-38 0 l0 -50 l0 -51 l38 0 l39 0 l0 51 l0 50 l-39 0 Z" /><glyph glyph-name="uni54CD" unicode="&#x54cd;" d="M308 386 q0 1 18 1 q18 0 18 -1 q0 -1 -5 -10 q-6 -10 -14.5 -20.5 q-8.5 -10.5 -22.5 -24.5 l-15 -13 l60 0 q60 0 60.5 1.5 q0.5 1.5 22.5 1.5 l21 -1 l0 -150 q1 -150 0 -159 q-2 -9 -4 -15.5 q-2 -6.5 -7 -12 q-5 -5.5 -11.5 -8.5 q-6.5 -3 -13.5 -3 l-8 0 l0 163 l0 163 l-74 0 l-74 0 l0 -143 l0 -90 q0 -31 -0.5 -44 q-0.5 -13 -1.5 -16 q-1 -8 -4 -13.5 q-3 -5.5 -7 -9.5 q-4 -4 -10 -7 q-6 -3 -14 -3 l-8 0 l1 174 l0 174 l21 1 q22 0 22.5 -1.5 q0.5 -1.5 8.5 -1.5 q8 0 8 1 q0 1 6 10 q7 9 13 23 q7 14 10 23 l4 11 ZM82 343 q22 0 22 -2.5 q0 -2.5 13 -3.5 q12 0 15 1 q3 0 3 2.5 q0 2.5 21 2.5 l22 0 l0 -131 q0 -130 -2 -138 q-2 -8 -4 -14 q-3 -6 -8 -11 q-6 -6 -11 -7 q-5 -3 -12 -3 l-6 0 l0 9 l0 8 l-19 0 l-19 0 l-6 -6 q-5 -5 -11 -8 q-5 -3 -12 -3 l-8 0 l0 152 l0 152 l22 0 ZM122 318 q-12 0 -13.5 0.5 q-1.5 0.5 -3 -0.5 q-1.5 -1 -1.5 -121 l0 -121 l13 0 l15 0 l3 1 l0 120 l0 121 l-13 0 ZM266 227 q0 3 17 3 q17 0 17.5 -2 q0.5 -2 23 -2 q22.5 0 23 2 q0.5 2 17.5 2 l17 0 l0 -75 l-1 -74 l-2 -6 q-3 -6 -7 -9 q-3 -4 -7 -6 q-5 -2 -11 -2 l-6 0 l0 12 l0 12 l-24 0 l-24 0 l-2 -6 q-2 -5 -6 -9.5 q-4 -4.5 -8 -6.5 q-5 -2 -11 -2 l-6 0 l-1 83 q0 84 1 86 ZM324 207 q-23 0 -23.5 -1.5 q-0.5 -1.5 -0.5 -52.5 l0 -52 l23 0 l23 0 l0 53 l0 52 l-22 1 Z" /><glyph glyph-name="uni54E6" unicode="&#x54e6;" d="M156 379 q3 8 3.5 8 q0.5 0 5.5 -6 q4 -6 11 -11 q7 -5 14 -7 q8 -3 48 -3 l39 0 l0 -15 l0 -14 l-9 0 l-9 0 l0 -36 l0 -37 l20 0 q20 0 20 3 q0 1 -1 15 q-1 9 -2 20 q0 2 -0.5 8 q-0.5 6 -1.5 16 q-1 10 -2 18 q-2 33 -2 36 l0 3 l23 0 q24 0 25 -1.5 q1 -1.5 5 -56.5 q5 -55 5 -58 l1 -3 l40 0 l40 0 l1 -10 l0 -9 l-39 0 q-40 0 -40.5 -1 q-0.5 -1 3.5 -47 q4 -46 5 -46 q1 1 2 2.5 q1 1.5 2 3.5 q4 7 9 20 q5 13 8 25 l4 13 l22 0 q23 0 23.5 -0.5 q0.5 -0.5 -2.5 -10.5 q-3 -9 -8 -22 q-5 -10 -12 -23 q-8 -12 -15 -22 q-9 -12 -18 -21 l-8 -9 l5 -14 q4 -12 13 -29 q8 -17 15.5 -27.5 q7.5 -10.5 14.5 -17.5 q7 -8 16 -15 q8 -7 15 -10 q6 -4 12 -7 q6 -2 5.5 -2.5 q-0.5 -0.5 -5.5 -4.5 l-6 -3 l-10 3 q-11 4 -26 12 q-17 8 -28.5 16.5 q-11.5 8.5 -21.5 19.5 q-10 9 -18 19.5 q-8 10.5 -13 18.5 l-6 9 l-7 -5 q-7 -6 -18 -12 q-10 -6 -27 -15 l-16 -8 l-2 -9 q-2 -10 -5 -15 q-2 -5 -6 -10 q-4 -5 -10 -7 q-6 -4 -14 -4 l-7 -1 l0 69 q0 69 -2 69 q-1 0 -25 -9 q-23 -10 -24 -9.5 q-1 0.5 -1 14.5 l0 13 l21 9 q25 10 26 10 l5 2 l-1 44 l0 43 l-25 1 l-26 0 l0 9 l1 10 l25 0 l26 0 l-1 37 l0 37 l-11 2 q-10 3 -21 8 q-11 5 -17 11 q-6 6 -10 12 l-3 6 l3 8 ZM300.5 237.5 q-0.5 1.5 -20.5 1.5 q-20 0 -20 -1 q-1 -1 -1 -34 q0 -33 0.5 -34 q0.5 -1 12.5 4 q11 5 16 7 l5 2 l0 -15 l0 -14 l-17 -7 l-17 -7 l0 -49 q0 -49 0.5 -49 q0.5 0 8.5 5 q9 6 18 14 q10 7 21 18 l11 10 l-3 9 q-3 8 -8.5 73 q-5.5 65 -6 66.5 ZM395 353 l21 0 l0 -15 q0 -16 -1 -22 q-2 -7 -5 -12.5 q-3 -5.5 -6 -9.5 q-4 -4 -10 -7 q-5 -3 -13 -3 l-8 -1 l0 35 l0 35 l22 0 ZM64 348 l17 0 l0 -5 l0 -6 l16 0 l17 0 l0 6 l0 5 l17 0 l16 0 l0 -126 l0 -125 l-4 -8 q-5 -8 -11 -11.5 q-6 -3.5 -12 -3.5 l-6 0 l0 7 l-1 7 l-18 0 l-18 0 l-3 -4 q-2 -4 -8 -7 q-6 -3 -12 -3 l-6 0 l0 137 l0 137 l16 0 ZM97 318 l-16 0 l0 -105 l0 -105 l16 0 l17 0 l0 105 l0 105 l-17 0 Z" /><glyph glyph-name="uni54EA" unicode="&#x54ea;" d="M300 387 l22 0 l0 -149 q0 -149 -2.5 -159.5 q-2.5 -10.5 -7 -20 q-4.5 -9.5 -9.5 -15.5 q-5 -6 -9 -8 q-4 -2 -10 -1 l-5 0 l-1 63 l0 62 l-12 0 l-12 0 l0 -23 q0 -23 -1 -35 q-2 -12 -4 -21 q-3 -9 -7 -20 q-4 -10 -8 -18 q-5 -9 -10 -16 q-6 -8 -16 -19 q-11 -10 -22 -18 q-9 -6 -19 -11 q-9 -5 -10 -5 q-2 0 -2 8 l0 8 l7 5 q8 5 15 12 q7 7 12 14 q5 7 9 15 l6 15 q2 8 4 17 q2 9 2 50 l0 41 l-14 1 l-14 1 l0 9 l0 9 l14 0 l14 1 l0 40 l0 40 l-14 0 l-15 1 l1 9 l0 9 l14 1 l15 0 l0 39 l-1 40 l-14 1 l-14 0 l0 10 l-1 9 l48 0 l49 1 l0 4 l0 4 l22 0 ZM266 359 l-12 0 l0 -40 l0 -40 l12 0 l12 0 l0 40 l0 40 l-12 0 ZM266 259 l-12 1 l0 -41 l0 -41 l12 1 l12 0 l0 40 l0 40 l-12 0 ZM364 387 l21 0 l0 -5 l0 -5 l18 0 l17 0 l1 5 l0 4 l21 0 l22 -1 l0 -45 q0 -45 -2 -51 q-1 -6 -5 -12 q-2 -7 -7 -11.5 q-5 -4.5 -10 -6.5 l-5 -2 l6 -3 q5 -3 9 -7 q4 -4 7 -11 q4 -7 5 -15 q2 -9 2 -51 l0 -42 l-33 0 l-32 0 l-1 9 l0 9 l11 1 l11 0 l0 105 l0 105 l-17 0 l-18 1 l0 -171 q0 -170 -1 -179 q-2 -8 -4 -14 q-2 -5 -8 -11 q-5 -6 -11 -8.5 q-6 -2.5 -12 -2.5 l-7 0 l0 208 l0 207 l22 0 ZM68 372 q22 0 22.5 -2.5 q0.5 -2.5 14.5 -2.5 l15 -1 l0 3 l0 3 l21 0 l22 0 l0 -130 q0 -131 -1 -137 l-4 -12 q-3 -6 -8 -11 q-5 -6 -10 -8 q-6 -3 -13 -3 l-7 0 l0 9 l0 8 l-18 0 l-19 0 l-5 -6 q-6 -6 -12 -8 q-6 -3 -12 -3 l-7 1 l0 150 l0 150 l21 0 ZM106 348 q-15 0 -15.5 -0.5 q-0.5 -0.5 -0.5 -120.5 l0 -119 l15 0 l15 0 l0 120 l0 120 l-14 0 Z" /><glyph glyph-name="uni5566" unicode="&#x5566;" d="M220 392 l22 0 l0 -50 l0 -50 l8 0 l9 0 l0 -9 l0 -10 l-9 0 l-8 0 l0 -46 q0 -46 0.5 -46 q0.5 0 6.5 2.5 q6 2.5 7 2.5 q1 0 1 -14 l0 -14 l-8 -3 l-7 -4 l-1 -68 q0 -46 -0.5 -58 q-0.5 -12 -1.5 -17 q-2 -6 -6 -15 q-4 -7 -10.5 -13 q-6.5 -6 -12.5 -9 q-6 -3 -9 -3 l-4 -1 l0 81 q0 81 -1 81 q-1 0 -12 -5 q-11 -5 -12 -5 q-1 0 -1 14 l0 13 l13 7 l13 6 l0 57 l0 57 l-11 0 l-11 1 l0 9 l-1 9 l12 0 l11 0 l0 50 l0 50 l23 0 ZM356 391 l23 0 l-1 -19 q0 -18 -3 -26 q-4 -7 -9 -11 q-4 -4 -11 -7 q-6 -2 -13 -2 l-8 0 l0 32 l0 33 l22 0 ZM47.5 327 q0.5 1 22 1 q21.5 0 22 -2.5 q0.5 -2.5 14.5 -3.5 l15 0 l0 3 l0 3 l22 0 l21 0 l0 -130 q0 -129 -2 -136 q-1 -7 -4 -12 q-2 -4 -7 -9 q-4 -4 -10 -7 q-5 -3 -13 -3 l-7 0 l0 9 l0 8 l-18 0 l-19 0 l-5 -5 q-5 -6 -11 -9 q-6 -3 -13 -3 l-8 0 l0 148 q0 147 0.5 148 ZM106 304 l-15 0 l0 -117 l0 -118 q0 -2 15 -2 l15 0 l0 118 l0 119 l-15 0 ZM356 312 l91 0 l0 -9 l0 -9 l-91 0 l-90 0 l0 9 l0 9 l90 0 ZM402 242 q0 1 24 1 q24 0 24 -1 q0 -1 -15 -79 q-4 -19 -8 -39.5 q-4 -20.5 -6.5 -32.5 q-2.5 -12 -2.5 -13 q-1 -7 -2 -10 q-2 -4 -5 -11 q-4 -8 -9 -15 q-5 -7 -12 -14 q-8 -8 -17 -13 l-9 -5 l50 0 l49 0 l0 -10 l0 -10 l-106 0 l-106 0 l0 10 l0 10 l52 0 q51 0 48 1 l-2 1 l3 6 q4 5 9 16 q5 11 9 24 q5 14 6 21 q1 2 2.5 13.5 q1.5 11.5 5 33.5 q3.5 22 6.5 38 q12 77 12 78 ZM267 219.5 q0 4.5 1 4.5 q1 0 9 -10 q8 -10 15 -20 l17 -25 q9 -14 19 -36 q11 -21 15 -34 q5 -15 8 -27 q2 -14 3 -22 l0 -7 l-19 -7 q-20 -7 -21 -7 q-1 0 -4 21 q-2 23 -5 40 q-3 17 -6 36 q-4 18 -7 31 q-4 14 -7 24 q-4 11 -8 19 q-4 9 -7 12 q-3 3 -3 7.5 Z" /><glyph glyph-name="uni559C" unicode="&#x559c;" d="M263 404 l22 0 l0 -29 l0 -29 l91 0 l92 0 l0 -10 l0 -9 l-92 -1 l-91 0 l-2 -6 q-2 -7 -4 -12 q-3 -6 -7 -11 l-4 -5 l72 0 l72 0 l0 -9 l0 -10 l-157 0 l-156 0 l0 10 l0 9 l71 0 l72 0 l0 17 l-1 17 l-99 1 l-100 0 l1 9 l0 9 l99 1 l100 0 l0 29 l0 29 l21 0 ZM131 267 l21 0 l1 -5 l0 -5 l103 0 l103 0 l0 5 l0 5 l22 0 l22 0 l-1 -33 l0 -33 l-4 -11 q-4 -11 -9 -20 q-6 -9 -11.5 -12.5 q-5.5 -3.5 -11.5 -3.5 l-7 0 l0 8 l0 8 l-109 0 l-110 0 l-6 -6 q-6 -7 -9.5 -8.5 q-3.5 -1.5 -9.5 -1.5 l-7 0 l0 56 q0 56 1 56.5 q1 0.5 22 0.5 ZM256 238 l-103 0 l0 -13 q0 -12 -2 -22 q-2 -10 -2 -11 l38 -2 l67 0 l105 0 l0 24 l0 24 l-103 0 ZM327 160 q25 0 25 -0.5 q0 -0.5 -17.5 -24.5 q-17.5 -24 -21.5 -27 l-3 -2 l72 0 l73 -1 l0 -9 l0 -10 l-200 0 l-199 0 l0 10 l0 9 l67 0 q67 0 68 2 q1 2 -2 10 q-2 7 -5 13 q-4 6 -13 14 q-8 9 -7 10 q2 1 11 -2 q9 -4 16 -7 q9 -5 16 -10 q7 -4 14 -11 q7 -7 10 -11 q3 -4 2 -5 q0 -1 -5 -2 l17 0 l21 -1 l4 4 q4 4 16 24 q11 19 14 24 l2 3 l25 0 ZM130 78 q22 0 22.5 -2 q0.5 -2 103.5 -2 q103 0 103 2 q0 2 22 2 l22 0 l-1 -38 l0 -39 l-4 -11 q-4 -11 -9.5 -19.5 q-5.5 -8.5 -11 -12 q-5.5 -3.5 -11.5 -3.5 l-7 0 l0 12 l0 13 l-107 0 l-108 0 l-3 -6 q-3 -6 -8 -11 q-5 -5 -8 -6.5 q-3 -1.5 -10 -1.5 l-7 0 l0 62 l0 61 l22 0 ZM256 53 l-103 0 l-1 -24 l0 -13 l0 -9 q0 -4 -1 -5 l9 -2 l95 0 l104 -1 l0 27 l0 27 l-103 0 Z" /><glyph glyph-name="uni55B7" unicode="&#x55b7;" d="M322 378 l21 0 l0 -21 l0 -20 l40 0 l40 0 l0 -10 l0 -9 l-40 0 l-39 0 l-2 -9 q-1 -9 -4 -15 q-3 -7 -7.5 -12 q-4.5 -5 -10.5 -7.5 q-6 -2.5 -13 -2.5 l-7 0 l0 23 l0 23 l-45 0 l-46 0 l0 10 l0 9 l45 0 l46 0 l0 20 l0 21 l22 0 ZM78 340 l21 0 l0 -3 l1 -4 l20 0 l19 -1 l0 4 l0 4 l21 0 l21 0 l0 -109 q0 -110 -1 -116 q-2 -7 -4 -11 q-3 -5 -6.5 -9 q-3.5 -4 -10.5 -7.5 q-7 -3.5 -13 -3.5 l-7 0 l0 17 l0 17 l-20 0 l-21 0 l-1 -7 q-2 -6 -6 -12 q-3 -5 -8 -9 q-6 -3 -9 -5 q-4 -1 -10 -1 l-7 0 l0 128 l0 128 l21 0 ZM119 313 l-20 0 l0 -88 l1 -88 l20 -1 l19 0 l0 89 l0 88 l-20 0 ZM253 308 l21 0 l0 -23 l0 -23 l45 0 l45 0 l0 23 l0 23 l22 0 l21 0 l0 -23 l0 -23 l24 0 l24 0 l0 -9 l0 -10 l-24 0 l-24 0 l-2 -7 q-1 -7 -4 -13 q-3 -5 -7 -10 q-4 -5 -10 -8 q-6 -3 -13 -2 l-7 0 l0 19 l0 21 l-45 0 l-45 0 l-1 -3 l-1 -4 q-1 -4 -2 -7 q-2 -8 -6 -14 q-5 -5 -12 -9 q-7 -4 -14 -4 l-7 0 l0 21 l0 20 l-21 0 l-22 0 l0 10 l0 9 l22 0 l21 0 l0 23 l0 23 l22 0 ZM233 197 l21 0 l0 -3 l0 -3 l64 0 l63 0 l0 3 l0 3 l21 0 l21 0 l0 -47 q0 -47 -2 -55 q-1 -7 -4 -13 q-3 -6 -8 -10.5 q-5 -4.5 -10 -7 q-5 -2.5 -12 -2.5 l-6 0 l0 55 l-1 55 l-62 0 l-63 0 l-1 -38 q0 -38 -2 -43 q-1 -3 -4 -9 q-3 -6 -8 -10 q-4 -5 -9.5 -7.5 q-5.5 -2.5 -11.5 -2.5 l-7 0 l0 67 l0 68 l21 0 ZM324 158 l27 0 l-2 -4 q-2 -3 -8 -15 q-5 -10 -14 -31 q-7 -18 -14 -32 q-6 -13 -12.5 -22.5 q-6.5 -9.5 -14.5 -18.5 q-8 -9 -17 -17 q-9 -8 -21 -16 q-10 -7 -26 -15 l-15 -7 l-9 1 l-9 1 l10 7 q10 6 25 21 q15 15 23 25 q8 12 14 22 q7 11 12 24 q7 15 10 24 q4 11 7 22 q3 13 5 21 l2 10 l27 0 ZM337 59 q11 0 18 -2 q7 -2 18 -6 q10 -4 17 -9 q9 -5 28 -20 l21 -15 q0 -1 -17 -11 l-16 -11 l-17 16 q-19 17 -32 28 q-14 11 -25 20 q-11 9 -9 10 q3 1 14 0 Z" /><glyph glyph-name="uni5634" unicode="&#x5634;" d="M278 400 l16 0 l0 -25 l1 -25 l17 0 l16 -1 l0 -9 l0 -10 l-16 0 l-17 0 l-1 -18 q0 -18 -3.5 -25 q-3.5 -7 -3 -7 q0.5 0 19.5 2 q20 2 20.5 2 q0.5 0 0.5 -9 l0 -10 l-3 0 q-3 -1 -37 -4 q-32 -4 -63 -7 q-8 -1 -16.5 -2 q-8.5 -1 -14 -1.5 q-5.5 -0.5 -6.5 -0.5 l-6 -1 l0 10 l0 9 l4 1 q4 1 12 1 l7 1 l0 54 l0 53 l17 0 l16 -1 l0 -42 q0 -43 -1 -52 l-2 -9 l4 1 q3 0 11 1 q8 1 10 1 q2 1 2 62 l0 61 l16 0 ZM361 400 l16 0 l0 -32 q0 -32 2 -32 q2 0 5.5 1.5 q3.5 1.5 14.5 10.5 q7 5 23 19 l12 11 l0 -19 l0 -19 l-10 -6 q-10 -5 -18 -7 q-7 -2 -18 -5 l-10 -2 l0 -18 l-1 -18 l26 0 l25 0 l0 21 l0 21 l16 0 l16 0 l0 -21 q0 -21 -3 -29 q-2 -9 -6.5 -13.5 q-4.5 -4.5 -10.5 -6.5 q-7 -2 -10 -2 q-2 0 -2 5 l0 6 l-28 0 l-28 0 l-5 -4 q-5 -4 -11 -6 q-7 -1 -8 -1 q-2 0 -2 73 l0 73 l15 0 ZM74 365 l22 0 l0 -2 l0 -3 l14 0 q15 0 15.5 2.5 q0.5 2.5 21.5 2.5 l22 0 l0 -124 l0 -132 q0 -9 -1.5 -15 q-1.5 -6 -3.5 -12 q-3 -6 -7 -10 q-4 -5 -10 -8 q-6 -3 -14 -3 l-7 -1 l0 9 l-1 9 l-18 0 l-19 0 l-3 -4 q-3 -5 -7 -8 q-5 -3 -9 -5 q-4 -1 -11 -1 l-6 0 l0 153 l0 152 l22 0 ZM111 340 q-14 0 -14.5 -1 q-0.5 -1 -0.5 -122 l-1 -120 l15 0 l15 0 l0 122 l0 121 l-14 0 ZM265 253 q21 0 21 -0.5 q0 -0.5 -3 -7.5 l-2 -6 l29 0 l29 0 l1 5 l0 4 l27 0 q26 0 26 -1 q0 -1 -6 -13 q-6 -12 -12 -20 q-5 -7 -13 -16 q-8 -7 -8 -8 l24 1 l23 0 l0 6 q0 7 3 7 l4 0 l7 0 l8 0 l8 0 l7 0 l2 0 q1 0 1 -102 l0 -102 l-3 -8 q-2 -7 -6 -13 q-4 -5 -10 -9 q-6 -4 -13 -4 l-8 0 l0 49 l0 48 l-26 0 l-26 0 l0 -29 q0 -29 -2 -37 q-1 -8 -4 -12 q-2 -4 -6 -10 q-5 -5 -10 -7 q-6 -3 -12 -3 l-6 0 l0 49 l0 49 l-26 0 l-26 0 l-2 -9 q-3 -9 -8.5 -20 q-5.5 -11 -13.5 -21 q-8 -10 -17 -20 q-10 -9 -21 -16 q-10 -7 -22 -13 q-11 -6 -11.5 -6 q-0.5 0 -0.5 9 l0 8 l6 5 q7 4 14 11 q6 6 11 13 q5 6 9 14 q4 7 7 15 q3 9 5 18 q3 11 3.5 47 q0.5 36 -0.5 36 q-1 0 -9 -7.5 q-8 -7.5 -15 -12 q-7 -4.5 -10 -4.5 q-3 0 -5 1 l-3 2 l8 15 q9 15 22 40 q12 25 20 42 q7 19 13 30 l6 13 l22 0 ZM334 218 q0 1 -30.5 1 q-30.5 0 -31.5 -1 q-2 -2 -7 -12 q-5 -11 -5 -14 l1 -3 l29 1 l29 0 l2 3 q3 3 8 13 q5 11 5 12 ZM379 171 l-26 0 l-4 -1 l0 -16 l0 -17 l26 0 l26 0 l0 17 l0 18 l-22 -1 ZM288 170 l-24 0 l-4 -1 l0 -16 l0 -16 l25 0 l24 0 l0 17 l-1 16 l-20 0 ZM285 118 l-25 0 l0 -17 l1 -18 l24 0 l23 0 l1 18 l0 17 l-24 0 ZM375 118 l-26 0 l0 -18 l0 -17 l26 0 l26 0 l0 18 l1 17 l-27 0 Z" /><glyph glyph-name="uni5668" unicode="&#x5668;" d="M96 379 l21 0 l0 -5 l1 -4 l36 0 l36 0 l1 4 l0 5 l21 0 l21 0 l0 -43 q0 -42 -2 -48 q-2 -7 -6.5 -12 q-4.5 -5 -11.5 -8 q-6 -2 -14 -3 l-9 0 l0 10 l0 11 l-36 0 l-36 0 l-1 -10 l0 -10 l-8 0 q-8 0 -14.5 2.5 q-6.5 2.5 -10.5 6.5 q-4 4 -6 11 q-3 7 -3 50 l0 43 l21 0 ZM154 352 q-36 0 -36 -2 q-1 -1 0 -23 l0 -23 l36 0 l36 0 l0 24 l0 23 l-36 1 ZM282 379 l22 0 l0 -5 l1 -4 l35 0 l36 0 l1 4 l0 5 l21 0 l21 0 l0 -41 q1 -40 -0.5 -46.5 q-1.5 -6.5 -3.5 -11.5 q-2 -4 -8 -8 q-4 -3 -12 -5 q-8 -2 -13 -2 l-5 1 l0 10 l-1 10 l-36 0 l-35 0 l-1 -10 l0 -10 l-8 0 q-7 0 -14 2 q-6 2 -11 7 q-5 4 -7 10 q-2 6 -3 50 l0 44 l21 0 ZM340 352 l-36 0 l1 -24 l0 -24 l36 0 l35 0 l0 24 l0 24 l-36 0 ZM307.5 264 q11.5 13 14.5 12 q3 -1 8 -4 q5 -2 12 -9 q7 -6 11 -14 q5 -7 7 -12 q2 -6 3 -11 l2 -6 l49 0 l49 -1 l0 -9 l0 -10 l-55 0 l-56 0 l7 -8 l16 -16 q8 -8 17 -15 q11 -9 17 -13 q7 -4 18 -9.5 q11 -5.5 20 -9.5 l10 -3 l1 -6 l1 -5 q-1 -1 -14 0 q-12 2 -25 4 q-11 2 -12 2 q-1 0 -1 -59 l0 -59 l-4 -6 q-3 -7 -8 -10 q-4 -4 -10.5 -5.5 q-6.5 -1.5 -12.5 -1.5 l-7 0 l0 10 l0 11 l-31 0 l-32 0 l0 -11 l0 -10 l-7 0 q-7 0 -13 2 q-7 2 -11.5 6 q-4.5 4 -7 8 q-2.5 4 -3.5 11 q-1 8 -1 67 l0 59 l22 0 l21 0 l0 -4 l1 -4 l31 0 l30 0 l1 5 q0 4 4 4 q3 0 -4 4 q-6 4 -13 8 q-6 3 -14.5 9.5 q-8.5 6.5 -16.5 15.5 l-7 7 q-8 8 -11 12 l-10 10 l-40 0 l-39 0 l-11 -11 q-13 -11 -21 -18 q-10 -8 -18 -14 q-9 -6 -22 -14 l-12 -9 l4 0 q4 -1 5 -5 l1 -4 l30 0 l31 0 l1 4 l0 4 l22 0 l21 0 l0 -58 q0 -59 -1 -66 q-1 -8 -4 -13 q-2 -5 -5 -7.5 q-3 -2.5 -9 -5.5 q-5 -2 -15 -3 l-9 0 l0 10 l0 11 l-32 0 l-31 0 l0 -11 l0 -10 l-9 0 q-10 1 -15.5 3.5 q-5.5 2.5 -9.5 5.5 q-4 4 -6 10 q-3 7 -3 61 l0 54 l-20 -10 q-21 -10 -22 -10 q-2 0 -4 4 l-2 4 l4 3 q1 1 4 3 q3 2 8 6.5 q5 4.5 10 7.5 q21 17 35 29 q17 15 34 31 l18 18 l-49 0 l-49 1 l0 9 l0 9 l57 0 q57 1 59 2 q1 1 10 13 q8 10 14 21 l6 10 l26 0 q26 0 26 -1 q0 -1 -5 -10 q-4 -7 -10 -16 q-7 -9 -10 -13 q-4 -5 -4 -5 l58 0 l57 0 l-9 7 q-9 7 -18 12.5 q-9 5.5 -16 7.5 q-8 3 -8 3.5 q0 0.5 11.5 13.5 ZM170 106 l-31 1 l0 -44 l0 -43 l31 0 l32 0 l0 43 l-1 43 l-31 0 ZM333 106 l-31 1 l0 -44 l0 -43 l32 0 l31 0 l0 43 l-1 43 l-31 0 Z" /><glyph glyph-name="uni56DB" unicode="&#x56db;" d="M99 361 l22 0 l0 -3 l0 -3 l134 0 l135 0 l0 3 l0 3 l22 0 l22 0 l0 -164 l0 -164 l-3 -7 q-2 -8 -6 -13 q-3 -5 -7 -8 q-3 -3 -8.5 -5.5 q-5.5 -2.5 -12.5 -2.5 l-7 0 l0 20 l0 19 l-135 0 l-135 0 l-1 -6 l-4 -12 q-3 -5 -7 -10 q-2 -2 -4.5 -4 q-2.5 -2 -5.5 -3 q-5 -3 -13 -4 l-9 0 l0 182 l0 182 l23 0 ZM151 337 l-30 0 l0 -141 l0 -142 l134 0 l135 0 l0 142 l0 141 l-31 0 l-31 -1 l-1 -88 l0 -89 l25 0 l24 0 l0 -9 l0 -9 l-27 0 l-27 0 l-3 -4 q-2 -4 -6 -7 q-4 -4 -9 -6.5 q-5 -2.5 -12 -2.5 l-7 0 l-1 108 l0 108 l-29 0 l-29 0 l0 -50 q0 -51 -2 -63 q-2 -11 -5 -21 q-3 -11 -7 -21 q-5 -10 -12.5 -22 q-7.5 -12 -14.5 -19 q-5 -6 -15 -15 q-9 -7 -20 -13 q-12 -7 -17 -9 l-6 -3 l0 8 l0 9 l7 4 q7 5 15 13 q8 8 13 15.5 q5 7.5 9 16.5 q5 9 8 20 l3 11 l0 69 l0 69 l-31 1 Z" /><glyph glyph-name="uni56DE" unicode="&#x56de;" d="M103 370 l21 0 l1 -5 l0 -6 l130 0 l130 0 l0 5 l0 6 l22 0 l22 0 l0 -176 q0 -176 -1 -181 q-2 -4 -5.5 -9.5 q-3.5 -5.5 -11 -9.5 q-7.5 -4 -16.5 -4 l-9 0 l0 20 l-1 20 l-130 0 l-130 0 l-1 -10 q0 -9 -3.5 -14.5 q-3.5 -5.5 -9.5 -9.5 q-5 -3 -11.5 -5 q-6.5 -2 -11.5 -2 l-6 1 l-1 190 l0 190 l22 0 ZM255 343 l-131 0 l0 -149 l0 -148 l131 0 l130 0 l0 148 l0 149 l-130 0 ZM198 279 l19 -1 l1 -3 l0 -3 l38 0 l37 0 l0 3 l0 4 l19 0 l20 0 l0 -75 l-1 -75 l-3 -6 q-4 -6 -10.5 -9 q-6.5 -3 -15.5 -4 l-9 0 l0 11 l0 11 l-38 0 l-38 0 l-2 -5 q-2 -5 -6 -9 q-5 -4 -11 -6 q-5 -2 -12 -2 l-7 0 l0 84 l0 85 l19 0 ZM255 255 l-37 0 l0 -53 l0 -53 l37 0 l38 0 l0 53 l0 53 l-38 0 Z" /><glyph glyph-name="uni56E0" unicode="&#x56e0;" d="M95 388 l23 0 q2 -1 2 -8 l0 -7 l136 0 l136 0 l0 8 l1 7 l22 0 l22 0 l0 -181 q0 -181 -2 -188 q-2 -8 -6 -16.5 q-4 -8.5 -11 -14.5 q-6 -7 -13 -11 q-7 -4 -10 -4 l-3 -1 l0 16 l0 17 l-140 0 l-140 0 l-3 -6 q-4 -6 -10 -12 q-7 -7 -14.5 -11 q-7.5 -4 -9 -4 q-1.5 0 -1.5 208 l0 208 l21 0 ZM256 354 l-136 0 l0 -157 q0 -157 -1 -165 l-1 -8 l137 0 l137 0 l0 165 l0 165 l-136 0 ZM282 336 l9 0 l0 -16 q0 -15 -1 -30 q-2 -15 -2 -18 l-1 -6 l44 0 l44 0 l0 -9 l0 -10 l-45 0 l-46 0 l-1 -7 l-4 -19 q-3 -12 -4 -13 l1 -1 q1 -1 3.5 -2 q2.5 -1 4.5 -3 q9 -5 18 -11 q9 -7 22 -18 q14 -13 22 -21 q9 -10 17 -20 q8 -12 13 -21 q5 -11 5 -13 q1 -2 0 -2.5 q-1 -0.5 -5 -0.5 q-8 -1 -19 -2 q-11 -1 -14 -1 q-2 0 -4 8 q-2 9 -7 19 q-6 11 -13 22 q-7 11 -16 22 q-10 12 -18 22 q-11 11 -12 11 q-1 0 -5 -12 q-4 -10 -7 -18 q-2 -7 -9 -19 q-7 -13 -13 -22 q-6 -10 -12 -16 q-6 -8 -16 -17 q-10 -10 -19 -16 q-9 -6 -18 -10 q-8 -4 -18 -7 q-9 -4 -9.5 -4 q-0.5 0 -1.5 4 l-1 4 q1 0 8 5 q8 5 18 14 q9 9 16 18 q7 9 13 18 q6 8 13 22 q7 13 13 28 q6 16 9 30 q4 14 7 27 q3 15 3 18 l1 4 l-50 0 l-50 0 l0 10 l0 9 l51 0 l52 1 l2 14 q1 14 2 34 l1 20 l10 1 l19 0 Z" /><glyph glyph-name="uni56FD" unicode="&#x56fd;" d="M104 387 l21 0 l1 -9 l0 -10 l129 0 l129 0 l0 8 l0 8 l23 0 l22 0 l0 -185 q0 -185 -2 -193 q-2 -8 -5 -13 q-2 -6 -6 -10.5 q-4 -4.5 -10 -7.5 q-6 -3 -14 -3 l-7 -1 l0 19 l-1 19 l-130 0 l-129 0 l-2 -7 q-2 -5 -6 -11 q-4 -6 -8 -9 q-4 -3 -10 -5.5 q-6 -2.5 -11 -2.5 l-6 0 l0 207 l0 206 l22 0 ZM255 348 q-129 0 -129.5 -1 q-0.5 -1 0.5 -160 l0 -159 l129 0 l129 0 l0 160 l0 160 l-129 0 ZM253 309 l114 0 l0 -10 l0 -9 l-44 -1 l-44 0 l0 -36 l0 -36 l36 0 l36 0 l0 -10 l0 -10 l-36 0 l-35 0 l-1 -37 q0 -37 -2.5 -44.5 q-2.5 -7.5 -4.5 -9.5 q-2 -2 -2 -3 q0 -1 48 -1 l49 -1 l0 -9 l0 -10 l-114 0 l-113 0 l0 10 l0 9 l47 1 l48 0 l0 47 l0 48 l-38 0 l-38 0 l0 10 l0 10 l38 0 l38 0 l0 36 l0 36 l-48 0 l-47 1 l-1 8 q0 8 0.5 10 q0.5 2 113.5 1 ZM340 162 q23 0 23 -1 q0 -1 -2 -9 q-2 -8 -5 -13 q-2 -6 -7 -11 q-4 -4 -9.5 -7 q-5.5 -3 -13.5 -3 l-8 0 l0 22 l0 22 l22 0 Z" /><glyph glyph-name="uni56FE" unicode="&#x56fe;" d="M98 392 l20 0 l1 -9 l0 -8 l137 0 l136 0 l0 8 l0 9 l21 0 l20 0 l0 -199 l0 -198 l-4 -6 q-3 -8 -9 -11 q-5 -5 -14 -8 q-9 -3 -11.5 -3 q-2.5 0 -2.5 16 l0 16 l-136 0 q-136 0 -137 -1 q-1 -2 -3 -7 q-2 -6 -7 -10 q-5 -5 -10 -8 q-5 -2 -13 -4 l-8 -2 l0 212 l0 213 l20 0 ZM255 355 l-136 0 l0 -168 l0 -169 l137 0 l136 0 l0 168 l0 169 l-137 0 ZM219 339 l24 0 l-4 -9 q-4 -8 -10 -19 q-5 -10 -5 -11 q0 -1 41 -1 q41 0 43 2 q1 1 6 9 l3 7 l23 -1 q23 -1 23.5 -1.5 q0.5 -0.5 -4.5 -10.5 q-5 -9 -12 -20 q-7 -11 -16 -22 q-10 -12 -24 -27 l-14 -14 l10 -6 q10 -6 22 -13 q14 -7 29 -14 q16 -7 20 -8 l2 -1 l0 -27 q0 -27 -1.5 -27 q-1.5 0 -14.5 7 q-13 7 -24 14 q-10 6 -21 14 q-10 7 -22.5 17 q-12.5 10 -18.5 16 q-7 6 -9 5 l-16 -11 q-14 -11 -31 -21 q-19 -11 -38 -20 q-20 -11 -34 -17 l-13 -5 l-1 3 q-1 2 -1 7 q0 2 2.5 4 q2.5 2 13.5 10 q17 12 30 21 q13 10 27 21 q12 10 26 23 l12 10 l-5 6 q-6 6 -20 23 q-14 17 -15 17 q-1 0 -8 -8 q-12 -14 -15 -18 q-10 -11 -26 -25 q-16 -15 -18 -14.5 q-2 0.5 -3 2.5 q-1 2 11 20 q11 19 21 37 q10 20 15 32 q6 14 11 28 q1 3 2 6.5 q1 3.5 1 5.5 l1 3 q1 1 25 1 ZM254 280 l-39 0 l11 -9 q11 -10 22 -18 q12 -10 13 -10 q1 0 7 7 q7 7 14 16 q8 10 10 12 q1 1 -2 1 q-4 1 -36 1 ZM257 133 l49 0 l0 -10 l0 -10 l-49 0 l-48 0 l0 10 l0 10 l48 0 ZM257 70 l49 0 l0 -10 l0 -9 l-49 0 l-48 0 l0 9 l0 10 l48 0 Z" /><glyph glyph-name="uni5728" unicode="&#x5728;" d="M282 371 q28 0 28.5 -1 q0.5 -1 -18.5 -28.5 q-19 -27.5 -19 -28.5 q0 -1 97 -1 l98 0 l-1 -10 l0 -9 l-105 -1 l-104 0 l-2 -3 q-3 -4 -26 -37 q-24 -35 -27 -41 l-3 -6 l0 -89 q0 -89 -2 -95.5 q-2 -6.5 -5 -12.5 q-3 -5 -8 -10 q-6 -5 -11.5 -7 q-5.5 -2 -11.5 -2 l-6 0 l0 82 q0 82 -0.5 82 q-0.5 0 -7.5 -5 q-8 -7 -16 -13 q-8 -6 -20 -14 q-12 -8 -21 -13 q-9 -5 -21 -12 l-12 -6 l-7 2 q-7 1 -7.5 1.5 q-0.5 0.5 27.5 28.5 q27 28 43 46 q15 17 26 30 q10 14 16 22 q8 10 27 41 l20 31 l-50 0 l-50 1 l0 9 l0 10 l56 0 l57 0 l13 22 q11 17 19 30 l5 7 l29 0 ZM342 268 l22 0 l1 -48 l0 -48 l45 0 l45 0 l0 -10 l-1 -9 l-44 -1 l-45 0 l0 -50 q-1 -50 -3 -56 q-2 -6 -4 -11 l-3 -5 q0 -1 56 -1 l57 0 l0 -10 l0 -9 l-123 0 l-123 0 l0 9 l0 10 l49 0 l49 0 l0 62 l0 61 l-43 0 l-44 1 l0 9 l0 10 l44 0 l43 0 l0 48 l0 49 l22 -1 Z" /><glyph glyph-name="uni5730" unicode="&#x5730;" d="M329 375 l20 0 l0 -53 l1 -52 l32 12 q33 11 38 11 q4 1 9 -2 q5 -3 7.5 -7.5 q2.5 -4.5 3 -66.5 q0.5 -62 -2.5 -69 q-2 -7 -5 -13 q-3 -7 -8 -14 q-6 -7 -13 -15 q-7 -6 -18 -13 q-9 -7 -15.5 -10 q-6.5 -3 -10.5 -5 l-4 -2 l0 8 l0 8 l4 2 q4 2 11 9.5 q7 7.5 11 14.5 q3 8 5 15 q3 7 5 17 q1 10 1 61 q0 51 -1 51 q-1 -1 -25 -9 l-24 -9 l-1 -79 l-1 -80 l-3 -6 q-2 -6 -6 -10 q-4 -5 -9 -8 q-5 -3 -12 -6 q-8 -3 -8.5 -3 q-0.5 0 -0.5 88.5 q0 88.5 -1 88.5 q-1 0 -21 -7 q-22 -8 -23 -9 l-4 -1 l0 -97 l0 -96 l85 0 l86 0 l0 5 q1 5 3.5 9 q2.5 4 7.5 7 q6 4 10 5 q4 2 8 3 l3 0 l0 -31 l0 -32 l-109 0 q-108 0 -114 3 q-4 2 -9 6 q-5 5 -7 10 l-3 5 l-1 94 q0 94 -1.5 94 q-1.5 0 -19.5 -6.5 q-18 -6.5 -18.5 -6 q-0.5 0.5 -4.5 11.5 l-4 11 l5 2 l24 8 l19 7 l0 48 l0 48 l20 0 l20 0 l0 -41 l0 -19 l0 -12 q0 -5 1 -7 l0 -2 q2 0 25 8 l22 9 l1 59 l0 60 l20 0 ZM121 365 l22 0 l0 -64 l1 -63 l21 0 l21 0 l0 -10 l-1 -9 l-20 0 l-21 -1 l0 -70 q0 -70 -1.5 -80 q-1.5 -10 -2.5 -15 q-2 -5 -5 -12 q-3 -5 -4 -6 q0 -1 3.5 -1 q3.5 0 10 -0.5 q6.5 -0.5 13.5 -0.5 l27 0 l1 -9 l0 -10 l-69 0 l-69 0 l0 10 l0 9 l25 0 l25 1 l0 92 l0 92 l-25 1 l-25 0 l0 9 l0 10 l25 0 l25 0 l0 64 l0 63 l23 0 Z" /><glyph glyph-name="uni5747" unicode="&#x5747;" d="M127 378 l21 0 l0 -61 l0 -61 l24 0 l23 0 l0 -10 l0 -9 l-23 0 l-24 0 l0 -88 l0 -87 l-4 -10 q-4 -11 -7 -16 l-3 -6 l30 0 l31 0 l0 -10 l0 -9 l-65 0 l-65 0 l0 9 l0 10 l20 0 l20 0 l0 103 l0 104 l-20 0 l-20 0 l0 9 l0 10 l20 0 l20 0 l0 61 l0 61 l22 0 ZM289 378 l23 0 l0 -3 q-1 -3 -5 -17 q-4 -15 -8 -24 q-5 -14 -6 -16 l-2 -6 l56 0 l55 0 l1 5 l0 6 l21 0 l21 0 l0 -147 l0 -148 l-2 -9 q-3 -9 -7 -17 q-4 -9 -9 -14 q-5 -5 -9 -7 q-4 -2 -10 -2 l-5 0 l0 157 l-1 157 l-60 0 l-60 1 l-6 -11 q-5 -9 -14 -22 q-9 -12 -15 -19 q-6 -7 -18 -20 q-10 -11 -20 -20 q-8 -7 -21 -17 q-11 -9 -11.5 -8 q-0.5 1 -2.5 6 l-2 5 l7 7 q7 9 13 17 q7 8 17 23 q10 16 17 27 q7 14 13 27 q6 13 10 24 q4 11 8 26 q5 16 7 27 l2 12 l23 0 ZM288 252 q5 -2 13 -5 q7 -3 17 -10 q9 -6 23 -20 q13 -13 21 -25 q8 -12 11.5 -18.5 q3.5 -6.5 3 -7 q-0.5 -0.5 -25.5 -3.5 q-6 -1 -12 -1.5 q-6 -0.5 -9 -1 q-3 -0.5 -3 0 q0 0.5 -1 1.5 l-1 5 l-2 6 q-4 11 -8 21 q-4 11 -10 20 q-5 10 -11 17 q-6 7 -11 11 l-6 5 l2 3 l3 4 l6 -2 ZM360 144 q8 6 10 6 q2 0 5 -1 q2 -2 2 -3 q0 -1 -10.5 -16.5 q-10.5 -15.5 -20.5 -27.5 q-10 -12 -24 -26 q-14 -14 -28 -25 q-12 -9 -24 -17 q-14 -10 -22 -14 q-9 -6 -10 -6 q-1 0 -1 23 l0 24 l8 4 q9 5 22 13 q15 9 34 22 q20 13 36 25.5 q16 12.5 23 18.5 Z" /><glyph glyph-name="uni574F" unicode="&#x574f;" d="M123 400 l22 0 l0 -63 l0 -62 l16 -1 l16 0 l0 -10 l-1 -10 l-15 0 l-16 0 l0 -56 q-1 -56 -3.5 -62 q-2.5 -6 -6 -12 q-3.5 -6 -9.5 -9 l-5 -4 l28 0 l28 0 l0 -6 l0 -4 q0 -1 1 -1 q2 1 12 12 q9 11 19 25 q10 13 17 24 q7 10 16 25 q7 14 19 39 q11 25 29 67 l19 43 l-69 1 l-68 0 l0 10 l1 10 l139 0 l138 0 l0 -10 l0 -10 l-53 0 l-54 0 l-1 -5 q-1 -1 -2 -4 l-2 -8 l-3 -7 l-5 -14 l0 -149 q0 -149 -2 -157 q-2 -7 -5 -13 q-3 -7 -7 -11 q-4 -4 -9.5 -7 q-5.5 -3 -12.5 -3 l-7 0 l-1 115 q0 115 -1 115 q-1 0 -5 -9 q-5 -8 -12 -17.5 q-7 -9.5 -17 -21.5 l-18 -18 q-10 -9 -16 -14 q-6 -5 -23 -18 q-17 -13 -30 -21 q-15 -10 -16 -10 q-1 0 -2 3 q-1 3 11.5 15.5 q12.5 12.5 12.5 13.5 q0 1 -55 1 l-55 0 l1 9 l0 10 l20 0 l20 0 l0 71 l0 72 l-20 0 l-20 0 l0 10 l0 10 l20 0 l20 0 l0 63 l0 63 l22 0 ZM369 203.5 q2 1.5 3 1.5 q1 0 10 -7 q8 -6 18 -15 q10 -10 16 -19 q7 -9 12 -19 q6 -11 8 -19 q3 -8 5 -20 q2 -12 1 -23 l-1 -11 q-1 -1 -21 6 l-21 6 l0 20 q-1 19 -3 31 q-3 12 -7 24 q-4 12 -8 21 q-5 10 -9 16 q-5 6 -3 7.5 Z" /><glyph glyph-name="uni57A2" unicode="&#x57a2;" d="M431 391 q1 0 3 -8 l3 -8 l-3 -6 q-4 -6 -10 -12 q-7 -6 -16 -11 q-10 -5 -17.5 -7.5 q-7.5 -2.5 -78.5 -2.5 l-70 0 l0 -43 l0 -43 l104 0 l104 0 l0 -9 l0 -10 l-104 0 l-104 0 l-1 -69 q0 -68 -2 -79 l-6 -20 q-4 -11 -8 -19 q-5 -8 -12 -19.5 q-7 -11.5 -18 -21.5 q-10 -10 -22 -18 q-12 -8 -22 -13 l-9 -4 q-1 1 0.5 4.5 q1.5 3.5 8.5 8.5 q7 5 15 13 q9 9 13 14 q4 6 9 17 q6 12 8 21 q2 7 4 17 q1 9 1 159 q0 150 1 151 l17 0 q16 1 19 0 q4 -1 4 -5 l0 -4 l74 0 q73 0 80.5 2 q7.5 2 11.5 4 q5 2 10 8 q6 5 9 9 q1 2 3 3 l1 1 ZM131 384 l22 0 l0 -60 l0 -59 l17 0 l18 0 l0 -9 l0 -9 l-17 0 l-18 0 l-1 -58 q0 -58 -2 -64 q-2 -6 -4 -11 q-3 -5 -8.5 -10 q-5.5 -5 -8.5 -7 q-3 -1 1 -1 q4 -1 27 -1 l31 0 l0 -10 l0 -9 l-64 0 l-64 0 l0 9 l0 10 l25 0 l24 0 l0 76 l0 75 l-24 1 l-25 0 l0 9 l0 9 l25 0 l24 0 l0 59 l0 60 l22 0 ZM274 172 l21 0 l0 -8 l0 -7 l44 0 l44 0 l0 8 l0 7 l21 0 l21 0 l0 -78 q0 -78 -1.5 -85 q-1.5 -7 -5.5 -13 q-3 -7 -7 -10 q-4 -3 -9 -6 q-5 -2 -12 -2 l-7 0 l0 15 l0 14 l-45 0 l-45 0 l-1 -3 q-1 -3 -3.5 -8 q-2.5 -5 -7.5 -9.5 q-5 -4.5 -10 -6.5 q-5 -2 -12 -2 l-7 0 l0 97 l0 97 l22 0 ZM339 137 l-44 0 l1 -55 l0 -55 l43 0 l44 0 l0 55 l0 55 l-44 0 Z" /><glyph glyph-name="uni5835" unicode="&#x5835;" d="M130 388 l21 0 l0 -56 l0 -57 l16 0 l17 0 l0 -9 l0 -10 l-17 0 l-16 0 l-1 -59 l0 -59 l-3 -7 q-3 -7 -6.5 -12.5 q-3.5 -5.5 -9.5 -8.5 l-6 -4 l29 0 l30 -1 l0 -9 l0 -10 l-60 0 l-60 1 l0 9 l0 9 l22 0 l22 0 l0 76 l0 75 l-22 0 l-22 1 l0 9 l0 9 l22 0 l22 0 l0 56 q0 56 1 56.5 q1 0.5 21 0.5 ZM297 388 l21 0 l0 -32 l0 -31 l16 -1 l17 0 l0 -10 l0 -9 l-16 0 l-17 0 l0 -7 q0 -7 -2 -15 q-1 -8 -4 -14 q-3 -5 -7 -10 q-4 -4 -9 -7 l-5 -2 l8 -1 q7 0 11 4 q1 2 42 46 l37 40 l26 0 q25 0 25 -0.5 q0 -0.5 -39 -44.5 l-39 -44 l42 -1 l42 0 l0 -10 l0 -9 l-51 0 l-51 0 l-12 -13 l-11 -13 l-28 -15 l-27 -16 l0 -4 l0 -5 l50 0 l50 0 l0 4 l0 5 l21 0 l21 0 l0 -82 l0 -68 q0 -16 -1 -21 q-2 -5 -5 -12 q-3 -5 -8 -10 q-6 -5 -12 -7 q-6 -2 -10 -2 l-5 0 l-1 14 l0 14 l-51 0 l-52 0 l-3 -6 q-3 -6 -6 -10 q-4 -5 -10 -8 q-6 -3 -13 -4 l-7 0 l0 89 q0 89 -1 89.5 q-1 0.5 -17 -8.5 q-22 -12 -23 -13 l-6 -3 l0 5 l0 6 l18 14 q18 15 40 33 q23 19 38 33 l15 13 l-49 1 l-49 0 l0 9 l0 10 l43 0 l42 0 l0 28 l0 28 l-32 0 l-32 0 l0 10 l0 9 l32 0 l32 0 l0 32 q0 31 0.5 31.5 q0.5 0.5 21.5 0.5 ZM316 144 l-50 0 l0 -22 l0 -22 l50 0 l50 0 l0 22 l0 22 l-50 0 ZM316 80 l-50 0 l0 -30 l0 -31 l50 0 l50 0 l0 31 l0 30 l-50 0 Z" /><glyph glyph-name="uni585E" unicode="&#x585e;" d="M264 387 l21 0 l0 -13 q-1 -13 -3.5 -19.5 q-2.5 -6.5 -4.5 -10.5 l-3 -4 l64 0 l64 0 l-1 5 l-1 4 l16 1 q15 1 21 1 l5 0 l2 -11 q1 -10 5 -22 q3 -10 7 -18 q4 -9 3 -9 q0 -1 -8 2 q-9 3 -17 7 q-8 4 -17 13 l-8 8 l-150 0 l-151 0 l-7 -6 q-7 -6 -17 -11 l-15 -6 q-5 -1 -6 -1 q0 1 4 9 q4 8 7 18 q2 9 5 22 l2 11 l11 0 q12 -1 21 -1 l9 -1 l0 -3 q0 -1 -0.5 -3.5 q-0.5 -2.5 -1.5 -3.5 l0 -5 l61 0 l61 0 l0 24 l0 23 l22 0 ZM210 312 l21 0 l1 -19 l0 -19 l36 -1 l35 0 l1 19 l0 19 l22 0 l21 0 l1 -19 l0 -19 l39 0 l39 0 l0 -10 l0 -9 l-39 0 l-39 0 l0 -19 l0 -18 l31 0 l30 0 l0 -9 l0 -10 l-30 0 l-31 0 l-1 -11 q0 -11 -2 -17 q-2 -6 -4 -9 q-2 -4 -2 -4.5 q0 -0.5 62 -1.5 l61 0 l1 -9 l0 -10 l-54 0 l-56 0 q-1 0 -1 -0.5 q0 -0.5 16 -21.5 q16 -20 23 -28 q7 -7 19 -16 q10 -9 25 -19 q15 -9 27 -16 q14 -8 17 -9 q5 -3 6 -3 q0 -1 -3 -4 l-2 -4 q0 -1 -2 -0.5 q-2 0.5 -8 2.5 q-7 2 -16 5 q-7 3 -22 9 q-14 6 -26 14 l-23 13 q-10 8 -17 14 q-8 7 -33.5 34.5 q-25.5 27.5 -28.5 28.5 q-2 1 -40 1 q-38 0 -39 -1 q-1 0 -20 -25 q-19 -24 -25 -31 q-6 -6 -19 -15 q-12 -10 -24 -17 q-11 -7 -30 -18 q-19 -11 -41 -22 q-24 -12 -28 -12 l-8 2 l-4 1 l8 5 q9 5 23 14 q15 10 27 20 q13 10 25 22.5 q12 12.5 19 20.5 q6 8 16 22 q3 4 8.5 12.5 q5.5 8.5 7.5 10.5 q7 9 6 10 q-1 1 -52 1 l-50 0 l0 8 q0 8 1 10 q0 2 62 2 l61 0 l0 20 l0 21 l-35 1 l-36 0 l0 10 l0 9 l36 0 l35 0 l0 18 l0 19 l-44 0 l-44 0 l0 9 l0 10 l44 0 l44 1 l0 19 l0 19 l22 0 ZM267 254 l-36 0 l0 -19 l0 -18 l36 0 l36 0 l0 18 l0 19 l-36 0 ZM268 198 q-35 0 -36 -1 q-1 -1 -1 -9.5 q0 -8.5 -1.5 -15.5 q-1.5 -7 -4.5 -11 l-3 -5 l41 0 l40 0 l0 21 l0 21 l-35 0 ZM266 111 l22 0 l0 -21 l0 -21 l33 0 l32 -1 l0 -9 l1 -9 l-33 -1 l-32 0 l-1 -15 q0 -14 -2 -21 q-2 -7 -5 -13 q-2 -3 -4 -7 l23 0 l60 0 l83 0 l-1 -10 l0 -9 l-98 -1 l-171 0 l-74 0 l0 10 l0 10 l72 0 l72 0 l0 28 l0 28 l-27 0 l-28 1 l0 9 l0 10 l28 0 l28 0 l0 21 l0 21 l22 0 Z" /><glyph glyph-name="uni58C1" unicode="&#x58c1;" d="M362 379 l15 0 l0 -5 q0 -5 -1 -9 q-2 -4 -7 -8 q-5 -4 -8 -5 q-2 -1 40 -1 l42 -1 l0 -9 l1 -10 l-84 0 l-83 0 l0 10 l0 10 l34 0 l35 0 l0 13 l0 14 q1 1 16 1 ZM123 365 l18 0 l0 -4 l0 -4 l39 0 l39 0 l0 4 l0 3 l15 0 l16 0 l0 -29 q-1 -29 -3.5 -36 q-2.5 -7 -7.5 -12 q-4 -6 -9 -9 q-6 -3 -8 -3 l-3 -1 l0 8 l0 8 l-39 0 l-38 0 l-1 -33 q0 -33 -2.5 -40.5 q-2.5 -7.5 -6.5 -17.5 q-6 -10 -12.5 -19 q-6.5 -9 -16.5 -19 q-10 -9 -20 -16 q-11 -7 -25 -14 q-14 -7 -15 -7 l0 1 q0 1 0.5 3 q0.5 2 1.5 4 q3 8 8 11 q5 3 15 13 q10 9 16 19 q7 10 11 20 q3 8 6 18 q2 9 2 81 l1 71 l19 0 ZM180 338 l-39 0 l0 -14 l0 -14 l39 0 l38 0 l1 14 l0 14 l-39 0 ZM390 325 q4 0 21 -1 l13 -1 l0 -4 q-1 -4 -3 -11 q-3 -7 -8 -14 q-5 -7 -12 -12 q-7 -6 -12 -8 q-6 -3 -14 -6 q-8 -3 -9 -2 l2 5 q3 4 6 12.5 q3 8.5 5 19.5 q3 11 4 17 l0 6 l7 -1 ZM273 317 q1 2 7 2 q6 0 16 -2 q9 -1 19 -3 q7 -2 16 -6 q9 -4 16 -11 l7 -6 l-12 -13 q-11 -13 -12 -14 l-5 6 q-5 8 -10 14 q-5 6 -12 11 q-6 6 -12 9 q-5 4 -12 7 q-6 3 -6.5 3.5 q-0.5 0.5 0.5 2.5 ZM170 258 l15 0 l1 -10 l0 -10 l16 0 l17 0 l0 10 l1 10 l14 0 l15 0 l1 -52 q0 -51 -1.5 -57 q-1.5 -6 -4.5 -12 q-3 -7 -7 -11 q-5 -5 -9 -7 q-5 -2 -6 -3 q-2 0 -3 2 l0 10 l-1 12 l-18 1 l-17 0 l-3 -5 q-2 -5 -6 -9 q-4 -5 -9 -7 q-6 -3 -7 -4 l-3 0 l0 71 l0 71 l15 0 ZM202 218 l-16 0 l0 -29 l0 -29 l16 0 l17 0 l0 29 l0 29 l-17 0 ZM358 258 l98 0 l0 -9 l0 -10 l-40 0 l-40 0 l0 -26 l0 -27 l31 0 l30 0 l0 -9 l0 -10 l-31 0 l-30 -1 l-1 -5 q-1 -6 -3 -13 q-3 -6 -8 -11.5 q-5 -5.5 -12 -8.5 q-7 -3 -9.5 -3 q-2.5 0 -2.5 21 l0 21 l-29 0 l-28 0 l0 10 l0 9 l28 0 l29 0 l0 27 l0 26 l-40 0 l-39 0 l-1 10 l0 9 l98 0 ZM270 136 l22 0 l0 -27 l0 -27 l58 -1 l59 0 l0 -9 l0 -10 l-58 0 l-59 0 l0 -24 q-1 -14 -1.5 -20 q-0.5 -6 -1.5 -9 q-2 -6 -3 -8 l16 -1 q14 -1 74 -1 l92 0 l0 -9 l0 -10 l-199 0 l-198 0 l0 10 l0 9 l89 0 l89 0 l-1 32 l0 31 l-68 0 l-67 0 l0 10 l0 9 l68 0 l68 1 l0 27 l0 27 l21 0 Z" /><glyph glyph-name="uni5904" unicode="&#x5904;" d="M334 376 l21 0 l0 -138 q0 -89 -0.5 -114.5 q-0.5 -25.5 -1.5 -30.5 q-2 -8 -4 -14 q-3 -7 -8 -14 q-5 -8 -11 -12 l-4 -4 q1 0 17 -3 q17 -2 33 -4 q15 -1 38 -3 q23 -1 37 -1 l7 0 l5 0 q2 0 3 -1 q0 -2 -18 -27 l-19 -26 l-13 1 l-30 3 q-16 1 -35 4 q-19 2 -41 6 q-23 5 -37 9 q-13 5 -23 10 q-10 5 -24 14 q-13 9 -22 15 q-9 8 -15 14 q-7 7 -15 16 q-9 11 -10 11 l-6 -9 q-5 -8 -14.5 -20 q-9.5 -12 -18.5 -22 q-11 -11 -20 -18 q-9 -8 -15.5 -8 q-6.5 0 -7 1 q-0.5 1 5.5 8 q5 7 16 24 q10 15 19 31 q10 17 16 28 l7 14 l-8 16 q-8 17 -13 28 q-5 15 -11 31 q-6 20 -7 20 l-3 -3 q-3 -3 -6 -7 q-9 -11 -20 -21 q-11 -11 -19 -18 q-9 -6 -10 -6 q-1 0 -3 6 l-3 6 l7 8 q7 9 14.5 20 q7.5 11 16.5 29 q9 18 13 31 q5 15 7 25.5 q2 10.5 5 34.5 q2 24 2 24.5 q0 0.5 25 0.5 l25 0 l-1 -7 q-1 -8 -4 -20 q-3 -12 -3 -14 l10 -2 l44 0 l55 0 l0 -9 l0 -9 l-8 0 l-8 0 l-9 -30 q-9 -31 -14 -44.5 q-5 -13.5 -11 -29.5 q-7 -17 -15 -34 l-9 -18 l4 -4 q4 -4 14 -12 q12 -9 19 -14 q9 -7 20 -13 q9 -6 22 -12 q13 -7 20 -9 q6 -2 17 -5 l10 -3 l0 161 q0 161 1 162 q1 1 22 1 ZM172 280 l-29 0 l-3 -8 q-3 -7 -11 -23 q-7 -13 -14 -24 q-7 -11 -7 -11.5 q0 -0.5 8 -0.5 l7 0 l7 -15 q7 -14 15 -27 q9 -12 13 -17 l3 -4 l8 18 q7 20 11 34 q4 12 12 43 q6 29 7 32 l1 3 l-28 0 ZM359 259 q0 2 2 2 q2 0 11 -4 q8 -3 16 -9 q9 -5 16 -12 q7 -8 11 -15 q2 -5 3 -10 l1 -4 l-15 -12 l-16 -12 l-1 11 q-1 10 -3 17 q-2 6 -5 13 q-3 7 -7 14 q-3 6 -9 13 q-4 6 -4 8 Z" /><glyph glyph-name="uni591A" unicode="&#x591a;" d="M241 392 q27 0 27 -1 q0 -1 -10 -17 q-2 -4 -5 -8 q-3 -4 -4 -7 l-2 -2 q0 -1 2 -1 q2 0 9 -0.5 q7 -0.5 18 -0.5 l28 0 l59 0 l1 4 l2 3 l27 0 q28 0 28 -1 q0 -1 -6 -12 q-5 -11 -12 -22 q-7 -10 -14 -19 q-8 -10 -20 -22 q-11 -11 -25 -22 q-13 -11 -24 -19 q-11 -7 -26 -17 q-13 -7 -35 -18 q-24 -11 -39 -17 q-17 -7 -33.5 -12.5 q-16.5 -5.5 -35.5 -10.5 q-18 -5 -36 -9 q-22 -5 -34 -7 q-15 -3 -16 -1 l0 4 q1 4 6 5 q5 0 19 4 q13 3 30 8 q19 6 31 10 q18 7 33 14 q18 8 32 16 q13 7 28 16 q13 9 14.5 10.5 q1.5 1.5 -6.5 7.5 q-8 6 -20 19 q-11 11 -19 22 q-8 10 -9 10 l-12 -10 q-11 -9 -18.5 -15 q-7.5 -6 -15.5 -11 q-9 -5 -15 -9 q-6 -3 -6.5 -3 q-0.5 0 -0.5 7 q0 7 6 14 q6 7 12 15 q6 8 12 17 q5 8 11 18 q6 10 21 39 l15 31 l28 0 ZM292 336 l-58 0 l-10 -13 l-10 -13 l4 -4 l16 -12 q12 -9 23 -15 q13 -8 18 -11 l8 -3 l-6 -7 q-5 -7 -4 -7 q1 0 14 11 q13 11 24 23 q11 11 18 20 q8 10 14 19 q7 10 7 11 q0 1 -58 1 ZM261 193 l29 0 q0 -1 -8 -11 q-8 -11 -8 -11.5 q0 -0.5 57 -0.5 l56 0 l3 4 l2 4 l27 0 q27 0 27 -1.5 q0 -1.5 -6 -13.5 q-7 -12 -13 -21 q-5 -8 -14 -19 q-7 -9 -20 -22 q-13 -14 -24 -22 q-11 -9 -22 -17 q-9 -6 -27 -17 q-16 -10 -34 -19 q-20 -9 -30 -13 q-8 -4 -25 -10 q-18 -7 -35 -11 q-15 -5 -35 -10 q-16 -4 -41 -9 q-25 -6 -28 -6 q-2 0 -2 4.5 q0 4.5 4 5.5 q7 2 25 6 q24 6 38 11 q19 6 31 11 q13 5 33 14 q17 8 31 16 q10 7 26 17 q14 10 25 18.5 q11 8.5 20.5 17 q9.5 8.5 22.5 23.5 q12 14 21 26 q8 12 8 13 q0 1 -61 1 l-60 0 l-12 -9 l-13 -10 l7 -6 q8 -7 19 -15 q11 -8 27 -17 q15 -8 15 -9 q1 0 -0.5 -1.5 q-1.5 -1.5 -3.5 -4.5 q-2 -3 -5 -6 q-9 -11 -10 -11.5 q-1 -0.5 -9.5 6.5 q-8.5 7 -19.5 18 q-10 9 -19 21 q-8 11 -10 14 l-2 3 l-14 -10 q-15 -10 -28 -18 q-13 -8 -29 -16 q-15 -8 -27 -12 q-11 -5 -19 -7 q-9 -3 -9.5 -2.5 q-0.5 0.5 0.5 4.5 q1 4 9 9 q9 4 18 9 q9 6 20 15 q12 9 24 19 q13 11 27 25 q14 13 25 29 q11 15 14 20 l4 4 l28 0 Z" /><glyph glyph-name="uni5927" unicode="&#x5927;" d="M293 377 q25 0 26 -1 l-20 -50 q-20 -50 -20 -51 q0 -1 83 -1 l83 0 l0 -9 l0 -9 l-83 0 q-82 0 -83 -1 q-1 -1 6 -13 q2 -3 12 -22 q10 -19 17 -31 q22 -41 32 -59 q1 -1 10 -17.5 q9 -16.5 13 -24.5 q12 -22 17 -29 q6 -7 15 -16 q10 -10 23 -22 q13 -11 26 -21 q14 -10 15 -11 l3 -2 l-3 -3 l-4 -4 l-10 4 q-11 4 -25 11 q-15 8 -26 15 q-13 8 -20 14 q-8 6 -18 16 q-10 9 -16 16.5 q-6 7.5 -49.5 80 q-43.5 72.5 -44.5 71.5 q-1 -3 -14 -34 q-10 -25 -27 -69 q-15 -35 -20 -40 q-4 -4 -18 -14 q-12 -10 -26 -18 q-13 -8 -28 -17 q-16 -9 -39 -20 l-23 -12 l-7 2 q-7 1 -7 2 q0 1 8 4 q7 4 19.5 12.5 q12.5 8.5 22.5 16.5 q11 8 22 18 q10 10 22 23 q11 13 16.5 20.5 q5.5 7.5 22.5 53.5 q3 9 9.5 25.5 q6.5 16.5 11 29.5 q4.5 13 7.5 20 q13 36 14 37 q2 6 2 7 q0 1 -79 1 l-78 0 l0 9 l0 9 l82 0 l83 0 l7 21 q9 24 19 49 q3 7 5.5 14.5 q2.5 7.5 4.5 12 q2 4.5 2 5.5 l1 2 l26 -1 Z" /><glyph glyph-name="uni5929" unicode="&#x5929;" d="M272 375 l113 0 l0 -9 l1 -10 l-46 0 l-46 0 l-1 -54 l0 -53 l79 0 l78 0 l0 -10 l0 -9 l-78 0 l-79 0 l0 -27 q0 -27 -1 -35 l0 -7 l7 -12 q8 -11 18 -23 q10 -12 24 -26 q16 -15 29 -26 q14 -10 27 -20 l13 -9 l0 -23 q0 -23 -1 -23 q-2 0 -9 5 q-7 5 -20 14 q-14 11 -23 18 l-21 22 q-12 11 -22 23 q-9 13 -14 21.5 q-5 8.5 -10 19.5 q-4 9 -5 11 q-1 2 -4 -2 q-1 -2 -2 -5 q-6 -10 -11 -18 q-6 -8 -13 -16 q-7 -7 -19 -18 q-12 -10 -27 -20 q-13 -9 -28 -18 q-14 -7 -33 -16 q-20 -10 -31 -14 q-9 -4 -33 -13 q-21 -8 -23 -8 q-1 0 -0.5 3.5 q0.5 3.5 16.5 9.5 q15 6 30 15 q15 7 27 15 q11 6 24 16 q12 9 23 19 q12 10 20 20 q10 10 15 17 q6 8 11 17 q5 8 10 19 q4 10 7 18 q2 7 4 16 q2 8 2 34 l0 26 l-79 0 l-79 0 l1 9 l0 10 l78 0 l79 0 l0 54 l0 53 l-46 0 l-47 0 l0 9 q0 9 1 10 q1 1 114 0 Z" /><glyph glyph-name="uni5931" unicode="&#x5931;" d="M174 387 l22 0 q0 -1 -2 -9 q-2 -8 -5 -16 q-3 -7 -5 -12 q-2 -5 -8 -17 q-6 -12 -8 -15 q-2 -3 -5 -8 l-2 -4 l42 0 l42 0 l0 41 l0 40 l22 0 l21 0 l0 -40 l0 -41 l50 0 l50 0 l-1 -9 l0 -10 l-49 0 l-50 0 l0 -46 l0 -45 l82 -1 l81 0 l0 -9 l0 -9 l-81 -1 q-82 0 -82 -1 q0 -1 -1 -12 l-1 -10 l4 -6 q3 -5 11 -16 q7 -10 16 -21 q8 -10 23 -25 q14 -14 28 -25 q12 -10 24 -19 l12 -8 l0 -23 q0 -24 -1 -24 q-1 0 -14 9 q-13 9 -24.5 18 q-11.5 9 -23.5 21 q-12 12 -21 23 q-9 11 -17 22 q-7 12 -15 27 q-8 17 -8 18 q-1 2 -4 -4 q-1 -1 -2 -3 q-5 -9 -10 -17 q-6 -8 -12 -15 q-6 -9 -16 -18 q-9 -8 -22 -18 q-13 -10 -27 -18.5 q-14 -8.5 -30 -16.5 q-15 -8 -32 -16 q-12 -5 -39 -16 q-24 -10 -25.5 -10 q-1.5 0 -1.5 2.5 q0 2.5 1 3.5 q1 1 6 3.5 q5 2.5 24 11.5 q18 8 31 17 q14 7 25 16 q11 7 19 14 q7 6 17 16 q9 8 18 19 q8 9 16 20 l12 22 q5 10 9 21 q4 11 6 20 q2 10 2 14 l0 4 l-90 0 l-91 0 l0 10 l0 10 l91 0 l90 0 l0 45 l0 46 l-49 0 q-50 0 -51 -2 q-1 -2 -13 -16.5 q-12 -14.5 -34 -37.5 q-23 -23 -24 -23 q-1 0 -1 10 l0 9 l10 14 q11 15 20 29 q9 14 16 28 q6 11 12 24 q6 15 9 24 q5 13 8 24 q3 13 3 14 l1 3 l22 0 Z" /><glyph glyph-name="uni5934" unicode="&#x5934;" d="M274 392 l21 0 l1 -121 l0 -122 l83 0 l84 0 l0 -9 l0 -9 l-83 0 q-84 0 -84 -1.5 q0 -1.5 -2 -12.5 l-2 -11 l6 -2 q9 -5 21 -12 q12 -7 28 -17 q14 -10 26 -19 q12 -9 25 -21 q11 -10 21 -21 q9 -10 15 -19 q7 -9 10 -16 l3 -6 l-26 0 l-26 0 l-9 14 q-9 14 -21 28 q-13 17 -34 38 q-22 21 -32 30 l-11 9 l-3 -9 q-4 -7 -8.5 -16 q-4.5 -9 -12.5 -18 q-8 -11 -17 -19.5 q-9 -8.5 -22 -16.5 q-12 -9 -27 -16 q-14 -6 -31 -12 q-17 -6 -33 -9 q-18 -4 -33 -6 q-15 -2 -22 -3 q-5 0 -6 0.5 q-1 0.5 -1 3 q0 2.5 2.5 3.5 q2.5 1 17.5 4 q19 5 31 9 q11 4 21 8 q10 4 21 10 q12 6 17 9 q7 4 17 12 q10 7 20 17 q10 10 16.5 20 q6.5 10 9.5 18.5 q3 8.5 5 18.5 q2 10 2 20 l-1 10 l-101 0 l-102 1 l0 9 l0 9 l102 0 l101 0 l1 122 l0 121 l22 0 ZM182 297 l56 -1 l0 -9 l0 -9 l-57 0 l-57 0 l0 9 q0 9 1 9 q1 1 57 1 ZM181 215 l57 0 l0 -10 l0 -9 l-57 0 l-57 0 l0 9 l0 10 l57 0 Z" /><glyph glyph-name="uni5956" unicode="&#x5956;" d="M318 379 l25 0 l0 -6 q-1 -6 -4 -16 q-1 -3 -1.5 -6 q-0.5 -3 -1 -4.5 q-0.5 -1.5 -0.5 -2.5 l-1 -3 l33 1 l34 0 l2 5 l2 4 l20 0 q19 -1 19.5 -1 q0.5 0 -5 -13.5 q-5.5 -13.5 -12.5 -26.5 q-8 -13 -15 -23 q-8 -10 -16 -18 q-7 -8 -19 -18 q-12 -10 -22.5 -16.5 q-10.5 -6.5 -23.5 -13.5 q-13 -7 -25 -12 q-17 -7 -19 -7 l-7 -3 l-2 3 q-2 4 1 5 q0 1 2 2 l4 2 l4 2 q7 5 20 14 q13 10 19 15 l5 6 l-3 6 q-4 7 -10 15 q-5 6 -14 16 l-7 8 l-5 -5 q-6 -5 -16 -12 q-11 -7 -21 -12 l-11 -5 l-4 2 l-4 3 q-1 1 5 5 q5 3 12 10 q7 7 12 14 q5 9 9 18 q4 10 7 22 l6 28 q2 15 3 17 q0 1 25 1 ZM359 323 l-34 0 l-4 -5 q-4 -6 -4 -7 q0 -1 3.5 -4.5 q3.5 -3.5 8.5 -10.5 q5 -8 8 -15 q3 -7 4 -17 q0 -9 1 -9 q1 0 12 12 q10 12 14 17 q5 6 11 16 q7 11 10 15 q3 6 3 7 q0 1 -33 1 ZM196 378 l22 -1 l0 -65 q0 -66 -2 -73.5 q-2 -7.5 -5.5 -14.5 q-3.5 -7 -9.5 -13.5 q-6 -6.5 -13 -9.5 q-8 -3 -11 -4 l-3 0 l0 89 q-1 89 -0.5 90.5 q0.5 1.5 22.5 1.5 ZM93 372 l26 0 l1 -4 q1 -4 6 -19 q4 -13 9 -22 q4 -8 9 -15 l4 -6 q0 -1 -7.5 -1 q-7.5 0 -14.5 2 q-5 2 -12 5 q-6 3 -13 8 q-6 4 -12 11 q-7 7 -11 13 q-4 7 -7 14 q-2 7 -3 11 l-1 3 l26 0 ZM121 293 q3 0 22 -1 l18 -1 l-1 -4 q0 -4 -4 -14 q-3 -11 -6 -16 q-4 -7 -7 -11 q-3 -5 -8 -12 q-5 -6 -12 -11 q-7 -5 -13.5 -8.5 q-6.5 -3.5 -14 -3.5 q-7.5 0 -7.5 1.5 q0 1.5 3.5 6.5 q3.5 5 6.5 12 q3 6 6 16 q3 9 8 27 q5 18 5 19 q0 1 4 0 ZM245 190 l23 0 l-1 -23 l-1 -23 l80 0 l79 0 l0 -9 l0 -9 l-80 0 l-80 0 l-2 -5 q-1 -5 -4 -14 q-4 -9 -8 -16 q-4 -7 -11 -17 q-7 -10 -15.5 -18 q-8.5 -8 -20.5 -17 q-11 -9 -24 -16 q-13 -7 -29 -15 q-17 -7 -34 -13 q-20 -6 -34 -9 q-15 -4 -16 -3 q-1 1 -2 5 l0 3 l8 3 q9 2 21 7 q10 4 25 12 q13 7 24 14 q12 8 18 13 q7 5 14 13 q7 6 12 13 q5 5 11 14 q6 10 8 15 q4 8 7 17 q4 10 4 12 q0 2 -76 2 l-76 0 l0 9 l0 9 l77 0 l78 0 l1 6 l0 22 q0 16 1 17 q1 1 23 1 ZM271 102 q3 0 6 -3 q3 -3 13 -12 l20 -16 q10 -7 21 -15 q13 -8 29 -16 q17 -8 27 -11 l18 -6 q2 0 5.5 -0.5 q3.5 -0.5 4.5 -0.5 q2 -1 2 -22 q0 -20 -2 -20 q0 1 -2 1.5 q-2 0.5 -5.5 1 q-3.5 0.5 -6.5 1.5 q-12 3 -24 7 q-12 4 -24 10 q-12 6 -22.5 13 q-10.5 7 -17.5 13 q-7 6 -15 15 q-8 9 -14 18 q-7 10 -12 21 q-5 10 -7 15 q-1 5 0 5 q2 1 6 1 Z" /><glyph glyph-name="uni5957" unicode="&#x5957;" d="M278 387 l29 0 l-3 -4 q-2 -4 -15 -24 q-13 -20 -13 -21 q0 -1 89 -1 l89 -1 l0 -9 l0 -9 l-43 0 l-43 0 l5 -12 q5 -11 9.5 -17.5 q4.5 -6.5 9.5 -12.5 q5 -7 12 -14 q5 -5 14 -13 q9 -7 18 -13 q9 -6 14 -8 q5 -3 5 -8 l0 -5 l-4 0 q-4 1 -15 5 q-12 4 -23 10 q-11 5 -17 9 l-5 3 l-1 -4 l-1 -4 l-92 -1 l-92 0 l0 -16 l0 -16 l92 0 l92 0 l1 -10 l0 -9 l-92 0 l-93 0 l0 -18 l0 -17 l87 0 l88 0 l0 -10 l0 -10 l-88 0 l-87 0 l0 -16 l0 -15 l-6 -1 q-7 0 -11.5 3 q-4.5 3 -8.5 8 q-5 6 -8 12.5 q-3 6.5 -6 15.5 q-2 8 -3 61 l-1 53 l-15 -9 q-16 -9 -33 -17 q-19 -9 -35 -16 l-18 -7 l-2 5 l-1 4 l15 8 q13 7 29 17 q15 9 33 21 q15 10 32 23 q14 10 28 25 l15 15 l-64 1 l-65 0 l0 9 l0 9 l72 1 l72 1 l13 24 l13 25 l28 0 ZM297 317 l-38 0 l-8 -7 q-6 -5 -24 -18 q-14 -11 -28 -21 l-12 -8 l9 0 l9 -1 l0 -5 l0 -4 l85 0 q85 0 85 0.5 q0 0.5 -6 6.5 q-6 5 -13 14 q-7 8 -16 23 q-9 16 -9 17 q0 1 2 2 l-36 1 ZM268 90 l186 0 l0 -9 l0 -9 l-187 0 l-187 0 l0 8 q0 7 0.5 9 q0.5 2 187.5 1 ZM349 60 q0 3 1.5 3 q1.5 0 9.5 -5 q9 -6 17 -15 q9 -9 14 -17 q6 -8 12 -20 q6 -12 9 -20 q3 -8 1.5 -8.5 q-1.5 -0.5 -20.5 -3.5 q-19 -2 -20.5 -2 q-1.5 0 -2 14 q-0.5 14 -1.5 15.5 q-1 1.5 -21 -1.5 q-4 0 -19 -1.5 q-15 -1.5 -38.5 -4.5 q-23.5 -3 -41.5 -5 q-79 -9 -88 -11 q-9 -3 -15.5 -3 q-6.5 0 -6.5 1 q0 1 3 5.5 q3 4.5 3 10.5 q0 3 0.5 4 q0.5 1 2.5 1 q3 1 8 9 q5 9 16 28 l11 19 l21 0 l22 0 l-3 -5 q-2 -4 -14 -25 l-7 -14 l-3 -6 l82 8 q81 9 83 9 q1 1 -2 9 q-2 6 -8 17 q-5 11 -5 14 Z" /><glyph glyph-name="uni597D" unicode="&#x597d;" d="M156 385 q20 -2 20 -3 q1 -1 -10 -42 q-11 -42 -11 -43 q0 -1 40 -1 l40 0 l-1 -11 q0 -12 -3 -28 q-3 -15 -7 -31 q-5 -18 -10 -34 q-6 -17 -12 -30 q-5 -12 -13 -28 l-8 -16 l9 -6 q8 -6 17 -15 q9 -9 15 -18 q6 -9 10.5 -17.5 q4.5 -8.5 4.5 -10.5 q0 -2 -6 -6 q-7 -4 -15 -12 q-7 -8 -9 -11.5 q-2 -3.5 -3 -3.5 q-1 0 -3 6 q-2 7 -6 15 q-5 10 -11 19 q-7 10 -14 18 q-7 9 -9 9 q-1 0 -8 -10 q-6 -8 -17 -21 q-10 -12 -23 -25 q-15 -15 -27 -25 q-12 -10 -27 -22 l-15 -10 l0 4 q-1 5 7 13 q8 7 21 22.5 q13 15.5 23 27.5 q9 12 16 23 q7 11 17 27 q9 16 8.5 17 q-0.5 1 -9.5 8 q-10 6 -28 15 q-17 9 -24 11 q-6 2 -6 3 q-1 0 1 2 q2 2 19 66 q17 64 17 65 q0 1 -21 1 l-22 0 l0 10 l0 9 l24 0 q25 0 25 0.5 q0 0.5 11 43.5 q11 43 13 46 l1 2 l19 -3 ZM171 276 l-22 0 l-1 -5 q-2 -7 -9 -34 q-10 -37 -16 -59 q-8 -30 -8 -31.5 q0 -1.5 1.5 -1.5 q1.5 0 16.5 -5 l16 -5 q2 -1 3.5 1.5 q1.5 2.5 4.5 10.5 q5 12 12 31 q5 17 10 33 q5 16 8 35 q4 18 5 25 l1 5 l-22 0 ZM346 356 q100 0 101 -0.5 q1 -0.5 -7 -9.5 q-8 -10 -36 -47 l-29 -38 l0 -36 l0 -36 l46 0 l47 0 l0 -9 l0 -10 l-47 0 l-46 0 l0 -70 l0 -72 l-3 -6 q-3 -7 -9 -13 q-7 -8 -13 -11 q-6 -5 -17 -9 q-10 -4 -25 -7 q-14 -3 -19 -3 q-4 0 -4 2 q0 2 9 7 q9 5 17 12 q8 7 11 14 q4 6 6 13 q2 7 2 75 l0 68 l-52 0 l-52 0 l0 10 l0 9 l52 0 l52 0 l0 36 l0 36 l29 38 l30 37 l-72 1 l-72 0 l0 10 l0 9 l101 0 Z" /><glyph glyph-name="uni5982" unicode="&#x5982;" d="M149 390 q1 2 21 2 q20 0 20 -1 q0 -1 -9 -46 q-9 -45 -9 -47 q0 -2 50 -2 q25 -1 37.5 -1 q12.5 0 12.5 -1 q-1 -6 -10 -44 q-10 -42 -22 -93.5 q-12 -51.5 -13 -54.5 q-1 -3 2 -5 q8 -6 14 -11 q12 -8 21 -18 q10 -10 17 -19 q6 -9 6 -10 l-19 -16 q-19 -16 -20 -16 q0 2 -2 7 q-2 5 -9 14 q-5 9 -13 18 q-8 10 -11 12 q-3 4 -5 1 q-4 -5 -9 -12 q-6 -10 -22 -25 q-14 -15 -25 -22.5 q-11 -7.5 -20 -11.5 q-9 -5 -21 -9 q-11 -4 -24 -7 q-12 -3 -18 -4 q-4 0 -5 1 l0 1 l0 1 q1 2 10 5 q8 4 19 10 q11 7 17 11 q6 5 20 18 q13 13 20 23 q6 9 11 17 q5 8 10 20 q5 12 4 13 q-1 1 -16 9 q-14 7 -23 10 q-9 3 -18 5 q-8 2 -17 3 q-4 1 -5.5 1.5 q-1.5 0.5 -1.5 1.5 q0 1 16 78 q2 12 4.5 24 q2.5 12 4.5 21.5 q2 9.5 3.5 17 q1.5 7.5 2.5 11.5 q1 4 1 5 q0 1 -4 1 l-18 0 l-23 0 l0 10 l1 9 l24 1 q24 0 24 2 q1 1 10 45.5 q9 44.5 9 46.5 ZM195 276 l-27 0 l-1 -2 q-1 -5 -14 -71 l-15 -71 q0 -1 2 -2 q2 -1 11 -3 q13 -2 23.5 -5.5 q10.5 -3.5 11.5 -3.5 q0 1 9 40 q8 34 18 77 q8 37 9 40 l-5 1 l-22 0 ZM323 314 q21 0 22 -2 l0 -3 l29 0 l29 -1 l0 3 l0 3 l21 0 l22 0 l0 -122 q0 -123 -2 -131 q-1 -8 -4 -15 q-4 -7 -10 -12 q-6 -6 -11 -8 q-5 -2 -11 -2 l-5 0 l-1 9 l0 9 l-32 1 l-31 0 l-7 -7 q-8 -8 -13.5 -10 q-5.5 -2 -11.5 -1 l-5 0 l-1 145 l0 144 l22 0 ZM373 289 l-29 0 l0 -114 l0 -114 l29 0 l29 1 l0 113 l1 114 l-30 0 Z" /></font>
</defs>
</svg>
